<svg width="693" height="410" viewBox="0 0 693 410" fill="none" xmlns="http://www.w3.org/2000/svg">
<path d="M539.221 1H166.954C160.096 1 154.536 6.57764 154.536 13.458V239.809C154.536 246.689 160.096 252.267 166.954 252.267H539.221C546.08 252.267 551.639 246.689 551.639 239.809V13.458C551.639 6.57764 546.08 1 539.221 1Z" stroke="#DDDDDD" stroke-width="1.81" stroke-linecap="round" stroke-linejoin="round"/>
<path d="M527.452 12.716H178.733C171.875 12.716 166.315 18.2937 166.315 25.174V228.075C166.315 234.955 171.875 240.533 178.733 240.533H527.452C534.31 240.533 539.87 234.955 539.87 228.075V25.174C539.87 18.2937 534.31 12.716 527.452 12.716Z" stroke="#DDDDDD" stroke-width="1.81" stroke-linecap="round" stroke-linejoin="round"/>
<path d="M166.781 178.142C153.66 179.727 152.044 171.089 147.268 158.805C142.493 146.521 143.333 134.988 140.091 116.099C136.302 94.1145 162.919 93.6198 168.397 124.444C168.625 125.69 168.872 127.137 169.137 128.722C169.913 133.183 170.89 138.798 172.296 144.368C172.652 145.769 173.036 147.171 173.437 148.554C176.085 157.431 179.93 176.548 166.781 178.142Z" fill="#B25E47"/>
<path d="M172.333 144.368C154.673 149.864 152.053 135.373 152.245 129.446L169.155 128.722C169.949 133.156 170.926 138.771 172.333 144.368Z" fill="#914839"/>
<path d="M235.838 236.026C235.153 236.682 234.427 237.293 233.665 237.858C233.09 238.316 232.396 238.838 231.592 239.379L230.907 239.846L230.122 240.35C229.017 241.046 227.766 241.779 226.36 242.493C225.703 242.832 225.009 243.18 224.278 243.501C223.904 243.675 223.521 243.849 223.119 244.014L221.923 244.508C221.548 244.655 221.174 244.802 220.781 244.939C220.389 245.076 219.868 245.287 219.339 245.452C218.809 245.617 218.425 245.754 217.969 245.892C217.512 246.029 217.056 246.176 216.554 246.304L215.275 246.643L214.928 246.725L213.613 247.018C212.563 247.256 211.486 247.449 210.363 247.614C209.906 247.696 209.45 247.76 208.966 247.815C208.792 247.815 208.619 247.861 208.436 247.87C207.952 247.934 207.468 247.98 206.975 248.026V248.118C207.231 250.646 210.007 298.499 210.719 311.076L210.783 312.194C210.783 312.45 210.783 312.679 210.783 312.881C175.702 311.965 140.749 311.626 107.074 311.718C106.38 299.131 105.129 275.873 103.915 252.176C102.226 218.969 100.618 184.948 100.801 178.334V178.234C101.185 165.501 99.404 155.965 110.242 151.76C114.023 150.295 119.373 149.47 126.824 149.397H128.258H129.837H131.499C132.065 149.397 132.595 149.397 133.106 149.342H134.229L135.298 149.287H136.211L137.69 149.205L138.731 149.131C139.279 149.131 139.772 149.058 140.228 149.021H140.511L141.032 148.976L141.771 148.893H142.027C142.529 148.829 142.94 148.765 143.242 148.71C143.543 148.655 143.68 148.628 143.844 148.591C144.021 148.558 144.193 148.502 144.356 148.426V148.426C146.748 155.058 153.413 167.186 164.59 165.657C175.766 164.127 174.825 151.632 172.607 146.163L172.817 146.347L173.136 146.603L173.839 147.116C173.94 147.189 174.049 147.272 174.168 147.345L174.542 147.592L174.908 147.821L175.41 148.124C175.839 148.362 176.323 148.591 176.77 148.792L177.245 148.985C177.565 149.095 177.884 149.177 178.158 149.25C178.498 149.319 178.844 149.353 179.19 149.351C179.299 149.361 179.409 149.361 179.519 149.351C179.637 149.351 179.747 149.351 179.857 149.296C181.601 148.857 186.504 147.995 193.215 150.634C197.497 152.328 202.519 155.452 207.934 161.04C211.44 164.894 214.408 169.208 216.755 173.864C226.406 191.681 233.574 218.814 235.838 236.026Z" fill="#A7CAF0"/>
<path d="M216.818 173.708C210.949 172.87 204.968 174.004 199.808 176.933C195.754 179.403 192.563 183.074 190.677 187.44C181.254 208.289 156.564 216.121 140.064 193.046C137.771 189.777 135.115 186.781 132.148 184.114C123.281 176.31 112.973 174.157 100.737 178.426V178.325C101.121 165.592 99.3402 156.056 110.179 151.852C113.959 150.386 119.309 149.562 126.76 149.489C142.557 149.324 144.319 148.307 144.319 148.307C146.711 154.939 153.377 167.067 164.553 165.537C175.729 164.008 174.789 151.513 172.57 146.044C172.817 146.255 177.136 149.855 179.875 149.168C181.619 148.728 186.522 147.867 193.233 150.505C197.516 152.2 202.538 155.324 207.952 160.911C211.472 164.754 214.455 169.059 216.818 173.708Z" fill="#A7CAF0"/>
<path d="M232.834 313.614C225.475 313.376 218.118 313.162 210.765 312.972V312.285L210.701 311.168L206.957 248.209V248.118L232.834 230.438C233.181 232.747 233.473 235.256 233.747 237.913C236.085 265.064 233.236 307.751 232.834 313.614Z" fill="#B25E47"/>
<path d="M235.838 236.026C235.838 236.026 225.511 246.478 206.921 248.099C205.898 218.026 203.022 194.218 199.826 176.933C197.625 164.979 195.261 156.13 193.297 150.505C197.58 152.2 202.602 155.324 208.016 160.911C211.522 164.765 214.49 169.08 216.837 173.736C226.406 191.681 233.574 218.814 235.838 236.026Z" fill="#FED81D"/>
<path d="M216.819 173.708C210.949 172.87 204.968 174.004 199.808 176.933C197.607 164.979 195.242 156.13 193.279 150.505C197.561 152.2 202.583 155.324 207.998 160.911C211.502 164.757 214.469 169.062 216.819 173.708Z" fill="#FED81D"/>
<path d="M206.902 248.099C205.88 218.026 203.003 194.218 199.807 176.933" stroke="#FCC71F" stroke-width="0.68" stroke-linecap="round" stroke-linejoin="round"/>
<path d="M143.789 145.009C138.311 147.171 138.311 149.589 138.311 152.218C138.311 154.847 143.223 169.192 152.829 179.379C154.701 181.366 157.486 169.101 160.234 168.386C162.983 167.672 165.448 168.936 166.726 168.753C168.005 168.569 171.392 165.198 173.593 166.728C175.793 168.258 180.45 175.889 181.363 176.09C182.276 176.292 182.368 158.017 180.267 151.595C179.717 149.781 178.684 148.151 177.279 146.881C175.875 145.611 174.152 144.748 172.296 144.386C172.296 144.386 173.812 157.65 169.383 161.589C160.179 169.797 150.711 159.455 143.789 145.009Z" fill="white"/>
<path d="M141.187 108.67C137.982 107.479 133.07 110.502 133.736 115.513C134.403 120.524 141.79 122.163 145.442 119.26C143.613 115.91 142.185 112.356 141.187 108.67V108.67Z" fill="#B25E47"/>
<path d="M136.256 115.843C135.982 113.69 138.576 110.292 142.648 113.516" stroke="#914839" stroke-width="0.68" stroke-linecap="round" stroke-linejoin="round"/>
<path d="M141.004 117.253C136.759 117.144 138.01 112.554 141.845 112.957" stroke="#914839" stroke-width="0.68" stroke-linecap="round" stroke-linejoin="round"/>
<path d="M174.378 113.8L172.077 114.469L149.533 121.009C149.533 121.009 148.93 120.423 148.017 119.406C145.039 116.118 142.668 112.324 141.014 108.203C140.517 106.872 140.171 105.489 139.982 104.081C138.868 95.3144 147.953 78.89 163.074 86.4747C167.959 91.1465 170.735 99.4457 171.447 101.882L171.684 102.707C172.552 105.959 174.378 113.8 174.378 113.8Z" fill="#B25E47"/>
<path d="M158.225 110.695C158.225 113.034 157.299 115.278 155.65 116.932C154.001 118.587 151.764 119.516 149.432 119.516C148.946 119.517 148.461 119.48 147.98 119.406V119.406C145.003 116.118 142.631 112.324 140.977 108.203C141.573 106.164 142.883 104.409 144.664 103.261C146.446 102.112 148.581 101.646 150.678 101.949C152.774 102.252 154.691 103.303 156.078 104.909C157.464 106.516 158.227 108.57 158.225 110.695V110.695Z" fill="#914839"/>
<path d="M174.378 113.8L172.077 114.469C171.123 113.83 170.334 112.972 169.776 111.966C169.218 110.96 168.906 109.835 168.868 108.684C168.83 107.534 169.065 106.391 169.555 105.349C170.045 104.308 170.775 103.399 171.684 102.698C172.552 105.959 174.378 113.8 174.378 113.8Z" fill="#914839"/>
<path d="M157.86 101.855C157.858 102.088 157.926 102.316 158.053 102.51C158.181 102.704 158.363 102.856 158.577 102.946C158.791 103.035 159.027 103.059 159.255 103.014C159.482 102.97 159.691 102.858 159.855 102.693C160.019 102.529 160.131 102.319 160.176 102.091C160.22 101.862 160.196 101.626 160.107 101.411C160.017 101.197 159.866 101.013 159.673 100.885C159.479 100.757 159.252 100.69 159.02 100.692C158.867 100.692 158.717 100.722 158.576 100.78C158.435 100.839 158.307 100.924 158.2 101.032C158.092 101.14 158.007 101.269 157.948 101.41C157.89 101.551 157.86 101.702 157.86 101.855V101.855Z" fill="#683F1D"/>
<path d="M166.279 100.692C166.279 100.924 166.348 101.151 166.476 101.344C166.605 101.537 166.788 101.687 167.002 101.776C167.217 101.864 167.452 101.887 167.679 101.841C167.906 101.795 168.114 101.682 168.277 101.517C168.44 101.352 168.551 101.143 168.595 100.915C168.639 100.687 168.615 100.451 168.525 100.236C168.435 100.022 168.284 99.8399 168.09 99.7122C167.897 99.5844 167.67 99.5172 167.438 99.519C167.285 99.519 167.134 99.5494 166.993 99.6084C166.851 99.6675 166.723 99.754 166.615 99.863C166.507 99.972 166.422 100.101 166.364 100.244C166.307 100.386 166.278 100.538 166.279 100.692V100.692Z" fill="#683F1D"/>
<path d="M176.286 127.962C171.365 140.621 159.111 136.948 153.642 133.394C148.172 129.84 145.424 120.716 141.552 114.478C136.485 106.353 136.649 98.374 139.343 92.4931C141.029 88.513 144.202 85.3533 148.181 83.69C156.746 80.5481 163.083 86.4381 163.083 86.4381C162.909 91.9343 152.436 90.4687 150.455 89.8732C145.57 88.4351 143.588 93.6748 143.013 97.8152C142.337 102.624 143.068 107.626 145.689 111.299C148.309 114.972 150.254 115.879 151.678 114.047C153.103 112.215 155.815 110.136 162.736 109.018C169.657 107.901 172.835 111.217 172.835 111.217C172.835 109.971 171.52 102.368 171.447 101.901C173.958 106.355 175.777 111.168 176.843 116.172C177.601 120.102 177.702 124.289 176.286 127.962Z" fill="#FFEACC"/>
<path d="M176.286 127.962C171.365 140.621 159.111 136.948 153.642 133.394C148.172 129.84 145.424 120.716 141.552 114.478C136.485 106.353 136.649 98.374 139.343 92.4931C139.16 108.148 150.017 125.47 156.691 128.658C162.955 131.663 174.241 130.664 176.825 116.182C177.601 120.102 177.702 124.289 176.286 127.962Z" fill="#EDD6B7"/>
<path d="M159.02 112.673C161.823 112.844 164.635 112.844 167.438 112.673C167.438 112.673 166.315 116.402 162.873 116.081C161.942 116.032 161.055 115.668 160.355 115.05C159.656 114.431 159.185 113.594 159.02 112.673V112.673Z" fill="white" stroke="#914839" stroke-width="0.68" stroke-linecap="round" stroke-linejoin="round"/>
<path d="M157.851 93.3542C158.417 95.5984 152.783 99.5648 151.377 97.9343C149.971 96.3038 156.993 89.9832 157.851 93.3542Z" fill="#FFEACC"/>
<path d="M162.91 92.374C162.736 93.9862 169.511 95.3419 169.602 94.1236C169.694 92.9053 163.229 89.461 162.91 92.374Z" fill="#FFEACC"/>
<path d="M161.768 95.0305C161.111 97.3481 160.691 100.362 162.909 101.443C165.128 102.524 168.132 102.102 168.434 106.518" stroke="#914839" stroke-width="0.68" stroke-linecap="round" stroke-linejoin="round"/>
<path d="M80.6126 246.111C79.3434 260.594 79.3069 290.905 94.309 298.6C119.026 311.269 124.258 278.511 123.172 246.111H80.6126Z" fill="#B25E47"/>
<path d="M132.394 195.446C131.928 214.6 123.692 251.424 123.692 251.424C116.031 252.056 109.485 252.34 103.887 252.34C80.3113 252.34 73.7552 247.687 73.7552 247.687C73.7552 247.687 78.5307 210.771 85.2785 186.569C85.9541 184.124 86.6572 181.806 87.3694 179.672C93.5876 161.177 101.44 153.501 110.197 151.925C112.503 151.526 114.858 151.498 117.173 151.843C126.87 153.162 131.134 168.331 132.166 184.188C132.421 187.898 132.485 191.727 132.394 195.446Z" fill="#FED81D"/>
<path d="M132.184 184.114C123.318 176.31 113.009 174.157 100.774 178.426C95.2716 180.428 90.0535 183.141 85.251 186.496C85.9267 184.05 86.6297 181.733 87.342 179.598C93.5601 161.104 101.413 153.427 110.169 151.852C112.475 151.453 114.83 151.425 117.145 151.769C126.888 153.088 131.152 168.24 132.184 184.114Z" fill="#FED81D"/>
<path d="M132.394 195.446C131.928 214.6 123.692 251.424 123.692 251.424" stroke="#FCC71F" stroke-width="0.68" stroke-linecap="round" stroke-linejoin="round"/>
<path d="M220.078 214.682C220.078 214.682 222.817 216.698 219.905 222.212C219.905 222.212 222.945 225.024 218.873 229.742C219.427 230.831 219.575 232.083 219.291 233.272C219.006 234.461 218.307 235.509 217.321 236.227C213.207 239.838 208.837 243.145 204.245 246.121C202.108 247.44 199.168 249.372 194.53 252.67C192.704 253.971 190.585 255.491 188.138 257.25C182.66 261.253 175.519 266.575 166.114 273.739C127.993 302.74 105.229 306.716 91.9896 297.162C81.4708 289.577 94.7289 255.372 135.334 241.687C156.235 234.633 169.064 230.942 176.916 228.725C180.103 227.809 182.477 227.168 184.221 226.637C186.54 225.922 187.791 225.427 188.476 224.85C190.923 222.743 192.055 220.27 193.242 217.302C194.429 214.334 197.223 203.214 197.917 200.172C198.611 197.131 203.862 195.372 202.985 212.566C202.985 212.566 218.005 207.656 220.726 206.951C223.447 206.246 224.525 212.227 220.078 214.682Z" fill="#B25E47"/>
<path d="M194.53 252.67C192.704 253.971 190.585 255.491 188.138 257.25C184.705 253.156 177.4 242.832 176.934 228.734C180.121 227.818 182.495 227.177 184.239 226.646C184.705 233.763 188.869 246.258 194.53 252.67Z" fill="#683F1D"/>
<path d="M183.144 248.099C186.961 248.099 190.056 244.995 190.056 241.165C190.056 237.335 186.961 234.23 183.144 234.23C179.326 234.23 176.231 237.335 176.231 241.165C176.231 244.995 179.326 248.099 183.144 248.099Z" fill="white" stroke="#683F1D" stroke-width="0.9" stroke-linecap="round" stroke-linejoin="round"/>
<path d="M193.279 217.311C194.457 214.334 197.26 203.223 197.954 200.181C198.648 197.14 203.898 195.381 203.021 212.575C203.021 212.575 218.042 207.665 220.763 206.96C223.484 206.255 224.525 212.227 220.078 214.682C220.078 214.682 222.817 216.697 219.904 222.212C219.904 222.212 222.945 225.024 218.873 229.742C219.427 230.831 219.575 232.083 219.291 233.272C219.006 234.461 218.307 235.509 217.32 236.227" stroke="#914839" stroke-width="0.68" stroke-linecap="round" stroke-linejoin="round"/>
<path d="M220.078 214.682C217.339 215.946 211.769 218.246 211.769 218.246" stroke="#914839" stroke-width="0.68" stroke-linecap="round" stroke-linejoin="round"/>
<path d="M219.905 222.212C218.243 223.302 214.362 225.253 214.362 225.253" stroke="#914839" stroke-width="0.68" stroke-linecap="round" stroke-linejoin="round"/>
<path d="M218.873 229.742C218.078 230.204 217.247 230.602 216.389 230.933" stroke="#914839" stroke-width="0.68" stroke-linecap="round" stroke-linejoin="round"/>
<path d="M203.022 212.576C200.474 213.327 198.456 214.087 198.456 214.087" stroke="#914839" stroke-width="0.68" stroke-linecap="round" stroke-linejoin="round"/>
<path d="M381.987 179.699C381.882 181.596 381.678 183.485 381.376 185.36C379.011 200.795 370.51 222.972 361.077 236.52C359.189 239.313 357.01 241.895 354.576 244.224C347.162 251.067 335.356 252.359 327.11 247.568C324.621 246.128 322.501 244.128 320.916 241.724C319.331 239.32 318.326 236.579 317.98 233.717C317.62 231.238 317.593 228.721 317.897 226.233C319.477 212.209 329.001 188.172 340.496 170.832C341.802 168.835 343.153 166.92 344.514 165.134C351.006 156.597 357.882 150.643 364.164 150.001C365.462 149.849 366.777 149.951 368.035 150.304C378.444 153.308 382.928 161.479 381.987 179.699Z" fill="#FED81D"/>
<path d="M362.94 188.117C359.785 199.004 358.519 210.354 359.196 221.672C359.56 226.666 360.188 231.638 361.077 236.566C359.189 239.359 357.01 241.941 354.576 244.27C347.162 251.113 335.356 252.404 327.11 247.614C324.621 246.174 322.5 244.173 320.916 241.769C319.331 239.365 318.326 236.624 317.979 233.763C325.284 241.623 332.954 243.317 338.981 241.33C347.728 238.508 353.216 228.075 349.846 217.403C343.92 198.643 357.288 187.916 363.671 184.792C363.506 185.837 363.251 186.945 362.94 188.117Z" fill="#FCC71F"/>
<path d="M381.987 179.699C381.882 181.596 381.678 183.485 381.375 185.36C380.282 183.733 379.381 181.984 378.691 180.148C375.459 171.491 369.633 166.618 363.168 164.502C357.06 162.601 350.49 162.824 344.523 165.134C351.015 156.597 357.891 150.643 364.173 150.001C365.471 149.849 366.786 149.951 368.044 150.304C378.444 153.308 382.928 161.479 381.987 179.699Z" fill="#FED81D"/>
<path d="M454.925 332.392C430.563 328.261 406.248 324.954 382.964 322.728C376.097 322.081 369.161 321.47 362.155 320.896C363.469 304.985 366.428 278.869 371.87 272.521C372.158 272.119 372.529 271.784 372.957 271.539C373.386 271.294 373.862 271.144 374.353 271.101C377.44 271.046 385.164 270.789 394.35 270.45C414.739 269.681 442.324 268.536 442.324 268.536C442.717 270.075 443.109 271.604 443.493 273.116C443.493 273.18 443.493 273.253 443.557 273.327C448.386 292.799 452.181 312.516 454.925 332.392Z" fill="#83ADDF"/>
<path d="M432.545 276.404C435.403 282.817 443.045 290.337 445.63 292.05" stroke="white" stroke-width="0.9" stroke-miterlimit="10"/>
<path d="M406.787 164.823C395.026 166.261 392.488 156.808 392.415 143.296C392.415 140.117 392.524 136.71 392.698 133.156C392.792 131.071 393.015 128.993 393.364 126.936C397.373 103.916 416.365 106.701 417.342 120.267C417.716 125.415 421.332 163.046 406.787 164.823Z" fill="#B25E47"/>
<path d="M406.513 129.107C405.883 138.194 399.372 142.847 392.424 143.296C392.424 140.117 392.533 136.71 392.707 133.156C392.801 131.071 393.024 128.993 393.373 126.936C397.199 125.296 407.006 121.779 406.513 129.107Z" fill="#914839"/>
<path d="M452.067 218.621C451.446 220.698 450.955 222.812 450.597 224.951C450.496 225.537 450.405 226.124 450.314 226.701C446.707 249.244 446.26 270.157 446.013 272.328C445.766 274.499 425.642 273.748 410.667 273.015C404.833 272.722 397.29 272.804 390.177 272.859C379.038 272.942 368.948 272.969 368.099 271.385C367.56 270.359 366.118 264.359 364.547 256.655C364.3 255.455 364.054 254.227 363.798 252.991C363.67 252.368 363.552 251.727 363.433 251.085C363.314 250.444 363.15 249.611 363.013 248.878C362.876 248.145 362.712 247.302 362.566 246.505C362.246 244.746 361.926 242.969 361.653 241.201C361.379 239.433 361.068 237.702 360.803 235.998C359.96 231.062 359.381 226.084 359.068 221.085C358.51 209.76 359.897 198.422 363.168 187.568C363.25 187.284 363.333 187.009 363.397 186.734C363.524 186.258 363.643 185.818 363.753 185.314L363.917 184.572C363.972 184.325 364.017 184.078 364.063 183.83C364.109 183.583 364.164 183.336 364.2 183.098C364.237 182.859 364.282 182.603 364.319 182.356C364.401 181.879 364.465 181.394 364.529 180.927C364.657 179.754 364.757 178.6 364.803 177.473C364.803 177.317 364.803 177.162 364.803 177.015C364.803 176.218 364.803 175.43 364.803 174.652C364.719 171.075 364.319 167.513 363.607 164.008C362.456 158.026 360.913 153.528 361.296 151.458C361.479 150.441 362.529 149.827 364.374 149.562C364.501 149.562 364.638 149.562 364.757 149.516C369.322 148.985 378.033 150.276 389.922 152.74C390.163 150.064 390.587 147.407 391.191 144.789C391.308 144.381 391.558 144.023 391.9 143.773C392.242 143.523 392.658 143.393 393.081 143.406C394.378 143.287 396.131 143.763 397.811 143.919C400.669 144.185 410.393 142.408 415.397 139.76C416.402 139.171 417.513 138.785 418.666 138.624C421.067 138.395 421.898 140.291 422.209 142.884C422.209 142.994 422.209 143.113 422.209 143.223C422.209 143.333 422.209 143.461 422.209 143.589C422.209 143.717 422.209 144.066 422.264 144.313C422.318 144.56 422.264 144.679 422.309 144.872C422.355 145.064 422.309 145.375 422.355 145.632C422.4 145.888 422.355 146.246 422.355 146.548C422.355 146.85 422.355 147.134 422.355 147.464C422.355 147.611 422.355 147.766 422.355 147.922C422.355 148.078 422.355 148.179 422.355 148.307C422.355 148.435 422.355 148.655 422.355 148.829C422.355 149.003 422.355 149.269 422.355 149.479C422.355 149.69 422.355 149.91 422.355 150.12V150.533C422.355 152.365 422.355 153.83 422.355 153.83C431.394 150.395 445.018 146.887 455.345 153.253H455.4C458.761 155.389 461.54 158.329 463.49 161.809C464.001 162.676 464.485 163.592 464.941 164.557C473.652 182.942 457.947 198.578 452.067 218.621Z" fill="#FED81D"/>
<path d="M463.7 161.772C454.98 162.844 445.219 168.524 436.06 179.443C434.636 181.14 433.23 182.972 431.842 184.939C417.114 205.614 391.465 200.136 381.622 185.058C380.544 183.424 379.661 181.668 378.992 179.827C375.842 171.134 370.071 166.197 363.634 164.017C362.483 158.035 360.94 153.537 361.324 151.467C361.506 150.45 362.556 149.837 364.401 149.571C364.529 149.571 364.666 149.571 364.784 149.525C369.35 148.994 378.061 150.285 389.949 152.75C390.19 150.073 390.614 147.416 391.218 144.798C391.336 144.39 391.585 144.033 391.927 143.782C392.27 143.532 392.685 143.403 393.109 143.415C394.405 143.296 396.158 143.772 397.838 143.928C400.696 144.194 410.421 142.417 415.424 139.769C416.43 139.18 417.54 138.794 418.693 138.633C421.095 138.404 421.926 140.301 422.236 142.893C422.236 143.003 422.236 143.122 422.236 143.232C422.236 143.342 422.236 143.47 422.236 143.598C422.236 143.727 422.236 144.075 422.291 144.322C422.346 144.569 422.291 144.688 422.337 144.881C422.382 145.073 422.337 145.385 422.382 145.641C422.428 145.898 422.382 146.255 422.382 146.557C422.382 146.859 422.382 147.143 422.382 147.473C422.382 147.62 422.382 147.775 422.382 147.931C422.382 148.087 422.382 148.188 422.382 148.316C422.382 148.444 422.382 148.664 422.382 148.838C422.382 149.012 422.382 149.278 422.382 149.488C422.382 149.699 422.382 149.919 422.382 150.13V150.542C422.382 152.374 422.382 153.84 422.382 153.84C431.422 150.404 445.045 146.896 455.372 153.263H455.427C458.849 155.362 461.693 158.288 463.7 161.772V161.772Z" fill="#FED81D"/>
<path d="M364.492 177.015C364.463 179.61 364.207 182.197 363.725 184.746C363.506 185.837 363.25 186.945 362.94 188.072C359.785 198.959 358.518 210.309 359.196 221.626C359.56 226.621 360.188 231.593 361.077 236.521C361.36 238.215 361.671 239.956 361.99 241.714C362.958 246.991 364.045 252.405 365.077 257.168C366.729 264.844 368.236 270.835 368.784 271.824" stroke="#FCC71F" stroke-width="0.68" stroke-linecap="round" stroke-linejoin="round"/>
<path d="M450.524 226.307C447.154 248.896 446.926 269.8 446.698 271.971C446.47 274.142 426.345 273.62 411.37 273.033C405.536 272.804 397.994 272.969 390.881 273.098C396.724 268.215 408.814 260.191 420.41 265.266C436.508 272.31 444.096 250.087 434.271 248.099C424.446 246.111 423.935 234.899 422.017 225.83L430.052 222.56L450.524 226.307Z" fill="#FCC71F"/>
<path d="M389.364 152.96C389.265 154.708 389.265 156.461 389.364 158.209" stroke="#FCC71F" stroke-width="0.68" stroke-linecap="round" stroke-linejoin="round"/>
<path d="M422.017 153.354C421.889 156.798 421.734 159.043 421.734 159.043" stroke="#FCC71F" stroke-width="0.68" stroke-linecap="round" stroke-linejoin="round"/>
<path d="M397.163 158.667C401.582 159.94 408.375 160.014 412.265 158.667" stroke="#FCC71F" stroke-width="0.68" stroke-linecap="round" stroke-linejoin="round"/>
<path d="M492.754 239.589C488.189 245.406 475.78 246.524 465.681 238.435C462.864 236.153 460.453 233.409 458.55 230.319C457.436 228.542 456.002 225.849 454.404 222.679C453.701 221.269 452.953 219.766 452.195 218.209C447.949 209.488 443.064 198.917 439.978 192.872C438.429 189.817 437.27 186.58 436.526 183.235C436.216 181.907 435.969 180.56 435.777 179.204C433.449 162.927 439.275 145.833 455.007 152.75H455.053C458.185 154.133 461.517 157.128 464.868 161.058C472.995 170.621 481.158 185.791 486.363 197.195C487.55 199.788 488.572 202.188 489.412 204.285C495.494 219.455 498.443 232.279 492.754 239.589Z" fill="#FED81D"/>
<path d="M468.877 213.867C468.521 219.556 461.864 221.901 454.404 222.679C453.701 221.269 452.952 219.766 452.195 218.209C447.949 209.488 443.064 198.917 439.977 192.872C438.429 189.817 437.269 186.58 436.526 183.235C442.918 183.372 449.884 185.717 450.524 196.719C450.962 204.23 469.68 200.85 468.877 213.867Z" fill="#FCC71F"/>
<path d="M464.868 161.085C464.321 161.085 463.773 161.177 463.234 161.25C454.523 162.404 444.826 168.194 435.777 179.204C433.449 162.927 439.275 145.833 455.007 152.75H455.053C458.185 154.16 461.517 157.156 464.868 161.085Z" fill="#FED81D"/>
<path d="M458.55 230.319C457.436 228.542 456.002 225.849 454.404 222.679C453.701 221.269 452.953 219.766 452.195 218.209C447.949 209.488 443.064 198.917 439.978 192.872C438.429 189.817 437.27 186.58 436.526 183.235C436.216 181.907 435.969 180.56 435.777 179.204" stroke="#FCC71F" stroke-width="0.68" stroke-linecap="round" stroke-linejoin="round"/>
<path d="M492.754 239.589C488.189 245.406 475.78 246.524 465.681 238.435C468.17 237.633 470.809 237.411 473.396 237.785C483.678 239.287 493.822 235.036 485.915 223.027C479.523 213.29 484.089 201.043 486.362 197.223C487.549 199.815 488.572 202.215 489.412 204.313C495.493 219.455 498.443 232.279 492.754 239.589Z" fill="#FCC71F"/>
<path d="M426.72 85.6503C424.793 87.0243 423.606 87.2442 423.652 89.3144C423.697 91.3846 422.803 91.9892 421.899 92.3281C420.995 92.6671 422.008 94.206 421.725 95.69C421.442 97.174 417.644 98.5846 417.644 98.5846L392.415 86.6762C390.315 84.1114 391.228 82.6915 391.904 81.3175C391.969 81.1884 392.004 81.0456 392.004 80.9007C392.004 80.7558 391.969 80.6129 391.904 80.4839C391.547 79.5678 390.013 78.6976 390.406 77.6259C390.908 76.261 392.232 76.032 393.858 75.977C395.483 75.922 395.127 71.3969 394.378 70.1694C393.629 68.9419 394.205 65.9648 396.752 66.1388C399.3 66.3129 400.267 65.7999 400.496 64.5999C400.649 64.1821 400.887 63.8006 401.194 63.479C401.501 63.1575 401.871 62.9029 402.281 62.731C402.69 62.5591 403.13 62.4737 403.574 62.48C404.018 62.4864 404.456 62.5843 404.86 62.7679C406.842 63.803 408.513 62.6579 409.736 61.5221C409.806 61.4509 409.883 61.3864 409.964 61.3297C411.27 60.3129 414.009 59.7541 415.123 61.5221C416.237 63.29 417.735 64.1419 420.118 64.2701C422.501 64.3984 423.177 66.432 422.666 68.4198C422.154 70.4075 422.894 71.0946 424.428 72.0106C425.232 72.6469 425.824 73.5133 426.125 74.4949C426.427 75.4765 426.424 76.5269 426.117 77.5068C425.809 78.0861 425.698 78.7509 425.802 79.3994C425.906 80.0479 426.218 80.6444 426.692 81.0976C427.45 81.9587 428.646 84.2854 426.72 85.6503Z" fill="#683F1D"/>
<path d="M417.105 118.188C415.112 119.045 412.952 119.437 410.786 119.333C402.121 118.93 380.965 126.789 380.965 126.789C377.413 127.229 375.249 128.456 376.856 130.233C378.463 132.011 379.969 137.14 375.86 137.562C375.053 137.638 374.239 137.638 373.432 137.562C371.021 137.351 369.953 136.334 370.254 135.382C370.638 134.163 373.249 134.466 373.742 133.934C374.235 133.403 374.354 132.322 372.747 130.811C371.14 129.299 370.008 126.972 371.642 124.6C373.276 122.227 376.582 120.066 374.582 118.389C372.583 116.713 370.93 115.211 371.843 113.204C372.756 111.198 377.394 108.359 375.23 105.876C373.066 103.394 371.122 100.252 375.34 96.4045C379.559 92.5571 383.832 93.29 383.22 89.9923C382.608 86.6945 383.12 83.5251 387.667 84.3037C392.214 85.0823 392.89 84.7526 394.889 83.635C396.889 82.5174 399.546 83.1312 402.112 85.3663C404.678 87.6014 407.106 85.0823 410.211 85.6961C413.315 86.3098 410.211 89.3144 414.156 89.9923C418.1 90.6701 419.433 90.8258 419.881 94.5724C420.328 98.319 422.939 98.4014 423.478 99.5922C424.601 101.983 422.821 103.659 422.319 105.088C421.816 106.517 422.921 107.36 423.798 108.826C425.195 111.308 422.218 116.008 417.105 118.188Z" fill="#683F1D"/>
<path d="M418.456 111.492C418.166 113.755 417.706 115.994 417.077 118.188C415.085 119.045 412.924 119.437 410.759 119.333C402.094 118.93 380.937 126.789 380.937 126.789C377.385 127.229 375.221 128.456 376.828 130.233C378.435 132.011 379.942 137.14 375.833 137.562C375.025 137.638 374.212 137.638 373.404 137.562C376.481 137.058 377.303 134.859 375.714 131.946C373.532 127.943 374.317 125.534 376.509 123.272C378.7 121.009 375.112 115.55 376.509 112.692C377.906 109.833 380.28 108.826 379.33 104.511C378.381 100.197 378.846 98.0991 382.27 95.7266C385.694 93.3541 388.525 92.8686 390.342 90.0106C392.159 87.1526 396.898 85.3388 398.514 88.7648C400.13 92.1907 400.651 94.5083 405.189 93.1159C409.727 91.7236 412.768 93.4365 411.151 97.348C409.535 101.259 410.302 104.969 413.151 105.446C416 105.922 419.022 106.069 418.456 111.492Z" fill="#683F1D"/>
<path d="M415.224 124.582C398.176 137.021 390.826 141.116 382.672 134.237C378.874 131.04 378.216 124.508 378.965 117.84C379.244 115.461 379.671 113.102 380.243 110.777C381.096 106.995 382.405 103.331 384.142 99.8671C387.795 93.235 396.213 92.9052 397.063 93.235C397.912 93.5648 398.176 94.0594 397.355 95.9831C396.533 97.9067 397.437 99.3449 399.802 99.4182C402.167 99.4915 404.869 101.14 404.614 103.513C404.459 104.668 404.648 105.843 405.156 106.891C405.665 107.939 406.47 108.813 407.472 109.403C409.672 110.795 409.298 112.93 409.59 114.23C409.882 115.531 412.612 116.979 413.352 115.211C414.092 113.443 418.319 109.568 421.752 113.095C425.186 116.621 422.154 124.829 415.224 124.582Z" fill="#B25E47"/>
<path d="M394.789 115.687C395.611 117.4 398.569 117.675 401.381 116.31C404.194 114.945 405.828 112.453 405.034 110.74C404.239 109.027 401.263 108.743 398.441 110.117C395.62 111.492 393.967 113.974 394.789 115.687Z" fill="#914839"/>
<path d="M383.293 117.18C382.517 118.27 380.8 118.472 378.965 117.84C379.244 115.461 379.671 113.102 380.243 110.777C380.398 110.866 380.547 110.964 380.691 111.07C383.238 112.902 384.398 115.641 383.293 117.18Z" fill="#914839"/>
<path d="M382.965 108.908C382.963 109.141 383.03 109.368 383.157 109.562C383.284 109.756 383.466 109.908 383.68 109.998C383.893 110.088 384.128 110.113 384.356 110.069C384.583 110.024 384.792 109.913 384.956 109.75C385.121 109.586 385.233 109.377 385.279 109.15C385.325 108.922 385.302 108.686 385.214 108.471C385.126 108.256 384.976 108.072 384.784 107.943C384.591 107.814 384.365 107.745 384.133 107.745C383.825 107.745 383.529 107.867 383.31 108.085C383.091 108.303 382.967 108.599 382.965 108.908V108.908Z" fill="#683F1D"/>
<path d="M390.086 109.531C390.086 109.763 390.155 109.99 390.283 110.183C390.412 110.375 390.594 110.526 390.808 110.614C391.021 110.703 391.256 110.726 391.483 110.681C391.71 110.636 391.918 110.524 392.082 110.36C392.245 110.196 392.356 109.987 392.401 109.76C392.447 109.532 392.423 109.297 392.335 109.082C392.247 108.868 392.097 108.685 391.905 108.556C391.712 108.427 391.486 108.359 391.255 108.359C390.945 108.359 390.648 108.482 390.429 108.702C390.21 108.922 390.086 109.22 390.086 109.531V109.531Z" fill="#683F1D"/>
<path d="M414.594 119.342C414.822 116.823 417.689 113.351 420.785 115.916" stroke="#914839" stroke-width="0.68" stroke-linecap="round" stroke-linejoin="round"/>
<path d="M414.703 118.719C416.849 115.055 421.168 120.084 416.137 121.091" stroke="#914839" stroke-width="0.68" stroke-linecap="round" stroke-linejoin="round"/>
<path d="M386.297 116.411C385.019 115.815 384.517 114.652 384.626 114.368C384.736 114.084 388.735 111.125 387.968 106.572" stroke="#914839" stroke-width="0.68" stroke-linecap="round" stroke-linejoin="round"/>
<path d="M391.255 100.884C390.89 103.256 396.633 105.574 397.519 104.081C398.277 102.798 391.785 97.4305 391.255 100.884Z" fill="#683F1D"/>
<path d="M381.613 102.45C381.668 103.128 387.831 102.991 387.749 100.618C387.667 98.2457 381.458 100.453 381.613 102.45Z" fill="#683F1D"/>
<path d="M386.9 118.811C389.036 118.247 391.122 117.505 393.136 116.594C393.136 116.594 393.775 120.551 391.255 121.275C390.808 121.404 390.34 121.442 389.877 121.388C389.415 121.334 388.968 121.188 388.563 120.958C388.157 120.729 387.801 120.421 387.516 120.052C387.23 119.684 387.021 119.261 386.9 118.811V118.811Z" fill="white" stroke="#914839" stroke-width="0.68" stroke-linecap="round" stroke-linejoin="round"/>
<path d="M419.369 76.0411C418.456 78.9907 414.996 75.9404 414.722 80.1541C414.448 84.3678 406.066 83.1862 403.5 79.0915C401.4 75.7205 395.446 76.9846 391.949 80.548C391.593 79.632 390.059 78.7617 390.452 77.69C390.954 76.3251 392.278 76.0961 393.903 76.0411C395.529 75.9862 395.173 71.461 394.424 70.2335C393.675 69.006 394.25 66.0289 396.798 66.203C399.345 66.377 400.313 65.864 400.542 64.664C400.695 64.2462 400.933 63.8647 401.24 63.5432C401.547 63.2216 401.917 62.967 402.326 62.7951C402.736 62.6232 403.176 62.5378 403.62 62.5441C404.064 62.5505 404.502 62.6484 404.906 62.832C406.888 63.8671 408.558 62.722 409.782 61.5862C409.852 61.515 409.928 61.4506 410.01 61.3938C410.987 64.1419 411.699 67.9709 415.489 68.3098C420.776 68.7953 420.283 73.0823 419.369 76.0411Z" fill="#683F1D"/>
<path d="M310.209 157.073C310.684 154.05 319.148 151.797 324.07 150.853L325.951 163.055C325.951 163.055 312.419 161.113 310.209 157.073Z" fill="#FCC71F"/>
<path d="M318.08 163.559C317.103 150.35 317.103 139.238 316.829 134.988C316.555 130.737 316.765 126.295 321.705 124.252C321.705 124.252 321.705 120.359 327.339 119.672C327.339 119.672 326.627 116.182 331.338 116.273C331.328 115.946 331.394 115.622 331.531 115.325C331.667 115.028 331.87 114.766 332.124 114.561C332.378 114.356 332.676 114.213 332.994 114.143C333.312 114.073 333.643 114.078 333.959 114.157C337.045 114.698 338.04 116.594 338.04 116.594C342.131 115.678 344.432 119.974 344.213 123.482C343.994 126.991 343.747 130.811 342.058 134.346C340.369 137.882 338.223 143.736 338.223 143.736L338.36 151.156C338.36 151.156 335.219 175.018 318.08 163.559Z" fill="#B25E47"/>
<path d="M316.829 134.988C316.546 130.783 316.765 126.295 321.705 124.252C321.705 124.252 321.705 120.359 327.339 119.672C327.339 119.672 326.626 116.182 331.338 116.273C331.328 115.946 331.394 115.622 331.53 115.325C331.667 115.028 331.87 114.766 332.124 114.561C332.378 114.356 332.675 114.213 332.994 114.143C333.312 114.073 333.642 114.078 333.959 114.157C337.045 114.698 338.04 116.594 338.04 116.594C342.131 115.678 344.432 119.974 344.213 123.482" stroke="#914839" stroke-width="0.68" stroke-linecap="round" stroke-linejoin="round"/>
<path d="M338.04 116.594C333.831 118.673 330.735 122.575 332.005 124.49C333.274 126.404 338.049 124.004 338.698 123.391" stroke="#914839" stroke-width="0.68" stroke-linecap="round" stroke-linejoin="round"/>
<path d="M330.982 116.282C332.571 116.493 335.703 118.261 335.703 118.261" stroke="#914839" stroke-width="0.68" stroke-linecap="round" stroke-linejoin="round"/>
<path d="M327.339 119.672C329.184 119.747 330.993 120.216 332.644 121.046" stroke="#914839" stroke-width="0.68" stroke-linecap="round" stroke-linejoin="round"/>
<path d="M331.922 129.922C333.329 128.85 334.543 126.963 334.178 125.214" stroke="#914839" stroke-width="0.68" stroke-linecap="round" stroke-linejoin="round"/>
<path d="M321.668 124.288C325.029 122.905 328.444 121.339 329.457 123.638C330.471 125.937 331.028 133.018 329.457 133.98C327.887 134.942 325.257 134.145 324.809 132.295C324.362 130.444 324.024 127.907 324.024 127.907" stroke="#914839" stroke-width="0.68" stroke-linecap="round" stroke-linejoin="round"/>
<path d="M327.941 134.383C329.357 136.133 328.854 142.325 327.339 144.395" stroke="#914839" stroke-width="0.68" stroke-linecap="round" stroke-linejoin="round"/>
<path d="M339.017 241.247C336.278 246.459 332.351 249.299 327.092 247.531C317.185 244.16 313.24 234.624 311.798 225.308C310.282 215.589 311.469 206.072 311.423 204.093C311.323 200.145 310.245 157.055 310.245 157.055C311.962 157.742 314.564 157.76 317.715 157.165C320.114 156.687 322.469 156.007 324.755 155.131C329.543 153.29 334.1 150.892 338.332 147.986L338.515 147.858C338.515 147.858 339.373 158.539 340.533 170.814C341.51 181.33 342.715 193.009 343.792 200.127C345.491 211.724 344.496 231.061 339.017 241.247Z" fill="#FED81D"/>
<path d="M339.017 241.247C336.278 246.459 332.352 249.299 327.092 247.531C317.185 244.16 313.241 234.624 311.798 225.308C313.562 228.317 315.644 231.127 318.007 233.69C325.321 241.577 332.963 243.272 339.017 241.247Z" fill="#FCC71F"/>
<path d="M338.488 147.885C338.488 147.885 341.446 184.692 343.765 200.182C345.029 210.033 344.721 220.024 342.852 229.779" stroke="#FCC71F" stroke-width="0.68" stroke-linecap="round" stroke-linejoin="round"/>
<path d="M443.237 192.168L408.011 177.407C405.233 176.243 402.04 177.558 400.88 180.345L379.961 230.587C378.801 233.374 380.112 236.577 382.89 237.741L418.117 252.503C420.895 253.667 424.088 252.351 425.248 249.564L446.166 199.322C447.327 196.535 446.015 193.332 443.237 192.168Z" fill="#DDDDDD"/>
<path d="M439.275 190.499L408.008 177.397C405.23 176.233 402.037 177.549 400.877 180.336L379.958 230.578C378.798 233.365 380.109 236.568 382.887 237.732L414.154 250.834C416.932 251.998 420.125 250.682 421.285 247.895L442.204 197.653C443.364 194.866 442.053 191.663 439.275 190.499Z" fill="#F9F9F9" stroke="#DDDDDD" stroke-width="0.9" stroke-linecap="round" stroke-linejoin="round"/>
<path d="M410.083 185.763C410.083 186.234 409.944 186.695 409.683 187.086C409.422 187.478 409.051 187.783 408.618 187.964C408.184 188.144 407.706 188.191 407.246 188.099C406.785 188.007 406.362 187.78 406.03 187.447C405.698 187.114 405.472 186.69 405.381 186.228C405.289 185.766 405.336 185.287 405.516 184.852C405.695 184.417 406 184.045 406.39 183.783C406.781 183.521 407.24 183.381 407.709 183.381C408.021 183.38 408.33 183.441 408.619 183.56C408.908 183.68 409.17 183.855 409.39 184.076C409.611 184.298 409.786 184.561 409.905 184.85C410.024 185.14 410.084 185.45 410.083 185.763Z" fill="#DDDDDD"/>
<path d="M414 188.117C414.002 188.354 413.934 188.585 413.804 188.782C413.674 188.98 413.489 189.134 413.272 189.225C413.054 189.316 412.815 189.341 412.584 189.295C412.353 189.249 412.14 189.136 411.974 188.969C411.807 188.802 411.694 188.589 411.648 188.357C411.603 188.125 411.627 187.885 411.718 187.667C411.809 187.449 411.963 187.263 412.159 187.133C412.356 187.003 412.587 186.934 412.822 186.936C413.134 186.938 413.432 187.063 413.652 187.285C413.873 187.506 413.998 187.805 414 188.117V188.117Z" fill="#DDDDDD"/>
<path d="M412.265 227.626C409.937 226.811 408.732 222.294 408.421 218.401L417.552 219.482C417.552 219.482 417.616 228.212 412.265 227.626Z" fill="#FCC71F"/>
<path d="M415.333 225.327C412.742 223.471 410.061 221.747 407.298 220.16C406.257 219.592 400.349 218.924 396.241 216.652C393.472 215.082 390.804 213.341 388.251 211.44L386.626 214.472C386.626 214.472 383.43 211.009 382.973 207.885C382.517 204.762 383.777 204.661 384.526 203.992C385.274 203.324 384.809 202.334 384.763 200.722C384.717 199.11 386.087 198.78 386.516 198.212C386.945 197.644 386.562 196.169 386.47 194.182C386.379 192.194 388.735 192.093 389.109 190.957C389.484 189.821 389.822 186.166 393.036 187.119C396.25 188.072 410.238 198.496 411.151 198.972C412.511 199.46 413.902 199.855 415.315 200.154C415.315 200.154 426.765 218.117 415.333 225.327Z" fill="#B25E47"/>
<path d="M388.251 211.44L386.626 214.472C386.626 214.472 383.43 211.009 382.973 207.885C382.517 204.762 383.777 204.661 384.526 203.992C385.274 203.324 384.809 202.334 384.763 200.722C384.717 199.11 386.087 198.78 386.516 198.212C386.945 197.644 386.562 196.169 386.47 194.182C386.379 192.194 388.735 192.093 389.109 190.957C389.484 189.821 389.822 186.166 393.036 187.119" stroke="#914839" stroke-width="0.68" stroke-linecap="round" stroke-linejoin="round"/>
<path d="M388.251 211.44C386.653 210.093 386.324 209.873 386.324 209.873" stroke="#914839" stroke-width="0.68" stroke-linecap="round" stroke-linejoin="round"/>
<path d="M494.544 237.171C491.613 246.203 480.683 254.209 455.765 244.756L454.404 244.224C428.5 233.919 412.256 227.617 412.256 227.617C414.495 218.114 414.495 208.219 412.256 198.716C427.13 202.893 466.466 210.991 480.437 215.104C481.35 215.378 482.263 215.662 483.075 216.02C494.8 220.362 497.374 228.423 494.544 237.171Z" fill="#FED81D"/>
<path d="M454.404 244.224C428.5 233.919 412.265 227.626 412.265 227.626" stroke="#FCC71F" stroke-width="0.68" stroke-linecap="round" stroke-linejoin="round"/>
<path d="M412.265 198.716C425.761 202.508 459.417 209.525 475.962 213.867" stroke="#FCC71F" stroke-width="0.68" stroke-linecap="round" stroke-linejoin="round"/>
<path d="M494.544 237.171C491.613 246.203 480.683 254.209 455.765 244.756C455.765 244.756 463.07 236.282 473.397 237.785C483.724 239.287 493.823 235.037 485.915 223.027C484.515 220.89 483.549 218.496 483.076 215.983C494.8 220.362 497.375 228.423 494.544 237.171Z" fill="#FCC71F"/>
<path d="M587.68 158.173C586.717 159.721 585.315 160.946 583.653 161.69C572.066 167.186 545.869 156.725 545.869 156.405C545.869 156.084 540.811 113.003 548.042 97.513C549.403 94.6092 551.193 92.6855 553.521 92.2183C565.492 91.8519 575.764 95.9283 577.517 104.594C579.27 113.26 574.056 123.244 575.581 129.409C577.106 135.574 583.306 135.702 585.908 137.021C590.62 139.394 595.03 145.925 587.68 158.173Z" fill="#B25E47"/>
<path d="M583.653 161.69C572.066 167.186 545.869 156.725 545.869 156.405C545.869 156.084 540.811 113.003 548.042 97.513C567.619 98.2275 570.87 105.473 569.4 115.513C567.838 126.185 560.716 140.814 576.22 151.348C580.895 154.536 582.995 158.163 583.653 161.69Z" fill="#B25E47"/>
<path d="M558.817 118.545C561.675 121.76 562.095 125.809 560.917 130.371C559.739 134.933 557.913 141.602 560.177 148.188" stroke="#683F1D" stroke-width="0.68" stroke-linecap="round" stroke-linejoin="round"/>
<path d="M571.947 114.487C571.801 120.597 569.966 124.802 569.445 130.554C568.925 136.307 572.468 139.623 576.951 141.391C578.811 142.169 580.288 143.654 581.06 145.522C581.831 147.389 581.835 149.487 581.069 151.357" stroke="#683F1D" stroke-width="0.68" stroke-linecap="round" stroke-linejoin="round"/>
<path d="M568.797 150.643C564.487 145.623 563.647 141.95 566.222 141.565C568.797 141.18 573.865 143.397 573.353 145.623C572.842 147.849 569.564 146.905 569.701 145.815" stroke="#683F1D" stroke-width="0.68" stroke-linecap="round" stroke-linejoin="round"/>
<path d="M548.627 180.02C536.391 186.432 527.489 180.304 526.338 173.507C525.589 169.055 526.028 158.795 526.283 148.133C526.411 142.554 526.503 136.847 526.338 131.827C526.338 131.04 526.338 130.279 526.338 129.528C526.338 97.7969 550.499 105.153 552.462 117.437C553.703 125.232 555.612 140.759 556.543 148.948C557.475 157.137 560.899 173.608 548.627 180.02Z" fill="#FEBD9D"/>
<path d="M526.283 148.133C526.411 142.554 526.502 136.847 526.338 131.828C526.338 131.04 526.338 130.279 526.338 129.528C532.346 129.235 541.861 128.942 541.861 128.942C543.614 141.318 536.583 149.305 526.283 148.133Z" fill="#F4A789"/>
<path d="M483.039 289.284C484.144 290.979 492.17 284.704 494.471 281.04L486.317 269.754C486.317 269.754 479.871 284.365 483.039 289.284Z" fill="#A7CAF0"/>
<path d="M502.844 259.009C512.888 274.389 517.545 279.244 518.266 285.647C518.988 292.05 516.312 307.943 509.218 310.627C502.123 313.311 485.751 302.053 485.13 299.479C484.509 296.905 492.28 298.032 495.914 299.782C495.914 299.782 488.974 290.438 488.974 279.968C488.974 277.284 479.369 272.017 479.369 272.017C479.369 272.017 487.322 248.063 502.844 259.009Z" fill="#FEBD9D"/>
<path d="M623.838 374.75C592.729 363.647 554.443 352.921 513.975 343.943V325.751C513.975 320.832 514.541 312.514 515.271 303.51C515.865 296.072 516.568 288.166 517.098 281.342C517.581 275.608 517.956 270.624 518.12 267.318L530.456 267.189L553.475 266.969L600.472 266.502L608.096 266.429C608.964 288.148 616.551 313.916 621.893 333.473C625.728 347.415 624.733 365.388 623.838 374.75Z" fill="#683F1D"/>
<path d="M597.422 302.685C594.327 312.624 597.623 322.508 603.613 325.751" stroke="#7F542D" stroke-width="0.68" stroke-linecap="round" stroke-linejoin="round"/>
<path d="M483.039 222.56L488.6 232.307L505.145 261.308" stroke="#83ADDF" stroke-width="0.68" stroke-linecap="round" stroke-linejoin="round"/>
<path d="M598.701 268.563C596.327 269.049 583.087 269.479 568.012 269.663C545.184 269.901 518.157 269.434 518.157 267.318C518.157 264.002 519.599 260.905 515.472 253.641C511.345 246.377 504.515 240.707 503.903 227.489C503.292 214.27 506.378 199.559 506.378 199.559L499.904 205.971L483.039 222.56L488.6 232.307L505.145 261.308C505.145 261.308 482.838 270.011 483.039 289.284C483.039 289.284 452.478 251.159 443.393 238.105C434.308 225.052 444.626 210.13 459.29 194.795C466.594 187.137 474.621 176.823 482.638 168.139C490.654 159.455 498.735 152.42 506.177 151.348C510.386 150.744 516.221 150.221 522.503 149.8C523.727 149.708 524.959 149.626 526.21 149.553C525.872 162.496 529.598 164.887 529.598 164.887C531.424 165.968 531.616 165.464 531.78 167.635C531.944 169.806 532.949 175.962 534.711 175.962C537.149 175.962 538.72 171.95 540.783 166.142C542.144 159.198 550.69 156.487 553.448 152.713C554.403 151.355 555.072 149.815 555.411 148.188H556.424C558.022 148.582 559.949 149.031 562.058 149.461C567.537 150.579 574.266 151.605 579.727 151.348C586.967 151.018 608.169 151.449 614.479 168.24C614.479 168.24 614.479 168.286 614.479 168.313C614.744 169.027 614.981 169.779 615.2 170.557C615.364 171.171 615.511 171.849 615.638 172.582C619.382 194.53 604.499 267.354 598.701 268.563Z" fill="#A7CAF0"/>
<path d="M578.247 211.156C565.829 215.525 562.506 232.728 565.318 239.653C568.13 246.579 558.534 249.968 549.375 249.968C538.829 249.968 526.292 261.098 531.661 277.018L585.534 252.285L578.247 211.156Z" fill="#A7CAF0"/>
<path d="M616.067 172.747C615.94 172.682 615.794 172.637 615.666 172.582C604.398 168.111 591.204 170.933 582.621 178.078C580.442 179.863 578.556 181.98 577.033 184.353C566.761 200.557 533.725 209.406 522.877 188.163C514.093 170.942 500.963 165.547 482.637 168.148C490.673 159.464 498.735 152.429 506.177 151.357C510.386 150.753 516.221 150.231 522.503 149.809C523.727 149.718 524.959 149.635 526.21 149.562C525.872 162.505 529.598 164.896 529.598 164.896C531.424 165.977 531.616 165.473 531.78 167.644C531.944 169.815 532.949 175.971 534.711 175.971C537.149 175.971 538.72 171.959 540.783 166.151C542.144 159.208 550.69 156.496 553.448 152.722C554.403 151.364 555.072 149.824 555.411 148.197H556.424C558.022 148.591 559.949 149.04 562.058 149.47C567.537 150.588 574.266 151.614 579.726 151.357C586.967 151.027 608.169 151.458 614.479 168.249C614.479 168.249 614.479 168.295 614.479 168.322C615.107 169.759 615.638 171.237 616.067 172.747V172.747Z" fill="#A7CAF0"/>
<path d="M537.706 182.072C538.76 182.072 539.614 181.215 539.614 180.157C539.614 179.1 538.76 178.243 537.706 178.243C536.652 178.243 535.798 179.1 535.798 180.157C535.798 181.215 536.652 182.072 537.706 182.072Z" fill="#83ADDF"/>
<path d="M533.661 179.26C534.227 184.408 532.638 193.495 531.424 202.682C530.21 211.87 527.315 224.511 531.424 237.492C535.533 250.472 536.455 254.456 536.565 256.041C536.747 258.853 534.611 262.069 539.925 264.285" stroke="#83ADDF" stroke-width="0.68" stroke-linecap="round" stroke-linejoin="round"/>
<path d="M529.598 164.887C524.521 163.678 520.905 169.889 518.969 175.137C518.778 159.968 520.604 152.997 522.503 149.8C524.402 146.603 526.311 147.208 526.311 147.208C526.256 148.032 526.228 148.811 526.21 149.553C525.872 162.469 529.598 164.887 529.598 164.887Z" fill="#83ADDF"/>
<path d="M562.113 155.434C560.762 164.072 555.365 175.98 555.365 175.98C555.365 175.98 551.074 171.107 548.06 167.424C545.047 163.742 543.303 164.347 540.756 166.16C542.116 159.217 550.663 156.505 553.42 152.731C554.376 151.373 555.044 149.833 555.383 148.206C555.742 146.67 555.901 145.093 555.858 143.516C557.37 143.754 558.772 144.452 559.876 145.515C560.98 146.578 561.732 147.956 562.031 149.461C562.437 151.428 562.465 153.456 562.113 155.434V155.434Z" fill="#83ADDF"/>
<path d="M478.94 276.405C479.944 270.963 486.856 261.455 497.822 256.453" stroke="#83ADDF" stroke-width="0.68" stroke-linecap="round" stroke-linejoin="round"/>
<path d="M468.877 210.258C470.488 210.352 472.046 210.867 473.397 211.751C476.136 213.354 479.487 216.533 483.039 222.56" stroke="#83ADDF" stroke-width="0.68" stroke-linecap="round" stroke-linejoin="round"/>
<path d="M506.378 199.559L508.012 192.542" stroke="#83ADDF" stroke-width="0.68" stroke-linecap="round" stroke-linejoin="round"/>
<path d="M499.904 205.943L483.039 222.56C479.487 216.533 476.1 213.354 473.397 211.751C477.771 209.782 479.926 211.577 482.044 213.143C487.285 217.046 492.225 201.601 499.904 205.943Z" fill="#A7CAF0"/>
<path d="M616.853 230.896C614.89 247.275 611.776 263.04 608.562 273.867C602.362 294.716 586.794 295.907 576.741 289.256C570.915 285.391 566.934 278.896 567.719 272.053C567.792 271.376 567.893 270.579 568.012 269.663C569.838 255.629 575.946 214.444 579.626 191.031C580.275 186.627 581.276 182.283 582.621 178.041C587.406 163.385 595.404 158.85 605.247 159.867C609.32 160.289 612.333 163.33 614.479 168.212C614.479 168.212 614.479 168.258 614.479 168.286C615.099 169.726 615.62 171.208 616.04 172.719C620.003 186.496 619.437 209.186 616.853 230.896Z" fill="#A7CAF0"/>
<path d="M616.853 230.896C614.89 247.275 611.776 263.04 608.562 273.867C602.362 294.716 586.794 295.907 576.741 289.256C578.625 287.436 580.983 286.185 583.543 285.647C594.893 283.504 601.659 274.774 599.979 256.453C598.664 242.548 610.872 234.148 616.853 230.896Z" fill="#A7CAF0"/>
<path d="M616.068 172.747C615.94 172.683 615.794 172.637 615.666 172.582C604.399 168.112 591.204 170.933 582.621 178.078C587.406 163.422 595.405 158.887 605.248 159.904C609.32 160.325 612.333 163.367 614.479 168.249C614.479 168.249 614.479 168.295 614.479 168.322C615.108 169.759 615.639 171.238 616.068 172.747V172.747Z" fill="#A7CAF0"/>
<path d="M570.751 249.968C573.399 231.647 577.143 207.144 579.626 191.031C580.275 186.627 581.277 182.283 582.621 178.041C583.624 174.826 585.023 171.749 586.785 168.881" stroke="#83ADDF" stroke-width="0.68" stroke-linecap="round" stroke-linejoin="round"/>
<path d="M493.439 325.742C488.636 326.658 483.77 319.467 482.163 315.043C480.556 310.618 493.384 308.63 493.384 308.63C493.384 308.63 497.557 322.307 493.439 325.742Z" fill="#A7CAF0"/>
<path d="M481.56 293.644C472.173 296.786 450.168 307.76 448.99 308.676C447.812 309.592 444.306 317.617 444.178 318.826C444.05 320.035 442.616 332.566 444.954 333.373C447.291 334.179 448.469 328.976 448.99 325.751C449.486 323.355 450.274 321.029 451.336 318.826C451.336 318.826 449.912 323.892 451.994 325.751C453.199 326.832 455.893 325.751 455.893 325.751C455.893 325.751 456.55 329.058 460.851 327.492C460.851 327.492 460.595 331 463.426 331.687C466.256 332.374 468.904 329.205 470.027 327.336C470.429 326.704 469.416 324.853 468.101 324.853C468.101 324.853 469.27 324.093 472.785 324.093C476.3 324.093 480.491 324.295 483.176 320.218C485.86 316.142 488.892 314.2 491.394 313.55L481.56 293.644Z" fill="#FEBD9D"/>
<path d="M444.178 318.826C444.041 320.044 442.617 332.566 444.954 333.372C447.292 334.179 448.47 328.976 448.99 325.751C449.486 323.355 450.274 321.029 451.337 318.826C451.337 318.826 449.912 323.892 451.994 325.751C453.199 326.832 455.893 325.751 455.893 325.751C455.893 325.751 456.55 329.058 460.851 327.492C460.851 327.492 460.595 331 463.426 331.687C466.257 332.374 468.905 329.205 470.028 327.336C470.429 326.704 469.416 324.853 468.101 324.853" stroke="#F4A789" stroke-width="0.68" stroke-linecap="round" stroke-linejoin="round"/>
<path d="M468.621 324.945C467.907 324.84 467.178 324.89 466.485 325.093" stroke="#F4A789" stroke-width="0.68" stroke-linecap="round" stroke-linejoin="round"/>
<path d="M467.151 322.774C466.448 324.606 465.572 327.409 465.919 328.215" stroke="#F4A789" stroke-width="0.68" stroke-linecap="round" stroke-linejoin="round"/>
<path d="M460.86 328.179C460.797 324.45 461.744 320.774 463.6 317.543" stroke="#F4A789" stroke-width="0.68" stroke-linecap="round" stroke-linejoin="round"/>
<path d="M455.893 325.751C455.208 323.003 457.317 316.014 459.007 313.98" stroke="#F4A789" stroke-width="0.68" stroke-linecap="round" stroke-linejoin="round"/>
<path d="M451.327 318.826C451.592 316.994 451.967 311.983 454.697 309.666" stroke="#F4A789" stroke-width="0.68" stroke-linecap="round" stroke-linejoin="round"/>
<path d="M594.747 291.629C590.683 293.773 580.941 297.455 569.016 301.632C538.455 312.322 493.558 326.237 493.439 325.742C493.275 325.055 489.33 307.009 475.798 294.982C475.798 294.982 538.582 264.881 558.698 255.455C570.778 249.794 589.259 240.176 599.212 249.327C599.577 249.656 599.924 250.005 600.253 250.362C610.981 261.693 608.763 284.218 594.747 291.629Z" fill="#A7CAF0"/>
<path d="M594.747 291.629C590.684 293.772 580.941 297.455 569.016 301.632C571.125 296.136 575.718 287.122 583.543 285.647C594.893 283.504 601.659 274.774 599.979 256.453C599.785 254.419 599.886 252.367 600.28 250.362C610.982 261.693 608.763 284.218 594.747 291.629Z" fill="#A7CAF0"/>
<path d="M475.798 294.982C475.798 294.982 538.582 264.881 558.698 255.455C564.469 252.753 571.7 249.143 578.786 247.11" stroke="#83ADDF" stroke-width="0.68" stroke-linecap="round" stroke-linejoin="round"/>
<path d="M488.974 292.856C496.562 302.191 502.844 318.826 502.844 318.826" stroke="#83ADDF" stroke-width="0.68" stroke-linecap="round" stroke-linejoin="round"/>
<path d="M557.346 92.3191C563.035 95.0672 567.737 107.076 557.666 114.487C547.595 121.898 552.187 104.2 552.434 103.861C552.681 103.522 553 92.7313 557.346 92.3191Z" fill="#FED81D"/>
<path d="M557.703 107.589C557.272 108.415 556.682 109.147 555.968 109.742C555.968 109.742 545.138 117.208 538.391 113.223C531.643 109.238 523.379 99.7847 523.379 99.7847C520.339 97.513 518.677 95.7359 518.074 93.7481C517.781 92.7237 517.728 91.6453 517.919 90.5969C518.476 87.0611 522.22 79.1466 534.136 82.0779C534.136 82.0779 536.227 79.4214 540.527 81.0244C544.828 82.6275 548.572 87.3359 548.572 87.3359C548.572 87.3359 552.763 85.8427 557.337 92.3191C560.944 97.4305 559.73 104.017 557.703 107.589Z" fill="#B25E47"/>
<path d="M557.703 107.589C557.272 108.415 556.682 109.147 555.968 109.742C555.968 109.742 545.138 117.208 538.391 113.223C531.643 109.238 523.379 99.7848 523.379 99.7848C520.339 97.513 518.677 95.7359 518.074 93.7481C518.622 87.9863 521.27 83.8641 526.849 85.5863C534.757 88.0321 538.573 92.4199 546.444 90.3038C546.444 90.3038 548.435 105.895 557.703 107.589Z" fill="#B25E47"/>
<path d="M521.992 88.7099C523.416 87.1527 526.329 87.2168 530.657 91.7328" stroke="#683F1D" stroke-width="0.68" stroke-linecap="round" stroke-linejoin="round"/>
<path d="M531.579 81.5923C534.835 82.2743 537.911 83.635 540.609 85.5862" stroke="#683F1D" stroke-width="0.68" stroke-linecap="round" stroke-linejoin="round"/>
<path d="M548.581 87.3542C549.312 88.2622 549.925 89.2595 550.407 90.3221" stroke="#683F1D" stroke-width="0.68" stroke-linecap="round" stroke-linejoin="round"/>
<path d="M550.854 120.963C541.239 134.539 528.821 141.94 521.325 135.62C515.792 130.976 515.755 121.733 517.061 114.285C517.438 112.119 517.947 109.977 518.586 107.873C518.64 107.69 518.704 107.516 518.759 107.342C521.106 100.014 524.576 89.0214 530.164 91.3023C530.164 91.3023 534.528 95.2229 542.801 93.5374C542.801 93.5374 538.555 109.11 548.17 110.942C548.17 110.942 552.416 105.446 557.301 108.368C562.186 111.29 562.24 120.844 550.854 120.963Z" fill="#FEBD9D"/>
<path d="M530.876 104.86C530.874 105.092 530.941 105.319 531.068 105.513C531.196 105.707 531.378 105.859 531.591 105.949C531.804 106.039 532.04 106.064 532.267 106.02C532.494 105.976 532.703 105.865 532.868 105.701C533.032 105.537 533.144 105.329 533.19 105.101C533.236 104.873 533.213 104.637 533.125 104.422C533.037 104.207 532.887 104.024 532.695 103.894C532.503 103.765 532.276 103.696 532.045 103.696C531.736 103.696 531.44 103.818 531.221 104.036C531.002 104.254 530.878 104.55 530.876 104.86V104.86Z" fill="#683F1D"/>
<path d="M522.877 104.86C522.875 105.092 522.942 105.319 523.07 105.513C523.197 105.707 523.379 105.859 523.592 105.949C523.806 106.039 524.041 106.064 524.268 106.02C524.495 105.976 524.705 105.865 524.869 105.701C525.033 105.537 525.146 105.329 525.191 105.101C525.237 104.873 525.215 104.637 525.126 104.422C525.038 104.207 524.888 104.024 524.696 103.894C524.504 103.765 524.277 103.696 524.046 103.696C523.737 103.696 523.441 103.818 523.223 104.036C523.004 104.254 522.879 104.55 522.877 104.86V104.86Z" fill="#683F1D"/>
<path d="M548.115 110.979C547.237 111.971 546.644 113.183 546.398 114.487" stroke="#F4A789" stroke-width="0.68" stroke-linecap="round" stroke-linejoin="round"/>
<path d="M549.393 114.982C551.42 110.402 555.785 110.127 558.296 112.169" stroke="#F4A789" stroke-width="0.68" stroke-linecap="round" stroke-linejoin="round"/>
<path d="M550.425 113.223C554.306 110.631 556.579 117.437 551.502 117.437" stroke="#F4A789" stroke-width="0.68" stroke-linecap="round" stroke-linejoin="round"/>
<path d="M520.476 99.7481C520.777 100.719 527.013 100.16 526.867 97.971C526.63 95.0306 519.91 97.9069 520.476 99.7481Z" fill="#B25E47"/>
<path d="M531.543 97.8152C531.342 99.7847 537.368 101.479 537.934 100.444C538.5 99.4091 531.917 94.0778 531.543 97.8152Z" fill="#B25E47"/>
<path d="M523.818 111.345C523.635 109.513 524.603 107.452 525.918 106.985C527.233 106.518 529.269 105.244 528.812 100.49" stroke="#F4A789" stroke-width="0.68" stroke-linecap="round" stroke-linejoin="round"/>
<path d="M525.214 114.982C527.552 114.982 531.195 113.205 531.78 112.481C531.78 112.481 532.054 118.114 528.876 118.518C526.201 118.866 525.214 114.982 525.214 114.982Z" fill="white" stroke="#F4A789" stroke-width="0.68" stroke-linecap="round" stroke-linejoin="round"/>
<path d="M551.649 124.087C553.661 124.087 555.292 122.451 555.292 120.432C555.292 118.413 553.661 116.777 551.649 116.777C549.637 116.777 548.005 118.413 548.005 120.432C548.005 122.451 549.637 124.087 551.649 124.087Z" fill="white"/>
<path d="M543.778 109.412C544.444 111.061 542.929 113.241 540.372 114.285C537.815 115.33 535.213 114.844 534.537 113.195C533.862 111.547 535.386 109.357 537.943 108.313C540.5 107.269 543.102 107.763 543.778 109.412Z" fill="#F4A789"/>
<path d="M521.699 113.443C520.969 114.707 519.042 115.027 517.042 114.359C517.42 112.192 517.929 110.051 518.567 107.947L518.987 108.176C521.38 109.531 522.594 111.904 521.699 113.443Z" fill="#F4A789"/>
<path d="M400.422 351.537L446.515 340.911L487.13 354.853L447.492 368.438L400.422 351.537Z" stroke="#DDDDDD" stroke-width="0.9" stroke-linecap="round" stroke-linejoin="round"/>
<path d="M427.112 342.863V351.537C427.112 354.423 434.508 356.759 443.639 356.759C452.77 356.759 460.175 354.423 460.175 351.537V342.863H427.112Z" fill="#DDDDDD" stroke="#DDDDDD" stroke-width="0.9" stroke-miterlimit="10"/>
<path d="M443.639 347.672C433.997 347.672 427.523 345.189 427.523 342.863C427.523 340.536 433.997 338.053 443.639 338.053C453.281 338.053 459.755 340.545 459.755 342.863C459.755 345.18 453.281 347.672 443.639 347.672Z" fill="#F9F9F9"/>
<path d="M443.639 338.466C453.373 338.466 459.344 341.031 459.344 342.863C459.344 344.695 453.373 347.26 443.639 347.26C433.906 347.26 427.934 344.695 427.934 342.863C427.934 341.031 433.906 338.466 443.639 338.466ZM443.639 337.641C434.508 337.641 427.112 339.977 427.112 342.863C427.112 345.748 434.508 348.084 443.639 348.084C452.77 348.084 460.175 345.748 460.175 342.863C460.175 339.977 452.77 337.641 443.639 337.641V337.641Z" fill="#DDDDDD"/>
<path d="M413.279 351.794C413.279 352.362 414.256 352.829 415.461 352.829C416.667 352.829 417.644 352.362 417.644 351.794C417.644 351.226 416.667 350.759 415.461 350.759C414.256 350.759 413.279 351.226 413.279 351.794Z" fill="#DDDDDD"/>
<path d="M445.721 363.739C445.721 364.307 446.698 364.774 447.903 364.774C449.108 364.774 450.076 364.307 450.076 363.739C450.076 363.171 449.099 362.704 447.903 362.704C446.707 362.704 445.721 363.171 445.721 363.739Z" fill="#DDDDDD"/>
<path d="M472.922 354.67C472.922 355.238 473.899 355.705 475.104 355.705C476.309 355.705 477.286 355.238 477.286 354.67C477.286 354.102 476.309 353.635 475.104 353.635C473.899 353.635 472.922 354.102 472.922 354.67Z" fill="#DDDDDD"/>
<path d="M1 313.55C33.7891 312.524 69.6553 311.892 107.092 311.782C140.767 311.69 175.72 312.038 210.801 312.945C218.148 313.128 225.505 313.342 232.87 313.586C276.817 315.024 320.655 317.369 362.191 320.869C369.198 321.443 376.134 322.053 383.001 322.701C406.285 324.927 430.6 328.197 454.961 332.365C474.794 335.718 494.654 339.611 514.011 343.916C554.507 352.893 592.765 363.62 623.874 374.722C656.052 386.218 680.577 398.136 692 409" stroke="#DDDDDD" stroke-width="1.81" stroke-linecap="round" stroke-linejoin="round"/>
<path d="M403.116 362.163C388.37 369.821 301.818 392.392 301.818 392.392L293.892 384.524L243.307 334.334C243.307 334.334 291.582 324.606 300.585 325.696C308.109 326.612 375.614 344.667 397.181 355.467C401.4 357.629 404.203 361.605 403.116 362.163Z" stroke="#DDDDDD" stroke-width="0.9" stroke-linecap="round" stroke-linejoin="round"/>
<path d="M245.498 342.13C281.447 336.029 295.609 332.053 300.686 333.446C305.762 334.838 374.363 354.368 373.212 354.67C341.008 363.134 283.602 376.609 283.602 376.609L245.498 342.13Z" stroke="#DDDDDD" stroke-width="0.9" stroke-linecap="round" stroke-linejoin="round"/>
<path d="M403.116 362.163C388.37 369.821 301.818 392.392 301.818 392.392L293.892 384.524L397.181 355.522C401.4 357.629 404.203 361.605 403.116 362.163Z" fill="#DDDDDD"/>
<path d="M193.279 308.649C184.312 291.94 189.699 264.515 204.802 262.463C219.904 260.411 239.928 280.014 247.717 270.286C256.172 259.687 249.297 208.545 249.361 199.302L287.245 195.446C287.245 195.446 280.022 264.927 289.92 273.015C295.718 277.751 302.503 277.092 306.566 268.536C310.218 260.768 315.377 254.511 324.627 261.711C324.627 261.711 329.813 249.611 349.901 254.383C369.989 259.156 358.375 282.395 353.7 285.528C353.7 285.528 362.831 293.617 359.936 303.849C357.042 314.081 342.313 318.78 342.313 318.78C342.313 318.78 348.422 332.75 336.205 337.202C323.988 341.653 316.062 340.087 308.036 337.202C300.01 334.316 286.122 327.125 278.306 338.163C270.49 349.202 216.225 351.437 193.279 308.649Z" fill="#F9F9F9" stroke="#DDDDDD" stroke-width="1.81" stroke-linecap="round" stroke-linejoin="round"/>
<path d="M245.498 218.246C238.066 220.362 234.295 228.322 232.322 236.209C230.35 244.096 231.135 245.415 228.944 243.482C226.597 241.412 221.511 226.692 224.242 204.231C226.269 187.55 233.747 179.846 238.057 176.75C239.29 190.536 241.762 204.182 245.444 217.522V217.522C245.476 217.762 245.494 218.004 245.498 218.246V218.246Z" fill="#DDDDDD" stroke="#DDDDDD" stroke-width="1.81" stroke-linecap="round" stroke-linejoin="round"/>
<path d="M306.885 243.482C304.694 245.415 305.452 244.078 303.498 236.209C301.544 228.34 297.764 220.362 290.331 218.246C290.334 218.007 290.349 217.769 290.377 217.531V217.531C294.071 204.185 296.546 190.528 297.773 176.731C302.083 179.855 309.561 187.559 311.588 204.212C314.309 226.692 309.241 241.412 306.885 243.482Z" fill="#DDDDDD" stroke="#DDDDDD" stroke-width="1.81" stroke-linecap="round" stroke-linejoin="round"/>
<path d="M297.773 176.722C296.546 190.519 294.071 204.175 290.377 217.522V217.522C290.03 218.713 289.692 219.886 289.336 221.021H246.485C246.128 219.876 245.781 218.695 245.444 217.495C241.763 204.155 239.29 190.508 238.057 176.722C236.084 155.653 236.504 132.112 241.088 109.531C241.682 106.628 242.321 103.843 243.006 101.195C251.899 66.6062 267.915 52.4077 267.915 52.4077C267.915 52.4077 283.94 66.6062 292.824 101.195C293.509 103.843 294.157 106.628 294.741 109.531C299.325 132.112 299.754 155.617 297.773 176.722Z" fill="#F9F9F9" stroke="#DDDDDD" stroke-width="1.81" stroke-linecap="round" stroke-linejoin="round"/>
<path d="M292.824 101.195H243.006C251.899 66.6062 267.915 52.4077 267.915 52.4077C267.915 52.4077 283.94 66.6062 292.824 101.195Z" fill="#DDDDDD" stroke="#DDDDDD" stroke-width="0.9" stroke-miterlimit="10"/>
<path d="M279.821 142.939C278.26 144.512 276.405 145.76 274.362 146.612C272.318 147.464 270.127 147.903 267.915 147.903C265.702 147.903 263.511 147.464 261.468 146.612C259.424 145.76 257.569 144.512 256.008 142.939C252.864 139.766 251.099 135.473 251.099 130.999C251.099 126.524 252.864 122.231 256.008 119.058C257.569 117.485 259.424 116.237 261.468 115.385C263.511 114.533 265.702 114.095 267.915 114.095C270.127 114.095 272.318 114.533 274.362 115.385C276.405 116.237 278.26 117.485 279.821 119.058C280.841 120.078 281.725 121.227 282.451 122.475C284.325 125.699 285.084 129.454 284.608 133.156C284.132 136.858 282.449 140.297 279.821 142.939V142.939Z" fill="#DDDDDD" stroke="#F9F9F9" stroke-width="1.81" stroke-linecap="round" stroke-linejoin="round"/>
<path d="M282.451 122.475L259.414 145.586C258.171 144.853 257.027 143.963 256.008 142.939C254.991 141.915 254.11 140.764 253.387 139.513L276.416 116.411C277.658 117.144 278.803 118.034 279.821 119.058C280.842 120.078 281.725 121.227 282.451 122.475V122.475Z" fill="#F9F9F9"/>
<path d="M267.915 173.131C260.72 182.713 256.958 231.18 267.915 244.27C278.89 231.171 275.101 182.713 267.915 173.131Z" fill="#DDDDDD" stroke="#DDDDDD" stroke-width="0.9" stroke-miterlimit="10"/>
<path d="M279.821 142.939C278.26 144.512 276.405 145.76 274.362 146.612C272.318 147.464 270.127 147.903 267.915 147.903C265.702 147.903 263.511 147.464 261.468 146.612C259.424 145.76 257.569 144.512 256.008 142.939C252.864 139.766 251.099 135.473 251.099 130.999C251.099 126.524 252.864 122.231 256.008 119.058C257.569 117.485 259.424 116.237 261.468 115.385C263.511 114.533 265.702 114.095 267.915 114.095C270.127 114.095 272.318 114.533 274.362 115.385C276.405 116.237 278.26 117.485 279.821 119.058C280.841 120.078 281.725 121.227 282.451 122.475C284.325 125.699 285.084 129.454 284.608 133.156C284.132 136.858 282.449 140.297 279.821 142.939V142.939Z" stroke="#DDDDDD" stroke-width="1.81" stroke-linecap="round" stroke-linejoin="round"/>
<path d="M353.7 285.537C351.869 286.906 349.954 288.158 347.965 289.284" stroke="#DDDDDD" stroke-width="1.81" stroke-linecap="round" stroke-linejoin="round"/>
<path d="M338.168 292.05C333.402 287.186 321.796 289.357 319.961 300.56C318.126 311.763 327.923 321.547 342.313 318.826" stroke="#DDDDDD" stroke-width="1.81" stroke-linecap="round" stroke-linejoin="round"/>
<path d="M261.998 247.147C263.824 260.118 263.094 282.643 262.984 284.072" stroke="#DDDDDD" stroke-width="1.81" stroke-linecap="round" stroke-linejoin="round"/>
<path d="M286.058 302.75C278.936 295.275 275.539 290.438 275.539 258.689" stroke="#DDDDDD" stroke-width="1.81" stroke-linecap="round" stroke-linejoin="round"/>
<path d="M156.034 251.15L258.035 291.235L307.424 390.038L197.643 341.47L150.427 253.559L156.034 251.15Z" fill="#DDDDDD"/>
<path d="M150.427 253.559L252.429 293.644L301.818 392.447L192.046 343.879L150.427 253.559Z" fill="#F9F9F9" stroke="#DDDDDD" stroke-width="0.9" stroke-linecap="round" stroke-linejoin="round"/>
</svg>
