<svg xmlns="http://www.w3.org/2000/svg" xmlns:xlink="http://www.w3.org/1999/xlink" width="256" zoomAndPan="magnify" viewBox="0 0 192 191.999996" height="256" preserveAspectRatio="xMidYMid meet" version="1.0"><defs><clipPath id="8664a18e15"><path d="M 28.117188 28.117188 L 112 28.117188 L 112 102 L 28.117188 102 Z M 28.117188 28.117188 " clip-rule="nonzero"/></clipPath><clipPath id="339dcb0c2d"><path d="M 89 45 L 172.867188 45 L 172.867188 120 L 89 120 Z M 89 45 " clip-rule="nonzero"/></clipPath><clipPath id="2946d88b03"><path d="M 49 99 L 134 99 L 134 172.867188 L 49 172.867188 Z M 49 99 " clip-rule="nonzero"/></clipPath></defs><g clip-path="url(#8664a18e15)"><path fill="#2f3136" d="M 111.652344 35.355469 L 111.652344 79.984375 C 111.652344 83.90625 108.332031 87.222656 104.414062 87.222656 L 66.113281 87.222656 L 37.765625 102 L 37.765625 87.222656 L 35.355469 87.222656 C 31.433594 87.222656 28.117188 83.90625 28.117188 79.984375 L 28.117188 35.355469 C 28.117188 31.433594 31.433594 28.117188 35.355469 28.117188 L 104.714844 28.117188 C 108.632812 28.117188 111.652344 31.433594 111.652344 35.355469 Z M 111.652344 35.355469 " fill-opacity="1" fill-rule="nonzero"/></g><path fill="#ffffff" d="M 55.558594 57.667969 C 55.558594 62 52.046875 65.511719 47.71875 65.511719 C 43.390625 65.511719 39.878906 62 39.878906 57.667969 C 39.878906 53.339844 43.390625 49.828125 47.71875 49.828125 C 52.046875 49.828125 55.558594 53.339844 55.558594 57.667969 Z M 55.558594 57.667969 " fill-opacity="1" fill-rule="nonzero"/><path fill="#ffffff" d="M 77.875 57.667969 C 77.875 62 74.363281 65.511719 70.035156 65.511719 C 65.703125 65.511719 62.195312 62 62.195312 57.667969 C 62.195312 53.339844 65.703125 49.828125 70.035156 49.828125 C 74.363281 49.828125 77.875 53.339844 77.875 57.667969 Z M 77.875 57.667969 " fill-opacity="1" fill-rule="nonzero"/><path fill="#ffffff" d="M 100.191406 57.667969 C 100.191406 62 96.679688 65.511719 92.351562 65.511719 C 88.019531 65.511719 84.511719 62 84.511719 57.667969 C 84.511719 53.339844 88.019531 49.828125 92.351562 49.828125 C 96.679688 49.828125 100.191406 53.339844 100.191406 57.667969 Z M 100.191406 57.667969 " fill-opacity="1" fill-rule="nonzero"/><g clip-path="url(#339dcb0c2d)"><path fill="#ffd15c" d="M 89.335938 53.148438 L 89.335938 97.476562 C 89.335938 101.394531 92.652344 104.714844 96.570312 104.714844 L 135.171875 104.714844 L 163.519531 119.492188 L 163.519531 104.714844 L 165.628906 104.714844 C 169.550781 104.714844 172.867188 101.394531 172.867188 97.476562 L 172.867188 53.148438 C 172.867188 49.226562 169.550781 45.910156 165.628906 45.910156 L 96.269531 45.910156 C 92.351562 45.910156 89.335938 49.226562 89.335938 53.148438 Z M 89.335938 53.148438 " fill-opacity="1" fill-rule="nonzero"/></g><path fill="#ffffff" d="M 161.105469 75.460938 C 161.105469 79.792969 157.597656 83.304688 153.265625 83.304688 C 148.933594 83.304688 145.425781 79.792969 145.425781 75.460938 C 145.425781 71.132812 148.933594 67.621094 153.265625 67.621094 C 157.597656 67.621094 161.105469 71.132812 161.105469 75.460938 Z M 161.105469 75.460938 " fill-opacity="1" fill-rule="nonzero"/><path fill="#ffffff" d="M 138.789062 75.460938 C 138.789062 79.792969 135.28125 83.304688 130.949219 83.304688 C 126.621094 83.304688 123.109375 79.792969 123.109375 75.460938 C 123.109375 71.132812 126.621094 67.621094 130.949219 67.621094 C 135.28125 67.621094 138.789062 71.132812 138.789062 75.460938 Z M 138.789062 75.460938 " fill-opacity="1" fill-rule="nonzero"/><path fill="#ffffff" d="M 116.476562 75.460938 C 116.476562 79.792969 112.964844 83.304688 108.632812 83.304688 C 104.304688 83.304688 100.792969 79.792969 100.792969 75.460938 C 100.792969 71.132812 104.304688 67.621094 108.632812 67.621094 C 112.964844 67.621094 116.476562 71.132812 116.476562 75.460938 Z M 116.476562 75.460938 " fill-opacity="1" fill-rule="nonzero"/><g clip-path="url(#2946d88b03)"><path fill="#66c6b9" d="M 133.0625 106.523438 L 133.0625 151.15625 C 133.0625 155.074219 129.746094 158.390625 125.824219 158.390625 L 102 158.390625 L 91.144531 172.867188 L 80.285156 158.089844 L 56.765625 158.089844 C 52.84375 158.089844 49.527344 154.773438 49.527344 150.851562 L 49.527344 106.523438 C 49.527344 102.601562 52.84375 99.285156 56.765625 99.285156 L 126.125 99.285156 C 130.046875 99.285156 133.0625 102.601562 133.0625 106.523438 Z M 133.0625 106.523438 " fill-opacity="1" fill-rule="nonzero"/></g><path fill="#ffffff" d="M 121.300781 128.839844 C 121.300781 133.167969 117.789062 136.679688 113.460938 136.679688 C 109.128906 136.679688 105.621094 133.167969 105.621094 128.839844 C 105.621094 124.507812 109.128906 121 113.460938 121 C 117.789062 121 121.300781 124.507812 121.300781 128.839844 Z M 121.300781 128.839844 " fill-opacity="1" fill-rule="nonzero"/><path fill="#ffffff" d="M 99.285156 128.839844 C 99.285156 133.167969 95.777344 136.679688 91.445312 136.679688 C 87.113281 136.679688 83.605469 133.167969 83.605469 128.839844 C 83.605469 124.507812 87.113281 121 91.445312 121 C 95.777344 121 99.285156 124.507812 99.285156 128.839844 Z M 99.285156 128.839844 " fill-opacity="1" fill-rule="nonzero"/><path fill="#ffffff" d="M 76.96875 128.839844 C 76.96875 133.167969 73.460938 136.679688 69.128906 136.679688 C 64.800781 136.679688 61.289062 133.167969 61.289062 128.839844 C 61.289062 124.507812 64.800781 121 69.128906 121 C 73.460938 121 76.96875 124.507812 76.96875 128.839844 Z M 76.96875 128.839844 " fill-opacity="1" fill-rule="nonzero"/></svg>