<svg xmlns="http://www.w3.org/2000/svg" xmlns:xlink="http://www.w3.org/1999/xlink" width="256" zoomAndPan="magnify" viewBox="0 0 192 191.999996" height="256" preserveAspectRatio="xMidYMid meet" version="1.0"><defs><clipPath id="e3c08f2e6e"><path d="M 18.050781 16.898438 L 174.050781 16.898438 L 174.050781 172.898438 L 18.050781 172.898438 Z M 18.050781 16.898438 " clip-rule="nonzero"/></clipPath></defs><g clip-path="url(#e3c08f2e6e)"><path fill="#2f3136" d="M 161.050781 167.699219 L 31.050781 167.699219 C 26.75 167.699219 23.25 164.199219 23.25 159.898438 L 23.25 63.699219 L 168.847656 63.699219 L 168.847656 159.898438 C 168.847656 164.199219 165.351562 167.699219 161.050781 167.699219 Z M 31.050781 32.5 L 46.648438 32.5 L 46.648438 40.300781 C 46.648438 44.601562 50.148438 48.097656 54.449219 48.097656 C 58.75 48.097656 62.25 44.601562 62.25 40.300781 L 62.25 32.5 L 88.25 32.5 L 88.25 40.300781 C 88.25 44.601562 91.75 48.097656 96.050781 48.097656 C 100.351562 48.097656 103.847656 44.601562 103.847656 40.300781 L 103.847656 32.5 L 129.847656 32.5 L 129.847656 40.300781 C 129.847656 44.601562 133.347656 48.097656 137.648438 48.097656 C 141.949219 48.097656 145.449219 44.601562 145.449219 40.300781 L 145.449219 32.5 L 161.050781 32.5 C 165.351562 32.5 168.847656 35.996094 168.847656 40.300781 L 168.847656 58.5 L 23.25 58.5 L 23.25 40.300781 C 23.25 35.996094 26.75 32.5 31.050781 32.5 Z M 51.847656 24.699219 C 51.847656 23.265625 53.015625 22.097656 54.449219 22.097656 C 55.882812 22.097656 57.050781 23.265625 57.050781 24.699219 L 57.050781 40.300781 C 57.050781 41.730469 55.882812 42.898438 54.449219 42.898438 C 53.015625 42.898438 51.847656 41.730469 51.847656 40.300781 Z M 93.449219 24.699219 C 93.449219 23.265625 94.617188 22.097656 96.050781 22.097656 C 97.484375 22.097656 98.648438 23.265625 98.648438 24.699219 L 98.648438 40.300781 C 98.648438 41.730469 97.484375 42.898438 96.050781 42.898438 C 94.617188 42.898438 93.449219 41.730469 93.449219 40.300781 Z M 135.050781 24.699219 C 135.050781 23.265625 136.214844 22.097656 137.648438 22.097656 C 139.082031 22.097656 140.25 23.265625 140.25 24.699219 L 140.25 40.300781 C 140.25 41.730469 139.082031 42.898438 137.648438 42.898438 C 136.214844 42.898438 135.050781 41.730469 135.050781 40.300781 Z M 161.050781 27.300781 L 145.449219 27.300781 L 145.449219 24.699219 C 145.449219 20.398438 141.949219 16.898438 137.648438 16.898438 C 133.347656 16.898438 129.847656 20.398438 129.847656 24.699219 L 129.847656 27.300781 L 103.847656 27.300781 L 103.847656 24.699219 C 103.847656 20.398438 100.351562 16.898438 96.050781 16.898438 C 91.75 16.898438 88.25 20.398438 88.25 24.699219 L 88.25 27.300781 L 62.25 27.300781 L 62.25 24.699219 C 62.25 20.398438 58.75 16.898438 54.449219 16.898438 C 50.148438 16.898438 46.648438 20.398438 46.648438 24.699219 L 46.648438 27.300781 L 31.050781 27.300781 C 23.882812 27.300781 18.050781 33.132812 18.050781 40.300781 L 18.050781 159.898438 C 18.050781 167.066406 23.882812 172.898438 31.050781 172.898438 L 161.050781 172.898438 C 168.21875 172.898438 174.050781 167.066406 174.050781 159.898438 L 174.050781 40.300781 C 174.050781 33.132812 168.21875 27.300781 161.050781 27.300781 " fill-opacity="1" fill-rule="nonzero"/></g><path fill="#2f3136" d="M 153.25 92.300781 L 148.050781 92.300781 L 148.050781 87.097656 L 153.25 87.097656 Z M 155.847656 81.898438 L 145.449219 81.898438 C 144.015625 81.898438 142.847656 83.0625 142.847656 84.5 L 142.847656 94.898438 C 142.847656 96.335938 144.015625 97.5 145.449219 97.5 L 155.847656 97.5 C 157.285156 97.5 158.449219 96.335938 158.449219 94.898438 L 158.449219 84.5 C 158.449219 83.0625 157.285156 81.898438 155.847656 81.898438 " fill-opacity="1" fill-rule="nonzero"/><path fill="#2f3136" d="M 101.25 144.300781 L 96.050781 144.300781 L 96.050781 139.097656 L 101.25 139.097656 Z M 103.847656 133.898438 L 93.449219 133.898438 C 92.015625 133.898438 90.847656 135.0625 90.847656 136.5 L 90.847656 146.898438 C 90.847656 148.335938 92.015625 149.5 93.449219 149.5 L 103.847656 149.5 C 105.285156 149.5 106.449219 148.335938 106.449219 146.898438 L 106.449219 136.5 C 106.449219 135.0625 105.285156 133.898438 103.847656 133.898438 " fill-opacity="1" fill-rule="nonzero"/><path fill="#2f3136" d="M 75.25 92.300781 L 70.050781 92.300781 L 70.050781 87.097656 L 75.25 87.097656 Z M 77.847656 81.898438 L 67.449219 81.898438 C 66.015625 81.898438 64.847656 83.0625 64.847656 84.5 L 64.847656 94.898438 C 64.847656 96.335938 66.015625 97.5 67.449219 97.5 L 77.847656 97.5 C 79.285156 97.5 80.449219 96.335938 80.449219 94.898438 L 80.449219 84.5 C 80.449219 83.0625 79.285156 81.898438 77.847656 81.898438 " fill-opacity="1" fill-rule="nonzero"/><path fill="#2f3136" d="M 49.25 118.300781 L 44.050781 118.300781 L 44.050781 113.097656 L 49.25 113.097656 Z M 51.847656 107.898438 L 41.449219 107.898438 C 40.015625 107.898438 38.847656 109.0625 38.847656 110.5 L 38.847656 120.898438 C 38.847656 122.335938 40.015625 123.5 41.449219 123.5 L 51.847656 123.5 C 53.285156 123.5 54.449219 122.335938 54.449219 120.898438 L 54.449219 110.5 C 54.449219 109.0625 53.285156 107.898438 51.847656 107.898438 " fill-opacity="1" fill-rule="nonzero"/><path fill="#2f3136" d="M 75.25 118.300781 L 70.050781 118.300781 L 70.050781 113.097656 L 75.25 113.097656 Z M 77.847656 107.898438 L 67.449219 107.898438 C 66.015625 107.898438 64.847656 109.0625 64.847656 110.5 L 64.847656 120.898438 C 64.847656 122.335938 66.015625 123.5 67.449219 123.5 L 77.847656 123.5 C 79.285156 123.5 80.449219 122.335938 80.449219 120.898438 L 80.449219 110.5 C 80.449219 109.0625 79.285156 107.898438 77.847656 107.898438 " fill-opacity="1" fill-rule="nonzero"/><path fill="#2f3136" d="M 49.25 144.300781 L 44.050781 144.300781 L 44.050781 139.097656 L 49.25 139.097656 Z M 51.847656 133.898438 L 41.449219 133.898438 C 40.015625 133.898438 38.847656 135.0625 38.847656 136.5 L 38.847656 146.898438 C 38.847656 148.335938 40.015625 149.5 41.449219 149.5 L 51.847656 149.5 C 53.285156 149.5 54.449219 148.335938 54.449219 146.898438 L 54.449219 136.5 C 54.449219 135.0625 53.285156 133.898438 51.847656 133.898438 " fill-opacity="1" fill-rule="nonzero"/><path fill="#2f3136" d="M 75.25 144.300781 L 70.050781 144.300781 L 70.050781 139.097656 L 75.25 139.097656 Z M 77.847656 133.898438 L 67.449219 133.898438 C 66.015625 133.898438 64.847656 135.0625 64.847656 136.5 L 64.847656 146.898438 C 64.847656 148.335938 66.015625 149.5 67.449219 149.5 L 77.847656 149.5 C 79.285156 149.5 80.449219 148.335938 80.449219 146.898438 L 80.449219 136.5 C 80.449219 135.0625 79.285156 133.898438 77.847656 133.898438 " fill-opacity="1" fill-rule="nonzero"/><path fill="#2f3136" d="M 120.1875 104.03125 C 119.613281 104.621094 119.351562 105.453125 119.484375 106.265625 L 121.078125 116.03125 L 112.90625 111.515625 C 112.515625 111.300781 112.082031 111.195312 111.648438 111.195312 C 111.214844 111.195312 110.785156 111.300781 110.390625 111.515625 L 102.222656 116.03125 L 103.816406 106.265625 C 103.949219 105.453125 103.6875 104.621094 103.109375 104.03125 L 96.242188 96.996094 L 105.617188 95.5625 C 106.472656 95.433594 107.207031 94.882812 107.574219 94.097656 L 111.648438 85.417969 L 115.722656 94.097656 C 116.089844 94.882812 116.828125 95.433594 117.683594 95.5625 L 127.054688 96.996094 Z M 132.84375 92.617188 L 119.839844 90.632812 L 114.003906 78.195312 C 113.574219 77.28125 112.65625 76.699219 111.648438 76.699219 C 110.640625 76.699219 109.722656 77.28125 109.296875 78.195312 L 103.457031 90.632812 L 90.457031 92.617188 C 89.492188 92.765625 88.695312 93.4375 88.382812 94.363281 C 88.074219 95.289062 88.308594 96.308594 88.988281 97.003906 L 98.472656 106.726562 L 96.230469 120.480469 C 96.070312 121.460938 96.484375 122.449219 97.296875 123.023438 C 98.109375 123.597656 99.179688 123.65625 100.050781 123.175781 L 111.648438 116.765625 L 123.246094 123.175781 C 123.640625 123.390625 124.074219 123.5 124.503906 123.5 C 125.03125 123.5 125.554688 123.339844 126 123.023438 C 126.816406 122.449219 127.230469 121.460938 127.070312 120.480469 L 124.828125 106.726562 L 134.3125 97.003906 C 134.992188 96.308594 135.226562 95.289062 134.914062 94.363281 C 134.605469 93.4375 133.804688 92.765625 132.84375 92.617188 " fill-opacity="1" fill-rule="nonzero"/><path fill="#2f3136" d="M 153.25 118.300781 L 148.050781 118.300781 L 148.050781 113.097656 L 153.25 113.097656 Z M 155.847656 107.898438 L 145.449219 107.898438 C 144.015625 107.898438 142.847656 109.0625 142.847656 110.5 L 142.847656 120.898438 C 142.847656 122.335938 144.015625 123.5 145.449219 123.5 L 155.847656 123.5 C 157.285156 123.5 158.449219 122.335938 158.449219 120.898438 L 158.449219 110.5 C 158.449219 109.0625 157.285156 107.898438 155.847656 107.898438 " fill-opacity="1" fill-rule="nonzero"/><path fill="#2f3136" d="M 153.25 144.300781 L 148.050781 144.300781 L 148.050781 139.097656 L 153.25 139.097656 Z M 155.847656 133.898438 L 145.449219 133.898438 C 144.015625 133.898438 142.847656 135.0625 142.847656 136.5 L 142.847656 146.898438 C 142.847656 148.335938 144.015625 149.5 145.449219 149.5 L 155.847656 149.5 C 157.285156 149.5 158.449219 148.335938 158.449219 146.898438 L 158.449219 136.5 C 158.449219 135.0625 157.285156 133.898438 155.847656 133.898438 " fill-opacity="1" fill-rule="nonzero"/><path fill="#2f3136" d="M 127.25 144.300781 L 122.050781 144.300781 L 122.050781 139.097656 L 127.25 139.097656 Z M 129.847656 133.898438 L 119.449219 133.898438 C 118.015625 133.898438 116.847656 135.0625 116.847656 136.5 L 116.847656 146.898438 C 116.847656 148.335938 118.015625 149.5 119.449219 149.5 L 129.847656 149.5 C 131.285156 149.5 132.449219 148.335938 132.449219 146.898438 L 132.449219 136.5 C 132.449219 135.0625 131.285156 133.898438 129.847656 133.898438 " fill-opacity="1" fill-rule="nonzero"/></svg>