<svg width="663" height="517" viewBox="0 0 663 517" fill="none" xmlns="http://www.w3.org/2000/svg">
<path d="M240.407 457.734V460.703L291.436 468.222L355.19 481.82C355.19 481.82 358.625 478.757 352.176 473.438C345.728 468.118 310.034 461.286 291.9 465.064C291.9 465.008 273.464 450.676 240.407 457.734Z" fill="#DDDDDD" stroke="#DDDDDD" stroke-linecap="round" stroke-linejoin="round"/>
<path d="M234.577 458.579C234.577 458.579 274.624 456.465 286.782 467.15C291.934 471.661 295.832 468.24 301.68 468.09C307.527 467.94 339.099 464.077 356.633 483.239L389.089 454.717C389.089 454.717 369.658 431.485 335.227 445.385C335.227 445.385 324.923 431.73 287.658 438.618C287.332 439.126 234.577 458.579 234.577 458.579Z" fill="#F9F9F9" stroke="#DDDDDD" stroke-linecap="round" stroke-linejoin="round"/>
<path d="M335.235 445.413L290.534 465.007" stroke="#DDDDDD" stroke-linecap="round" stroke-linejoin="round"/>
<path d="M612.328 182.255V461.154C568.339 447.142 509.291 437.989 444.892 432.575V182.255H612.328Z" fill="#F9F9F9" stroke="#DDDDDD" stroke-linecap="round" stroke-linejoin="round"/>
<path d="M612.327 258.481H600.092V306.015" stroke="#DDDDDD" stroke-linecap="round" stroke-linejoin="round"/>
<path d="M531.289 302.933V255.521L520.367 256.226V305" stroke="#DDDDDD" stroke-linecap="round" stroke-linejoin="round"/>
<path d="M508.509 308.243V259.703L520.367 259.224" stroke="#DDDDDD" stroke-linecap="round" stroke-linejoin="round"/>
<path d="M499.313 308.243L498.686 264.627H508.509V308.243" fill="#DDDDDD"/>
<path d="M499.313 308.243L498.686 264.627H508.509V308.243" stroke="#DDDDDD" stroke-linecap="round" stroke-linejoin="round"/>
<path d="M456.407 308.243L444.866 265.746L453.805 263.472" stroke="#DDDDDD" stroke-width="0.75" stroke-linecap="round" stroke-linejoin="round"/>
<path d="M465.628 308.055C465.525 308.243 452.534 258.622 452.534 258.622L463.053 257.795L477.023 308.243" fill="#DDDDDD"/>
<path d="M465.628 308.055C465.525 308.243 452.534 258.622 452.534 258.622L463.053 257.795L477.023 308.243" stroke="#DDDDDD" stroke-linecap="round" stroke-linejoin="round"/>
<path d="M466.685 270.896L480.071 269.232L495.329 308.243" stroke="#DDDDDD" stroke-width="0.75" stroke-linecap="round" stroke-linejoin="round"/>
<path d="M506.199 237.477C506.32 237.477 517.748 190.206 517.748 190.206L525.476 191.39L514.666 237.439" fill="#DDDDDD"/>
<path d="M506.199 237.477C506.32 237.477 517.748 190.206 517.748 190.206L525.476 191.39L514.666 237.439" stroke="#DDDDDD" stroke-miterlimit="10"/>
<path d="M527.176 236.331L526.858 186.879H540.433L539.824 234.564" fill="#F9F9F9"/>
<path d="M527.176 236.331L526.858 186.879H540.433L539.824 234.564" stroke="#DDDDDD" stroke-width="0.75" stroke-linecap="round" stroke-linejoin="round"/>
<path d="M540.391 190.206H556.078L554.979 235.052" fill="#F9F9F9"/>
<path d="M540.391 190.206H556.078L554.979 235.052" stroke="#DDDDDD" stroke-width="0.75" stroke-linecap="round" stroke-linejoin="round"/>
<path d="M590.844 185.836L602.058 186.879L589.694 237.477L580.472 234L590.844 185.836Z" stroke="#DDDDDD" stroke-linecap="round" stroke-linejoin="round"/>
<path d="M601.242 236.998L612.328 192.612L601.242 190.206L589.694 237.477" fill="#DDDDDD"/>
<path d="M601.242 236.998L612.328 192.612L601.242 190.206L589.694 237.477" stroke="#DDDDDD" stroke-linecap="round" stroke-linejoin="round"/>
<path d="M493.766 224.706H500.146V237.477" stroke="#DDDDDD" stroke-linecap="round" stroke-linejoin="round"/>
<path d="M455.187 225.589L455.471 237.477" stroke="#DDDDDD" stroke-linecap="round" stroke-linejoin="round"/>
<path d="M501.872 208.626H455.471V216.736H501.872V208.626Z" stroke="#DDDDDD" stroke-linecap="round" stroke-linejoin="round"/>
<path d="M455.471 216.736H449.589V225.711L493.766 224.706V216.736" fill="#DDDDDD"/>
<path d="M455.471 216.736H449.589V225.711L493.766 224.706V216.736" stroke="#DDDDDD" stroke-linecap="round" stroke-linejoin="round"/>
<path d="M612.327 237.477H444.866V249.901H612.327V237.477Z" stroke="#DDDDDD" stroke-linecap="round" stroke-linejoin="round"/>
<path d="M612.327 308.243H444.866V320.667H612.327V308.243Z" stroke="#DDDDDD" stroke-linecap="round" stroke-linejoin="round"/>
<path d="M624.64 165.894V465.346C620.679 463.899 616.575 462.501 612.327 461.154C568.339 447.142 509.29 437.989 444.892 432.576C440.816 432.225 436.712 431.896 432.579 431.589V165.894H624.64Z" stroke="#DDDDDD" stroke-width="2" stroke-linecap="round" stroke-linejoin="round"/>
<path d="M1 447.584C15.9833 443.74 37.5438 440.178 63.844 437.115C74.1477 435.912 85.2328 434.784 96.9275 433.741C101.507 433.34 106.172 432.945 110.923 432.557C114.284 432.294 117.689 432.037 121.141 431.786C130.918 431.066 141.016 430.405 151.434 429.803C199.269 427.068 253.097 425.734 307.759 426.373C311.159 426.411 314.565 426.461 317.976 426.523C324.846 426.624 331.692 426.765 338.515 426.946C345.585 427.134 352.648 427.35 359.706 427.595C384.315 428.469 408.761 429.775 432.554 431.589C436.681 431.896 440.785 432.225 444.867 432.576L447.717 432.82C469.973 434.699 491.508 437.087 512.064 439.953C545.877 444.652 576.797 450.723 603.08 458.335C606.24 459.256 609.334 460.196 612.362 461.154C616.609 462.508 620.714 463.905 624.675 465.346C639.272 470.674 651.877 476.623 662 483.267" stroke="#DDDDDD" stroke-width="2" stroke-linecap="round" stroke-linejoin="round"/>
<path d="M307.758 112.157V426.373C241.222 425.602 175.897 427.754 121.141 431.786V112.157H307.758Z" fill="#F9F9F9" stroke="#DDDDDD" stroke-linecap="round" stroke-linejoin="round"/>
<path d="M248.152 407.164L262.345 359.809L270.545 360.692L258.078 407.08" stroke="#DDDDDD" stroke-linecap="round" stroke-linejoin="round"/>
<path d="M269.282 407.079L283.69 349.396H273.662L270.545 360.692" stroke="#DDDDDD" stroke-linecap="round" stroke-linejoin="round"/>
<path d="M279.157 407.08L289.718 358.54L281.544 357.985L269.282 407.08" fill="#DDDDDD"/>
<path d="M279.157 407.08L289.718 358.54L281.544 357.985L269.282 407.08" stroke="#DDDDDD" stroke-linecap="round" stroke-linejoin="round"/>
<path d="M307.758 347.892C307.758 348.118 291.633 347.892 291.633 347.892L292.226 406.61" stroke="#DDDDDD" stroke-linecap="round" stroke-linejoin="round"/>
<path d="M242.493 282.652H254.746L264.56 327.997H253.552" fill="#DDDDDD"/>
<path d="M242.493 282.652H254.746L264.56 327.997H253.552" stroke="#DDDDDD" stroke-linecap="round" stroke-linejoin="round"/>
<path d="M274.374 277.944H264.56C264.56 277.944 265.367 328.044 266.226 328.044H275.671" fill="#F9F9F9"/>
<path d="M274.374 277.944H264.56C264.56 277.944 265.367 328.044 266.226 328.044H275.671" stroke="#DDDDDD" stroke-linecap="round" stroke-linejoin="round"/>
<path d="M275.671 328.044C275.079 327.255 274.357 269.533 274.357 269.533H286.164V328.044" fill="#F9F9F9"/>
<path d="M275.671 328.044C275.079 327.255 274.357 269.533 274.357 269.533H286.164V328.044" stroke="#DDDDDD" stroke-linecap="round" stroke-linejoin="round"/>
<path d="M294.561 328.044L306.582 278.997L297.996 275.764C297.996 275.764 286.138 320.309 286.138 320.676V328.044" fill="#DDDDDD"/>
<path d="M294.561 328.044L306.582 278.997L297.996 275.764C297.996 275.764 286.138 320.309 286.138 320.676V328.044" stroke="#DDDDDD" stroke-linecap="round" stroke-linejoin="round"/>
<path d="M244.245 327.997L231.425 276.525L240.939 274.833L253.552 327.997" fill="#F9F9F9"/>
<path d="M244.245 327.997L231.425 276.525L240.939 274.833L253.552 327.997" stroke="#DDDDDD" stroke-linecap="round" stroke-linejoin="round"/>
<path d="M190.253 303.459L186.355 303.14V307.97" stroke="#DDDDDD" stroke-linecap="round" stroke-linejoin="round"/>
<path d="M230.18 305.555L229.828 313.204" stroke="#DDDDDD" stroke-linecap="round" stroke-linejoin="round"/>
<path d="M192.469 293.695L191.473 284.908H230.618V293.695" stroke="#DDDDDD" stroke-linecap="round" stroke-linejoin="round"/>
<path d="M190.253 303.459L189.609 293.695H233.555L234.061 305.649L190.253 303.459Z" fill="#DDDDDD" stroke="#DDDDDD" stroke-miterlimit="10"/>
<path d="M189.609 312.011L232.241 313.205V327.997" stroke="#DDDDDD" stroke-linecap="round" stroke-linejoin="round"/>
<path d="M201.081 218.954H149.142V228.061H201.081V218.954Z" stroke="#DDDDDD" stroke-width="0.75" stroke-linecap="round" stroke-linejoin="round"/>
<path d="M198.676 248.717C199.106 249.581 198.676 236.049 198.676 236.049L156.414 235.419V248.905" stroke="#DDDDDD" stroke-width="0.75" stroke-linecap="round" stroke-linejoin="round"/>
<path d="M196.135 228.061V236.011" stroke="#DDDDDD" stroke-width="0.75" stroke-linecap="round" stroke-linejoin="round"/>
<path d="M205.855 248.98L207.65 186.428L221.019 187.274L219.868 248.914" fill="#DDDDDD"/>
<path d="M205.855 248.98L207.65 186.428L221.019 187.274L219.868 248.914" stroke="#DDDDDD" stroke-linecap="round" stroke-linejoin="round"/>
<path d="M220.95 190.892H232.095L231.082 248.914" stroke="#DDDDDD" stroke-width="0.75" stroke-linecap="round" stroke-linejoin="round"/>
<path d="M159.351 228.681L159.78 235.466" stroke="#DDDDDD" stroke-width="0.75" stroke-linecap="round" stroke-linejoin="round"/>
<path d="M121.141 196.86H133.179L135.3 248.98" stroke="#DDDDDD" stroke-linecap="round" stroke-linejoin="round"/>
<path d="M145.321 248.717L143.921 201.032L133.325 200.412" stroke="#DDDDDD" stroke-linecap="round" stroke-linejoin="round"/>
<path d="M232.095 248.914L243.953 195.29L256.403 198.41" stroke="#DDDDDD" stroke-linecap="round" stroke-linejoin="round"/>
<path d="M243.721 248.914L258.103 190.892L270.416 196.174L257.768 248.914" stroke="#DDDDDD" stroke-linecap="round" stroke-linejoin="round"/>
<path d="M287.804 248.98L287.065 186.428L270.485 185.742V248.98" stroke="#DDDDDD" stroke-linecap="round" stroke-linejoin="round"/>
<path d="M302.006 248.98L301.139 191.512H287.065L288.276 248.98" fill="#DDDDDD"/>
<path d="M302.006 248.98L301.139 191.512H287.065L288.276 248.98" stroke="#DDDDDD" stroke-linecap="round" stroke-linejoin="round"/>
<path d="M307.758 248.905H121.133V261.338H307.758V248.905Z" stroke="#DDDDDD" stroke-linecap="round" stroke-linejoin="round"/>
<path d="M307.758 327.997H121.133V340.42H307.758V327.997Z" stroke="#DDDDDD" stroke-linecap="round" stroke-linejoin="round"/>
<path d="M307.758 407.08H121.133V419.513H307.758V407.08Z" stroke="#DDDDDD" stroke-width="2" stroke-linecap="round" stroke-linejoin="round"/>
<path d="M317.976 96.3125V426.523C314.542 426.461 311.136 426.411 307.758 426.373C241.222 425.602 175.897 427.755 121.141 431.786C117.707 432.031 114.301 432.287 110.923 432.557V96.3125H317.976Z" stroke="#DDDDDD" stroke-width="2" stroke-linecap="round" stroke-linejoin="round"/>
<path d="M236.878 118.604L234.971 125.145L221.946 169.832H213.978L229.528 116.443L236.878 118.604Z" stroke="#DDDDDD" stroke-width="0.75" stroke-linecap="round" stroke-linejoin="round"/>
<path d="M234.98 125.145L246.108 128.378L234.577 169.832" stroke="#DDDDDD" stroke-width="0.75" stroke-linecap="round" stroke-linejoin="round"/>
<path d="M246.374 112.167L245.43 169.822" stroke="#DDDDDD" stroke-width="0.75" stroke-linecap="round" stroke-linejoin="round"/>
<path d="M250.479 116.791H261.752" stroke="#DDDDDD" stroke-width="0.75" stroke-linecap="round" stroke-linejoin="round"/>
<path d="M265.093 112.167V169.822" stroke="#DDDDDD" stroke-width="0.75" stroke-linecap="round" stroke-linejoin="round"/>
<path d="M265.093 142.691L272.649 169.822" stroke="#DDDDDD" stroke-width="0.75" stroke-linecap="round" stroke-linejoin="round"/>
<path d="M279.501 169.822L287.065 166.354L271.704 123.012L265.093 125.145" stroke="#DDDDDD" stroke-width="0.75" stroke-linecap="round" stroke-linejoin="round"/>
<path d="M285.666 166.993L286.602 169.822H289.856L295.429 166.739L285.529 129.393L275.01 132.343" stroke="#DDDDDD" stroke-width="0.75" stroke-linecap="round" stroke-linejoin="round"/>
<path d="M307.758 169.822H121.133V182.246H307.758V169.822Z" stroke="#DDDDDD" stroke-linecap="round" stroke-linejoin="round"/>
<path d="M141.56 169.832H132.887L121.141 128.397L130.492 125.145L141.645 164.353" stroke="#DDDDDD" stroke-linecap="round" stroke-linejoin="round"/>
<path d="M153.512 169.832H141.56L141.645 164.353L142.392 117.674H152.645L152.894 132.137L153.546 169.832" stroke="#DDDDDD" stroke-linecap="round" stroke-linejoin="round"/>
<path d="M177.975 169.832H164.357L163.747 128.904L163.567 116.856L175.545 116.443C175.545 116.443 175.657 118.877 175.828 122.768C176.343 134.449 177.451 159.118 177.975 169.832Z" stroke="#DDDDDD" stroke-linecap="round" stroke-linejoin="round"/>
<path d="M153.512 169.832L152.894 132.137L152.8 126.085L163.747 128.904H163.756L164.357 169.832H153.547" fill="#DDDDDD"/>
<path d="M153.512 169.832L152.894 132.137L152.8 126.085L163.747 128.904H163.756L164.357 169.832H153.547" stroke="#DDDDDD" stroke-linecap="round" stroke-linejoin="round"/>
<path d="M177.975 169.832H189.867L188.819 125.145L188.768 122.768H175.828L177.975 169.832Z" fill="#DDDDDD" stroke="#DDDDDD" stroke-linecap="round" stroke-linejoin="round"/>
<path d="M188.819 125.145H201.896L202.3 169.832H189.867" stroke="#DDDDDD" stroke-linecap="round" stroke-linejoin="round"/>
<path d="M443.733 493.934L505.71 468.071L567.214 475.59C567.214 475.59 571.43 477.206 569.438 482.892L508.595 516L443.733 493.934Z" fill="#F9F9F9" stroke="#DDDDDD" stroke-linecap="round" stroke-linejoin="round"/>
<path d="M509.325 507.213C509.325 507.213 549.518 486.716 567.215 475.627Z" fill="#F9F9F9"/>
<path d="M509.325 507.213C509.325 507.213 549.518 486.716 567.215 475.627" stroke="#DDDDDD" stroke-linecap="round" stroke-linejoin="round"/>
<path d="M443.733 493.934C443.733 493.934 505.71 503.915 509.325 507.213C510.973 508.717 511.119 516.461 507.513 515.953C503.907 515.446 443.733 505.531 443.733 505.531C443.733 505.531 452.551 501.133 443.733 493.934Z" fill="#DDDDDD" stroke="#DDDDDD" stroke-linecap="round" stroke-linejoin="round"/>
<path d="M525.676 141.496C542.102 137.828 552.701 120.282 549.35 102.304C545.999 84.3271 529.968 72.7266 513.542 76.3939C497.117 80.0612 486.518 97.6077 489.869 115.585C493.22 133.562 509.251 145.163 525.676 141.496Z" stroke="#DDDDDD" stroke-width="2" stroke-linecap="round" stroke-linejoin="round"/>
<path d="M534.303 118.256L523.192 109.517C523.222 109.321 523.239 109.123 523.243 108.924C523.241 108.205 523.061 107.499 522.72 106.883C522.38 106.267 521.893 105.764 521.311 105.428C521.114 100.889 520.753 92.591 520.41 84.8097C520.341 83.2026 518.933 83.212 518.873 84.8097L518.014 105.334C517.285 105.73 516.699 106.383 516.35 107.188C516.002 107.993 515.911 108.903 516.092 109.771C516.274 110.64 516.717 111.416 517.351 111.975C517.985 112.534 518.772 112.843 519.585 112.853C520.348 112.853 521.092 112.586 521.706 112.092L533.435 119.61C534.732 120.503 535.505 119.196 534.303 118.256Z" fill="#DDDDDD" stroke="#DDDDDD" stroke-miterlimit="10"/>
<path d="M214.072 462.602L297.996 479.912C297.996 479.912 292.243 490.165 299.713 493.182L239.136 511.301C239.136 511.301 161.764 491.857 158.973 490.522C156.183 489.188 153.169 482.807 160.141 480.326C167.113 477.845 214.072 462.602 214.072 462.602Z" fill="#F9F9F9" stroke="#DDDDDD" stroke-linecap="round" stroke-linejoin="round"/>
<path d="M239.136 511.301C236.002 510.897 233.924 503.492 240.218 500.964C246.28 498.52 297.962 479.95 297.962 479.95" fill="#F9F9F9"/>
<path d="M239.136 511.301C236.002 510.897 233.924 503.492 240.218 500.964C246.28 498.52 297.962 479.95 297.962 479.95" stroke="#DDDDDD" stroke-linecap="round" stroke-linejoin="round"/>
<path d="M170.419 485.288L226.857 500.014" stroke="#DDDDDD" stroke-linecap="round" stroke-linejoin="round"/>
<path d="M50.6466 489.367C59.5764 487.102 57.9708 484.001 55.6353 478.005C53.2998 472.009 46.1902 466.126 35.1051 468.682C24.0201 471.239 24.0201 482.854 32.6752 486.172C41.3303 489.489 46.1215 490.513 50.6466 489.367Z" fill="#F9F9F9" stroke="#DDDDDD" stroke-linecap="round" stroke-linejoin="round"/>
<path d="M52.6731 480.73C53.7292 482.935 54.5917 485.245 55.249 487.628Z" fill="#F9F9F9"/>
<path d="M52.6731 480.73C53.7292 482.935 54.5917 485.245 55.249 487.628" stroke="#DDDDDD" stroke-linecap="round" stroke-linejoin="round"/>
<path d="M48.7151 477.347C49.5005 478.662 50.3943 479.895 51.3854 481.031C52.5188 482.262 53.7295 481.773 53.5063 480.467C53.0872 478.408 52.2013 476.498 50.9304 474.913C50.6262 474.65 50.2442 474.518 49.8573 474.544C49.4703 474.569 49.1053 474.749 48.8317 475.049C48.5581 475.35 48.395 475.75 48.3735 476.174C48.352 476.597 48.4736 477.015 48.7151 477.347V477.347Z" fill="#F9F9F9" stroke="#DDDDDD" stroke-linecap="round" stroke-linejoin="round"/>
<path d="M438.968 1V115.738C438.528 116.085 438.17 116.541 437.922 117.068C437.675 117.596 437.544 118.18 437.542 118.773V121.903C437.544 122.496 437.675 123.08 437.922 123.608C438.17 124.135 438.528 124.591 438.968 124.938V129.393H442.995V124.938C443.433 124.59 443.789 124.134 444.036 123.606C444.282 123.079 444.411 122.495 444.412 121.903V118.773C444.411 118.181 444.282 117.597 444.036 117.07C443.789 116.542 443.433 116.086 442.995 115.738V1" fill="#DDDDDD"/>
<path d="M438.968 1V115.738C438.528 116.085 438.17 116.541 437.922 117.068C437.675 117.596 437.544 118.18 437.542 118.773V121.903C437.544 122.496 437.675 123.08 437.922 123.608C438.17 124.135 438.528 124.591 438.968 124.938V129.393H442.995V124.938C443.433 124.59 443.789 124.134 444.036 123.606C444.282 123.079 444.411 122.495 444.412 121.903V118.773C444.411 118.181 444.282 117.597 444.036 117.07C443.789 116.542 443.433 116.086 442.995 115.738V1" stroke="#DDDDDD" stroke-width="2" stroke-linecap="round" stroke-linejoin="round"/>
<path d="M264.852 1V115.738C264.414 116.086 264.058 116.542 263.812 117.07C263.565 117.597 263.436 118.181 263.436 118.773V121.903C263.436 122.495 263.565 123.079 263.812 123.606C264.058 124.134 264.414 124.59 264.852 124.938V129.393H268.879V124.938C269.319 124.591 269.677 124.135 269.925 123.608C270.173 123.08 270.303 122.496 270.305 121.903V118.773C270.303 118.18 270.173 117.596 269.925 117.068C269.677 116.541 269.319 116.085 268.879 115.738V1" fill="#DDDDDD"/>
<path d="M264.852 1V115.738C264.414 116.086 264.058 116.542 263.812 117.07C263.565 117.597 263.436 118.181 263.436 118.773V121.903C263.436 122.495 263.565 123.079 263.812 123.606C264.058 124.134 264.414 124.59 264.852 124.938V129.393H268.879V124.938C269.319 124.591 269.677 124.135 269.925 123.608C270.173 123.08 270.303 122.496 270.305 121.903V118.773C270.303 118.18 270.173 117.596 269.925 117.068C269.677 116.541 269.319 116.085 268.879 115.738V1" stroke="#DDDDDD" stroke-width="2" stroke-linecap="round" stroke-linejoin="round"/>
<path d="M451.444 119.938H256.403V133.246H451.444V119.938Z" fill="#DDDDDD" stroke="#DDDDDD" stroke-width="2" stroke-linecap="round" stroke-linejoin="round"/>
<path d="M454.088 123.369H451.444V129.825H454.088V123.369Z" fill="#F9F9F9" stroke="#DDDDDD" stroke-linecap="round" stroke-linejoin="round"/>
<path d="M443.072 133.246H264.766C263.225 133.246 261.976 134.614 261.976 136.3V136.488C261.976 138.175 263.225 139.543 264.766 139.543H443.072C444.613 139.543 445.862 138.175 445.862 136.488V136.3C445.862 134.614 444.613 133.246 443.072 133.246Z" fill="#F9F9F9" stroke="#DDDDDD" stroke-linecap="round" stroke-linejoin="round"/>
<path d="M429.574 482.516L490.598 455.995L551.158 462.827C551.158 462.827 555.262 468.053 552.472 473.992L493.44 503.839L429.574 482.516Z" fill="#F9F9F9" stroke="#DDDDDD" stroke-linecap="round" stroke-linejoin="round"/>
<path d="M494.161 495.062C494.161 495.062 543.396 470.43 551.158 462.827Z" fill="#F9F9F9"/>
<path d="M494.161 495.062C494.161 495.062 543.396 470.43 551.158 462.827" stroke="#DDDDDD" stroke-linecap="round" stroke-linejoin="round"/>
<path d="M429.574 482.516C429.574 482.516 490.598 491.801 494.161 495.062C495.775 496.547 495.93 504.29 492.367 503.82C488.803 503.351 429.574 494.113 429.574 494.113C429.574 494.113 438.221 489.62 429.574 482.516Z" fill="#F9F9F9" stroke="#DDDDDD" stroke-linecap="round" stroke-linejoin="round"/>
<path d="M215.008 374.093C222.35 384.195 240.441 424.841 226.334 436.748C206.825 453.213 184.26 407.709 180.122 394.458L215.008 374.093Z" fill="#FEBD9D"/>
<path d="M217.052 372.411C217.052 372.411 214.304 374.732 209.942 377.937C202.026 383.754 188.794 392.456 177.065 395.313C177.065 395.313 175.854 392.663 174.008 388.669L169.887 379.732C167.405 374.328 164.649 368.332 162.296 363.192L159.557 357.177C159.051 356.068 158.596 355.062 158.209 354.188C151.34 338.955 143.655 303.064 166.22 300.677C168.148 300.458 170.09 300.414 172.025 300.546H172.119C172.651 300.593 173.167 300.649 173.673 300.724L174.103 300.79L174.858 300.94C175.159 300.997 175.459 301.072 175.717 301.147C175.974 301.222 176.181 301.269 176.404 301.345L176.721 301.429L177.374 301.664C177.581 301.733 177.785 301.814 177.984 301.908C178.192 301.976 178.396 302.061 178.593 302.162C178.83 302.261 179.063 302.374 179.289 302.5C179.497 302.596 179.7 302.702 179.898 302.82V302.82C180.167 302.958 180.425 303.108 180.671 303.271C180.894 303.403 181.109 303.544 181.315 303.685L181.848 304.07C182.473 304.524 183.075 305.017 183.651 305.545C183.9 305.771 184.14 305.987 184.372 306.231C185.154 307.007 185.896 307.829 186.596 308.694C186.828 308.985 187.068 309.286 187.3 309.633C187.532 309.981 187.661 310.113 187.841 310.357C188.133 310.752 188.425 311.165 188.7 311.598C188.897 311.87 189.086 312.161 189.275 312.453C189.567 312.894 189.859 313.393 190.133 313.825C190.408 314.257 190.589 314.548 190.812 314.943L191.516 316.165C191.756 316.578 191.988 317.001 192.229 317.443C192.778 318.43 193.319 319.473 193.869 320.554C194.04 320.911 194.229 321.277 194.409 321.644C194.59 322.01 194.899 322.64 195.148 323.157C195.397 323.674 195.629 324.097 195.861 324.642C196.092 325.187 196.402 325.779 196.676 326.371C197.243 327.593 197.81 328.824 198.394 330.064C204.868 344.227 211.479 359.545 214.785 367.298C216.245 370.494 217.052 372.411 217.052 372.411Z" fill="#FED81D"/>
<path d="M198.479 330.055C192.159 330.299 186.177 333.24 181.813 338.25C181.207 338.944 180.634 339.672 180.096 340.43C174.638 347.806 167.576 353.564 159.557 357.177C159.051 356.068 158.596 355.062 158.209 354.188C151.34 338.955 143.655 303.064 166.22 300.677C168.148 300.458 170.09 300.414 172.025 300.546H172.119C172.651 300.593 173.167 300.649 173.673 300.724L174.103 300.79L174.858 300.94C175.159 300.997 175.459 301.072 175.717 301.147C175.974 301.222 176.181 301.269 176.404 301.345L176.721 301.429L177.374 301.664C177.581 301.733 177.785 301.814 177.984 301.908C178.192 301.976 178.396 302.061 178.593 302.162C178.83 302.261 179.063 302.374 179.289 302.5C179.497 302.596 179.7 302.702 179.898 302.82V302.82C180.167 302.958 180.425 303.108 180.671 303.271C180.894 303.403 181.109 303.544 181.315 303.685L181.848 304.07C182.473 304.524 183.075 305.017 183.651 305.545C183.9 305.771 184.14 305.987 184.372 306.231C185.154 307.007 185.896 307.829 186.596 308.694C186.828 308.985 187.068 309.286 187.3 309.633C187.532 309.981 187.661 310.113 187.841 310.357C188.133 310.752 188.425 311.165 188.7 311.598C188.897 311.87 189.086 312.161 189.275 312.453C189.567 312.894 189.859 313.393 190.133 313.825C190.408 314.257 190.589 314.548 190.812 314.943L191.516 316.165C191.756 316.578 191.988 317.001 192.229 317.443C192.778 318.43 193.319 319.473 193.869 320.554C194.04 320.911 194.229 321.277 194.409 321.644C194.59 322.01 194.899 322.64 195.148 323.157C195.397 323.674 195.629 324.097 195.861 324.642C196.092 325.187 196.402 325.779 196.676 326.371C197.355 327.583 197.921 328.814 198.479 330.055Z" fill="#FED81D"/>
<path d="M209.942 377.937C202.026 383.754 188.794 392.456 177.065 395.313C177.065 395.313 175.854 392.663 174.008 388.669L169.887 379.732C167.405 374.328 164.649 368.332 162.296 363.191L175.708 348.916C176.232 348.7 186.493 349.273 183.324 358.69C180.156 368.106 174.566 374.412 179.126 378.237C183.685 382.062 196.856 351.219 208.474 374.065C209.107 375.284 209.6 376.585 209.942 377.937V377.937Z" fill="#FCC71F"/>
<path d="M183.264 323.749C183.264 324.247 183.264 324.754 183.196 325.28C183.05 327.902 182.784 330.844 182.423 334.152C182.294 335.402 182.088 336.765 181.813 338.249C181.496 340.044 181.083 342.009 180.611 344.067C179.109 350.532 176.885 358.248 174.266 366.48C173.957 367.42 173.639 368.454 173.313 369.441C172.737 371.236 172.136 373.04 171.535 374.854C170.997 376.47 170.448 378.096 169.887 379.731C163.464 398.527 156.071 417.924 151.435 429.803C141.028 430.398 130.93 431.059 121.142 431.786C117.707 432.03 114.301 432.287 110.924 432.556C106.167 432.945 101.502 433.34 96.928 433.741C85.2333 434.784 74.1739 435.911 63.8445 437.114C65.7249 426.993 70.8167 400.181 76.8014 372.176C80.0986 356.763 83.6705 340.984 87.1051 327.433C89.5351 317.894 91.9135 309.464 94.0859 302.998C96.3527 296.335 98.3791 291.796 100.096 290.358C106.055 285.377 111.19 283.78 117.621 284.644C118.325 284.748 119.038 284.87 119.776 285.02C120.515 285.171 121.262 285.359 122.035 285.565C122.318 285.631 122.601 285.716 122.893 285.8C123.185 285.885 123.503 285.988 123.812 286.082L124.782 286.383C126.311 286.884 127.934 287.47 129.651 288.14L130.716 288.554C131.574 288.892 132.433 289.249 133.36 289.635C135.077 290.339 136.898 291.129 138.838 291.965C143.69 294.08 150.078 296.918 163.619 300.038C164.52 300.235 165.388 300.451 166.195 300.658L166.916 300.837L167.611 301.025C167.955 301.109 168.307 301.213 168.633 301.307C168.959 301.401 169.294 301.495 169.612 301.589C170.256 301.777 170.874 301.964 171.467 302.171C172.42 302.5 173.313 302.838 174.146 303.205L174.927 303.562C175.425 303.816 175.897 304.07 176.335 304.333L176.919 304.69C177.823 305.269 178.659 305.967 179.409 306.767L179.555 306.927L179.761 307.171L180.036 307.509C180.308 307.861 180.563 308.228 180.8 308.609C180.929 308.825 181.049 309.032 181.169 309.267C181.29 309.502 181.358 309.624 181.444 309.821L181.564 310.084C182.261 311.72 182.725 313.463 182.938 315.253C182.938 315.488 182.998 315.723 183.033 315.977C183.067 316.23 183.033 316.287 183.084 316.456C183.136 316.625 183.136 316.992 183.153 317.264C183.17 317.537 183.196 317.866 183.204 318.204V318.608C183.204 318.937 183.204 319.275 183.204 319.623C183.342 320.892 183.325 322.264 183.264 323.749Z" fill="#FED81D"/>
<path d="M151.435 429.803C156.071 417.924 163.456 398.555 169.887 379.731C170.459 378.096 171.009 376.47 171.535 374.854C172.136 373.04 172.737 371.235 173.313 369.44C173.639 368.454 173.957 367.458 174.266 366.48C176.842 358.248 179.109 350.504 180.611 344.066" stroke="#FCC71F" stroke-width="0.75" stroke-linecap="round" stroke-linejoin="round"/>
<path d="M182.423 334.152C182.294 335.402 182.088 336.764 181.813 338.249C181.207 338.943 180.634 339.671 180.096 340.429C174.638 347.805 167.576 353.564 159.557 357.176C147.124 362.561 132.587 361.227 123.194 340.166C121.537 336.407 119.914 333.043 118.343 329.951C109.893 313.439 102.38 305.517 94.103 303.017C96.3698 296.354 98.3962 291.815 100.114 290.377C106.072 285.396 111.207 283.798 117.638 284.663C118.342 284.766 119.055 284.888 119.794 285.039C120.532 285.189 121.279 285.377 122.052 285.584C122.335 285.65 122.619 285.734 122.91 285.819C123.202 285.903 123.52 286.007 123.829 286.101L124.799 286.401C126.328 286.903 127.951 287.488 129.668 288.159L130.733 288.572C131.591 288.911 132.45 289.268 133.377 289.653C134.09 289.954 134.837 290.255 135.593 290.593C136.099 290.8 136.597 291.016 137.121 291.251L138.838 291.993C143.69 294.108 150.078 296.946 163.619 300.066C164.52 300.263 165.388 300.479 166.195 300.686C182.08 304.633 185.196 308.975 182.423 334.152Z" fill="#FED81D"/>
<path d="M172.05 300.545C169.294 309.849 162.408 319.482 151.889 317.734C140.409 315.854 133.334 302.876 133.386 289.653C135.103 290.358 136.923 291.148 138.864 291.984C143.715 294.098 150.103 296.937 163.644 300.057C164.546 300.254 165.413 300.47 166.22 300.677C168.157 300.456 170.107 300.412 172.05 300.545V300.545Z" fill="white"/>
<path d="M128.217 420.809C123.692 424.756 111.413 430.207 96.928 433.741C85.2333 434.784 74.1739 435.912 63.8445 437.114C65.7249 426.993 70.8167 400.181 76.8014 372.176C80.0986 356.763 83.6705 340.984 87.1051 327.433C112.384 331.323 119.124 360.616 107.644 370.522C94.7642 381.667 93.3474 390.924 109.653 390.68C125.959 390.436 140.959 409.71 128.217 420.809Z" fill="#FCC71F"/>
<path d="M168.522 264.89C168.401 266.224 168.273 267.493 168.161 268.706C167.148 279.551 166.693 286.214 166.624 292.332C166.624 295.564 166.624 298.647 166.83 302.115C166.83 302.115 162.812 316.55 148.498 310.573C138.4 306.344 138.864 292.012 138.864 292.012C141.818 281.761 143.783 271.2 144.729 260.501C145.072 255.135 170.376 245.474 168.522 264.89Z" fill="#FEBD9D"/>
<path d="M168.161 268.706C167.148 279.551 166.693 286.214 166.624 292.332C158.415 295.057 149.863 284.56 154.603 273.038C158.037 264.871 164.185 266.488 168.161 268.706Z" fill="#F4A789"/>
<path d="M217.052 372.41C217.052 372.41 195.242 390.877 177.065 395.313C177.065 395.313 175.854 392.663 174.008 388.669C188.948 383.03 204.593 374.807 214.871 367.289C216.245 370.493 217.052 372.41 217.052 372.41Z" fill="white"/>
<path d="M174.128 279.297C169.32 286.148 160.777 284.551 147.459 269.758C142.419 264.12 136.606 255.032 136.76 247.843C136.915 240.653 144.866 225.514 159.944 234.207C165.765 237.571 169.93 244.055 172.574 251.123C173.574 253.825 174.37 256.613 174.953 259.458C176.713 268.076 176.361 276.111 174.128 279.297Z" fill="#FEBD9D"/>
<path d="M157.642 258.96C156.827 261.188 153.47 261.827 150.138 260.379C146.806 258.932 144.754 255.944 145.57 253.716C146.386 251.489 149.734 250.841 153.075 252.288C156.415 253.735 158.45 256.724 157.642 258.96Z" fill="#F4A789"/>
<path d="M174.927 259.439C172.832 260.285 170.831 260.05 169.904 258.688C168.625 256.808 169.81 253.453 172.549 251.104C173.548 253.806 174.344 256.594 174.927 259.439Z" fill="#F4A789"/>
<path d="M171.527 253.124C174.856 253.124 177.554 250.171 177.554 246.527C177.554 242.883 174.856 239.93 171.527 239.93C168.198 239.93 165.499 242.883 165.499 246.527C165.499 250.171 168.198 253.124 171.527 253.124Z" stroke="#683F1D" stroke-miterlimit="10"/>
<path d="M158.097 250.042C158.096 250.314 158.168 250.58 158.305 250.807C158.441 251.034 158.636 251.211 158.865 251.316C159.094 251.422 159.347 251.45 159.59 251.398C159.834 251.346 160.058 251.216 160.234 251.025C160.411 250.833 160.531 250.589 160.58 250.322C160.629 250.056 160.605 249.78 160.51 249.528C160.415 249.277 160.255 249.062 160.048 248.911C159.842 248.76 159.599 248.679 159.351 248.679C159.02 248.679 158.702 248.822 158.468 249.078C158.233 249.333 158.1 249.68 158.097 250.042Z" fill="#683F1D"/>
<path d="M166.83 247.899C166.83 248.17 166.903 248.436 167.041 248.661C167.179 248.887 167.375 249.063 167.604 249.167C167.833 249.27 168.085 249.298 168.328 249.245C168.571 249.192 168.795 249.061 168.97 248.869C169.145 248.677 169.265 248.433 169.313 248.167C169.361 247.9 169.337 247.625 169.242 247.374C169.147 247.123 168.986 246.909 168.78 246.758C168.574 246.607 168.331 246.527 168.083 246.527C167.751 246.527 167.432 246.671 167.197 246.929C166.962 247.186 166.83 247.535 166.83 247.899Z" fill="#683F1D"/>
<path d="M148.712 268.781C145.638 270.717 140.864 270.717 139.216 265.361C137.567 260.004 142.264 257.316 144.926 257.842C148.206 258.5 150.026 263.763 148.712 268.781Z" fill="#FEBD9D"/>
<path d="M147.073 263.875C145.579 260.774 142.204 260.116 140.77 264.317" stroke="#F4A789" stroke-width="0.75" stroke-linecap="round" stroke-linejoin="round"/>
<path d="M146.24 262.597C142.59 260.802 141.861 267.616 146.068 265.896" stroke="#F4A789" stroke-width="0.75" stroke-linecap="round" stroke-linejoin="round"/>
<path d="M170.659 246.724C169.165 243.605 167.245 240.753 164.967 238.266C161.266 240.541 158.784 238.464 158.784 238.464C158.784 238.464 155.178 242.683 151.812 241.659C148.446 240.635 148.695 238.069 146.575 237.486C144.454 236.904 142.41 239.366 142.41 240.071C142.41 240.776 143.509 241.217 145.527 246.452C147.545 251.686 146.944 259.026 142.822 259.853C141.509 260.116 134.94 259.129 131.66 253.707C131.594 253.617 131.534 253.523 131.48 253.425C128.277 247.739 130.149 243.651 131.239 242.148C132.33 240.644 134.038 241.311 134.279 239.883C135.67 231.754 142.513 224.762 149.846 224.01C157.179 223.258 156.947 226.181 156.947 226.181C156.947 226.181 164.271 225.57 168.247 231.105C168.487 231.434 168.71 231.763 168.908 232.092C170.237 234.205 171.089 236.634 171.393 239.177C171.698 241.721 171.446 244.308 170.659 246.724V246.724Z" fill="#7F542D"/>
<path d="M170.659 246.725C169.165 243.605 167.245 240.753 164.967 238.266C161.266 240.541 158.784 238.464 158.784 238.464C158.784 238.464 155.178 242.683 151.812 241.659C148.446 240.635 148.695 238.069 146.575 237.486C144.454 236.904 142.41 239.366 142.41 240.071C142.41 240.776 143.509 241.217 145.527 246.452C147.545 251.687 146.944 259.026 142.822 259.853C141.509 260.116 134.94 259.13 131.66 253.707C140.246 251.959 140.53 246.959 138.692 238.915C137.49 233.615 146.42 228.653 151.409 232.026C154.517 234.141 163.052 233.474 168.908 232.092C170.237 234.205 171.089 236.634 171.393 239.178C171.698 241.721 171.446 244.308 170.659 246.725V246.725Z" fill="#683F1D"/>
<path d="M156.964 226.19C153.999 226.181 151.062 226.82 148.326 228.07" stroke="#BF8228" stroke-width="0.75" stroke-linecap="round" stroke-linejoin="round"/>
<path d="M157.891 231.904C159.248 232.167 163.524 236.199 164.967 238.276C164.967 238.276 167.362 240.155 168.521 237.486" stroke="#BF8228" stroke-width="0.75" stroke-linecap="round" stroke-linejoin="round"/>
<path d="M150.052 234.291C151.246 233.145 153.572 233.464 155.204 235.419C156.247 236.617 157.441 237.645 158.75 238.473" stroke="#BF8228" stroke-width="0.75" stroke-linecap="round" stroke-linejoin="round"/>
<path d="M161.884 243.463C161.498 248.162 162.846 250.371 164.692 250.493C166.538 250.615 168.985 251.292 168.522 254.459" stroke="#F4A789" stroke-width="0.75" stroke-linecap="round" stroke-linejoin="round"/>
<path d="M159.755 260.474C162.306 260.956 164.894 261.173 167.482 261.122C167.482 261.122 166.624 264.731 163.438 264.317C162.53 264.19 161.683 263.749 161.02 263.057C160.357 262.366 159.914 261.46 159.755 260.474V260.474Z" fill="white" stroke="#F4A789" stroke-width="0.75" stroke-linecap="round" stroke-linejoin="round"/>
<path d="M151.297 251.452C151.297 252.753 151.65 254.024 152.31 255.106C152.971 256.188 153.909 257.031 155.008 257.529C156.106 258.027 157.314 258.157 158.48 257.904C159.646 257.65 160.717 257.023 161.558 256.103C162.398 255.183 162.971 254.011 163.203 252.735C163.435 251.459 163.316 250.136 162.861 248.934C162.406 247.732 161.635 246.705 160.647 245.982C159.658 245.259 158.496 244.873 157.308 244.873C155.714 244.873 154.185 245.566 153.058 246.8C151.93 248.034 151.297 249.707 151.297 251.452V251.452Z" stroke="#683F1D" stroke-miterlimit="10"/>
<path d="M162.811 240.719C162.699 243.069 168.719 242.599 168.77 241.584C168.822 240.569 162.923 238.483 162.811 240.719Z" fill="#7F542D"/>
<path d="M152.748 246.226C153.366 247.579 159.274 244.083 157.9 241.64C156.526 239.197 151.898 244.403 152.748 246.226Z" fill="#7F542D"/>
<path d="M148.713 268.781C147.184 269.766 145.391 270.142 143.638 269.843" stroke="#F4A789" stroke-width="0.75" stroke-linecap="round" stroke-linejoin="round"/>
<path d="M112.221 342.037C104.639 354.094 98.4307 366.264 92.8409 377.467C79.0426 405.106 71.1516 425.217 54.1419 424.973C38.6263 424.738 36.9691 399.786 55.0607 359.188L50.4927 354.536C50.4927 354.536 63.7931 333.316 76.5868 312.001C88.1442 292.764 98.259 278.818 117.647 284.644C129.093 288.112 125.684 320.525 112.221 342.037Z" fill="#FEBD9D"/>
<path d="M118.343 329.923C116.633 334.142 114.584 338.187 112.221 342.009C106.21 351.538 101.101 361.133 96.4558 370.268C95.2108 372.693 94.0087 375.089 92.841 377.439C87.4131 376.011 82.059 374.267 76.8015 372.213C68.7389 368.934 60.6419 364.695 55.0006 359.197L50.4326 354.546C50.4326 354.546 51.8923 352.224 54.2965 348.362C59.165 340.515 67.9575 326.286 76.5268 312.011C78.5016 308.712 80.4422 305.574 82.3913 302.66C91.8363 288.564 101.522 279.824 117.596 284.654C127.127 287.567 126.414 310.103 118.343 329.923Z" fill="#FED81D"/>
<path d="M96.4556 370.333C95.2105 372.758 94.0084 375.154 92.8407 377.504C80.9571 374.29 64.5055 368.482 55.0604 359.235L50.4924 354.583C50.4924 354.583 51.9521 352.261 54.3563 348.399C61.4058 356.772 70.8508 362.101 96.4556 370.333Z" fill="white"/>
<path d="M118.342 329.923C109.893 313.411 102.38 305.489 94.1028 302.989C90.2837 301.915 86.2932 301.793 82.4253 302.632C91.8704 288.535 101.556 279.795 117.63 284.626C127.126 287.567 126.414 310.103 118.342 329.923Z" fill="#FED81D"/>
<path d="M118.394 329.81C116.679 334.079 114.613 338.168 112.22 342.027C104.639 354.085 98.4306 366.255 92.8408 377.457" stroke="#FCC71F" stroke-width="0.75" stroke-linecap="round" stroke-linejoin="round"/>
<path d="M117.346 313.232C119.064 319.952 121.786 323.072 116.187 334.847" stroke="#FCC71F" stroke-width="0.75" stroke-linecap="round" stroke-linejoin="round"/>
<path d="M43.8809 406.591C50.4667 389.214 74.5859 388.641 103.711 400.266C132.836 411.891 164.855 423.535 169.706 424.973C174.558 426.411 173.647 444.502 161.438 443.496C149.228 442.49 103.05 446.87 76.0284 441.372C49.007 435.874 39.5447 417.953 43.8809 406.591Z" fill="#FEBD9D"/>
<path d="M57.4644 394.063C65.1921 391.564 75.3413 391.93 86.9415 394.796" stroke="#F4A789" stroke-width="0.75" stroke-linecap="round" stroke-linejoin="round"/>
<path d="M239.205 425.508C252.084 405.247 258.73 325.252 258.73 325.252C258.73 325.252 271.653 318.674 273.8 317.086C275.946 315.498 280.119 307.547 280.84 305.169C280.84 305.169 284.464 302.745 284.352 301.41C284.241 300.076 282.91 300.076 282.91 300.076C282.91 300.076 283.768 297.04 279.089 297.895C278.868 297.578 278.569 297.335 278.227 297.195C277.885 297.055 277.514 297.024 277.157 297.106C275.766 297.285 259.211 302.679 259.211 302.679C259.211 302.679 265.969 297.529 266.08 295.471C266.192 293.413 263.908 294.212 262.354 295.236C259.206 297.265 255.82 298.818 252.291 299.85C250.633 300.376 245.421 304.944 240.716 314.821C236.011 324.698 208.397 389.731 205.383 398.527C195.526 427.454 217.765 459.124 239.205 425.508Z" fill="#FEBD9D"/>
<path d="M215.292 374.027C210.414 385.831 206.422 395.53 205.383 398.527" stroke="#F4A789" stroke-width="0.75" stroke-linecap="round" stroke-linejoin="round"/>
<path d="M273.8 317.086C275.955 315.507 280.119 307.547 280.84 305.169C280.84 305.169 284.464 302.745 284.352 301.41C284.241 300.076 282.91 300.076 282.91 300.076C282.91 300.076 283.768 297.04 279.089 297.895C278.868 297.578 278.569 297.335 278.227 297.195C277.885 297.055 277.514 297.024 277.157 297.106C275.766 297.285 259.211 302.679 259.211 302.679C259.211 302.679 265.969 297.529 266.08 295.471C266.192 293.413 263.908 294.212 262.354 295.236C259.206 297.265 255.82 298.818 252.291 299.85" stroke="#F4A789" stroke-width="0.75" stroke-linecap="round" stroke-linejoin="round"/>
<path d="M259.211 302.669L256.636 304.605C256.636 304.605 258.748 309.746 253.553 314.003" stroke="#F4A789" stroke-width="0.75" stroke-linecap="round" stroke-linejoin="round"/>
<path d="M263.711 305.649L279.089 297.896" stroke="#F4A789" stroke-width="0.75" stroke-linecap="round" stroke-linejoin="round"/>
<path d="M269.575 311.335C269.704 311.241 274.237 308.901 274.237 308.901C274.237 308.901 278.9 300.95 280.136 300.546C281.372 300.142 282.789 300.8 280.84 305.17" stroke="#F4A789" stroke-width="0.75" stroke-linecap="round" stroke-linejoin="round"/>
<path d="M266.226 308.346L279.595 300.95" stroke="#F4A789" stroke-width="0.75" stroke-linecap="round" stroke-linejoin="round"/>
<path d="M282.91 300.076L281.184 300.536" stroke="#F4A789" stroke-width="0.75" stroke-linecap="round" stroke-linejoin="round"/>
<path d="M230.524 400.087C222.934 425.048 209.685 460.75 209.685 460.75L121.167 482.732L59.843 466.831V461.934L129.951 445.751C135 431.749 141.44 405.087 144.625 404.401C149.837 403.273 222.719 390.849 228.223 390.69C233.426 390.53 232.173 394.665 230.524 400.087Z" fill="#F9F9F9" stroke="#DDDDDD" stroke-linecap="round" stroke-linejoin="round"/>
<path d="M129.951 445.751L120.369 473.437" stroke="#DDDDDD" stroke-linecap="round" stroke-linejoin="round"/>
<path d="M121.305 477.347L121.167 482.732L59.843 466.831V461.935L121.305 477.347Z" fill="#DDDDDD" stroke="#DDDDDD" stroke-linecap="round" stroke-linejoin="round"/>
<path d="M453.993 382.617C453.925 383.472 453.865 384.318 453.805 385.145C451.589 412.398 449.142 426.392 447.717 432.82L444.866 432.575C440.79 432.225 436.686 431.896 432.553 431.589C408.76 429.775 384.315 428.469 359.706 427.595C352.659 427.344 345.596 427.128 338.515 426.946C343.667 415.218 350.089 393.603 355.396 374.318C356.108 371.668 356.821 369.074 357.491 366.546C358.063 364.441 358.607 362.399 359.122 360.419C359.191 360.137 359.268 359.855 359.345 359.573C359.423 359.291 359.526 358.859 359.629 358.502C359.86 357.619 360.084 356.726 360.316 355.833C360.436 355.419 360.539 355.006 360.642 354.592C360.814 353.944 360.977 353.296 361.14 352.656C361.303 352.017 361.432 351.548 361.569 351.012C361.784 350.175 361.99 349.348 362.196 348.559C362.316 348.052 362.454 347.553 362.565 347.074L363.424 343.813C363.527 343.437 363.604 343.09 363.681 342.77C363.853 342.122 363.982 341.586 364.094 341.191C364.094 341.097 364.137 341.003 364.154 340.928C364.171 340.853 364.197 340.759 364.214 340.684C364.216 340.643 364.216 340.602 364.214 340.562V340.439C364.291 340.11 364.368 339.81 364.437 339.5L364.746 338.25C365.21 336.37 365.459 335.365 365.459 335.365C363.939 336.029 362.291 336.261 360.668 336.041C353.232 335.43 342.318 329.218 341.013 321.005C340.985 320.843 340.965 320.68 340.953 320.516C340.912 320.205 340.889 319.891 340.885 319.576C340.885 317.002 341.702 314.508 343.194 312.518C352.038 299.653 357.843 295.123 363.639 292.886C364.334 292.633 365.012 292.398 365.708 292.182C372.242 290.217 392.274 288.704 392.274 288.704C394.687 284.945 399.418 272.371 401.831 259.994C404.604 245.738 414.985 243.576 420.498 251.536C422.567 254.515 423.932 258.904 424.01 264.599C424.07 271.685 424.173 280.322 424.233 285.5C424.276 288.319 424.302 290.076 424.302 290.076C424.302 290.076 434.047 286.064 449.649 285.819C452.954 285.772 456.192 286.627 458.587 289.033C462.125 292.586 465.456 299.719 468.462 308.365C475.623 328.983 480.886 358.173 482.603 368.736C484.879 383.331 453.993 382.617 453.993 382.617Z" fill="#A7CAF0"/>
<path d="M460.451 363.267C452.776 365.172 444.777 364.819 437.267 362.242C429.248 366.18 399.779 372.242 380.056 370.174C360.333 368.106 359.491 360.513 359.491 360.513L359.088 360.41C361.449 351.435 364.24 340.43 364.24 340.43C364.24 340.43 365.459 340.702 367.674 341.088C386.732 344.115 406.132 343.383 424.954 338.926C424.954 338.926 440.41 343.7 455.814 340.167L460.451 363.267Z" fill="#83ADDF"/>
<path d="M462.116 371.583C462.116 371.583 435.421 375.718 412.315 379.722C389.209 383.725 365.09 381.601 355.413 374.309L357.517 366.527C366.172 374.75 378.407 376.799 400.646 375.765C422.885 374.732 436.95 367.43 436.95 367.43C448.473 370.785 457.153 369.309 461.438 368.031L462.116 371.583Z" fill="#83ADDF"/>
<path d="M468.505 308.393C456.424 307.388 441.827 313.694 429.686 325.544C419.176 335.788 398.886 348.776 383.585 332.123C380.485 328.793 376.872 326.088 372.912 324.134C363.768 319.586 352.52 318.233 340.928 319.586C340.929 317.012 341.745 314.518 343.238 312.528C352.082 299.663 357.886 295.133 363.682 292.896C364.377 292.642 365.056 292.407 365.751 292.191C372.286 290.227 392.318 288.714 392.318 288.714C394.731 284.955 399.462 272.381 401.874 260.004C404.648 245.747 415.029 243.586 420.541 251.546C422.611 254.525 423.976 258.914 424.053 264.609C424.113 271.695 424.216 280.331 424.276 285.509C424.319 288.329 424.345 290.086 424.345 290.086C424.345 290.086 434.091 286.073 449.692 285.829C452.998 285.782 456.235 286.637 458.631 289.043C462.168 292.614 465.5 299.747 468.505 308.393Z" fill="#A7CAF0"/>
<path d="M453.805 385.145C451.589 412.398 449.142 426.392 447.717 432.82L444.866 432.575C440.791 432.224 436.686 431.896 432.553 431.589C408.76 429.775 384.315 428.468 359.706 427.594C368.61 417.351 384.821 413.244 395.28 419.033C407.017 425.527 426.191 419.428 421.142 403.846C418.145 394.608 420.026 383.575 436.915 375.812L453.805 385.145Z" fill="#A7CAF0"/>
<path d="M458.631 289.061C453.608 289.935 446.953 292.961 438.805 296.298C435.937 297.472 432.897 298.685 429.686 299.85C419.284 303.781 408.444 306.152 397.461 306.898C393.342 307.166 389.211 307.132 385.096 306.795C381.941 306.564 378.82 305.933 375.797 304.915C369.332 302.622 365.725 298.572 363.673 292.933C364.369 292.68 365.056 292.445 365.751 292.228C368.696 291.345 374.406 290.556 379.764 289.945C383.156 289.55 386.427 289.249 388.771 289.052C390.935 288.855 392.318 288.751 392.318 288.751C394.73 284.992 399.462 272.418 401.874 260.041C404.648 245.784 415.029 243.623 420.541 251.583C422.611 254.562 423.976 258.951 424.053 264.646C424.113 271.732 424.216 280.368 424.276 285.547C424.319 288.366 424.345 290.123 424.345 290.123C426.672 289.247 429.05 288.544 431.463 288.018C433.799 287.473 436.667 286.937 439.989 286.524C443.212 286.128 446.45 285.908 449.692 285.866C452.909 285.842 456.046 286.964 458.631 289.061V289.061Z" fill="#B25E47"/>
<path d="M424.276 285.528C416.024 284.992 408.992 277.671 410.735 268.348C412.684 257.926 416.394 252.974 420.541 251.564C422.61 254.543 423.976 258.932 424.053 264.627C424.113 271.713 424.216 280.349 424.276 285.528Z" fill="#914839"/>
<path d="M439.989 286.505C439.331 289.725 438.937 293.002 438.813 296.298C435.945 297.473 432.905 298.685 429.694 299.85C429.834 295.835 430.431 291.854 431.471 288C433.798 287.455 436.666 286.919 439.989 286.505Z" fill="#FED81D"/>
<path d="M388.771 289.042C386.992 294.806 385.76 300.755 385.096 306.795C381.941 306.563 378.82 305.933 375.797 304.915C376.685 299.799 378.013 294.787 379.764 289.945C383.156 289.512 386.436 289.24 388.771 289.042Z" fill="#FED81D"/>
<path d="M466.375 402.352C465.465 411.995 463.799 421.58 460.906 428.281C459.12 432.407 456.862 435.423 453.994 436.683C448.232 439.229 443.278 438.562 439.328 436.166C432.253 431.89 428.423 422.163 429.024 415.857C429.024 415.556 429.076 415.218 429.11 414.917C429.179 413.977 429.239 412.972 429.299 411.844C429.299 411.478 429.299 411.092 429.368 410.698C429.368 410.622 429.368 410.547 429.368 410.463C429.368 410.181 429.368 409.889 429.368 409.598C429.368 409.081 429.419 408.536 429.437 408C429.454 407.465 429.437 407.155 429.488 406.713C429.488 406.563 429.488 406.412 429.488 406.262C429.488 405.823 429.505 405.372 429.54 404.909C429.54 404.439 429.54 403.969 429.6 403.471C429.6 402.399 429.668 401.319 429.703 400.191C429.737 399.063 429.763 398.189 429.797 397.165C429.797 396.723 429.797 396.281 429.797 395.849C429.874 393.471 429.935 391 430.003 388.491C430.046 386.912 430.089 385.314 430.141 383.707L430.192 381.724L430.269 379.008L430.321 377.129C430.321 376.038 430.398 374.967 430.424 373.896C430.476 372.345 430.527 370.804 430.579 369.291C430.579 368.295 430.656 367.308 430.69 366.331C430.759 364.498 430.836 362.741 430.913 361.04L467.234 366.575C467.675 378.508 467.389 390.461 466.375 402.352V402.352Z" fill="#A7CAF0"/>
<path d="M430.973 360.936C430.115 378.999 429.848 406.046 428.973 415.838" stroke="#83ADDF" stroke-width="0.75" stroke-linecap="round" stroke-linejoin="round"/>
<path d="M466.375 402.352C465.465 411.994 463.799 421.58 460.906 428.281C459.12 432.406 456.861 435.423 453.994 436.682C448.232 439.229 443.278 438.562 439.328 436.165C441.368 435.169 443.518 434.47 445.725 434.088C455.367 432.293 452.328 419.315 456.518 410.303C458.209 406.703 461.069 403.724 466.375 402.352Z" fill="#A7CAF0"/>
<path d="M377.077 455.995C374.621 458.345 372.998 468.212 378.915 476.088C384.831 483.963 390.618 478.907 390.618 478.907C390.618 478.907 399.101 470.909 393.194 459.012C387.286 447.114 377.077 455.995 377.077 455.995Z" fill="#83ADDF"/>
<path d="M389.939 454.097C383.723 457.377 379.301 459.585 378.184 459.501C377.068 459.416 366.653 460.816 363.656 461.803C360.659 462.79 353.85 470.646 354.52 471.793C355.19 472.939 357.817 472.733 357.817 472.733C357.817 472.733 347.514 481.012 346.509 484.01C345.504 487.008 348.613 486.303 348.613 486.303C347.007 487.243 344.8 492.261 350.407 490.401C349.059 491.34 348.243 494.113 352.056 493.107C357.594 491.632 366.653 487.534 366.653 487.534C366.653 487.534 360.359 492.694 357.817 494.009C355.276 495.325 355.121 498.351 360.591 496.631C366.06 494.912 376.682 486.801 380.34 483.926C383.997 481.05 387.526 478.606 388.351 478.033C389.175 477.46 397.04 473.522 397.04 473.522C397.04 473.522 404.682 452.462 389.939 454.097Z" fill="#B25E47"/>
<path d="M357.817 472.771C361.638 469.82 366.953 465.515 368.078 465.375" stroke="#914839" stroke-width="0.75" stroke-linecap="round" stroke-linejoin="round"/>
<path d="M348.656 486.379C348.81 485.918 364.06 475.205 364.06 475.205" stroke="#914839" stroke-width="0.75" stroke-linecap="round" stroke-linejoin="round"/>
<path d="M350.373 490.476C350.45 489.949 366 481.378 366 481.378" stroke="#914839" stroke-width="0.75" stroke-linecap="round" stroke-linejoin="round"/>
<path d="M363.656 461.803C360.659 462.743 353.85 470.647 354.52 471.793C355.19 472.94 357.817 472.733 357.817 472.733C357.817 472.733 347.514 481.012 346.509 484.01C345.504 487.008 348.613 486.303 348.613 486.303C347.007 487.243 344.8 492.262 350.407 490.401C349.059 491.341 348.243 494.113 352.056 493.107C357.594 491.632 366.653 487.534 366.653 487.534C366.653 487.534 360.359 492.694 357.817 494.009C355.276 495.325 355.121 498.351 360.591 496.632C361.922 496.172 363.215 495.587 364.455 494.884" stroke="#914839" stroke-width="0.75" stroke-linecap="round" stroke-linejoin="round"/>
<path d="M460.906 428.281C459.489 435.405 443.518 447.208 427.161 457.63C409.387 468.908 391.158 478.635 390.617 478.916C394.498 472.141 393.683 453.815 377.085 455.967C377.085 455.967 420.713 422.135 428.913 414.805C428.964 414.756 429.018 414.711 429.076 414.673C438.418 406.441 450.035 404.937 456.553 410.303C460.545 413.649 462.597 419.626 460.906 428.281Z" fill="#A7CAF0"/>
<path d="M460.906 428.281C459.489 435.404 443.519 447.208 427.161 457.63C429.196 447.293 431.884 439.887 439.311 436.165C441.351 435.169 443.502 434.471 445.708 434.089C455.351 432.294 452.311 419.315 456.501 410.303C460.545 413.648 462.598 419.625 460.906 428.281Z" fill="#A7CAF0"/>
<path d="M414.531 426.599C421.048 421.402 426.509 416.966 428.922 414.824C432.387 411.696 436.416 409.403 440.745 408.095" stroke="#83ADDF" stroke-width="0.75" stroke-linecap="round" stroke-linejoin="round"/>
<path d="M372.912 324.125C371.47 329.884 369.727 335.547 367.692 341.088C365.274 347.71 362.552 354.193 359.535 360.513V360.513C358.819 362.036 358.078 363.555 357.311 365.071C357.199 365.306 357.079 365.55 356.95 365.785C355.98 367.721 354.958 369.657 353.919 371.574C351.103 376.762 348.404 381.533 345.822 385.887C341.909 392.64 337.568 399.084 332.831 405.172C324.124 416.082 316.517 420.809 309.072 419.268C307.641 418.966 306.25 418.467 304.934 417.783C303.492 417.057 302.201 416.015 301.141 414.722C300.08 413.429 299.273 411.912 298.768 410.265V410.265C298.281 408.748 297.969 407.169 297.841 405.566C297.841 405.566 297.841 405.566 297.841 405.566C297.283 399.223 298.863 391.047 302.272 381.696C304.218 376.461 306.448 371.358 308.952 366.415C309.673 364.986 310.42 363.596 311.184 362.111C313.657 357.487 316.448 352.713 319.513 347.864C319.831 347.375 320.132 346.924 320.432 346.407C321.445 344.809 322.43 343.243 323.386 341.708L326.314 337.009C326.537 336.652 326.752 336.295 326.975 335.947C330.478 330.309 333.655 325.112 336.626 320.45L336.763 320.225L338.481 317.584C348.381 302.359 356.066 293.356 365.768 292.21C376.295 291.007 377.626 304.878 372.912 324.125Z" fill="#A7CAF0"/>
<path d="M372.912 324.125C362.677 318.994 349.806 317.969 336.746 320.225L338.463 317.584C348.364 302.359 356.048 293.356 365.751 292.21C376.295 291.007 377.626 304.878 372.912 324.125Z" fill="#A7CAF0"/>
<path d="M365.494 335.384C368.241 323.571 368.739 319.135 368.739 319.135" stroke="#83ADDF" stroke-width="0.75" stroke-linecap="round" stroke-linejoin="round"/>
<path d="M367.692 341.088C365.274 347.709 362.552 354.193 359.535 360.513V360.513C359.535 360.513 338.352 357.609 326.966 335.947C330.47 330.308 333.647 325.112 336.617 320.45C339.983 326.361 348.45 336.737 367.692 341.088Z" fill="#83ADDF"/>
<path d="M359.122 360.41C361.484 351.435 363.416 343.898 364.472 339.518L364.781 338.268C365.244 336.389 365.493 335.383 365.493 335.383" stroke="#83ADDF" stroke-width="0.75" stroke-linecap="round" stroke-linejoin="round"/>
<path d="M357.302 365.071L356.941 365.766L353.91 371.555C353.91 371.555 328.443 366.048 320.423 346.407C321.437 344.809 322.421 343.243 323.377 341.708C334.96 361.81 357.302 365.071 357.302 365.071Z" fill="#83ADDF"/>
<path d="M340.533 372.355C340.533 372.355 339.219 383.999 333.835 402.108C333.526 403.161 333.191 404.176 332.822 405.181C328.529 417.107 320.87 425.998 313.297 429.033C310.648 430.183 307.748 430.455 304.959 429.813C294.724 427.238 290.131 418.047 292.895 402.108C294.132 394.966 297.532 388.087 302.255 381.724C304.952 378.13 307.909 374.78 311.099 371.706C315.149 367.793 319.454 364.206 323.978 360.974L340.533 372.355Z" fill="#A7CAF0"/>
<path d="M313.297 429.033C310.648 430.183 307.748 430.454 304.959 429.813C294.724 427.238 290.131 418.047 292.895 402.108C294.132 394.966 297.532 388.086 302.255 381.724C304.952 378.13 307.909 374.78 311.099 371.706C311.94 374.567 312.074 377.622 311.487 380.558C310.9 383.494 309.614 386.209 307.758 388.425C303.165 394.063 298.399 400.369 297.824 405.595C297.594 407.232 297.924 408.906 298.751 410.293V410.293C299.576 411.579 300.692 412.609 301.988 413.282C304.661 414.799 307.057 416.841 309.055 419.306C311.494 422.332 313.065 425.781 313.297 429.033Z" fill="#A7CAF0"/>
<path d="M333.835 402.118C335.106 397.832 336.154 393.923 337.004 390.427" stroke="#83ADDF" stroke-width="0.75" stroke-linecap="round" stroke-linejoin="round"/>
<path d="M315.237 367.9C304.135 377.58 295.085 389.411 292.913 402.117" stroke="#83ADDF" stroke-width="0.75" stroke-linecap="round" stroke-linejoin="round"/>
<path d="M320.638 370.522C318.062 375.418 314.396 383.679 317.487 389.045C320.578 394.411 327.293 395.624 332.419 390.436C337.545 385.248 340.146 380.098 340.533 374.535L320.638 370.522Z" fill="#83ADDF"/>
<path d="M328.417 359.687C327.31 358.211 330.135 356.228 332.187 357.619C334.246 359.07 336.48 360.2 338.824 360.974C340.541 361.388 341.623 366.199 340.833 367.083C340.833 367.083 329.765 361.435 328.417 359.687Z" fill="#B25E47"/>
<path d="M338.824 360.936C340.541 361.35 341.623 366.161 340.833 367.045" stroke="#914839" stroke-width="0.75" stroke-linecap="round" stroke-linejoin="round"/>
<path d="M305.045 348.719C302.727 347.131 305.14 342.526 307.467 343.588C309.794 344.65 344.517 369.394 344.517 369.394L347.093 374.093L341.941 373.341C341.941 373.341 306.977 350.082 305.045 348.719Z" fill="#683F1D"/>
<path d="M320.527 363.558C319.977 359.949 324.305 358.991 326.443 360.673C328.581 362.355 336.128 366.19 338.592 367.082C341.057 367.975 342.602 371.34 341.065 372.514C341.065 372.514 342.602 374.911 340.799 376.01C340.002 376.562 339.134 376.98 338.223 377.251C338.223 377.251 338.962 379.835 333.355 382.532C333.355 382.532 332.496 386.291 329.482 387.231C326.468 388.171 320.896 387.447 319.599 386.291C318.303 385.136 317.659 381.593 318.93 380.296C318.93 380.296 315.71 378.642 316.285 376.048C317.058 372.552 319.256 373.567 318.595 372.185C317.933 370.804 316.877 368.201 318.526 367.12C320.175 366.039 320.827 365.494 320.527 363.558Z" fill="#B25E47"/>
<path d="M338.592 367.083C341.065 367.975 342.602 371.34 341.065 372.514C341.065 372.514 342.602 374.911 340.799 376.01C340.002 376.562 339.134 376.981 338.223 377.251C338.223 377.251 338.962 379.835 333.355 382.533C333.355 382.533 332.496 386.292 329.482 387.231" stroke="#914839" stroke-width="0.75" stroke-linecap="round" stroke-linejoin="round"/>
<path d="M321.48 374.027C325.741 375.771 330.173 376.969 334.686 377.599C335.883 377.593 337.078 377.477 338.258 377.251" stroke="#914839" stroke-width="0.75" stroke-linecap="round" stroke-linejoin="round"/>
<path d="M341.065 372.514C341.065 372.514 334.797 372.712 333.466 372.514C332.29 372.336 323.317 368.455 323.317 368.455" stroke="#914839" stroke-width="0.75" stroke-linecap="round" stroke-linejoin="round"/>
<path d="M323.145 381.724C323.145 381.724 329.765 383.181 333.389 382.532" stroke="#914839" stroke-width="0.75" stroke-linecap="round" stroke-linejoin="round"/>
<path d="M403.343 232.553C401.329 236.491 398.426 239.798 394.911 242.157C388.943 246.236 383.903 243.172 381.756 240.052C380.966 238.887 380.984 235.72 381.593 232.149C382.632 226.106 385.363 218.87 388.72 218.052C390.665 217.544 392.689 217.518 394.644 217.977C396.599 218.435 398.436 219.366 400.02 220.702C400.564 221.161 401.051 221.695 401.471 222.29C403.729 225.448 403.798 225.608 403.343 232.553Z" fill="#FFEACC"/>
<path d="M403.343 232.553C401.329 236.491 398.426 239.798 394.911 242.157C388.943 246.236 383.903 243.172 381.757 240.052C380.967 238.887 380.984 235.72 381.593 232.149C384.504 237.787 389.63 240.033 391.648 238.229C394.516 235.645 390.154 223.061 400.02 220.665C400.564 221.124 401.052 221.657 401.471 222.253C403.729 225.448 403.798 225.608 403.343 232.553Z" fill="#EDD6B7"/>
<path d="M395.881 234.066C397.529 233.596 397.899 229.517 396.31 229.254C394.722 228.991 393.485 231.857 393.872 234.066C394.112 235.466 395.082 236.434 398.079 235.645" stroke="#BF8228" stroke-width="0.75" stroke-linecap="round" stroke-linejoin="round"/>
<path d="M394.164 238.473C387.44 238.304 384.942 236.913 384.435 233.624C383.929 230.335 383.628 224.79 383.628 224.79" stroke="#BF8228" stroke-width="0.75" stroke-linecap="round" stroke-linejoin="round"/>
<path d="M390.635 238.22C388.879 236.596 387.67 234.376 387.2 231.914C386.651 228.154 389.39 223.136 391.244 222.901C394.447 222.506 401.548 225.514 400.981 231.594" stroke="#BF8228" stroke-width="0.75" stroke-linecap="round" stroke-linejoin="round"/>
<path d="M428.853 273.208C422.43 276.516 410.753 273.208 404.081 265.276C395.735 255.342 402.896 233.323 412.427 230.203C421.958 227.083 426.895 238.126 429.686 246.988L429.737 247.176C430.46 249.505 431.062 251.877 431.541 254.281C433.043 261.78 433.541 270.792 428.853 273.208Z" fill="#B25E47"/>
<path d="M403.806 250.512C403.3 252.448 405.867 254.957 409.551 256.151C413.234 257.344 416.617 256.658 417.124 254.713C417.631 252.767 415.063 250.258 411.388 249.074C407.713 247.89 404.313 248.567 403.806 250.512Z" fill="#914839"/>
<path d="M431.541 254.281C429.694 255.136 428.054 255.164 427.29 254.177C426.2 252.749 427.29 249.751 429.737 247.176C430.46 249.505 431.062 251.877 431.541 254.281V254.281Z" fill="#914839"/>
<path d="M423.478 245.061C423.476 245.334 423.548 245.6 423.686 245.827C423.823 246.054 424.018 246.232 424.248 246.337C424.477 246.442 424.73 246.47 424.974 246.417C425.218 246.364 425.442 246.233 425.618 246.041C425.794 245.849 425.913 245.603 425.961 245.336C426.009 245.069 425.984 244.792 425.888 244.541C425.792 244.29 425.63 244.076 425.423 243.926C425.215 243.776 424.971 243.697 424.723 243.699C424.393 243.701 424.078 243.846 423.845 244.101C423.612 244.356 423.48 244.701 423.478 245.061V245.061Z" fill="#683F1D"/>
<path d="M416.489 246.997C416.489 247.269 416.562 247.535 416.7 247.76C416.839 247.986 417.035 248.162 417.264 248.266C417.494 248.369 417.747 248.396 417.99 248.342C418.233 248.288 418.457 248.157 418.632 247.964C418.807 247.771 418.925 247.526 418.973 247.259C419.02 246.992 418.994 246.716 418.898 246.465C418.802 246.215 418.64 246.001 418.432 245.852C418.225 245.702 417.982 245.623 417.734 245.625C417.569 245.625 417.407 245.661 417.255 245.73C417.104 245.799 416.966 245.9 416.85 246.027C416.734 246.155 416.643 246.306 416.581 246.473C416.519 246.639 416.487 246.817 416.489 246.997V246.997Z" fill="#683F1D"/>
<path d="M413.346 252.861C413.346 252.99 413.381 253.115 413.446 253.222C413.511 253.328 413.603 253.411 413.712 253.46C413.82 253.51 413.939 253.522 414.054 253.497C414.169 253.472 414.274 253.411 414.357 253.32C414.44 253.229 414.497 253.114 414.52 252.988C414.542 252.862 414.531 252.732 414.486 252.613C414.441 252.495 414.365 252.393 414.268 252.322C414.17 252.251 414.056 252.213 413.938 252.213C413.781 252.213 413.631 252.281 413.519 252.403C413.408 252.524 413.346 252.689 413.346 252.861V252.861Z" fill="#914839"/>
<path d="M415.904 250.888C416.232 250.888 416.497 250.597 416.497 250.239C416.497 249.881 416.232 249.591 415.904 249.591C415.577 249.591 415.312 249.881 415.312 250.239C415.312 250.597 415.577 250.888 415.904 250.888Z" fill="#914839"/>
<path d="M416.497 253.237C416.824 253.237 417.09 252.947 417.09 252.589C417.09 252.231 416.824 251.94 416.497 251.94C416.17 251.94 415.905 252.231 415.905 252.589C415.905 252.947 416.17 253.237 416.497 253.237Z" fill="#914839"/>
<path d="M418.085 250.888C418.085 251.016 418.12 251.141 418.185 251.248C418.25 251.355 418.343 251.438 418.451 251.487C418.559 251.536 418.679 251.549 418.793 251.524C418.908 251.499 419.014 251.437 419.097 251.346C419.18 251.256 419.236 251.14 419.259 251.014C419.282 250.888 419.27 250.758 419.225 250.64C419.18 250.521 419.105 250.42 419.007 250.349C418.91 250.277 418.795 250.239 418.678 250.239C418.521 250.239 418.37 250.308 418.259 250.429C418.148 250.551 418.085 250.716 418.085 250.888V250.888Z" fill="#914839"/>
<path d="M427.788 248.463C427.788 248.592 427.823 248.717 427.888 248.824C427.953 248.93 428.046 249.013 428.154 249.062C428.262 249.112 428.381 249.124 428.496 249.099C428.611 249.074 428.717 249.013 428.799 248.922C428.882 248.831 428.939 248.716 428.962 248.59C428.985 248.464 428.973 248.334 428.928 248.215C428.883 248.097 428.807 247.995 428.71 247.924C428.612 247.853 428.498 247.815 428.381 247.815C428.223 247.815 428.073 247.883 427.962 248.005C427.851 248.126 427.788 248.291 427.788 248.463Z" fill="#914839"/>
<path d="M426.251 248.144C426.578 248.144 426.843 247.854 426.843 247.496C426.843 247.137 426.578 246.847 426.251 246.847C425.924 246.847 425.658 247.137 425.658 247.496C425.658 247.854 425.924 248.144 426.251 248.144Z" fill="#914839"/>
<path d="M435.327 246.621C434.606 247.561 433.73 248.031 433.343 247.561C432.588 246.678 434.76 245.287 433.343 243.689C431.927 242.091 428.329 243.041 428.329 243.041C423.1 228.079 415.175 228.549 410.469 231.124C405.764 233.699 405.317 238.201 405.249 240.898C405.18 243.595 405.163 244.516 408.683 246.678C412.204 248.839 408.924 252.222 408.357 254.901C407.79 257.579 410.383 256.78 411.791 259.449C413.2 262.118 410.375 263.425 410.495 262.269C410.615 261.113 409.636 259.628 408.632 259.882C407.627 260.135 405.609 259.318 405.515 258.002C405.42 256.686 404.656 253.613 403.385 253.162C398.946 251.564 396.636 256.254 397.246 259.919C397.445 261.011 397.871 262.038 398.49 262.921C399.109 263.805 399.906 264.52 400.818 265.013C400.818 265.013 398.242 266.404 393.906 260.596C392.975 259.34 392.32 257.868 391.991 256.292C390.729 250.521 393.305 243.464 395.761 239.253C398.877 233.878 400.105 233.615 400.105 233.615C401.554 229.985 403.725 226.755 406.459 224.16C411.156 219.565 415.312 223.437 415.312 223.437C419.837 219.978 425.229 221.369 426.775 224.583C428.32 227.797 427.728 232.844 427.968 234.498C428.209 236.152 429.385 238.943 432.261 238.943C435.138 238.943 436.237 240.137 436.417 243.022C436.484 244.33 436.094 245.616 435.327 246.621V246.621Z" fill="#FFEACC"/>
<path d="M435.327 246.621C434.606 247.561 433.73 248.031 433.343 247.561C432.588 246.677 434.76 245.287 433.343 243.689C431.927 242.091 428.329 243.041 428.329 243.041C423.1 228.079 415.175 228.549 410.469 231.124C405.764 233.699 405.317 238.201 405.249 240.898C405.18 243.595 405.163 244.516 408.683 246.678C412.204 248.839 408.924 252.222 408.357 254.901C407.79 257.579 410.383 256.78 411.791 259.449C413.2 262.118 410.375 263.424 410.495 262.268C410.615 261.113 409.636 259.628 408.632 259.881C407.627 260.135 405.609 259.318 405.515 258.002C405.42 256.686 404.836 254.121 403.368 253.463C398.843 251.423 396.851 256.282 397.461 259.919C397.687 261.03 398.152 262.067 398.818 262.941C399.484 263.816 400.332 264.504 401.29 264.947C401.29 264.947 399.041 267.578 393.906 260.596C392.98 259.337 392.326 257.865 391.991 256.291C396.422 251.865 396.199 247.401 399.161 246.433C402.784 245.249 402.312 237.364 406.485 229.658C410.658 221.952 417.708 227.412 419.451 229.235C419.451 229.235 424.491 226.416 425.993 233.615C427.496 240.813 430.879 241.913 433.163 241.668C434.52 241.518 435.645 244.093 435.327 246.621Z" fill="#EDD6B7"/>
<path d="M403.342 248.313C405 248.595 405.824 251.292 404.922 255.371" stroke="#BF8228" stroke-width="0.75" stroke-linecap="round" stroke-linejoin="round"/>
<path d="M405.661 236.002C408.039 228.587 409.147 228.023 409.86 227.544C411.156 226.689 414.058 227.628 414.058 227.628" stroke="#BF8228" stroke-width="0.75" stroke-linecap="round" stroke-linejoin="round"/>
<path d="M415.312 223.437C416.768 224.802 418.141 226.268 419.425 227.826" stroke="#BF8228" stroke-width="0.75" stroke-linecap="round" stroke-linejoin="round"/>
<path d="M397.306 256.621C394.928 252.786 392.55 244.319 396.834 237.449" stroke="#BF8228" stroke-width="0.75" stroke-linecap="round" stroke-linejoin="round"/>
<path d="M399.676 253.388C397.959 249.506 396.62 242.045 400.106 233.652" stroke="#BF8228" stroke-width="0.75" stroke-linecap="round" stroke-linejoin="round"/>
<path d="M421.494 241.669C420.421 246.048 422.001 247.825 423.881 248.36C425.762 248.896 427.264 249.948 427.05 251.772" stroke="#914839" stroke-width="0.75" stroke-linecap="round" stroke-linejoin="round"/>
<path d="M410.787 243.464C411.646 244.404 416.798 240.72 415.475 238.549C414.153 236.378 409.534 242.148 410.787 243.464Z" fill="#FFEACC"/>
<path d="M420.172 237.224C420.172 239.432 425.324 238.239 425.229 237.515C425.075 236.209 420.163 235.203 420.172 237.224Z" fill="#FFEACC"/>
<path d="M420.026 255.07C420.799 255.889 421.766 256.454 422.818 256.704C423.869 256.953 424.963 256.875 425.977 256.479" stroke="#914839" stroke-width="0.75" stroke-linecap="round" stroke-linejoin="round"/>
<path d="M406.46 259.44V264.891C404.792 265.503 402.99 265.53 401.308 264.966H401.222C400.052 264.522 399.032 263.699 398.299 262.607C397.566 261.514 397.154 260.203 397.118 258.848C397.061 257.968 397.192 257.085 397.5 256.269C397.809 255.454 398.286 254.728 398.895 254.149V254.149C399.3 253.771 399.762 253.472 400.26 253.266C401.292 252.969 402.386 253.079 403.351 253.576C404.811 254.234 405.395 256.752 405.498 258.115C405.552 258.403 405.668 258.673 405.835 258.903C406.002 259.133 406.216 259.317 406.46 259.44Z" fill="#B25E47"/>
<path d="M399.135 258.209C399.642 256.79 403.008 255.211 404.596 259.083" stroke="#914839" stroke-width="0.75" stroke-linecap="round" stroke-linejoin="round"/>
<path d="M404.339 258.5C400.655 256.16 399.136 262.156 403.91 261.789" stroke="#914839" stroke-width="0.75" stroke-linecap="round" stroke-linejoin="round"/>
<path d="M406.46 264.872C404.569 265.591 402.504 265.524 400.655 264.684" stroke="#914839" stroke-width="0.75" stroke-linecap="round" stroke-linejoin="round"/>
<path d="M588.466 288.893C587.839 293.263 585.092 297.116 581.425 299.832C574.41 305.067 563.995 306.194 558.56 299.136C551.768 290.331 534.706 248.905 528.756 234.226C527.46 231.002 526.687 229.057 526.687 229.057C527.185 209.651 540.331 201.249 553.502 201.916C566.674 202.583 575.655 212.836 576.351 228.286C577.046 243.736 571.362 266.47 575.277 271.178C579.193 275.886 590.304 276.131 588.466 288.893Z" fill="#BF8228"/>
<path d="M583.726 293.375C583.295 295.653 582.517 297.836 581.425 299.832C574.41 305.066 563.995 306.194 558.559 299.136C551.768 290.33 534.706 248.905 528.756 234.226C532.895 213.127 543.044 206.568 554.369 208.617C565.849 210.703 570.769 227.647 567.12 235.053C563.471 242.458 554.172 257.043 558.911 266.235C563.651 275.426 562.827 277.164 568.357 278.611C573.886 280.059 585.426 283.066 583.726 293.375Z" fill="#BF8228"/>
<path d="M531.04 225.711C533.281 212.319 544.779 209.876 549.827 211.182" stroke="#7F542D" stroke-width="0.75" stroke-linecap="round" stroke-linejoin="round"/>
<path d="M539.463 224.001C545.886 218.071 555.202 220.073 555.142 225.166C555.082 230.26 554.73 234.066 557.409 236.134C560.088 238.201 564.08 242.59 561.814 248.764" stroke="#7F542D" stroke-width="0.75" stroke-linecap="round" stroke-linejoin="round"/>
<path d="M567.369 255.521C565.652 266.582 564.587 272.005 569.147 273.527C573.706 275.05 575.226 276.713 574.238 279.1C573.251 281.487 571.989 282.493 574.968 283.724C577.948 284.955 578.205 289.081 578.205 289.081" stroke="#7F542D" stroke-width="0.75" stroke-linecap="round" stroke-linejoin="round"/>
<path d="M536.054 358.464C530.774 387.193 521.638 417.135 512.476 431.307C509.84 435.376 507.221 438.148 504.68 439.22C482.527 448.618 473.494 437.284 476.027 403.113C477.487 383.378 487.095 347.215 500.069 320.929C509.368 302.134 520.384 288.413 531.401 289.447C543.181 290.575 542.451 323.636 536.054 358.464Z" fill="#A7CAF0"/>
<path d="M536.055 358.464C533.485 357.506 531.136 355.947 529.171 353.896C527.207 351.845 525.673 349.35 524.678 346.586C523.404 342.958 521.774 339.492 519.818 336.248C515.052 328.429 508.424 322.555 500.069 320.883C509.368 302.087 520.384 288.366 531.401 289.4C543.181 290.575 542.452 323.636 536.055 358.464Z" fill="#A7CAF0"/>
<path d="M519.834 338.927C509.144 340.28 506.852 343.889 508.123 352.037C509.393 360.185 494.006 351.351 489.859 360.974C485.712 370.597 506.088 406.535 506.457 406.741L512.682 410.219L524.48 395.182L532.328 374.093L532.456 354.8L519.834 338.927Z" fill="#83ADDF"/>
<path d="M614.208 345.505C614.037 349.715 612.671 364.244 610.954 381.612C607.992 411.431 603.965 449.605 603.046 458.335L599.895 457.442C587.11 453.834 573.277 450.601 558.543 447.688C543.808 444.774 528.293 442.209 512.064 439.953C512.193 437.425 512.33 434.493 512.476 431.307C513.215 414.823 514.073 391.517 513.386 382.016C512.279 366.744 511.618 355.833 516.263 346.135C517.732 342.985 518.928 339.69 519.835 336.295C522.231 327.677 523.51 317.847 523.355 311.4C523.166 303.798 519.182 292.088 531.427 289.447C534.606 288.864 537.843 288.74 541.052 289.081C564.699 290.96 569.533 289.081 569.533 289.081C584.8 286.102 597.465 289.776 601.002 291.129L601.329 291.261C606.481 293.347 611.323 301.147 613.35 317.65C614.381 326.89 614.668 336.21 614.208 345.505V345.505Z" fill="#A7CAF0"/>
<path d="M582.567 359.874C565.66 351.191 553.983 371.152 554.859 386.959C555.983 407.061 534.534 382.495 525.433 404.316C518.203 421.655 554.017 437.209 572.856 420.293C591.694 403.377 605.39 371.584 582.567 359.874Z" fill="#83ADDF"/>
<path d="M613.384 317.65C601.844 315.611 587.281 321.616 578.454 330.337C574.762 334.002 572.075 338.147 571.036 342.376C567.515 356.792 548.994 363.69 536.055 358.465C533.485 357.506 531.136 355.947 529.171 353.896C527.207 351.845 525.673 349.351 524.678 346.586C523.404 342.958 521.774 339.492 519.818 336.248C522.213 327.631 523.493 317.8 523.338 311.354C523.149 303.751 519.165 292.041 531.409 289.4C534.589 288.817 537.826 288.693 541.035 289.034C564.682 290.913 569.516 289.034 569.516 289.034C584.783 286.055 597.448 289.729 600.985 291.083L601.311 291.214C606.48 293.347 611.332 301.148 613.384 317.65Z" fill="#A7CAF0"/>
<path d="M512.064 439.953C512.193 437.425 512.33 434.493 512.476 431.307C513.215 414.823 514.073 391.517 513.386 382.015C512.279 366.744 511.618 355.833 516.263 346.135C517.732 342.984 518.928 339.69 519.835 336.295C521.441 330.436 522.53 324.422 523.089 318.336" stroke="#83ADDF" stroke-width="0.75" stroke-linecap="round" stroke-linejoin="round"/>
<path d="M565.334 289.081C565.703 292.051 548.883 313.224 541.85 311.278C534.818 309.333 538.416 289.353 538.416 289.353C538.416 289.353 537.986 288 537.325 286.008C535.702 281.064 532.731 272.118 531.65 269.674C530.408 266.911 529.416 264.021 528.687 261.047C523.329 238.709 540.519 230.091 549.81 252.73C559.203 275.557 564.956 286.102 565.334 289.081Z" fill="#FEBD9D"/>
<path d="M537.342 286.008C535.719 281.065 532.749 272.118 531.667 269.674C530.425 266.911 529.433 264.022 528.704 261.047C534.826 256.687 543.396 260.596 546.736 268.255C549.964 275.698 545.714 284.457 537.342 286.008Z" fill="#F4A789"/>
<path d="M537.823 287.455C539.334 290.829 539.094 291.487 539.094 293.329C539.094 295.171 539.48 304.475 538.716 308.055C538.716 308.055 534.964 303.676 532.938 304.399C530.911 305.123 527.683 308.055 527.683 308.055L533.444 292.079C534.655 288.639 536.312 287.389 537.823 287.455Z" fill="#683F1D"/>
<path d="M569.542 289.081C569.611 287.201 564.819 283.677 564.107 285.434C560.191 295.133 550.033 307.613 546.513 310.291C548.041 310.703 549.493 311.399 550.806 312.35C552.773 313.9 556.413 320.911 556.413 320.911C556.413 320.911 568.829 308.055 569.542 289.081Z" fill="#683F1D"/>
<path d="M537.815 319.68C537.815 320.29 537.98 320.886 538.289 321.393C538.599 321.9 539.039 322.295 539.553 322.528C540.068 322.761 540.634 322.822 541.18 322.703C541.727 322.584 542.229 322.291 542.622 321.86C543.016 321.429 543.285 320.879 543.393 320.281C543.502 319.684 543.446 319.064 543.233 318.501C543.02 317.937 542.659 317.456 542.196 317.117C541.732 316.778 541.188 316.598 540.631 316.598C539.884 316.598 539.168 316.922 538.639 317.5C538.111 318.079 537.815 318.863 537.815 319.68V319.68Z" fill="white"/>
<path d="M536.372 331.042C536.371 331.654 536.535 332.253 536.844 332.762C537.154 333.272 537.594 333.67 538.11 333.905C538.626 334.141 539.194 334.203 539.743 334.085C540.292 333.967 540.796 333.673 541.192 333.241C541.588 332.809 541.857 332.258 541.967 331.658C542.077 331.058 542.021 330.436 541.808 329.87C541.594 329.305 541.232 328.821 540.768 328.481C540.303 328.141 539.756 327.959 539.197 327.959C538.827 327.958 538.459 328.037 538.117 328.191C537.774 328.346 537.463 328.573 537.2 328.859C536.938 329.145 536.729 329.486 536.587 329.86C536.445 330.235 536.372 330.636 536.372 331.042Z" fill="white"/>
<path d="M599.894 457.443C587.109 453.834 573.277 450.601 558.542 447.688C558.881 446.571 559.376 445.518 560.011 444.568C568.399 431.317 574.71 416.647 594.485 423.065C602.522 425.678 598.418 440.451 594.485 445.62C590.389 450.939 601.655 451.08 599.894 457.443Z" fill="#83ADDF"/>
<path d="M487.859 441.917C469.827 438.778 464.572 409.213 461.808 394.073C459.755 382.796 455.625 354.123 453.65 340.158C452.964 335.346 452.534 332.282 452.534 332.282C452.534 332.282 461.653 334.058 470.926 324.623C471.493 326.174 472.412 328.326 473.58 330.948C482.037 350.025 504.07 393.791 508.123 408.677C512.725 425.612 505.667 445.028 487.859 441.917Z" fill="#A7CAF0"/>
<path d="M461.808 394.073C460.854 388.82 459.446 379.779 458.012 370.212C456.372 359.254 454.707 347.61 453.65 340.139C452.964 335.327 452.534 332.264 452.534 332.264" stroke="#83ADDF" stroke-width="0.75" stroke-linecap="round" stroke-linejoin="round"/>
<path d="M470.927 324.623C468.788 319.924 463.491 310.987 458.459 306.861C455.763 304.662 452.448 304.681 451.306 305.565C451.306 305.565 442.119 304.07 435.138 305.931C428.157 307.792 427.05 311.993 429.943 312.359C432.837 312.726 437.774 310.874 441.355 310.78C441.355 310.78 437.74 311.72 437.817 315.367C436.959 314.812 434.941 316.259 435.37 319.238C435.37 319.238 433.928 317.584 433.352 320.648C432.777 323.712 435.216 328.223 438.015 328.392C440.814 328.561 440.505 326.353 440.505 326.353C440.505 326.353 442.789 330.939 452.526 332.283C452.526 332.283 454.243 335.544 454.243 335.374C454.243 335.205 471.218 337.104 470.927 324.623Z" fill="#FEBD9D"/>
<path d="M458.459 306.861C455.763 304.662 452.448 304.681 451.306 305.565C451.306 305.565 442.119 304.07 435.138 305.931C428.157 307.792 427.05 311.993 429.943 312.359C432.837 312.726 437.774 310.874 441.355 310.78C441.355 310.78 437.74 311.72 437.817 315.367C436.959 314.812 434.941 316.259 435.37 319.238C435.37 319.238 433.928 317.584 433.352 320.648C432.777 323.712 435.216 328.223 438.015 328.392C440.814 328.561 440.505 326.353 440.505 326.353" stroke="#F4A789" stroke-width="0.75" stroke-linecap="round" stroke-linejoin="round"/>
<path d="M441.389 310.781C443.102 310.577 444.829 310.577 446.541 310.781" stroke="#F4A789" stroke-width="0.75" stroke-linecap="round" stroke-linejoin="round"/>
<path d="M435.379 319.238C436.598 322.687 438.212 325.046 440.531 326.353C442.849 327.659 445.889 323.853 445.734 322.791C446.902 321.907 447.657 319.915 445.313 318.355" stroke="#F4A789" stroke-width="0.75" stroke-linecap="round" stroke-linejoin="round"/>
<path d="M437.818 315.367C438.462 319.06 440.66 323.703 445.709 322.791" stroke="#F4A789" stroke-width="0.75" stroke-linecap="round" stroke-linejoin="round"/>
<path d="M459.575 323.345C453.822 320.526 452.818 316.663 452.534 313.741C452.534 313.741 444.463 320.187 442.6 318.543C440.281 316.485 449.469 306.739 451.306 305.564" stroke="#F4A789" stroke-width="0.75" stroke-linecap="round" stroke-linejoin="round"/>
<path d="M473.58 330.948C468.505 336.088 462.28 340.449 453.65 340.158C452.964 335.346 452.534 332.282 452.534 332.282C452.534 332.282 461.653 334.058 470.926 324.623C471.493 326.164 472.412 328.326 473.58 330.948Z" fill="#683F1D"/>
<path d="M468.505 329.68C468.505 330.024 468.599 330.36 468.773 330.646C468.948 330.933 469.197 331.155 469.488 331.287C469.778 331.418 470.098 331.452 470.407 331.384C470.715 331.316 470.998 331.15 471.22 330.906C471.442 330.661 471.592 330.351 471.653 330.013C471.713 329.675 471.68 329.325 471.559 329.008C471.437 328.69 471.232 328.419 470.97 328.229C470.708 328.039 470.4 327.939 470.085 327.941C469.877 327.941 469.671 327.986 469.478 328.073C469.286 328.161 469.112 328.289 468.965 328.451C468.818 328.612 468.702 328.804 468.623 329.015C468.544 329.226 468.504 329.452 468.505 329.68V329.68Z" fill="white"/>
<path d="M610.954 381.611C606.257 399.401 600.822 416.834 597.868 426.354C590.587 449.905 563.651 463.946 560.56 442.387C556.885 416.75 572.581 370.494 578.205 332.301C578.3 331.69 578.377 331.032 578.454 330.337C579.983 316.851 579.802 289.128 596.022 290.133C597.717 290.235 599.393 290.57 601.011 291.129L601.337 291.261C610.662 294.776 615.711 305.893 618.038 318.994C618.836 323.604 619.335 328.271 619.532 332.959C620.03 343.701 615.908 362.863 610.954 381.611Z" fill="#A7CAF0"/>
<path d="M618.037 318.994C616.532 318.375 614.972 317.924 613.384 317.65C601.844 315.611 587.281 321.616 578.454 330.337C579.982 316.851 579.802 289.128 596.022 290.133C597.716 290.235 599.392 290.57 601.011 291.129L601.337 291.261C610.662 294.776 615.693 305.893 618.037 318.994Z" fill="#A7CAF0"/>
<path d="M562.14 411.684C565.575 390.52 572.358 365.485 576.548 342.375" stroke="#83ADDF" stroke-width="0.75" stroke-linecap="round" stroke-linejoin="round"/>
<path d="M607.279 395.013C603.647 407.766 600.067 419.259 597.834 426.354C595.628 433.327 591.872 439.589 586.904 444.577" stroke="#83ADDF" stroke-width="0.75" stroke-linecap="round" stroke-linejoin="round"/>
<path d="M576.539 342.375C578.257 334.97 582.086 330.158 584.456 329.773" stroke="#83ADDF" stroke-width="0.75" stroke-linecap="round" stroke-linejoin="round"/>
<path d="M416.849 334.848C420.842 331.794 428.012 333.034 436.598 343.306C441.896 349.764 446.199 357.121 449.34 365.09C455.447 360.258 462.506 357.065 469.948 355.767C482.089 353.785 497.158 359.724 497.158 359.724L499.502 366.913L449.692 374.093L416.849 334.848Z" fill="#F9F9F9" stroke="#DDDDDD" stroke-linecap="round" stroke-linejoin="round"/>
<path d="M452.534 367.599L502.499 363.229L522.307 422.558L474.464 426.787L452.534 367.599Z" fill="#F9F9F9" stroke="#DDDDDD" stroke-linecap="round" stroke-linejoin="round"/>
<path d="M414.66 331.042L446.816 366.951L468.634 423.169L437.491 390.934L414.66 331.042Z" fill="#F9F9F9" stroke="#DDDDDD" stroke-linecap="round" stroke-linejoin="round"/>
<path d="M446.816 366.951L452.534 367.599L474.464 426.787L468.634 423.168L446.816 366.951Z" fill="#F9F9F9" stroke="#DDDDDD" stroke-linecap="round" stroke-linejoin="round"/>
<path d="M436.916 349.142C441.612 354.339 446.361 363.305 446.361 363.305" stroke="#DDDDDD" stroke-linecap="round" stroke-linejoin="round"/>
<path d="M452.552 365.071C456.699 362.453 461.191 360.551 465.869 359.433" stroke="#DDDDDD" stroke-linecap="round" stroke-linejoin="round"/>
<path d="M453.136 366.105C457.429 364.047 466.17 362.243 466.17 362.243" stroke="#DDDDDD" stroke-linecap="round" stroke-linejoin="round"/>
<path d="M444.068 365.231C445.348 362.468 452.577 360.532 453.994 368.99C452.375 369.988 450.504 370.384 448.662 370.118C447.125 369.799 444.068 365.231 444.068 365.231Z" fill="#F9F9F9" stroke="#DDDDDD" stroke-linecap="round" stroke-linejoin="round"/>
<path d="M500.198 396.357C495.572 393.541 491.329 390.03 487.593 385.925C484.072 382.166 474.911 377.176 474.052 377.759C473.193 378.341 472.524 380.916 477.358 385.578C478.838 386.876 480.08 388.471 481.016 390.277C479.289 390.965 477.43 391.159 475.615 390.84C472.524 390.324 459.481 389.384 457.91 389.205C456.338 389.027 456.021 391.357 458.373 392.391C454.595 391.771 453.556 394.224 456.965 396.498C456.965 396.498 454.011 397.362 457.463 400.172C460.395 402.386 463.478 404.35 466.685 406.046C466.685 406.046 459.661 403.819 458.751 403.96C457.841 404.101 457.334 405.689 459.747 407.099C462.16 408.508 479.041 415.651 481.96 416.59C485.541 417.728 492.753 419.081 492.753 419.081C492.753 419.081 501.443 405.36 500.198 396.357Z" fill="#FEBD9D"/>
<path d="M570.331 453.035C553.957 454.256 512.914 432.989 496.875 424.616C493.595 422.915 491.362 421.796 490.598 421.42C490.598 421.42 490.924 400.059 501.34 395.783C502.692 396.606 504.135 397.237 505.633 397.663C507.577 398.282 509.569 398.706 511.583 398.931C518.452 399.768 539.867 403.245 551.527 404.279C563.188 405.313 577.93 414.043 583.202 424.418C586.817 431.532 586.5 451.851 570.331 453.035Z" fill="#A7CAF0"/>
<path d="M570.331 453.035C553.957 454.257 512.914 432.99 496.875 424.616C493.595 422.915 491.362 421.797 490.598 421.421" stroke="#83ADDF" stroke-width="0.75" stroke-linecap="round" stroke-linejoin="round"/>
<path d="M501.34 395.802C502.692 396.625 504.135 397.257 505.633 397.682C507.577 398.301 509.569 398.725 511.583 398.951C518.452 399.787 539.867 403.264 551.527 404.298C559.255 404.984 568.262 408.997 575.037 414.635" stroke="#83ADDF" stroke-width="0.75" stroke-linecap="round" stroke-linejoin="round"/>
<path d="M482.69 382.006C478.869 379.459 474.619 377.373 474.052 377.758C473.193 378.341 472.524 380.916 477.358 385.577C478.838 386.876 480.08 388.47 481.016 390.276C479.289 390.965 477.43 391.159 475.615 390.84C472.524 390.323 459.481 389.384 457.91 389.205C456.338 389.026 456.021 391.357 458.373 392.391C454.595 391.771 453.556 394.223 456.965 396.498C456.965 396.498 454.011 397.362 457.463 400.172C460.395 402.386 463.478 404.35 466.685 406.046C466.685 406.046 459.661 403.819 458.751 403.96C457.841 404.101 457.334 405.689 459.747 407.098C460.46 407.512 462.469 408.442 465.011 409.57" stroke="#F4A789" stroke-width="0.75" stroke-linecap="round" stroke-linejoin="round"/>
<path d="M505.667 397.729C500.644 401.883 497.141 414.025 496.875 424.635C493.595 422.934 491.362 421.815 490.598 421.439C490.598 421.439 490.924 400.078 501.34 395.802C502.701 396.644 504.155 397.292 505.667 397.729V397.729Z" fill="#683F1D"/>
<path d="M492.367 417.831C492.365 418.22 492.469 418.6 492.665 418.925C492.861 419.249 493.141 419.502 493.469 419.652C493.796 419.802 494.158 419.842 494.506 419.768C494.855 419.693 495.175 419.507 495.427 419.232C495.679 418.958 495.851 418.608 495.921 418.227C495.991 417.846 495.956 417.45 495.82 417.091C495.685 416.731 495.455 416.424 495.159 416.208C494.864 415.991 494.517 415.876 494.161 415.876C493.687 415.876 493.232 416.082 492.895 416.448C492.559 416.814 492.369 417.311 492.367 417.831V417.831Z" fill="white"/>
<path d="M466.685 406.046C468.909 406.798 470.575 407.521 470.575 407.521" stroke="#F4A789" stroke-width="0.75" stroke-linecap="round" stroke-linejoin="round"/>
<path d="M456.965 396.46L471.811 402.117" stroke="#F4A789" stroke-width="0.75" stroke-linecap="round" stroke-linejoin="round"/>
<path d="M458.373 392.353L472.3 396.46" stroke="#F4A789" stroke-width="0.75" stroke-linecap="round" stroke-linejoin="round"/>
<path d="M550.755 257.561C547.08 267.372 537.643 284.297 526.335 276.008C523.974 274.245 521.935 272.014 520.324 269.43C518.212 266.062 516.67 262.306 515.773 258.341C514.462 252.747 514.272 246.909 515.215 241.227C515.544 239.27 516.047 237.353 516.718 235.504C521.363 222.995 536.398 223.992 541.936 230.063C542.091 230.232 542.263 230.42 542.434 230.626C545.219 234.259 547.407 238.392 548.9 242.844C549.123 243.47 549.329 244.097 549.518 244.723C551.141 249.732 551.811 254.741 550.755 257.561Z" fill="#FEBD9D"/>
<path d="M518.547 255.126C518.547 255.398 518.621 255.664 518.759 255.89C518.897 256.116 519.093 256.291 519.323 256.395C519.553 256.499 519.805 256.525 520.049 256.471C520.292 256.418 520.515 256.286 520.69 256.093C520.865 255.9 520.984 255.655 521.031 255.388C521.079 255.122 521.053 254.845 520.956 254.595C520.86 254.344 520.698 254.131 520.491 253.981C520.284 253.831 520.04 253.753 519.792 253.754C519.628 253.754 519.465 253.79 519.314 253.859C519.162 253.928 519.024 254.029 518.909 254.157C518.793 254.284 518.701 254.436 518.639 254.602C518.577 254.769 518.546 254.947 518.547 255.126V255.126Z" fill="#683F1D"/>
<path d="M525.433 252.73C525.433 253.001 525.507 253.267 525.645 253.492C525.782 253.718 525.978 253.894 526.207 253.998C526.436 254.102 526.688 254.129 526.932 254.076C527.175 254.023 527.398 253.892 527.573 253.7C527.749 253.508 527.868 253.264 527.917 252.998C527.965 252.732 527.94 252.456 527.845 252.205C527.75 251.954 527.59 251.74 527.383 251.589C527.177 251.438 526.935 251.358 526.687 251.358C526.522 251.357 526.359 251.391 526.206 251.46C526.053 251.528 525.915 251.629 525.798 251.757C525.681 251.885 525.589 252.036 525.526 252.203C525.464 252.371 525.432 252.549 525.433 252.73Z" fill="#683F1D"/>
<path d="M548.042 257.044C553.296 258.576 559.35 251.405 556.293 245.466C553.236 239.526 547.243 243.285 546.513 247.505L548.042 257.044Z" fill="#FEBD9D"/>
<path d="M548.041 257.044C548.983 257.303 549.968 257.303 550.909 257.044" stroke="#F4A789" stroke-width="0.75" stroke-linecap="round" stroke-linejoin="round"/>
<path d="M548.9 250.917C549.381 246.095 553.357 245.861 554.378 248.031" stroke="#F4A789" stroke-width="0.75" stroke-linecap="round" stroke-linejoin="round"/>
<path d="M549.029 250.042C552.412 246.02 556.662 252.749 549.982 253.341" stroke="#F4A789" stroke-width="0.75" stroke-linecap="round" stroke-linejoin="round"/>
<path d="M549.518 244.657C549.494 244.832 549.46 245.005 549.415 245.174C548.651 248.135 545.801 246.659 544.641 243.849C543.302 240.522 535.463 228.55 528.396 236.754C523.158 242.825 518.848 243.642 515.216 241.227C515.524 239.374 515.995 237.558 516.624 235.805C516.65 235.703 516.682 235.602 516.718 235.504C521.364 222.995 536.398 223.992 541.937 230.063C542.091 230.232 542.263 230.42 542.435 230.626C545.22 234.259 547.407 238.392 548.9 242.844C549.124 243.433 549.33 244.037 549.518 244.657Z" fill="#BF8228"/>
<path d="M549.415 245.174C548.651 248.135 545.801 246.659 544.641 243.849C543.302 240.522 535.463 228.55 528.396 236.754C523.158 242.825 518.848 243.642 515.216 241.227C515.524 239.374 515.995 237.558 516.624 235.805C521.08 237.835 525.21 234.949 527.932 232.506C531.367 229.489 535.54 229.734 539.842 233.023C543.637 235.946 546.857 245.682 549.415 245.174Z" fill="#BF8228"/>
<path d="M519.706 242.402C519.011 233.944 522.231 228.493 524.858 226.858" stroke="#7F542D" stroke-width="0.75" stroke-linecap="round" stroke-linejoin="round"/>
<path d="M521.767 241.979C522.093 238.54 527.726 226.003 534.097 226.003" stroke="#7F542D" stroke-width="0.75" stroke-linecap="round" stroke-linejoin="round"/>
<path d="M528.971 236.171C530.972 230.852 533.436 227.45 536.373 226.595" stroke="#7F542D" stroke-width="0.75" stroke-linecap="round" stroke-linejoin="round"/>
<path d="M540.889 229.066C541.361 233.418 540.983 236.293 539.824 236.998" stroke="#7F542D" stroke-width="0.75" stroke-linecap="round" stroke-linejoin="round"/>
<path d="M543.31 231.754C544.624 237.346 543.525 239.865 542.761 240.513" stroke="#7F542D" stroke-width="0.75" stroke-linecap="round" stroke-linejoin="round"/>
<path d="M520.385 250.39C522.729 251.424 523.819 253.209 523.235 254.845C522.514 256.875 521.329 260.483 523.596 262.062" stroke="#F4A789" stroke-width="0.75" stroke-linecap="round" stroke-linejoin="round"/>
<path d="M523.261 245.644C523.501 247.702 530.207 245.644 530.465 244.432C530.808 242.787 522.84 242.017 523.261 245.644Z" fill="#BF8228"/>
<path d="M519.526 247.496C520.385 249.178 514.374 251.565 513.515 250.775C512.519 249.742 518.118 244.526 519.526 247.496Z" fill="#BF8228"/>
<path d="M527.185 264.543C528.283 264.063 529.28 263.344 530.117 262.429C530.954 261.515 531.612 260.425 532.053 259.224C532.053 259.224 534.286 263.491 531.65 265.699C529.632 267.381 527.185 264.543 527.185 264.543Z" fill="white" stroke="#F4A789" stroke-width="0.75" stroke-linecap="round" stroke-linejoin="round"/>
<path d="M538.115 259.337C541.321 259.337 543.92 256.492 543.92 252.984C543.92 249.475 541.321 246.631 538.115 246.631C534.91 246.631 532.311 249.475 532.311 252.984C532.311 256.492 534.91 259.337 538.115 259.337Z" fill="#F4A789"/>
<path d="M522.342 264.628C522.346 265.541 522.168 266.444 521.819 267.274C521.471 268.103 520.96 268.839 520.324 269.43C518.212 266.062 516.67 262.306 515.774 258.341C516.027 258.299 516.282 258.277 516.538 258.275C518.077 258.275 519.554 258.944 520.642 260.136C521.731 261.327 522.342 262.943 522.342 264.628Z" fill="#F4A789"/>
</svg>
