<svg width="528" height="370" viewBox="0 0 528 370" fill="none" xmlns="http://www.w3.org/2000/svg">
<path d="M410.703 1H127.327C122.106 1 117.874 6.02261 117.874 12.2183V216.045C117.874 222.241 122.106 227.264 127.327 227.264H410.703C415.923 227.264 420.155 222.241 420.155 216.045V12.2183C420.155 6.02261 415.923 1 410.703 1Z" stroke="#DDDDDD" stroke-width="1.81" stroke-linecap="round" stroke-linejoin="round"/>
<path d="M401.743 11.55H136.293C131.073 11.55 126.84 16.5727 126.84 22.7684V205.479C126.84 211.674 131.073 216.697 136.293 216.697H401.743C406.964 216.697 411.196 211.674 411.196 205.479V22.7684C411.196 16.5727 406.964 11.55 401.743 11.55Z" stroke="#DDDDDD" stroke-width="1.81" stroke-linecap="round" stroke-linejoin="round"/>
<path d="M127.195 160.515C117.207 161.942 115.977 154.163 112.342 143.101C108.707 132.04 109.346 121.655 106.879 104.646C103.994 84.8486 124.255 84.4032 128.425 112.16C128.599 113.282 128.787 114.585 128.988 116.012C129.579 120.03 130.323 125.086 131.393 130.101C131.664 131.363 131.956 132.625 132.262 133.871C134.278 141.864 137.204 159.079 127.195 160.515Z" fill="#B25E47"/>
<path d="M131.421 130.101C117.979 135.051 115.984 122.001 116.13 116.664L129.002 116.012C129.607 120.005 130.351 125.061 131.421 130.101Z" fill="#914839"/>
<path d="M179.762 212.638C179.241 213.229 178.688 213.78 178.108 214.288C177.67 214.701 177.142 215.171 176.53 215.657L176.009 216.078L175.411 216.532C174.57 217.159 173.618 217.819 172.548 218.462C172.047 218.767 171.519 219.081 170.963 219.369C170.678 219.526 170.386 219.683 170.08 219.831L169.17 220.277C168.885 220.409 168.6 220.541 168.301 220.664C168.002 220.788 167.606 220.978 167.203 221.126C166.8 221.275 166.508 221.399 166.16 221.522C165.813 221.646 165.465 221.778 165.083 221.894L164.11 222.199L163.846 222.273L162.845 222.537C162.045 222.751 161.225 222.925 160.37 223.073C160.023 223.147 159.675 223.205 159.307 223.255C159.175 223.255 159.043 223.296 158.904 223.304C158.535 223.362 158.167 223.403 157.792 223.444V223.527C157.986 225.803 160.099 268.895 160.641 280.221L160.69 281.227C160.69 281.458 160.69 281.664 160.69 281.846C133.986 281.021 107.379 280.715 81.7452 280.798C81.217 269.464 80.2648 248.521 79.3403 227.181C78.0545 197.279 76.8312 166.643 76.9702 160.688V160.597C77.2621 149.131 75.9067 140.544 84.1571 136.758C87.0346 135.438 91.1077 134.696 96.7794 134.63H97.8706H99.0731H100.338C100.769 134.63 101.172 134.63 101.561 134.58H102.416L103.23 134.531H103.925L105.051 134.457L105.843 134.391C106.26 134.391 106.635 134.325 106.983 134.292H107.198L107.594 134.25L108.157 134.176H108.352C108.734 134.118 109.047 134.061 109.277 134.011C109.506 133.962 109.61 133.937 109.735 133.904C109.87 133.874 110 133.824 110.124 133.755V133.755C111.946 139.728 117.019 150.649 125.527 149.271C134.035 147.894 133.319 136.643 131.63 131.718L131.789 131.883L132.033 132.114L132.568 132.576C132.644 132.642 132.728 132.716 132.818 132.782L133.103 133.005L133.381 133.211L133.763 133.483C134.09 133.698 134.459 133.904 134.799 134.085L135.161 134.259C135.404 134.358 135.647 134.432 135.856 134.498C136.114 134.56 136.377 134.59 136.641 134.589C136.724 134.597 136.808 134.597 136.891 134.589C136.982 134.589 137.065 134.589 137.148 134.539C138.476 134.143 142.208 133.368 147.317 135.743C150.577 137.269 154.4 140.082 158.521 145.114C161.19 148.584 163.449 152.469 165.236 156.662C172.583 172.706 178.039 197.139 179.762 212.638Z" fill="#A7CAF0"/>
<path d="M165.284 156.522C160.816 155.767 156.263 156.788 152.335 159.426C149.249 161.65 146.821 164.956 145.385 168.887C138.212 187.661 119.417 194.714 106.858 173.935C105.112 170.992 103.09 168.294 100.832 165.893C94.0825 158.865 86.2353 156.926 76.9215 160.77V160.679C77.2134 149.214 75.8581 140.627 84.1084 136.841C86.986 135.521 91.059 134.778 96.7307 134.712C108.755 134.564 110.097 133.648 110.097 133.648C111.918 139.62 116.992 150.542 125.499 149.164C134.007 147.787 133.291 136.535 131.602 131.611C131.789 131.801 135.077 135.042 137.162 134.424C138.49 134.028 142.222 133.252 147.331 135.628C150.591 137.154 154.414 139.967 158.535 144.999C161.215 148.459 163.485 152.335 165.284 156.522Z" fill="#A7CAF0"/>
<path d="M177.476 282.505C171.874 282.291 166.274 282.099 160.676 281.928V281.309L160.628 280.303L157.778 223.609V223.527L177.476 207.607C177.74 209.685 177.962 211.946 178.171 214.338C179.95 238.787 177.782 277.226 177.476 282.505Z" fill="#B25E47"/>
<path d="M179.763 212.638C179.763 212.638 171.901 222.05 157.75 223.51C156.972 196.43 154.782 174.991 152.349 159.426C150.674 148.661 148.874 140.693 147.38 135.628C150.64 137.154 154.462 139.967 158.584 144.999C161.253 148.469 163.512 152.354 165.298 156.547C172.583 172.706 178.039 197.139 179.763 212.638Z" fill="#FED81D"/>
<path d="M165.284 156.522C160.816 155.767 156.263 156.788 152.336 159.426C150.66 148.661 148.86 140.693 147.366 135.628C150.626 137.154 154.448 139.967 158.57 144.999C161.238 148.461 163.496 152.338 165.284 156.522Z" fill="#FED81D"/>
<path d="M157.736 223.51C156.958 196.43 154.768 174.991 152.335 159.426" stroke="#FCC71F" stroke-width="0.68" stroke-linecap="round" stroke-linejoin="round"/>
<path d="M109.694 130.679C105.523 132.626 105.523 134.803 105.523 137.171C105.523 139.538 109.263 152.456 116.575 161.628C118 163.418 120.119 152.373 122.212 151.73C124.304 151.086 126.18 152.225 127.153 152.06C128.127 151.895 130.705 148.859 132.38 150.237C134.055 151.614 137.6 158.485 138.295 158.667C138.99 158.848 139.06 142.392 137.461 136.61C137.042 134.976 136.256 133.508 135.187 132.364C134.118 131.22 132.806 130.444 131.393 130.118C131.393 130.118 132.547 142.062 129.176 145.609C122.17 153 114.962 143.687 109.694 130.679Z" fill="white"/>
<path d="M107.713 97.9559C105.273 96.8836 101.533 99.6057 102.041 104.118C102.548 108.63 108.171 110.106 110.952 107.492C109.559 104.476 108.472 101.275 107.713 97.9559V97.9559Z" fill="#B25E47"/>
<path d="M103.959 104.415C103.751 102.476 105.725 99.416 108.825 102.32" stroke="#914839" stroke-width="0.68" stroke-linecap="round" stroke-linejoin="round"/>
<path d="M107.574 105.685C104.342 105.586 105.294 101.453 108.213 101.816" stroke="#914839" stroke-width="0.68" stroke-linecap="round" stroke-linejoin="round"/>
<path d="M132.978 102.575L131.226 103.177L114.065 109.067C114.065 109.067 113.607 108.539 112.912 107.623C110.645 104.662 108.84 101.246 107.58 97.5352C107.203 96.3366 106.939 95.0915 106.795 93.8233C105.947 85.9292 112.863 71.1392 124.373 77.9691C128.092 82.176 130.205 89.6494 130.747 91.8436L130.928 92.5859C131.588 95.5143 132.978 102.575 132.978 102.575Z" fill="#B25E47"/>
<path d="M120.682 99.7788C120.682 101.886 119.977 103.906 118.722 105.396C117.467 106.886 115.764 107.722 113.989 107.722C113.619 107.723 113.25 107.69 112.884 107.623V107.623C110.617 104.662 108.812 101.246 107.553 97.5352C108.007 95.6992 109.003 94.119 110.36 93.0845C111.716 92.0501 113.341 91.6308 114.937 91.9035C116.533 92.1762 117.992 93.1226 119.048 94.5692C120.103 96.0158 120.683 97.8654 120.682 99.7788V99.7788Z" fill="#914839"/>
<path d="M132.978 102.575L131.227 103.177C130.5 102.602 129.899 101.829 129.475 100.923C129.05 100.018 128.813 99.0046 128.784 97.9685C128.755 96.9325 128.934 95.903 129.307 94.9656C129.679 94.0281 130.235 93.2095 130.928 92.5776C131.588 95.5142 132.978 102.575 132.978 102.575Z" fill="#914839"/>
<path d="M120.404 91.8189C120.403 92.0284 120.454 92.2336 120.551 92.4085C120.649 92.5834 120.787 92.72 120.95 92.801C121.113 92.8819 121.293 92.9035 121.466 92.863C121.639 92.8226 121.798 92.7218 121.923 92.5737C122.048 92.4255 122.133 92.2366 122.167 92.0311C122.201 91.8255 122.183 91.6125 122.115 91.4192C122.046 91.226 121.931 91.0612 121.784 90.9458C121.637 90.8304 121.464 90.7696 121.287 90.7713C121.171 90.7713 121.056 90.7984 120.949 90.851C120.842 90.9037 120.745 90.9808 120.663 91.0781C120.581 91.1754 120.516 91.2909 120.472 91.418C120.427 91.5451 120.404 91.6813 120.404 91.8189V91.8189Z" fill="#683F1D"/>
<path d="M126.813 90.7712C126.813 90.9804 126.865 91.1848 126.963 91.3586C127.061 91.5325 127.201 91.6678 127.364 91.7474C127.527 91.8271 127.706 91.8475 127.879 91.8061C128.051 91.7647 128.21 91.6633 128.334 91.5148C128.458 91.3663 128.542 91.1774 128.576 90.9721C128.61 90.7667 128.591 90.5542 128.523 90.3614C128.454 90.1686 128.339 90.0043 128.192 89.8893C128.045 89.7743 127.872 89.7137 127.696 89.7154C127.579 89.7154 127.464 89.7427 127.356 89.7959C127.249 89.8491 127.151 89.927 127.069 90.0251C126.987 90.1233 126.922 90.2397 126.878 90.3678C126.834 90.4958 126.812 90.6329 126.813 90.7712V90.7712Z" fill="#683F1D"/>
<path d="M134.431 115.328C130.684 126.728 121.357 123.42 117.193 120.219C113.03 117.019 110.938 108.803 107.991 103.186C104.133 95.869 104.258 88.6843 106.309 83.3886C107.593 79.8045 110.008 76.9593 113.037 75.4615C119.556 72.6322 124.38 77.9361 124.38 77.9361C124.248 82.8854 116.276 81.5656 114.767 81.0294C111.049 79.7344 109.541 84.4527 109.103 88.1811C108.588 92.5117 109.144 97.0155 111.139 100.323C113.134 103.631 114.615 104.448 115.699 102.798C116.783 101.148 118.847 99.2757 124.116 98.2693C129.385 97.263 131.803 100.249 131.803 100.249C131.803 99.1272 130.802 92.2807 130.747 91.8601C132.658 95.8715 134.043 100.205 134.855 104.712C135.432 108.25 135.508 112.02 134.431 115.328Z" fill="#FFEACC"/>
<path d="M134.431 115.328C130.684 126.728 121.357 123.42 117.193 120.219C113.03 117.019 110.938 108.803 107.991 103.186C104.133 95.8691 104.258 88.6844 106.309 83.3887C106.17 97.4858 114.434 113.084 119.515 115.955C124.283 118.66 132.874 117.761 134.841 104.72C135.432 108.25 135.508 112.02 134.431 115.328Z" fill="#EDD6B7"/>
<path d="M121.287 101.561C123.421 101.714 125.561 101.714 127.696 101.561C127.696 101.561 126.841 104.918 124.22 104.629C123.511 104.585 122.836 104.258 122.304 103.701C121.771 103.144 121.413 102.389 121.287 101.561V101.561Z" fill="white" stroke="#914839" stroke-width="0.68" stroke-linecap="round" stroke-linejoin="round"/>
<path d="M120.397 84.164C120.828 86.185 116.54 89.7567 115.469 88.2884C114.399 86.8201 119.744 81.1285 120.397 84.164Z" fill="#FFEACC"/>
<path d="M124.248 83.2814C124.116 84.7332 129.273 85.954 129.343 84.8569C129.412 83.7598 124.491 80.6583 124.248 83.2814Z" fill="#FFEACC"/>
<path d="M123.379 85.6736C122.879 87.7605 122.559 90.4744 124.248 91.4477C125.937 92.4211 128.224 92.0416 128.453 96.0175" stroke="#914839" stroke-width="0.68" stroke-linecap="round" stroke-linejoin="round"/>
<path d="M61.6024 221.72C60.6362 234.762 60.6084 262.057 72.0282 268.986C90.8435 280.394 94.8262 250.896 93.9991 221.72H61.6024Z" fill="#B25E47"/>
<path d="M101.019 176.096C100.665 193.345 94.3952 226.505 94.3952 226.505C88.5637 227.074 83.5801 227.329 79.3194 227.329C61.373 227.329 56.3824 223.139 56.3824 223.139C56.3824 223.139 60.0176 189.897 65.1541 168.103C65.6684 165.901 66.2036 163.814 66.7458 161.892C71.4791 145.238 77.4566 138.325 84.1223 136.906C85.8778 136.547 87.6703 136.522 89.4325 136.832C96.814 138.02 100.06 151.68 100.845 165.959C101.04 169.299 101.089 172.747 101.019 176.096Z" fill="#FED81D"/>
<path d="M100.859 165.893C94.1102 158.865 86.263 156.926 76.9492 160.77C72.7611 162.573 68.7889 165.016 65.1332 168.037C65.6475 165.835 66.1827 163.748 66.7249 161.826C71.4582 145.172 77.4357 138.259 84.1013 136.841C85.8569 136.481 87.6494 136.456 89.4116 136.766C96.8279 137.954 100.074 151.598 100.859 165.893Z" fill="#FED81D"/>
<path d="M101.019 176.096C100.665 193.345 94.3951 226.505 94.3951 226.505" stroke="#FCC71F" stroke-width="0.68" stroke-linecap="round" stroke-linejoin="round"/>
<path d="M167.766 193.419C167.766 193.419 169.851 195.234 167.634 200.199C167.634 200.199 169.948 202.732 166.848 206.98C167.27 207.961 167.383 209.088 167.166 210.159C166.95 211.23 166.418 212.174 165.667 212.82C162.535 216.072 159.208 219.049 155.713 221.729C154.087 222.917 151.849 224.657 148.318 227.627C146.928 228.798 145.315 230.167 143.453 231.751C139.282 235.356 133.847 240.148 126.688 246.599C97.669 272.714 80.3411 276.294 70.2628 267.691C62.2557 260.861 72.348 230.06 103.257 217.736C119.167 211.385 128.933 208.061 134.91 206.064C137.336 205.239 139.143 204.662 140.471 204.184C142.236 203.54 143.188 203.095 143.71 202.575C145.572 200.678 146.434 198.451 147.338 195.778C148.241 193.106 150.368 183.092 150.897 180.353C151.425 177.614 155.421 176.031 154.754 191.514C154.754 191.514 166.188 187.092 168.259 186.457C170.33 185.822 171.151 191.208 167.766 193.419Z" fill="#B25E47"/>
<path d="M148.318 227.627C146.928 228.798 145.315 230.167 143.453 231.751C140.839 228.064 135.279 218.767 134.924 206.073C137.35 205.248 139.157 204.67 140.485 204.192C140.839 210.601 144.009 221.853 148.318 227.627Z" fill="#683F1D"/>
<path d="M139.651 223.51C142.556 223.51 144.912 220.715 144.912 217.266C144.912 213.817 142.556 211.022 139.651 211.022C136.745 211.022 134.389 213.817 134.389 217.266C134.389 220.715 136.745 223.51 139.651 223.51Z" fill="white" stroke="#683F1D" stroke-width="0.9" stroke-linecap="round" stroke-linejoin="round"/>
<path d="M147.366 195.786C148.262 193.105 150.396 183.1 150.924 180.361C151.453 177.622 155.449 176.039 154.782 191.522C154.782 191.522 166.216 187.1 168.287 186.465C170.358 185.83 171.151 191.208 167.766 193.419C167.766 193.419 169.851 195.233 167.634 200.199C167.634 200.199 169.948 202.732 166.848 206.98C167.27 207.961 167.383 209.088 167.166 210.159C166.95 211.23 166.418 212.173 165.667 212.82" stroke="#914839" stroke-width="0.68" stroke-linecap="round" stroke-linejoin="round"/>
<path d="M167.766 193.419C165.68 194.557 161.441 196.628 161.441 196.628" stroke="#914839" stroke-width="0.68" stroke-linecap="round" stroke-linejoin="round"/>
<path d="M167.634 200.199C166.369 201.181 163.415 202.938 163.415 202.938" stroke="#914839" stroke-width="0.68" stroke-linecap="round" stroke-linejoin="round"/>
<path d="M166.848 206.98C166.243 207.396 165.611 207.755 164.958 208.052" stroke="#914839" stroke-width="0.68" stroke-linecap="round" stroke-linejoin="round"/>
<path d="M154.782 191.522C152.843 192.198 151.307 192.883 151.307 192.883" stroke="#914839" stroke-width="0.68" stroke-linecap="round" stroke-linejoin="round"/>
<path d="M291.014 161.917C290.934 163.624 290.778 165.326 290.548 167.014C288.748 180.914 282.277 200.884 275.097 213.084C273.659 215.598 272 217.924 270.148 220.021C264.504 226.183 255.517 227.346 249.24 223.032C247.346 221.736 245.731 219.934 244.525 217.769C243.319 215.604 242.553 213.136 242.29 210.56C242.016 208.327 241.995 206.06 242.227 203.82C243.43 191.192 250.679 169.547 259.43 153.932C260.424 152.134 261.453 150.41 262.488 148.801C267.43 141.113 272.664 135.752 277.446 135.174C278.434 135.037 279.435 135.129 280.393 135.446C288.317 138.152 291.729 145.51 291.014 161.917Z" fill="#FED81D"/>
<path d="M276.515 169.497C274.113 179.301 273.149 189.521 273.665 199.712C273.941 204.21 274.419 208.687 275.097 213.125C273.659 215.639 272 217.965 270.148 220.062C264.504 226.224 255.517 227.387 249.24 223.073C247.346 221.777 245.731 219.975 244.525 217.81C243.318 215.646 242.553 213.177 242.29 210.601C247.85 217.678 253.689 219.204 258.276 217.414C264.935 214.874 269.112 205.478 266.547 195.869C262.036 178.975 272.212 169.316 277.071 166.503C276.945 167.443 276.751 168.441 276.515 169.497Z" fill="#FCC71F"/>
<path d="M291.014 161.917C290.934 163.624 290.778 165.326 290.548 167.014C289.716 165.549 289.03 163.974 288.504 162.321C286.044 154.526 281.609 150.137 276.688 148.232C272.038 146.52 267.037 146.721 262.495 148.801C267.437 141.113 272.671 135.752 277.453 135.174C278.441 135.037 279.442 135.129 280.4 135.446C288.317 138.152 291.729 145.51 291.014 161.917Z" fill="#FED81D"/>
<path d="M346.535 299.415C327.99 295.695 309.481 292.717 291.757 290.713C286.53 290.13 281.25 289.58 275.917 289.063C276.918 274.735 279.17 251.218 283.312 245.502C283.531 245.14 283.814 244.838 284.14 244.618C284.466 244.397 284.829 244.262 285.203 244.223C287.552 244.173 293.432 243.943 300.424 243.637C315.945 242.944 336.943 241.913 336.943 241.913C337.242 243.299 337.541 244.677 337.833 246.038C337.833 246.095 337.833 246.161 337.881 246.227C341.557 263.762 344.446 281.517 346.535 299.415Z" fill="#83ADDF"/>
<path d="M329.499 248.999C331.674 254.773 337.492 261.545 339.459 263.088" stroke="white" stroke-width="0.9" stroke-miterlimit="10"/>
<path d="M309.891 148.521C300.939 149.816 299.007 141.303 298.951 129.136C298.951 126.274 299.034 123.205 299.167 120.005C299.238 118.127 299.408 116.257 299.674 114.404C302.725 93.6748 317.182 96.1824 317.926 108.399C318.211 113.035 320.964 146.921 309.891 148.521Z" fill="#B25E47"/>
<path d="M309.683 116.359C309.203 124.542 304.247 128.732 298.958 129.136C298.958 126.274 299.041 123.205 299.173 120.005C299.245 118.127 299.415 116.257 299.681 114.404C302.593 112.927 310.058 109.76 309.683 116.359Z" fill="#914839"/>
<path d="M344.359 196.966C343.887 198.836 343.513 200.74 343.24 202.666C343.164 203.194 343.094 203.721 343.025 204.241C340.279 224.541 339.939 243.373 339.751 245.328C339.563 247.283 324.244 246.607 312.845 245.947C308.404 245.683 302.663 245.757 297.248 245.807C288.768 245.881 281.088 245.906 280.442 244.479C280.031 243.555 278.933 238.152 277.738 231.215C277.55 230.134 277.362 229.029 277.168 227.915C277.071 227.354 276.98 226.777 276.89 226.199C276.799 225.622 276.674 224.871 276.57 224.211C276.466 223.551 276.341 222.793 276.23 222.075C275.986 220.491 275.743 218.891 275.534 217.299C275.326 215.707 275.09 214.148 274.888 212.614C274.246 208.168 273.805 203.686 273.567 199.185C273.142 188.986 274.198 178.777 276.688 169.002C276.751 168.747 276.813 168.499 276.862 168.252C276.959 167.823 277.05 167.427 277.133 166.973L277.258 166.305C277.3 166.082 277.335 165.86 277.369 165.637C277.404 165.414 277.446 165.191 277.474 164.977C277.501 164.763 277.536 164.532 277.564 164.309C277.627 163.88 277.675 163.443 277.724 163.022C277.821 161.966 277.898 160.927 277.932 159.912C277.932 159.772 277.932 159.632 277.932 159.5C277.932 158.782 277.932 158.073 277.932 157.372C277.869 154.151 277.564 150.943 277.022 147.787C276.146 142.4 274.971 138.35 275.263 136.486C275.402 135.57 276.202 135.017 277.606 134.778C277.703 134.778 277.807 134.778 277.898 134.737C281.373 134.259 288.004 135.422 297.053 137.641C297.237 135.23 297.56 132.838 298.02 130.481C298.109 130.113 298.299 129.791 298.559 129.566C298.82 129.34 299.136 129.224 299.458 129.235C300.445 129.128 301.78 129.557 303.059 129.697C305.234 129.936 312.637 128.336 316.446 125.952C317.211 125.422 318.056 125.074 318.934 124.929C320.762 124.723 321.394 126.43 321.631 128.765C321.631 128.864 321.631 128.971 321.631 129.07C321.631 129.169 321.631 129.285 321.631 129.4C321.631 129.516 321.631 129.829 321.673 130.052C321.714 130.274 321.672 130.382 321.707 130.555C321.742 130.728 321.707 131.009 321.742 131.24C321.777 131.47 321.742 131.792 321.742 132.064C321.742 132.337 321.742 132.592 321.742 132.889C321.742 133.021 321.742 133.161 321.742 133.302C321.742 133.442 321.742 133.533 321.742 133.648C321.742 133.764 321.742 133.962 321.742 134.118C321.742 134.275 321.742 134.514 321.742 134.704C321.742 134.894 321.742 135.092 321.742 135.281V135.653C321.742 137.302 321.742 138.622 321.742 138.622C328.623 135.529 338.993 132.37 346.855 138.103H346.896C349.455 140.026 351.571 142.673 353.054 145.807C353.444 146.588 353.812 147.413 354.16 148.281C360.79 164.837 348.835 178.917 344.359 196.966Z" fill="#FED81D"/>
<path d="M353.214 145.774C346.576 146.739 339.146 151.853 332.175 161.686C331.091 163.215 330.02 164.864 328.964 166.635C317.752 185.253 298.228 180.32 290.735 166.742C289.915 165.271 289.243 163.69 288.734 162.032C286.336 154.204 281.943 149.758 277.043 147.795C276.167 142.408 274.992 138.358 275.284 136.494C275.423 135.578 276.223 135.026 277.627 134.787C277.724 134.787 277.828 134.787 277.919 134.745C281.394 134.267 288.025 135.43 297.074 137.649C297.258 135.239 297.581 132.846 298.041 130.489C298.13 130.121 298.32 129.799 298.58 129.574C298.841 129.348 299.157 129.232 299.479 129.243C300.466 129.136 301.801 129.565 303.08 129.705C305.255 129.945 312.658 128.344 316.467 125.96C317.232 125.43 318.077 125.082 318.955 124.938C320.783 124.731 321.415 126.439 321.652 128.773C321.652 128.872 321.652 128.979 321.652 129.078C321.652 129.177 321.652 129.293 321.652 129.408C321.652 129.524 321.652 129.837 321.693 130.06C321.735 130.283 321.693 130.39 321.728 130.563C321.763 130.736 321.728 131.017 321.763 131.248C321.798 131.479 321.763 131.801 321.763 132.073C321.763 132.345 321.763 132.601 321.763 132.898C321.763 133.03 321.763 133.17 321.763 133.31C321.763 133.45 321.763 133.541 321.763 133.656C321.763 133.772 321.763 133.97 321.763 134.127C321.763 134.283 321.763 134.523 321.763 134.712C321.763 134.902 321.763 135.1 321.763 135.29V135.661C321.763 137.311 321.763 138.63 321.763 138.63C328.644 135.537 339.014 132.378 346.875 138.111H346.917C349.522 140.001 351.687 142.636 353.214 145.774V145.774Z" fill="#FED81D"/>
<path d="M277.696 159.5C277.674 161.836 277.479 164.166 277.112 166.462C276.945 167.444 276.751 168.442 276.515 169.456C274.113 179.26 273.149 189.48 273.665 199.671C273.941 204.169 274.419 208.646 275.097 213.084C275.312 214.61 275.548 216.177 275.792 217.761C276.528 222.512 277.356 227.387 278.141 231.677C279.399 238.589 280.546 243.984 280.963 244.875" stroke="#FCC71F" stroke-width="0.68" stroke-linecap="round" stroke-linejoin="round"/>
<path d="M343.185 203.886C340.62 224.228 340.446 243.052 340.272 245.007C340.099 246.961 324.78 246.491 313.381 245.963C308.939 245.757 303.198 245.906 297.783 246.021C302.232 241.625 311.434 234.399 320.262 238.968C332.516 245.312 338.292 225.3 330.813 223.51C323.334 221.72 322.945 211.624 321.485 203.458L327.602 200.513L343.185 203.886Z" fill="#FCC71F"/>
<path d="M296.63 137.839C296.553 139.413 296.553 140.991 296.63 142.565" stroke="#FCC71F" stroke-width="0.68" stroke-linecap="round" stroke-linejoin="round"/>
<path d="M321.485 138.193C321.387 141.295 321.269 143.316 321.269 143.316" stroke="#FCC71F" stroke-width="0.68" stroke-linecap="round" stroke-linejoin="round"/>
<path d="M302.565 142.978C305.929 144.124 311.101 144.19 314.062 142.978" stroke="#FCC71F" stroke-width="0.68" stroke-linecap="round" stroke-linejoin="round"/>
<path d="M375.331 215.847C371.856 221.085 362.41 222.091 354.723 214.808C352.578 212.753 350.743 210.282 349.294 207.499C348.446 205.899 347.355 203.474 346.139 200.62C345.603 199.35 345.033 197.997 344.457 196.595C341.225 188.742 337.506 179.223 335.157 173.778C333.978 171.028 333.095 168.113 332.529 165.101C332.293 163.905 332.105 162.692 331.959 161.471C330.187 146.813 334.622 131.421 346.597 137.649H346.632C349.016 138.894 351.553 141.592 354.104 145.13C360.29 153.742 366.504 167.402 370.466 177.672C371.369 180.006 372.148 182.167 372.787 184.056C377.416 197.716 379.661 209.265 375.331 215.847Z" fill="#FED81D"/>
<path d="M357.155 192.685C356.884 197.807 351.817 199.919 346.138 200.62C345.603 199.35 345.033 197.997 344.456 196.595C341.224 188.742 337.506 179.223 335.156 173.779C333.978 171.028 333.095 168.113 332.529 165.101C337.395 165.225 342.698 167.336 343.184 177.243C343.518 184.007 357.767 180.963 357.155 192.685Z" fill="#FCC71F"/>
<path d="M354.104 145.155C353.687 145.155 353.27 145.238 352.86 145.304C346.229 146.343 338.847 151.556 331.959 161.471C330.187 146.813 334.622 131.421 346.597 137.649H346.632C349.016 138.919 351.553 141.617 354.104 145.155Z" fill="#FED81D"/>
<path d="M349.294 207.499C348.446 205.899 347.355 203.474 346.139 200.62C345.603 199.35 345.033 197.997 344.457 196.594C341.224 188.742 337.506 179.223 335.157 173.778C333.978 171.028 333.095 168.112 332.529 165.101C332.293 163.905 332.105 162.692 331.959 161.471" stroke="#FCC71F" stroke-width="0.68" stroke-linecap="round" stroke-linejoin="round"/>
<path d="M375.331 215.847C371.856 221.085 362.41 222.091 354.722 214.808C356.617 214.086 358.626 213.885 360.596 214.222C368.422 215.575 376.144 211.747 370.125 200.933C365.26 192.165 368.735 181.136 370.466 177.697C371.369 180.031 372.148 182.192 372.787 184.081C377.416 197.716 379.661 209.265 375.331 215.847Z" fill="#FCC71F"/>
<path d="M325.065 77.2267C323.598 78.4641 322.694 78.662 322.729 80.5262C322.764 82.3905 322.083 82.9349 321.395 83.2401C320.707 83.5453 321.478 84.9311 321.263 86.2674C321.047 87.6037 318.156 88.874 318.156 88.874L298.951 78.1506C297.353 75.8409 298.048 74.5624 298.562 73.3251C298.612 73.2089 298.638 73.0802 298.638 72.9498C298.638 72.8193 298.612 72.6906 298.562 72.5744C298.291 71.7496 297.123 70.9659 297.422 70.0008C297.804 68.7718 298.812 68.5655 300.049 68.516C301.287 68.4665 301.016 64.3917 300.446 63.2863C299.876 62.181 300.314 59.5001 302.253 59.6569C304.192 59.8136 304.929 59.3517 305.102 58.2711C305.219 57.8949 305.4 57.5513 305.634 57.2617C305.868 56.9722 306.149 56.7429 306.461 56.5881C306.773 56.4333 307.108 56.3564 307.446 56.3621C307.784 56.3678 308.117 56.4561 308.425 56.6213C309.933 57.5534 311.205 56.5223 312.137 55.4995C312.19 55.4354 312.248 55.3774 312.31 55.3263C313.304 54.4106 315.389 53.9075 316.237 55.4995C317.085 57.0915 318.225 57.8586 320.039 57.9741C321.853 58.0896 322.368 59.9208 321.979 61.7108C321.589 63.5008 322.152 64.1194 323.32 64.9443C323.932 65.5173 324.383 66.2975 324.612 67.1814C324.842 68.0653 324.84 69.0112 324.606 69.8936C324.371 70.4153 324.287 71.0139 324.366 71.5979C324.445 72.1819 324.683 72.719 325.044 73.1271C325.621 73.9025 326.531 75.9977 325.065 77.2267Z" fill="#683F1D"/>
<path d="M317.746 106.526C316.229 107.298 314.584 107.651 312.936 107.557C306.34 107.194 290.235 114.272 290.235 114.272C287.531 114.668 285.884 115.773 287.107 117.373C288.331 118.974 289.478 123.593 286.35 123.972C285.735 124.041 285.116 124.041 284.501 123.972C282.666 123.783 281.853 122.867 282.082 122.009C282.374 120.912 284.362 121.184 284.737 120.706C285.113 120.228 285.203 119.254 283.98 117.893C282.756 116.532 281.894 114.437 283.139 112.3C284.383 110.164 286.899 108.217 285.377 106.708C283.854 105.198 282.596 103.845 283.291 102.039C283.987 100.233 287.517 97.6754 285.87 95.44C284.223 93.2046 282.742 90.3752 285.954 86.9108C289.165 83.4463 292.418 84.1062 291.952 81.1366C291.486 78.1671 291.875 75.313 295.337 76.0141C298.798 76.7153 299.313 76.4183 300.835 75.412C302.357 74.4056 304.38 74.9583 306.333 76.971C308.286 78.9837 310.135 76.7153 312.498 77.2679C314.861 77.8206 312.498 80.5262 315.501 81.1366C318.503 81.747 319.518 81.8873 319.859 85.261C320.199 88.6347 322.187 88.709 322.597 89.7813C323.452 91.9342 322.097 93.4438 321.714 94.7306C321.332 96.0174 322.173 96.7763 322.84 98.0961C323.904 100.331 321.638 104.563 317.746 106.526Z" fill="#683F1D"/>
<path d="M318.774 100.497C318.554 102.535 318.203 104.551 317.725 106.526C316.208 107.298 314.563 107.651 312.915 107.557C306.319 107.195 290.214 114.272 290.214 114.272C287.51 114.668 285.863 115.773 287.086 117.373C288.31 118.974 289.457 123.593 286.329 123.973C285.714 124.041 285.095 124.041 284.48 123.973C286.822 123.519 287.448 121.539 286.238 118.916C284.577 115.311 285.175 113.142 286.843 111.104C288.511 109.067 285.78 104.151 286.843 101.577C287.907 99.0035 289.714 98.0961 288.991 94.211C288.268 90.3258 288.623 88.4368 291.229 86.3004C293.835 84.164 295.99 83.7268 297.373 81.1532C298.756 78.5795 302.364 76.9463 303.594 80.0313C304.824 83.1164 305.221 85.2033 308.675 83.9495C312.129 82.6957 314.444 84.2382 313.214 87.7604C311.983 91.2826 312.567 94.6234 314.736 95.0523C316.904 95.4813 319.205 95.6133 318.774 100.497Z" fill="#683F1D"/>
<path d="M316.314 112.284C303.337 123.486 297.742 127.173 291.535 120.978C288.643 118.099 288.143 112.218 288.713 106.213C288.925 104.071 289.25 101.947 289.686 99.853C290.335 96.4473 291.332 93.1482 292.654 90.0287C295.434 84.0566 301.843 83.7597 302.489 84.0566C303.135 84.3536 303.337 84.799 302.711 86.5313C302.086 88.2635 302.774 89.5586 304.574 89.6245C306.374 89.6905 308.432 91.1753 308.237 93.3117C308.119 94.3518 308.263 95.41 308.65 96.3536C309.037 97.2971 309.65 98.0841 310.413 98.6157C312.088 99.8695 311.803 101.791 312.025 102.963C312.248 104.134 314.326 105.437 314.889 103.845C315.452 102.253 318.67 98.7642 321.283 101.94C323.897 105.116 321.589 112.507 316.314 112.284Z" fill="#B25E47"/>
<path d="M300.758 104.274C301.384 105.817 303.636 106.064 305.777 104.835C307.917 103.606 309.162 101.363 308.557 99.8202C307.952 98.2776 305.686 98.0219 303.539 99.2592C301.391 100.497 300.133 102.732 300.758 104.274Z" fill="#914839"/>
<path d="M292.008 105.619C291.417 106.601 290.11 106.782 288.713 106.213C288.925 104.071 289.25 101.947 289.686 99.853C289.804 99.9333 289.917 100.021 290.027 100.117C291.966 101.767 292.849 104.233 292.008 105.619Z" fill="#914839"/>
<path d="M291.757 98.1704C291.756 98.3796 291.807 98.5845 291.904 98.7592C292.001 98.9339 292.139 99.0705 292.302 99.1517C292.464 99.2329 292.643 99.255 292.816 99.2152C292.989 99.1754 293.149 99.0755 293.274 98.9282C293.399 98.7808 293.484 98.5927 293.519 98.3877C293.554 98.1826 293.537 97.9699 293.47 97.7765C293.403 97.5831 293.289 97.4177 293.142 97.3013C292.996 97.185 292.823 97.1228 292.647 97.1228C292.412 97.1228 292.187 97.2329 292.02 97.4291C291.854 97.6254 291.759 97.8918 291.757 98.1704V98.1704Z" fill="#683F1D"/>
<path d="M297.179 98.7314C297.179 98.9402 297.231 99.1443 297.329 99.318C297.426 99.4916 297.565 99.6269 297.728 99.7069C297.89 99.7868 298.069 99.8077 298.242 99.7669C298.415 99.7262 298.573 99.6256 298.697 99.478C298.822 99.3303 298.907 99.1422 298.941 98.9374C298.975 98.7326 298.958 98.5203 298.89 98.3273C298.823 98.1344 298.709 97.9695 298.563 97.8535C298.416 97.7375 298.244 97.6755 298.068 97.6755C297.832 97.6755 297.606 97.7868 297.439 97.9848C297.272 98.1828 297.179 98.4514 297.179 98.7314V98.7314Z" fill="#683F1D"/>
<path d="M315.834 107.566C316.008 105.297 318.19 102.171 320.547 104.481" stroke="#914839" stroke-width="0.68" stroke-linecap="round" stroke-linejoin="round"/>
<path d="M315.918 107.005C317.551 103.705 320.839 108.234 317.009 109.141" stroke="#914839" stroke-width="0.68" stroke-linecap="round" stroke-linejoin="round"/>
<path d="M294.294 104.926C293.321 104.39 292.939 103.342 293.022 103.087C293.106 102.831 296.15 100.167 295.566 96.0669" stroke="#914839" stroke-width="0.68" stroke-linecap="round" stroke-linejoin="round"/>
<path d="M298.068 90.9445C297.79 93.0809 302.162 95.1678 302.836 93.8233C303.413 92.6685 298.471 87.8347 298.068 90.9445Z" fill="#683F1D"/>
<path d="M290.729 92.3549C290.77 92.9653 295.462 92.8416 295.4 90.7052C295.337 88.5687 290.611 90.5567 290.729 92.3549Z" fill="#683F1D"/>
<path d="M294.753 107.087C296.379 106.58 297.967 105.912 299.5 105.091C299.5 105.091 299.987 108.655 298.068 109.306C297.728 109.423 297.371 109.457 297.019 109.408C296.668 109.359 296.327 109.228 296.019 109.021C295.71 108.815 295.439 108.537 295.222 108.205C295.005 107.873 294.845 107.493 294.753 107.087V107.087Z" fill="white" stroke="#914839" stroke-width="0.68" stroke-linecap="round" stroke-linejoin="round"/>
<path d="M319.469 68.5738C318.774 71.2299 316.14 68.4831 315.932 72.2775C315.723 76.0719 309.342 75.0078 307.389 71.3206C305.791 68.2851 301.259 69.4234 298.597 72.6322C298.326 71.8073 297.158 71.0237 297.457 70.0586C297.839 68.8295 298.847 68.6233 300.084 68.5738C301.321 68.5243 301.05 64.4494 300.48 63.3441C299.91 62.2388 300.348 59.5579 302.288 59.7146C304.227 59.8714 304.964 59.4094 305.137 58.3288C305.254 57.9526 305.435 57.6091 305.669 57.3195C305.903 57.03 306.184 56.8007 306.496 56.6459C306.808 56.4911 307.143 56.4142 307.481 56.4199C307.819 56.4256 308.152 56.5138 308.46 56.6791C309.968 57.6112 311.24 56.5801 312.171 55.5573C312.224 55.4931 312.283 55.4351 312.345 55.384C313.089 57.8587 313.631 61.3066 316.515 61.6119C320.54 62.049 320.164 65.9094 319.469 68.5738Z" fill="#683F1D"/>
<path d="M236.375 141.542C236.736 138.82 243.18 136.791 246.926 135.941L248.358 146.929C248.358 146.929 238.057 145.18 236.375 141.542Z" fill="#FCC71F"/>
<path d="M242.366 147.382C241.623 135.488 241.623 125.482 241.414 121.655C241.206 117.827 241.366 113.827 245.126 111.987C245.126 111.987 245.126 108.481 249.414 107.863C249.414 107.863 248.872 104.72 252.459 104.802C252.451 104.508 252.501 104.216 252.605 103.948C252.709 103.681 252.864 103.446 253.057 103.261C253.25 103.076 253.477 102.947 253.719 102.884C253.961 102.821 254.213 102.825 254.453 102.897C256.803 103.384 257.56 105.091 257.56 105.091C260.674 104.266 262.426 108.135 262.259 111.294C262.092 114.453 261.905 117.893 260.619 121.077C259.333 124.261 257.699 129.532 257.699 129.532L257.804 136.214C257.804 136.214 255.413 157.702 242.366 147.382Z" fill="#B25E47"/>
<path d="M241.414 121.655C241.199 117.868 241.365 113.827 245.126 111.987C245.126 111.987 245.126 108.481 249.414 107.863C249.414 107.863 248.872 104.72 252.459 104.802C252.451 104.508 252.501 104.216 252.605 103.948C252.709 103.681 252.863 103.446 253.057 103.261C253.25 103.076 253.477 102.947 253.719 102.884C253.961 102.821 254.213 102.825 254.453 102.897C256.803 103.384 257.56 105.091 257.56 105.091C260.674 104.266 262.426 108.135 262.259 111.294" stroke="#914839" stroke-width="0.68" stroke-linecap="round" stroke-linejoin="round"/>
<path d="M257.56 105.091C254.356 106.964 252 110.478 252.966 112.201C253.932 113.925 257.567 111.764 258.061 111.212" stroke="#914839" stroke-width="0.68" stroke-linecap="round" stroke-linejoin="round"/>
<path d="M252.188 104.811C253.397 105 255.781 106.592 255.781 106.592" stroke="#914839" stroke-width="0.68" stroke-linecap="round" stroke-linejoin="round"/>
<path d="M249.414 107.863C250.819 107.931 252.196 108.352 253.453 109.1" stroke="#914839" stroke-width="0.68" stroke-linecap="round" stroke-linejoin="round"/>
<path d="M252.903 117.093C253.974 116.128 254.898 114.429 254.62 112.853" stroke="#914839" stroke-width="0.68" stroke-linecap="round" stroke-linejoin="round"/>
<path d="M245.098 112.02C247.656 110.774 250.255 109.364 251.027 111.434C251.798 113.505 252.222 119.881 251.027 120.747C249.831 121.613 247.83 120.896 247.489 119.229C247.148 117.563 246.891 115.278 246.891 115.278" stroke="#914839" stroke-width="0.68" stroke-linecap="round" stroke-linejoin="round"/>
<path d="M249.873 121.11C250.95 122.686 250.568 128.262 249.414 130.126" stroke="#914839" stroke-width="0.68" stroke-linecap="round" stroke-linejoin="round"/>
<path d="M258.304 217.34C256.219 222.034 253.23 224.591 249.227 222.999C241.685 219.963 238.683 211.376 237.584 202.987C236.431 194.236 237.334 185.665 237.299 183.883C237.223 180.328 236.403 141.526 236.403 141.526C237.71 142.145 239.69 142.161 242.088 141.625C243.915 141.195 245.708 140.582 247.447 139.794C251.093 138.136 254.561 135.976 257.783 133.36L257.922 133.244C257.922 133.244 258.575 142.862 259.458 153.916C260.202 163.385 261.119 173.902 261.939 180.312C263.232 190.755 262.475 208.168 258.304 217.34Z" fill="#FED81D"/>
<path d="M258.304 217.34C256.219 222.034 253.23 224.591 249.227 222.999C241.685 219.963 238.683 211.376 237.584 202.987C238.927 205.697 240.512 208.227 242.311 210.535C247.878 217.637 253.696 219.163 258.304 217.34Z" fill="#FCC71F"/>
<path d="M257.901 133.269C257.901 133.269 260.153 166.412 261.918 180.361C262.881 189.232 262.646 198.229 261.223 207.013" stroke="#FCC71F" stroke-width="0.68" stroke-linecap="round" stroke-linejoin="round"/>
<path d="M337.638 173.145L310.823 159.853C308.708 158.804 306.278 159.989 305.395 162.499L289.471 207.741C288.588 210.251 289.586 213.135 291.701 214.183L318.516 227.476C320.631 228.524 323.061 227.339 323.944 224.83L339.868 179.587C340.751 177.078 339.753 174.193 337.638 173.145Z" fill="#DDDDDD"/>
<path d="M334.621 171.642L310.821 159.844C308.706 158.796 306.276 159.98 305.392 162.49L289.469 207.733C288.586 210.242 289.584 213.126 291.698 214.175L315.499 225.973C317.614 227.021 320.044 225.837 320.928 223.327L336.851 178.084C337.734 175.575 336.736 172.691 334.621 171.642Z" fill="#F9F9F9" stroke="#DDDDDD" stroke-width="0.9" stroke-linecap="round" stroke-linejoin="round"/>
<path d="M312.401 167.377C312.401 167.802 312.295 168.216 312.096 168.569C311.897 168.922 311.615 169.196 311.285 169.359C310.955 169.521 310.591 169.564 310.241 169.481C309.89 169.398 309.568 169.194 309.316 168.894C309.063 168.594 308.891 168.212 308.821 167.796C308.751 167.38 308.787 166.949 308.924 166.557C309.061 166.165 309.292 165.83 309.589 165.594C309.887 165.358 310.236 165.233 310.593 165.233C310.831 165.232 311.066 165.286 311.286 165.394C311.506 165.501 311.705 165.659 311.873 165.858C312.041 166.058 312.174 166.295 312.265 166.555C312.355 166.816 312.401 167.095 312.401 167.377Z" fill="#DDDDDD"/>
<path d="M315.382 169.497C315.384 169.71 315.332 169.919 315.233 170.096C315.134 170.274 314.993 170.413 314.828 170.495C314.662 170.577 314.48 170.599 314.304 170.558C314.128 170.517 313.967 170.414 313.84 170.264C313.713 170.113 313.627 169.922 313.592 169.713C313.557 169.504 313.576 169.288 313.645 169.092C313.714 168.895 313.831 168.728 313.981 168.611C314.131 168.493 314.306 168.432 314.486 168.433C314.723 168.436 314.95 168.548 315.118 168.747C315.285 168.947 315.38 169.216 315.382 169.497V169.497Z" fill="#DDDDDD"/>
<path d="M314.062 205.074C312.289 204.34 311.372 200.274 311.135 196.768L318.086 197.741C318.086 197.741 318.135 205.602 314.062 205.074Z" fill="#FCC71F"/>
<path d="M316.397 203.004C314.425 201.333 312.384 199.78 310.281 198.351C309.488 197.84 304.991 197.238 301.863 195.192C299.756 193.779 297.725 192.211 295.782 190.499L294.544 193.229C294.544 193.229 292.112 190.111 291.764 187.298C291.417 184.485 292.376 184.395 292.946 183.792C293.516 183.19 293.161 182.299 293.127 180.848C293.092 179.396 294.134 179.099 294.461 178.587C294.788 178.076 294.496 176.748 294.426 174.958C294.357 173.168 296.15 173.077 296.435 172.054C296.72 171.032 296.977 167.74 299.424 168.598C301.87 169.456 312.519 178.843 313.214 179.272C314.249 179.712 315.308 180.067 316.383 180.336C316.383 180.336 325.099 196.512 316.397 203.004Z" fill="#B25E47"/>
<path d="M295.782 190.499L294.544 193.229C294.544 193.229 292.112 190.111 291.764 187.298C291.417 184.485 292.376 184.395 292.946 183.792C293.516 183.19 293.161 182.299 293.127 180.848C293.092 179.396 294.134 179.099 294.461 178.587C294.788 178.076 294.496 176.748 294.426 174.958C294.357 173.168 296.15 173.077 296.435 172.054C296.72 171.032 296.977 167.74 299.424 168.598" stroke="#914839" stroke-width="0.68" stroke-linecap="round" stroke-linejoin="round"/>
<path d="M295.782 190.499C294.565 189.286 294.315 189.088 294.315 189.088" stroke="#914839" stroke-width="0.68" stroke-linecap="round" stroke-linejoin="round"/>
<path d="M376.693 213.67C374.462 221.803 366.142 229.012 347.174 220.5L346.139 220.021C326.42 210.741 314.055 205.066 314.055 205.066C315.759 196.509 315.759 187.598 314.055 179.041C325.377 182.803 355.32 190.095 365.955 193.798C366.65 194.046 367.345 194.301 367.964 194.623C376.888 198.533 378.848 205.792 376.693 213.67Z" fill="#FED81D"/>
<path d="M346.139 220.021C326.42 210.741 314.062 205.074 314.062 205.074" stroke="#FCC71F" stroke-width="0.68" stroke-linecap="round" stroke-linejoin="round"/>
<path d="M314.062 179.041C324.335 182.456 349.954 188.775 362.549 192.685" stroke="#FCC71F" stroke-width="0.68" stroke-linecap="round" stroke-linejoin="round"/>
<path d="M376.694 213.669C374.462 221.803 366.142 229.012 347.174 220.499C347.174 220.499 352.735 212.869 360.596 214.222C368.457 215.575 376.144 211.747 370.125 200.933C369.059 199.009 368.324 196.853 367.964 194.59C376.888 198.533 378.848 205.792 376.694 213.669Z" fill="#FCC71F"/>
<path d="M447.59 142.532C446.857 143.927 445.789 145.03 444.525 145.7C435.704 150.649 415.763 141.229 415.763 140.94C415.763 140.652 411.912 101.858 417.417 87.909C418.453 85.2942 419.815 83.5619 421.588 83.1412C430.7 82.8113 438.519 86.482 439.854 94.2853C441.188 102.089 437.219 111.08 438.38 116.631C439.541 122.183 444.26 122.298 446.241 123.486C449.828 125.622 453.185 131.504 447.59 142.532Z" fill="#B25E47"/>
<path d="M444.525 145.7C435.704 150.649 415.763 141.229 415.763 140.94C415.763 140.652 411.912 101.858 417.417 87.9089C432.319 88.5523 434.794 95.0771 433.675 104.118C432.486 113.728 427.065 126.901 438.867 136.387C442.425 139.257 444.024 142.524 444.525 145.7Z" fill="#B25E47"/>
<path d="M425.619 106.848C427.794 109.743 428.114 113.389 427.218 117.497C426.321 121.605 424.931 127.61 426.655 133.541" stroke="#683F1D" stroke-width="0.68" stroke-linecap="round" stroke-linejoin="round"/>
<path d="M435.614 103.194C435.503 108.696 434.106 112.482 433.709 117.662C433.313 122.843 436.01 125.829 439.423 127.421C440.839 128.121 441.963 129.459 442.551 131.14C443.138 132.822 443.141 134.711 442.558 136.395" stroke="#683F1D" stroke-width="0.68" stroke-linecap="round" stroke-linejoin="round"/>
<path d="M433.216 135.752C429.935 131.231 429.296 127.924 431.256 127.577C433.216 127.231 437.074 129.227 436.684 131.231C436.295 133.236 433.8 132.386 433.904 131.405" stroke="#683F1D" stroke-width="0.68" stroke-linecap="round" stroke-linejoin="round"/>
<path d="M417.862 162.206C408.548 167.98 401.771 162.461 400.896 156.341C400.326 152.332 400.659 143.093 400.854 133.492C400.951 128.468 401.021 123.329 400.896 118.809C400.896 118.1 400.896 117.415 400.896 116.739C400.896 88.1648 419.287 94.7886 420.781 105.85C421.727 112.87 423.179 126.852 423.888 134.226C424.597 141.6 427.204 156.432 417.862 162.206Z" fill="#FEBD9D"/>
<path d="M400.854 133.492C400.951 128.468 401.021 123.329 400.896 118.809C400.896 118.099 400.896 117.415 400.896 116.738C405.469 116.474 412.712 116.21 412.712 116.21C414.046 127.355 408.694 134.547 400.854 133.492Z" fill="#F4A789"/>
<path d="M367.936 260.597C368.777 262.123 374.887 256.472 376.638 253.173L370.431 243.01C370.431 243.01 365.524 256.167 367.936 260.597Z" fill="#A7CAF0"/>
<path d="M383.012 233.335C390.657 247.184 394.202 251.556 394.751 257.322C395.3 263.088 393.264 277.4 387.863 279.816C382.463 282.233 370 272.096 369.528 269.778C369.055 267.46 374.97 268.474 377.736 270.05C377.736 270.05 372.454 261.636 372.454 252.208C372.454 249.791 365.142 245.048 365.142 245.048C365.142 245.048 371.196 223.477 383.012 233.335Z" fill="#FEBD9D"/>
<path d="M475.114 337.558C451.433 327.561 422.29 317.901 391.484 309.817V293.435C391.484 289.006 391.915 281.516 392.472 273.407C392.923 266.709 393.458 259.591 393.862 253.445C394.23 248.282 394.515 243.794 394.64 240.816L404.03 240.701L421.553 240.503L457.327 240.082L463.131 240.016C463.792 259.574 469.567 282.778 473.634 300.389C476.553 312.944 475.795 329.128 475.114 337.558Z" fill="#683F1D"/>
<path d="M455.006 272.665C452.65 281.615 455.159 290.515 459.718 293.435" stroke="#7F542D" stroke-width="0.68" stroke-linecap="round" stroke-linejoin="round"/>
<path d="M367.936 200.513L372.169 209.29L384.763 235.405" stroke="#83ADDF" stroke-width="0.68" stroke-linecap="round" stroke-linejoin="round"/>
<path d="M455.979 241.938C454.172 242.375 444.094 242.763 432.618 242.928C415.242 243.143 394.668 242.722 394.668 240.816C394.668 237.83 395.766 235.042 392.624 228.501C389.483 221.96 384.284 216.854 383.818 204.951C383.352 193.048 385.702 179.8 385.702 179.8L380.774 185.574L367.936 200.513L372.169 209.29L384.763 235.405C384.763 235.405 367.783 243.242 367.936 260.597C367.936 260.597 344.672 226.266 337.756 214.511C330.841 202.757 338.695 189.319 349.857 175.511C355.418 168.615 361.527 159.327 367.63 151.507C373.733 143.687 379.884 137.352 385.549 136.387C388.753 135.843 393.194 135.372 397.976 134.993C398.908 134.911 399.846 134.836 400.798 134.77C400.541 146.426 403.377 148.579 403.377 148.579C404.767 149.552 404.913 149.098 405.038 151.053C405.163 153.008 405.928 158.552 407.269 158.552C409.125 158.552 410.321 154.939 411.891 149.709C412.927 143.456 419.433 141.015 421.532 137.616C422.259 136.393 422.768 135.006 423.026 133.541H423.798C425.014 133.896 426.481 134.3 428.086 134.688C432.257 135.694 437.379 136.618 441.536 136.387C447.048 136.09 463.187 136.478 467.99 151.598C467.99 151.598 467.99 151.639 467.99 151.664C468.191 152.307 468.372 152.984 468.539 153.685C468.664 154.237 468.775 154.848 468.872 155.508C471.722 175.272 460.393 240.849 455.979 241.938Z" fill="#A7CAF0"/>
<path d="M440.41 190.243C430.957 194.178 428.427 209.669 430.568 215.905C432.708 222.141 425.403 225.193 418.432 225.193C410.404 225.193 400.861 235.215 404.948 249.552L445.956 227.28L440.41 190.243Z" fill="#A7CAF0"/>
<path d="M469.199 155.656C469.102 155.599 468.99 155.557 468.893 155.508C460.316 151.482 450.273 154.023 443.739 160.457C442.08 162.064 440.645 163.971 439.485 166.107C431.666 180.7 406.519 188.668 398.261 169.539C391.575 154.031 381.58 149.173 367.63 151.515C373.747 143.696 379.884 137.36 385.549 136.395C388.753 135.851 393.194 135.381 397.976 135.001C398.908 134.919 399.846 134.845 400.798 134.779C400.541 146.434 403.377 148.587 403.377 148.587C404.767 149.56 404.913 149.107 405.038 151.062C405.163 153.017 405.928 158.56 407.269 158.56C409.125 158.56 410.321 154.947 411.891 149.717C412.927 143.465 419.433 141.023 421.532 137.624C422.259 136.402 422.768 135.015 423.026 133.55H423.798C425.014 133.904 426.481 134.308 428.086 134.696C432.257 135.702 437.379 136.626 441.536 136.395C447.047 136.098 463.187 136.486 467.99 151.606C467.99 151.606 467.99 151.647 467.99 151.672C468.468 152.966 468.872 154.297 469.199 155.656V155.656Z" fill="#A7CAF0"/>
<path d="M409.549 164.053C410.351 164.053 411.002 163.282 411.002 162.329C411.002 161.377 410.351 160.605 409.549 160.605C408.747 160.605 408.096 161.377 408.096 162.329C408.096 163.282 408.747 164.053 409.549 164.053Z" fill="#83ADDF"/>
<path d="M406.47 161.521C406.901 166.157 405.692 174.34 404.767 182.613C403.843 190.887 401.639 202.27 404.767 213.958C407.895 225.647 408.597 229.235 408.68 230.662C408.819 233.195 407.193 236.09 411.238 238.086" stroke="#83ADDF" stroke-width="0.68" stroke-linecap="round" stroke-linejoin="round"/>
<path d="M403.377 148.579C399.512 147.49 396.76 153.083 395.286 157.809C395.14 144.149 396.531 137.872 397.976 134.993C399.422 132.114 400.875 132.659 400.875 132.659C400.833 133.401 400.812 134.102 400.798 134.77C400.541 146.401 403.377 148.579 403.377 148.579Z" fill="#83ADDF"/>
<path d="M428.128 140.066C427.099 147.844 422.992 158.568 422.992 158.568C422.992 158.568 419.725 154.18 417.431 150.864C415.137 147.548 413.81 148.092 411.871 149.725C412.906 143.473 419.412 141.031 421.511 137.632C422.239 136.41 422.747 135.023 423.005 133.558C423.278 132.174 423.4 130.755 423.367 129.334C424.517 129.549 425.585 130.177 426.425 131.135C427.265 132.092 427.838 133.332 428.065 134.688C428.374 136.459 428.396 138.285 428.128 140.066V140.066Z" fill="#83ADDF"/>
<path d="M364.815 248.999C365.58 244.099 370.841 235.537 379.189 231.033" stroke="#83ADDF" stroke-width="0.68" stroke-linecap="round" stroke-linejoin="round"/>
<path d="M357.156 189.435C358.381 189.52 359.568 189.983 360.596 190.779C362.681 192.223 365.232 195.085 367.936 200.513" stroke="#83ADDF" stroke-width="0.68" stroke-linecap="round" stroke-linejoin="round"/>
<path d="M385.702 179.8L386.946 173.482" stroke="#83ADDF" stroke-width="0.68" stroke-linecap="round" stroke-linejoin="round"/>
<path d="M380.774 185.55L367.936 200.513C365.232 195.085 362.653 192.223 360.596 190.779C363.925 189.006 365.566 190.623 367.178 192.033C371.168 195.547 374.928 181.64 380.774 185.55Z" fill="#A7CAF0"/>
<path d="M469.797 208.019C468.303 222.768 465.932 236.964 463.486 246.714C458.766 265.488 446.916 266.561 439.263 260.572C434.828 257.091 431.798 251.243 432.396 245.081C432.451 244.471 432.528 243.753 432.618 242.928C434.008 230.291 438.658 193.204 441.459 172.121C441.953 168.155 442.716 164.244 443.739 160.424C447.381 147.226 453.47 143.143 460.963 144.058C464.063 144.438 466.356 147.176 467.99 151.573C467.99 151.573 467.99 151.614 467.99 151.639C468.462 152.936 468.859 154.27 469.178 155.631C472.195 168.037 471.764 188.47 469.797 208.019Z" fill="#A7CAF0"/>
<path d="M469.797 208.019C468.303 222.768 465.932 236.964 463.486 246.714C458.766 265.488 446.916 266.561 439.263 260.572C440.697 258.933 442.492 257.806 444.441 257.322C453.081 255.392 458.231 247.531 456.952 231.033C455.951 218.512 465.244 210.948 469.797 208.019Z" fill="#A7CAF0"/>
<path d="M469.199 155.656C469.102 155.598 468.991 155.557 468.893 155.508C460.316 151.482 450.273 154.023 443.739 160.457C447.381 147.259 453.47 143.176 460.963 144.091C464.063 144.471 466.356 147.209 467.99 151.606C467.99 151.606 467.99 151.647 467.99 151.672C468.468 152.966 468.873 154.297 469.199 155.656V155.656Z" fill="#A7CAF0"/>
<path d="M434.703 225.193C436.719 208.696 439.569 186.63 441.459 172.121C441.953 168.155 442.716 164.244 443.739 160.424C444.502 157.528 445.567 154.757 446.909 152.175" stroke="#83ADDF" stroke-width="0.68" stroke-linecap="round" stroke-linejoin="round"/>
<path d="M375.853 293.427C372.197 294.252 368.492 287.777 367.269 283.792C366.045 279.808 375.811 278.018 375.811 278.018C375.811 278.018 378.987 290.334 375.853 293.427Z" fill="#A7CAF0"/>
<path d="M366.81 264.523C359.665 267.353 342.914 277.235 342.017 278.059C341.12 278.884 338.451 286.11 338.354 287.199C338.257 288.288 337.166 299.572 338.945 300.298C340.724 301.024 341.621 296.339 342.017 293.435C342.395 291.277 342.995 289.183 343.803 287.199C343.803 287.199 342.719 291.761 344.304 293.435C345.221 294.408 347.272 293.435 347.272 293.435C347.272 293.435 347.772 296.413 351.046 295.002C351.046 295.002 350.851 298.162 353.006 298.78C355.161 299.399 357.176 296.545 358.031 294.862C358.337 294.293 357.566 292.627 356.565 292.627C356.565 292.627 357.454 291.942 360.13 291.942C362.806 291.942 365.997 292.124 368.04 288.453C370.084 284.782 372.391 283.033 374.296 282.448L366.81 264.523Z" fill="#FEBD9D"/>
<path d="M338.354 287.199C338.25 288.296 337.166 299.572 338.945 300.298C340.724 301.024 341.621 296.339 342.017 293.435C342.395 291.277 342.995 289.183 343.803 287.199C343.803 287.199 342.719 291.761 344.304 293.435C345.221 294.409 347.272 293.435 347.272 293.435C347.272 293.435 347.772 296.413 351.046 295.003C351.046 295.003 350.851 298.162 353.006 298.78C355.161 299.399 357.176 296.545 358.031 294.862C358.337 294.293 357.566 292.627 356.565 292.627" stroke="#F4A789" stroke-width="0.68" stroke-linecap="round" stroke-linejoin="round"/>
<path d="M356.961 292.709C356.417 292.615 355.862 292.66 355.334 292.841" stroke="#F4A789" stroke-width="0.68" stroke-linecap="round" stroke-linejoin="round"/>
<path d="M355.842 290.754C355.307 292.404 354.639 294.928 354.904 295.654" stroke="#F4A789" stroke-width="0.68" stroke-linecap="round" stroke-linejoin="round"/>
<path d="M351.053 295.621C351.005 292.264 351.726 288.954 353.138 286.044" stroke="#F4A789" stroke-width="0.68" stroke-linecap="round" stroke-linejoin="round"/>
<path d="M347.272 293.435C346.75 290.96 348.356 284.667 349.642 282.835" stroke="#F4A789" stroke-width="0.68" stroke-linecap="round" stroke-linejoin="round"/>
<path d="M343.796 287.199C343.998 285.549 344.283 281.037 346.361 278.95" stroke="#F4A789" stroke-width="0.68" stroke-linecap="round" stroke-linejoin="round"/>
<path d="M452.969 262.709C449.876 264.639 442.46 267.955 433.383 271.716C410.119 281.343 375.943 293.872 375.852 293.427C375.727 292.808 372.725 276.558 362.424 265.728C362.424 265.728 410.216 238.622 425.528 230.134C434.724 225.036 448.792 216.375 456.368 224.616C456.646 224.913 456.91 225.226 457.161 225.548C465.327 235.752 463.638 256.035 452.969 262.709Z" fill="#A7CAF0"/>
<path d="M452.969 262.709C449.876 264.639 442.46 267.955 433.383 271.716C434.988 266.767 438.484 258.65 444.441 257.322C453.081 255.392 458.231 247.531 456.952 231.033C456.804 229.201 456.882 227.354 457.181 225.548C465.327 235.752 463.638 256.035 452.969 262.709Z" fill="#A7CAF0"/>
<path d="M362.424 265.728C362.424 265.728 410.216 238.622 425.528 230.134C429.921 227.701 435.426 224.451 440.82 222.62" stroke="#83ADDF" stroke-width="0.68" stroke-linecap="round" stroke-linejoin="round"/>
<path d="M372.454 263.814C378.23 272.219 383.012 287.199 383.012 287.199" stroke="#83ADDF" stroke-width="0.68" stroke-linecap="round" stroke-linejoin="round"/>
<path d="M424.5 83.2319C428.83 85.7066 432.409 96.5207 424.743 103.194C417.076 109.867 420.573 93.9306 420.76 93.6254C420.948 93.3202 421.191 83.6031 424.5 83.2319Z" fill="#FED81D"/>
<path d="M424.771 96.9827C424.443 97.7263 423.994 98.3852 423.45 98.9211C423.45 98.9211 415.207 105.644 410.07 102.056C404.934 98.4675 398.643 89.9547 398.643 89.9547C396.329 87.909 395.064 86.3088 394.605 84.5188C394.382 83.5964 394.342 82.6252 394.487 81.6812C394.911 78.4972 397.761 71.3703 406.831 74.0099C406.831 74.0099 408.423 71.6177 411.697 73.0613C414.97 74.5048 417.82 78.7447 417.82 78.7447C417.82 78.7447 421.01 77.4001 424.493 83.232C427.238 87.8348 426.314 93.7657 424.771 96.9827Z" fill="#B25E47"/>
<path d="M424.771 96.9827C424.443 97.7262 423.994 98.3852 423.45 98.9211C423.45 98.9211 415.207 105.644 410.07 102.056C404.934 98.4675 398.643 89.9547 398.643 89.9547C396.329 87.909 395.064 86.3088 394.605 84.5188C395.022 79.3303 397.038 75.6184 401.285 77.1691C407.304 79.3716 410.209 83.3227 416.201 81.4173C416.201 81.4173 417.716 95.4566 424.771 96.9827Z" fill="#B25E47"/>
<path d="M397.587 79.9821C398.671 78.5798 400.888 78.6375 404.183 82.7042" stroke="#683F1D" stroke-width="0.68" stroke-linecap="round" stroke-linejoin="round"/>
<path d="M404.885 73.5728C407.363 74.1869 409.705 75.4122 411.759 77.1692" stroke="#683F1D" stroke-width="0.68" stroke-linecap="round" stroke-linejoin="round"/>
<path d="M417.827 78.7612C418.384 79.5789 418.851 80.4769 419.217 81.4338" stroke="#683F1D" stroke-width="0.68" stroke-linecap="round" stroke-linejoin="round"/>
<path d="M419.558 109.026C412.239 121.25 402.786 127.915 397.079 122.224C392.867 118.042 392.84 109.719 393.834 103.012C394.121 101.061 394.508 99.1331 394.994 97.2383C395.036 97.0733 395.085 96.9166 395.126 96.7599C396.913 90.1609 399.554 80.2624 403.808 82.3163C403.808 82.3163 407.13 85.8468 413.427 84.329C413.427 84.329 410.195 98.3519 417.514 100.002C417.514 100.002 420.746 95.0524 424.465 97.6838C428.183 100.315 428.225 108.919 419.558 109.026Z" fill="#FEBD9D"/>
<path d="M404.35 94.5246C404.349 94.7338 404.399 94.9388 404.496 95.1135C404.593 95.2882 404.732 95.4248 404.894 95.506C405.057 95.5872 405.236 95.6093 405.409 95.5695C405.582 95.5296 405.741 95.4297 405.866 95.2824C405.991 95.1351 406.077 94.947 406.112 94.7419C406.146 94.5369 406.129 94.3242 406.062 94.1308C405.995 93.9374 405.881 93.772 405.735 93.6556C405.588 93.5392 405.416 93.4771 405.24 93.4771C405.005 93.477 404.78 93.5872 404.613 93.7834C404.446 93.9796 404.352 94.2461 404.35 94.5246V94.5246Z" fill="#683F1D"/>
<path d="M398.261 94.5246C398.26 94.7338 398.311 94.9388 398.408 95.1135C398.505 95.2882 398.643 95.4248 398.805 95.506C398.968 95.5872 399.147 95.6093 399.32 95.5695C399.493 95.5296 399.652 95.4297 399.777 95.2824C399.902 95.1351 399.988 94.947 400.023 94.7419C400.058 94.5369 400.04 94.3242 399.973 94.1308C399.906 93.9374 399.792 93.772 399.646 93.6556C399.499 93.5392 399.327 93.4771 399.151 93.4771C398.916 93.477 398.691 93.5872 398.524 93.7834C398.357 93.9796 398.263 94.2461 398.261 94.5246V94.5246Z" fill="#683F1D"/>
<path d="M417.473 100.035C416.804 100.928 416.352 102.02 416.166 103.194" stroke="#F4A789" stroke-width="0.68" stroke-linecap="round" stroke-linejoin="round"/>
<path d="M418.446 103.64C419.989 99.5152 423.311 99.2677 425.223 101.107" stroke="#F4A789" stroke-width="0.68" stroke-linecap="round" stroke-linejoin="round"/>
<path d="M419.231 102.056C422.185 99.7213 423.916 105.85 420.051 105.85" stroke="#F4A789" stroke-width="0.68" stroke-linecap="round" stroke-linejoin="round"/>
<path d="M396.433 89.9218C396.662 90.7962 401.41 90.293 401.298 88.3215C401.118 85.6737 396.002 88.2638 396.433 89.9218Z" fill="#B25E47"/>
<path d="M404.857 88.1812C404.704 89.9547 409.292 91.4807 409.723 90.5486C410.154 89.6164 405.142 84.8157 404.857 88.1812Z" fill="#B25E47"/>
<path d="M398.977 100.365C398.838 98.7149 399.575 96.8589 400.576 96.4382C401.576 96.0175 403.126 94.871 402.779 90.5898" stroke="#F4A789" stroke-width="0.68" stroke-linecap="round" stroke-linejoin="round"/>
<path d="M400.04 103.639C401.82 103.639 404.593 102.039 405.038 101.387C405.038 101.387 405.246 106.46 402.828 106.823C400.791 107.137 400.04 103.639 400.04 103.639Z" fill="white" stroke="#F4A789" stroke-width="0.68" stroke-linecap="round" stroke-linejoin="round"/>
<path d="M420.162 111.839C421.694 111.839 422.936 110.365 422.936 108.547C422.936 106.73 421.694 105.256 420.162 105.256C418.631 105.256 417.389 106.73 417.389 108.547C417.389 110.365 418.631 111.839 420.162 111.839Z" fill="white"/>
<path d="M414.171 98.6243C414.678 100.109 413.525 102.072 411.578 103.013C409.632 103.953 407.651 103.516 407.137 102.031C406.623 100.546 407.783 98.5748 409.729 97.6344C411.676 96.694 413.657 97.1395 414.171 98.6243Z" fill="#F4A789"/>
<path d="M397.364 102.254C396.808 103.392 395.342 103.681 393.82 103.079C394.107 101.128 394.494 99.1992 394.98 97.3044L395.3 97.5107C397.121 98.7315 398.046 100.868 397.364 102.254Z" fill="#F4A789"/>
<path d="M305.047 316.655L340.133 307.087L371.049 319.642L340.877 331.874L305.047 316.655Z" stroke="#DDDDDD" stroke-width="0.9" stroke-linecap="round" stroke-linejoin="round"/>
<path d="M325.363 308.844V316.655C325.363 319.254 330.993 321.357 337.944 321.357C344.894 321.357 350.531 319.254 350.531 316.655V308.844H325.363Z" fill="#DDDDDD" stroke="#DDDDDD" stroke-width="0.9" stroke-miterlimit="10"/>
<path d="M337.944 313.174C330.604 313.174 325.676 310.939 325.676 308.844C325.676 306.749 330.604 304.513 337.944 304.513C345.284 304.513 350.212 306.757 350.212 308.844C350.212 310.931 345.284 313.174 337.944 313.174Z" fill="#F9F9F9"/>
<path d="M337.944 304.884C345.353 304.884 349.899 307.194 349.899 308.844C349.899 310.494 345.353 312.803 337.944 312.803C330.535 312.803 325.989 310.494 325.989 308.844C325.989 307.194 330.535 304.884 337.944 304.884ZM337.944 304.142C330.993 304.142 325.363 306.246 325.363 308.844C325.363 311.442 330.993 313.546 337.944 313.546C344.894 313.546 350.531 311.442 350.531 308.844C350.531 306.246 344.894 304.142 337.944 304.142V304.142Z" fill="#DDDDDD"/>
<path d="M314.833 316.886C314.833 317.398 315.577 317.818 316.494 317.818C317.412 317.818 318.156 317.398 318.156 316.886C318.156 316.375 317.412 315.954 316.494 315.954C315.577 315.954 314.833 316.375 314.833 316.886Z" fill="#DDDDDD"/>
<path d="M339.528 327.643C339.528 328.154 340.272 328.575 341.19 328.575C342.107 328.575 342.844 328.154 342.844 327.643C342.844 327.132 342.1 326.711 341.19 326.711C340.279 326.711 339.528 327.132 339.528 327.643Z" fill="#DDDDDD"/>
<path d="M360.234 319.477C360.234 319.988 360.978 320.409 361.896 320.409C362.813 320.409 363.557 319.988 363.557 319.477C363.557 318.965 362.813 318.544 361.896 318.544C360.978 318.544 360.234 318.965 360.234 319.477Z" fill="#DDDDDD"/>
<path d="M1 282.448C25.9596 281.524 53.2615 280.955 81.7589 280.856C107.393 280.774 134 281.087 160.704 281.904C166.297 282.069 171.897 282.261 177.503 282.481C210.957 283.776 244.326 285.888 275.945 289.039C281.278 289.556 286.558 290.106 291.785 290.689C309.509 292.693 328.018 295.638 346.563 299.391C361.659 302.41 376.777 305.916 391.512 309.793C422.338 317.876 451.461 327.536 475.142 337.533C499.635 347.885 518.305 358.617 527 368.4" stroke="#DDDDDD" stroke-width="1.81" stroke-linecap="round" stroke-linejoin="round"/>
<path d="M307.097 326.224C295.872 333.12 229.987 353.445 229.987 353.445L223.954 346.359L185.448 301.164C185.448 301.164 222.196 292.404 229.049 293.386C234.776 294.211 286.162 310.469 302.579 320.194C305.791 322.141 307.924 325.721 307.097 326.224Z" stroke="#DDDDDD" stroke-width="0.9" stroke-linecap="round" stroke-linejoin="round"/>
<path d="M187.116 308.184C214.481 302.691 225.261 299.111 229.125 300.364C232.99 301.618 285.21 319.205 284.334 319.477C259.819 327.099 216.121 339.233 216.121 339.233L187.116 308.184Z" stroke="#DDDDDD" stroke-width="0.9" stroke-linecap="round" stroke-linejoin="round"/>
<path d="M307.097 326.224C295.872 333.12 229.987 353.445 229.987 353.445L223.954 346.359L302.579 320.244C305.791 322.141 307.924 325.721 307.097 326.224Z" fill="#DDDDDD"/>
<path d="M147.366 278.035C140.54 262.989 144.641 238.292 156.137 236.445C167.633 234.597 182.876 252.249 188.805 243.489C195.241 233.945 190.007 187.892 190.056 179.569L218.894 176.097C218.894 176.097 213.396 238.664 220.931 245.947C225.344 250.212 230.508 249.618 233.602 241.914C236.382 234.919 240.309 229.285 247.35 235.768C247.35 235.768 251.298 224.872 266.589 229.169C281.88 233.467 273.039 254.394 269.48 257.215C269.48 257.215 276.431 264.499 274.228 273.713C272.024 282.926 260.813 287.158 260.813 287.158C260.813 287.158 265.463 299.737 256.163 303.746C246.863 307.755 240.83 306.345 234.721 303.746C228.611 301.148 218.039 294.673 212.089 304.612C206.14 314.552 164.832 316.565 147.366 278.035Z" fill="#F9F9F9" stroke="#DDDDDD" stroke-width="1.81" stroke-linecap="round" stroke-linejoin="round"/>
<path d="M187.116 196.628C181.458 198.533 178.588 205.702 177.086 212.804C175.585 219.906 176.183 221.094 174.515 219.353C172.728 217.489 168.857 204.233 170.935 184.007C172.478 168.986 178.171 162.049 181.451 159.261C182.39 171.675 184.272 183.964 187.074 195.976V195.976C187.099 196.192 187.113 196.41 187.116 196.628V196.628Z" fill="#DDDDDD" stroke="#DDDDDD" stroke-width="1.81" stroke-linecap="round" stroke-linejoin="round"/>
<path d="M233.845 219.353C232.177 221.094 232.753 219.889 231.266 212.804C229.779 205.718 226.901 198.533 221.243 196.628C221.245 196.413 221.257 196.198 221.278 195.984V195.984C224.09 183.966 225.974 171.668 226.908 159.244C230.189 162.057 235.881 168.994 237.424 183.991C239.496 204.233 235.638 217.489 233.845 219.353Z" fill="#DDDDDD" stroke="#DDDDDD" stroke-width="1.81" stroke-linecap="round" stroke-linejoin="round"/>
<path d="M226.908 159.236C225.974 171.66 224.09 183.958 221.278 195.976V195.976C221.014 197.049 220.757 198.104 220.486 199.127H187.867C187.596 198.096 187.331 197.032 187.074 195.951C184.272 183.939 182.39 171.651 181.451 159.236C179.95 140.264 180.27 119.065 183.759 98.7315C184.211 96.1167 184.697 93.609 185.219 91.2252C191.988 60.0778 204.18 47.2922 204.18 47.2922C204.18 47.2922 216.378 60.0778 223.141 91.2252C223.662 93.609 224.156 96.1167 224.601 98.7315C228.09 119.065 228.416 140.231 226.908 159.236Z" fill="#F9F9F9" stroke="#DDDDDD" stroke-width="1.81" stroke-linecap="round" stroke-linejoin="round"/>
<path d="M223.141 91.2252H185.219C191.988 60.0778 204.18 47.2922 204.18 47.2922C204.18 47.2922 216.378 60.0778 223.141 91.2252Z" fill="#DDDDDD" stroke="#DDDDDD" stroke-width="0.9" stroke-miterlimit="10"/>
<path d="M213.243 128.815C212.055 130.231 210.642 131.355 209.087 132.122C207.532 132.89 205.864 133.284 204.18 133.284C202.495 133.284 200.828 132.89 199.272 132.122C197.717 131.355 196.304 130.231 195.116 128.815C192.723 125.957 191.379 122.092 191.379 118.062C191.379 114.033 192.723 110.168 195.116 107.31C196.304 105.894 197.717 104.769 199.272 104.002C200.828 103.235 202.495 102.841 204.18 102.841C205.864 102.841 207.532 103.235 209.087 104.002C210.642 104.769 212.055 105.894 213.243 107.31C214.02 108.229 214.693 109.263 215.245 110.387C216.672 113.29 217.249 116.672 216.887 120.005C216.525 123.338 215.244 126.436 213.243 128.815V128.815Z" fill="#DDDDDD" stroke="#F9F9F9" stroke-width="1.81" stroke-linecap="round" stroke-linejoin="round"/>
<path d="M215.245 110.387L197.709 131.199C196.763 130.538 195.891 129.737 195.116 128.815C194.342 127.893 193.671 126.856 193.121 125.73L210.651 104.926C211.597 105.587 212.468 106.388 213.243 107.31C214.02 108.229 214.693 109.263 215.245 110.387V110.387Z" fill="#F9F9F9"/>
<path d="M204.18 156.003C198.703 164.631 195.839 208.275 204.18 220.063C212.534 208.267 209.65 164.631 204.18 156.003Z" fill="#DDDDDD" stroke="#DDDDDD" stroke-width="0.9" stroke-miterlimit="10"/>
<path d="M213.243 128.815C212.055 130.231 210.642 131.355 209.087 132.122C207.532 132.89 205.864 133.284 204.18 133.284C202.495 133.284 200.828 132.89 199.272 132.122C197.717 131.355 196.304 130.231 195.116 128.815C192.723 125.957 191.379 122.092 191.379 118.062C191.379 114.033 192.723 110.168 195.116 107.31C196.304 105.894 197.717 104.769 199.272 104.002C200.828 103.235 202.495 102.841 204.18 102.841C205.864 102.841 207.532 103.235 209.087 104.002C210.642 104.769 212.055 105.894 213.243 107.31C214.02 108.229 214.693 109.263 215.245 110.387C216.672 113.29 217.249 116.672 216.887 120.005C216.525 123.338 215.244 126.436 213.243 128.815V128.815Z" stroke="#DDDDDD" stroke-width="1.81" stroke-linecap="round" stroke-linejoin="round"/>
<path d="M269.481 257.223C268.087 258.456 266.629 259.583 265.116 260.597" stroke="#DDDDDD" stroke-width="1.81" stroke-linecap="round" stroke-linejoin="round"/>
<path d="M257.658 263.088C254.029 258.708 245.195 260.663 243.798 270.751C242.401 280.84 249.859 289.649 260.813 287.199" stroke="#DDDDDD" stroke-width="1.81" stroke-linecap="round" stroke-linejoin="round"/>
<path d="M199.676 222.653C201.066 234.333 200.51 254.617 200.426 255.904" stroke="#DDDDDD" stroke-width="1.81" stroke-linecap="round" stroke-linejoin="round"/>
<path d="M217.99 272.723C212.569 265.992 209.983 261.636 209.983 233.046" stroke="#DDDDDD" stroke-width="1.81" stroke-linecap="round" stroke-linejoin="round"/>
<path d="M119.014 226.257L196.659 262.354L234.255 351.325L150.688 307.59L114.746 228.427L119.014 226.257Z" fill="#DDDDDD"/>
<path d="M114.746 228.427L192.392 264.523L229.987 353.495L146.427 309.76L114.746 228.427Z" fill="#F9F9F9" stroke="#DDDDDD" stroke-width="0.9" stroke-linecap="round" stroke-linejoin="round"/>
</svg>
