<svg width="524" height="388" viewBox="0 0 524 388" fill="none" xmlns="http://www.w3.org/2000/svg">
<path d="M331.45 50.1225L331.639 56.1699C331.647 56.3792 331.705 56.5834 331.806 56.7654C331.908 56.9474 332.05 57.1019 332.222 57.216L337.2 60.5196C337.398 60.65 337.556 60.8344 337.657 61.0519C337.759 61.2695 337.798 61.5115 337.772 61.7509C337.746 61.9903 337.655 62.2175 337.51 62.4069C337.364 62.5963 337.17 62.7404 336.949 62.823L331.388 64.8785C331.191 64.9525 331.015 65.075 330.876 65.2351C330.737 65.3951 330.638 65.5879 330.589 65.7962L329.127 71.5866C329.067 71.8188 328.944 72.0292 328.774 72.1942C328.603 72.3592 328.391 72.4724 328.161 72.521C327.931 72.5695 327.692 72.5517 327.472 72.4693C327.251 72.3869 327.057 72.2434 326.912 72.0547L323.279 67.2736C323.152 67.1083 322.988 66.9769 322.8 66.8906C322.613 66.8043 322.408 66.7657 322.203 66.7781L316.301 67.136C316.065 67.1503 315.83 67.0968 315.622 66.9815C315.415 66.8662 315.243 66.6937 315.126 66.4836C315.009 66.2734 314.952 66.034 314.962 65.7925C314.971 65.551 315.047 65.317 315.18 65.1171L318.498 60.1067C318.612 59.9314 318.683 59.7311 318.707 59.5222C318.73 59.3132 318.705 59.1015 318.633 58.9045L316.48 53.2701C316.394 53.0455 316.371 52.8009 316.414 52.5637C316.457 52.3266 316.563 52.1063 316.722 51.9279C316.88 51.7494 317.085 51.6199 317.311 51.5538C317.538 51.4878 317.778 51.4879 318.005 51.5541L323.692 53.2334C323.888 53.2913 324.094 53.2999 324.294 53.2583C324.494 53.2168 324.681 53.1264 324.84 52.9948L329.414 49.159C329.598 49.0176 329.816 48.9299 330.045 48.9052C330.274 48.8804 330.505 48.9195 330.714 49.0183C330.923 49.1172 331.101 49.272 331.231 49.4664C331.361 49.6608 331.437 49.8876 331.45 50.1225V50.1225Z" fill="#DDDDDD" stroke="#DDDDDD" stroke-miterlimit="10"/>
<path d="M460.981 108.238L465.323 112.349C465.475 112.49 465.657 112.592 465.855 112.646C466.053 112.7 466.261 112.706 466.462 112.661L472.229 111.331C472.464 111.271 472.71 111.282 472.939 111.361C473.168 111.44 473.37 111.585 473.521 111.778C473.672 111.971 473.766 112.205 473.791 112.451C473.817 112.697 473.773 112.945 473.664 113.166L471.189 118.672C471.102 118.862 471.061 119.07 471.071 119.28C471.08 119.489 471.139 119.693 471.243 119.874L474.265 125.077C474.386 125.285 474.447 125.523 474.442 125.765C474.437 126.006 474.367 126.241 474.238 126.444C474.109 126.646 473.927 126.808 473.713 126.91C473.5 127.013 473.262 127.052 473.027 127.023L467.161 126.316C466.957 126.29 466.749 126.316 466.557 126.391C466.365 126.466 466.193 126.589 466.058 126.747L462.156 131.29C462.002 131.474 461.801 131.61 461.575 131.682C461.349 131.754 461.107 131.759 460.878 131.697C460.65 131.634 460.443 131.507 460.282 131.329C460.12 131.152 460.012 130.931 459.968 130.693L458.811 124.756C458.768 124.553 458.677 124.364 458.548 124.204C458.418 124.045 458.253 123.919 458.066 123.838L452.684 121.443C452.466 121.351 452.277 121.197 452.14 121C452.003 120.802 451.924 120.569 451.911 120.328C451.898 120.086 451.951 119.845 452.066 119.634C452.181 119.422 452.351 119.248 452.559 119.131L457.725 116.176C457.904 116.071 458.055 115.924 458.166 115.747C458.277 115.569 458.344 115.367 458.362 115.157L458.909 109.138C458.926 108.9 459.007 108.672 459.142 108.478C459.277 108.285 459.462 108.133 459.677 108.04C459.891 107.947 460.126 107.917 460.356 107.952C460.586 107.986 460.803 108.086 460.981 108.238V108.238Z" fill="#DDDDDD" stroke="#DDDDDD" stroke-miterlimit="10"/>
<path d="M33.8552 68.6044H11.7181C8.84771 68.5206 6.12233 67.2952 4.12097 65.1884C2.11961 63.0817 1 60.2596 1 57.3217C1 54.3839 2.11961 51.5618 4.12097 49.455C6.12233 47.3483 8.84771 46.1228 11.7181 46.0391H33.8552" stroke="#DDDDDD" stroke-miterlimit="10"/>
<path d="M33.595 266.7H28.7693C24.956 266.7 21.2988 265.15 18.6023 262.392C15.9059 259.633 14.391 255.891 14.391 251.99C14.391 248.089 15.9059 244.347 18.6023 241.588C21.2988 238.83 24.956 237.28 28.7693 237.28H33.8551" stroke="#DDDDDD" stroke-miterlimit="10"/>
<path d="M370.818 332.359H340.196C332.389 332.359 326.06 338.834 326.06 346.821V347.326C326.06 355.313 332.389 361.788 340.196 361.788H370.818C378.626 361.788 384.955 355.313 384.955 347.326V346.821C384.955 338.834 378.626 332.359 370.818 332.359Z" stroke="#DDDDDD" stroke-miterlimit="10"/>
<path d="M507.839 351.079H463.053C460.339 351.079 458.138 353.331 458.138 356.108V356.282C458.138 359.06 460.339 361.311 463.053 361.311H507.839C510.553 361.311 512.754 359.06 512.754 356.282V356.108C512.754 353.331 510.553 351.079 507.839 351.079Z" stroke="#DDDDDD" stroke-miterlimit="10"/>
<path d="M505.776 43.0197H511.983C513.458 42.9767 514.926 43.2367 516.3 43.7844C517.675 44.332 518.929 45.1562 519.987 46.2081C521.045 47.2601 521.886 48.5184 522.46 49.9087C523.034 51.299 523.33 52.7931 523.33 54.3024C523.33 55.8118 523.034 57.3058 522.46 58.6961C521.886 60.0864 521.045 61.3447 519.987 62.3967C518.929 63.4486 517.675 64.2728 516.3 64.8204C514.926 65.3681 513.458 65.6281 511.983 65.5851H505.776" stroke="#DDDDDD" stroke-miterlimit="10"/>
<path d="M477.468 319.447H62.1726C54.6677 319.438 47.4729 316.383 42.1661 310.954C36.8594 305.525 33.8739 298.164 33.8644 290.486V29.9614C33.8715 22.2826 36.8562 14.9204 42.1635 9.49066C47.4708 4.06091 54.667 1.00729 62.1726 1H477.468C484.973 1.00729 492.169 4.06091 497.477 9.49066C502.784 14.9204 505.769 22.2826 505.776 29.9614V290.486C505.769 298.165 502.784 305.527 497.477 310.957C492.169 316.386 484.973 319.44 477.468 319.447Z" stroke="#DDDDDD" stroke-width="2" stroke-linecap="round" stroke-linejoin="round"/>
<path d="M477.476 21.5464H62.1634C57.6208 21.5464 53.9382 25.3139 53.9382 29.9614V290.486C53.9382 295.133 57.6208 298.901 62.1634 298.901H477.476C482.019 298.901 485.702 295.133 485.702 290.486V29.9614C485.702 25.3139 482.019 21.5464 477.476 21.5464Z" stroke="#DDDDDD" stroke-width="2" stroke-miterlimit="10"/>
<path d="M462.022 208.759V239.427H386.157V130.087" stroke="#DDDDDD" stroke-linecap="round" stroke-linejoin="round"/>
<path d="M462.022 131.391V148.523" stroke="#DDDDDD" stroke-linecap="round" stroke-linejoin="round"/>
<path d="M399.512 116.047H457.707" stroke="#DDDDDD" stroke-linecap="round" stroke-linejoin="round"/>
<path d="M427.722 130.675H443.41" stroke="#DDDDDD" stroke-linecap="round" stroke-linejoin="round"/>
<path d="M427.722 138.19H440.414" stroke="#DDDDDD" stroke-linecap="round" stroke-linejoin="round"/>
<path d="M399.181 175.475H410.751" stroke="#DDDDDD" stroke-linecap="round" stroke-linejoin="round"/>
<path d="M399.181 185.808H405.414" stroke="#DDDDDD" stroke-linecap="round" stroke-linejoin="round"/>
<path d="M475.763 148.523H437.221V208.759H475.763V148.523Z" stroke="#DDDDDD" stroke-linecap="round" stroke-linejoin="round"/>
<path d="M451.348 158.875H462.022" stroke="#DDDDDD" stroke-linecap="round" stroke-linejoin="round"/>
<path d="M455.905 166.95H462.022" stroke="#DDDDDD" stroke-linecap="round" stroke-linejoin="round"/>
<path d="M246.454 195.921C248.732 201.363 235.053 211.521 227.313 206.804C222.891 213.512 209.58 208.906 212.755 204.969C204.458 205.712 195.112 201.298 198.888 194.003C188.6 189.919 193.506 180.578 203.722 180.357C194.896 167.51 201.928 157.81 216.37 158.765C216.217 143.164 235.009 143.834 236.489 159.958C247.503 155.957 256.643 167.556 249.297 176.687C259.37 181.651 255.172 192.59 246.454 195.921Z" stroke="#DDDDDD" stroke-linecap="round" stroke-linejoin="round"/>
<path d="M213.858 167.18H239.251C239.251 167.18 243.108 181.66 237.457 196.627L210.844 196.205C210.844 196.205 218.02 180.247 213.858 167.18Z" stroke="#DDDDDD" stroke-linecap="round" stroke-linejoin="round"/>
<path d="M219.581 174.521H232.506" stroke="#DDDDDD" stroke-linecap="round" stroke-linejoin="round"/>
<path d="M220.406 180.256H230.174" stroke="#DDDDDD" stroke-linecap="round" stroke-linejoin="round"/>
<path d="M219.769 185.735H233.322" stroke="#DDDDDD" stroke-linecap="round" stroke-linejoin="round"/>
<path d="M392.139 124.472C389.287 131.061 378.882 133.465 372.953 129.271C370.199 136.264 357.624 137.796 351.229 134.447C353.13 125.6 347.991 120.251 341.47 120.122C339.559 114.423 341.021 108.137 345.865 106.045C341.685 97.1254 348.789 92.2802 356.189 96.3729C355.965 87.5358 366.728 78.0197 378.155 87.7561C386.721 81.103 398.508 90.7568 393.233 104.017C403.271 106.568 400.705 125.821 392.139 124.472Z" fill="#DDDDDD" stroke="#DDDDDD" stroke-miterlimit="10"/>
<path d="M128.306 45.1211H168.508C166.714 57.7665 169.405 78.4965 177.433 94.785H133.15C133.15 94.785 120.081 83.9566 128.306 45.1211Z" stroke="#DDDDDD" stroke-width="2" stroke-linecap="round" stroke-linejoin="round"/>
<path d="M277.005 77.1753L310.515 77.2487C310.515 77.2487 315.386 94.1245 304.685 112.358L268.421 110.854C268.421 110.854 279.48 94.4732 277.005 77.1753Z" stroke="#DDDDDD" stroke-linecap="round" stroke-linejoin="round"/>
<path d="M283.122 85.3882H305.008" stroke="#DDDDDD" stroke-linecap="round" stroke-linejoin="round"/>
<path d="M283.436 92.8945H300.9" stroke="#DDDDDD" stroke-linecap="round" stroke-linejoin="round"/>
<path d="M283.122 102.723H291.374" stroke="#DDDDDD" stroke-linecap="round" stroke-linejoin="round"/>
<path d="M293.24 102.723H298.729" stroke="#DDDDDD" stroke-linecap="round" stroke-linejoin="round"/>
<path d="M187.658 33.4209L254.15 34.3386C254.15 34.3386 259.083 62.3823 248.903 98.8411H180.733C180.733 98.8411 192.089 67.2551 187.658 33.4209Z" stroke="#DDDDDD" stroke-linecap="round" stroke-linejoin="round"/>
<path d="M224.541 59.1431L243.79 59.7487" stroke="#DDDDDD" stroke-linecap="round" stroke-linejoin="round"/>
<path d="M232.784 53.9312L244.579 54.3074" stroke="#DDDDDD" stroke-linecap="round" stroke-linejoin="round"/>
<path d="M241.727 49.0488L245.467 49.1681" stroke="#DDDDDD" stroke-linecap="round" stroke-linejoin="round"/>
<path d="M238.857 42.8359L245.467 43.047" stroke="#DDDDDD" stroke-linecap="round" stroke-linejoin="round"/>
<path d="M241.736 70.7241H223.07V88.4625H241.736V70.7241Z" fill="#DDDDDD" stroke="#DDDDDD" stroke-miterlimit="10"/>
<path d="M323.961 131.914H340.456" stroke="#DDDDDD" stroke-linecap="round" stroke-linejoin="round"/>
<path d="M320.409 139.347H336.904" stroke="#DDDDDD" stroke-linecap="round" stroke-linejoin="round"/>
<path d="M317.933 147.34H334.429" stroke="#DDDDDD" stroke-linecap="round" stroke-linejoin="round"/>
<path d="M348.26 150.799C351.274 160.59 336.743 167.115 330.007 157.149C323.091 169.29 295.922 161.673 308.022 147.449C299.474 146.642 300.909 129.684 310.713 131.115C305.582 115.808 326.32 110.202 331.989 123.609C334.679 121.375 338.032 120.145 341.497 120.121C348.018 120.25 353.157 125.627 351.256 134.446C351.13 135.052 350.969 135.667 350.771 136.282C359.248 139.741 354.458 150.258 348.26 150.799Z" stroke="#DDDDDD" stroke-linecap="round" stroke-linejoin="round"/>
<path d="M361.777 100.144H379.483" stroke="#F9F9F9" stroke-linecap="round" stroke-linejoin="round"/>
<path d="M361.337 107.669H375.895" stroke="#F9F9F9" stroke-linecap="round" stroke-linejoin="round"/>
<path d="M360.835 117.754H371.554" stroke="#F9F9F9" stroke-linecap="round" stroke-linejoin="round"/>
<path d="M419.228 133.235H397.503V163.803H419.228V133.235Z" fill="#DDDDDD" stroke="#DDDDDD" stroke-linecap="round" stroke-linejoin="round"/>
<path d="M302.927 74.7802L315.502 88.4625L319.727 82.9658L307.672 70.7241L302.927 74.7802Z" fill="#DDDDDD" stroke="#DDDDDD" stroke-miterlimit="10"/>
<path d="M270.502 81.7176L283.122 67.9526L287.984 72.5593L275.588 87.5539L270.502 81.7176Z" fill="#DDDDDD" stroke="#DDDDDD" stroke-miterlimit="10"/>
<path d="M430.198 152.644L435.086 156.948C435.086 156.948 447.034 143.945 446.809 143.945C446.585 143.945 441.374 139.962 441.374 139.962L430.198 152.644Z" fill="#DDDDDD" stroke="#DDDDDD" stroke-miterlimit="10"/>
<path d="M465.116 145.275L470.48 140.577L483.271 154.443L477.369 159.618L465.116 145.275Z" fill="#DDDDDD" stroke="#DDDDDD" stroke-miterlimit="10"/>
<path d="M467.054 77.4596C464.398 84.7448 459.358 90.8642 452.791 94.7777C446.224 98.6912 438.534 100.157 431.03 98.9268C423.526 97.6962 416.67 93.845 411.627 88.0277C406.584 82.2104 403.666 74.786 403.369 67.0166C405.085 70.713 407.662 73.9217 410.873 76.361C414.084 78.8002 417.832 80.3952 421.787 81.0059C425.742 81.6166 429.783 81.2243 433.555 79.8634C437.327 78.5026 440.715 76.2148 443.42 73.2011C446.126 70.1875 448.067 66.5401 449.072 62.5796C450.078 58.619 450.117 54.4664 449.187 50.4866C448.257 46.5068 446.386 42.8216 443.738 39.7548C441.09 36.688 437.746 34.3334 434 32.8979C433.373 32.6593 432.754 32.4482 432.126 32.2739C437.743 31.5517 443.448 32.3248 448.688 34.5184C453.927 36.7119 458.525 40.2517 462.037 44.7954C465.548 49.339 467.854 54.7328 468.731 60.455C469.608 66.1772 469.028 72.0342 467.045 77.4596H467.054Z" fill="#DDDDDD" stroke="#DDDDDD" stroke-linecap="round" stroke-linejoin="round"/>
<path d="M125.642 33.9073L130.127 37.8624C130.281 37.9986 130.465 38.094 130.664 38.1404C130.862 38.1868 131.069 38.1827 131.266 38.1285L136.988 36.6052C137.217 36.5434 137.458 36.5483 137.683 36.6194C137.909 36.6905 138.111 36.8249 138.266 37.0073C138.421 37.1898 138.523 37.4131 138.56 37.6518C138.598 37.8905 138.569 38.1351 138.477 38.3579L136.181 43.9373C136.103 44.1301 136.072 44.3396 136.091 44.5474C136.109 44.7553 136.177 44.9553 136.289 45.1303L139.473 50.2325C139.598 50.4353 139.666 50.6699 139.669 50.91C139.672 51.15 139.609 51.3861 139.488 51.5918C139.367 51.7975 139.192 51.9647 138.984 52.0747C138.775 52.1847 138.541 52.2331 138.307 52.2146L132.414 51.7099C132.209 51.6904 132.003 51.7229 131.814 51.8045C131.624 51.8862 131.458 52.0145 131.329 52.1779L127.579 56.8488C127.428 57.0341 127.23 57.1729 127.007 57.2498C126.784 57.3267 126.544 57.3387 126.314 57.2845C126.085 57.2303 125.874 57.112 125.706 56.9427C125.539 56.7735 125.42 56.5599 125.364 56.3258L124.018 50.4344C123.972 50.229 123.877 50.0382 123.743 49.8784C123.609 49.7185 123.438 49.5944 123.247 49.5167L117.739 47.3143C117.519 47.2268 117.328 47.078 117.186 46.8847C117.044 46.6915 116.958 46.4615 116.938 46.2209C116.917 45.9802 116.963 45.7385 117.07 45.523C117.177 45.3076 117.34 45.127 117.542 45.0018L122.601 41.8726C122.778 41.7637 122.926 41.6123 123.032 41.4316C123.138 41.2508 123.2 41.0462 123.211 40.8356L123.552 34.7974C123.568 34.5574 123.649 34.3267 123.786 34.1312C123.923 33.9357 124.11 33.7831 124.328 33.6907C124.545 33.5982 124.783 33.5695 125.015 33.6078C125.247 33.646 125.464 33.7497 125.642 33.9073V33.9073Z" fill="#DDDDDD" stroke="#DDDDDD" stroke-miterlimit="10"/>
<path d="M69.5992 374.544L75.286 351.29H130.333L124.619 374.544H69.5992ZM135.966 374.544L196.062 129.381C196.239 128.665 196.276 127.92 196.171 127.188C196.067 126.457 195.822 125.755 195.452 125.12C195.082 124.486 194.593 123.932 194.014 123.491C193.434 123.05 192.776 122.73 192.075 122.549C191.375 122.368 190.647 122.33 189.932 122.438C189.218 122.545 188.531 122.795 187.911 123.174C187.291 123.552 186.75 124.052 186.318 124.645C185.887 125.238 185.574 125.912 185.398 126.628L179.54 150.542H124.485L129.669 129.344C129.846 128.628 129.883 127.883 129.778 127.152C129.673 126.421 129.429 125.718 129.059 125.083C128.688 124.449 128.2 123.895 127.62 123.454C127.041 123.013 126.382 122.693 125.682 122.512C124.982 122.332 124.254 122.294 123.539 122.401C122.824 122.508 122.137 122.758 121.517 123.137C120.897 123.516 120.356 124.016 119.925 124.608C119.494 125.201 119.181 125.875 119.004 126.591L58.2437 374.544H135.966ZM177.45 158.985L168.221 196.609H113.192L122.422 158.985H177.45ZM166.158 205.051L149.205 274.335H94.1223L111.165 205.051H166.158ZM132.414 342.866H77.367L92.0951 282.75H147.142L132.414 342.866Z" fill="#DDDDDD" stroke="#DDDDDD" stroke-width="2" stroke-linecap="round" stroke-linejoin="round"/>
<path d="M510.879 294.395C511.624 299.268 506.287 304.177 502.358 306.187C502.358 306.187 497.775 295.698 498.107 295.698C498.439 295.698 506.197 291.193 510.879 294.395Z" fill="#FCC71F"/>
<path d="M482.141 379.362C462.497 393.723 437.463 383.95 437.463 383.95V376.453C417.407 376.774 396.202 370.231 396.202 370.231C394.866 354.631 397.386 335.543 398.938 325.825C399.566 321.907 400.041 319.521 400.041 319.521C411.998 315.538 481.019 316.952 481.019 316.952C481.28 319.264 481.477 321.98 481.647 324.972C482.849 345.72 482.141 379.362 482.141 379.362Z" fill="#A7CAF0"/>
<mask id="mask0_109_677" style="mask-type:alpha" maskUnits="userSpaceOnUse" x="395" y="316" width="88" height="72">
<path d="M482.141 379.362C462.497 393.723 437.463 383.95 437.463 383.95V376.453C417.407 376.774 396.202 370.231 396.202 370.231C394.866 354.631 397.386 335.543 398.938 325.825C399.566 321.907 400.041 319.521 400.041 319.521C411.998 315.538 481.019 316.952 481.019 316.952C481.28 319.264 481.477 321.98 481.647 324.972C482.849 345.72 482.141 379.362 482.141 379.362Z" fill="#A7CAF0"/>
</mask>
<g mask="url(#mask0_109_677)">
<path d="M482.948 338.232H478.328V342.958H482.948V338.232Z" stroke="white" stroke-width="0.75" stroke-linecap="round" stroke-linejoin="round"/>
<path d="M460.443 338.232H455.824V342.958H460.443V338.232Z" stroke="white" stroke-width="0.75" stroke-linecap="round" stroke-linejoin="round"/>
<path d="M437.947 338.232H433.328V342.958H437.947V338.232Z" stroke="white" stroke-width="0.75" stroke-linecap="round" stroke-linejoin="round"/>
<path d="M415.451 338.232H410.832V342.958H415.451V338.232Z" stroke="white" stroke-width="0.75" stroke-linecap="round" stroke-linejoin="round"/>
<path d="M482.948 367.432H478.328V372.158H482.948V367.432Z" stroke="white" stroke-width="0.75" stroke-linecap="round" stroke-linejoin="round"/>
<path d="M460.443 367.432H455.824V372.158H460.443V367.432Z" stroke="white" stroke-width="0.75" stroke-linecap="round" stroke-linejoin="round"/>
<path d="M437.947 367.432H433.328V372.158H437.947V367.432Z" stroke="white" stroke-width="0.75" stroke-linecap="round" stroke-linejoin="round"/>
<path d="M415.451 367.432H410.832V372.158H415.451V367.432Z" stroke="white" stroke-width="0.75" stroke-linecap="round" stroke-linejoin="round"/>
<path d="M405.118 321.264H395.888V330.707H405.118V321.264Z" stroke="white" stroke-width="0.75" stroke-linecap="round" stroke-linejoin="round"/>
<path d="M428.17 321.264H418.94V330.707H428.17V321.264Z" stroke="white" stroke-width="0.75" stroke-linecap="round" stroke-linejoin="round"/>
<path d="M451.222 321.264H441.993V330.707H451.222V321.264Z" stroke="white" stroke-width="0.75" stroke-linecap="round" stroke-linejoin="round"/>
<path d="M474.274 321.264H465.044V330.707H474.274V321.264Z" stroke="white" stroke-width="0.75" stroke-linecap="round" stroke-linejoin="round"/>
<path d="M405.118 350.473H395.888V359.916H405.118V350.473Z" stroke="white" stroke-width="0.75" stroke-linecap="round" stroke-linejoin="round"/>
<path d="M428.17 350.473H418.94V359.916H428.17V350.473Z" stroke="white" stroke-width="0.75" stroke-linecap="round" stroke-linejoin="round"/>
<path d="M451.222 350.473H441.993V359.916H451.222V350.473Z" stroke="white" stroke-width="0.75" stroke-linecap="round" stroke-linejoin="round"/>
<path d="M474.274 350.473H465.044V359.916H474.274V350.473Z" stroke="white" stroke-width="0.75" stroke-linecap="round" stroke-linejoin="round"/>
<path d="M405.118 379.673H395.888V389.116H405.118V379.673Z" stroke="white" stroke-width="0.75" stroke-linecap="round" stroke-linejoin="round"/>
<path d="M428.17 379.673H418.94V389.116H428.17V379.673Z" stroke="white" stroke-width="0.75" stroke-linecap="round" stroke-linejoin="round"/>
<path d="M451.222 379.673H441.993V389.116H451.222V379.673Z" stroke="white" stroke-width="0.75" stroke-linecap="round" stroke-linejoin="round"/>
<path d="M474.274 379.673H465.044V389.116H474.274V379.673Z" stroke="white" stroke-width="0.75" stroke-linecap="round" stroke-linejoin="round"/>
</g>
<path d="M481.674 325.008C470.153 327.464 458.452 328.94 446.693 329.422C440.647 329.725 434.503 329.808 428.538 329.642C417.505 329.33 407.083 328.165 398.938 325.862C399.566 321.943 400.041 319.557 400.041 319.557C404.275 318.153 415.631 317.41 428.547 317.052C434.449 316.887 440.674 316.804 446.702 316.768C464.793 316.648 481.02 316.988 481.02 316.988C481.307 319.3 481.504 322.053 481.674 325.008Z" fill="#683F1D"/>
<path d="M446.729 316.768V329.395C440.683 329.697 434.539 329.78 428.574 329.615V317.052C434.476 316.887 440.701 316.804 446.729 316.768Z" fill="white"/>
<path d="M437.463 376.489L437.652 356.2" stroke="#83ADDF" stroke-width="0.75" stroke-linecap="round" stroke-linejoin="round"/>
<path d="M510.879 294.395C510.879 294.395 508.189 294.909 504.197 296.12C497.667 298.049 491.376 300.743 485.451 304.15C484.356 304.792 479.584 309.977 474.821 314.409C471.296 317.694 467.762 320.567 465.744 320.833C455.519 322.388 445.19 323.122 434.853 323.026C432.939 323.026 431.091 322.974 429.309 322.87C419.49 322.564 409.711 321.444 400.068 319.52C400.624 319.52 399.781 311.482 398.983 303.663C398.786 301.663 398.588 299.671 398.409 297.836C398.131 298.029 381.16 285.906 379.698 284.814L379.6 284.741C379.6 284.741 379.68 284.291 379.86 283.475C380.855 278.886 384.793 262.653 392.641 250.173C394.333 247.432 396.296 244.877 398.499 242.547C409.989 230.617 423.524 226.763 437.221 225.68C450.917 224.597 452.541 224.258 452.541 224.258C464.829 228.617 478.553 231.223 488.419 243.336C490.587 246.152 492.476 249.179 494.061 252.375C502.538 268.526 510.879 294.395 510.879 294.395Z" fill="#FED81D"/>
<path d="M405.549 260.845C403.531 269.416 399.745 283.851 399.898 298.974C399.898 298.598 381.16 285.897 379.698 284.851L379.86 283.512C385.708 280.694 389.421 282.594 392.641 283.98C399.898 287.017 396.328 262.497 405.423 260.864L405.549 260.845Z" fill="#FCC71F"/>
<path d="M474.821 314.409C471.296 317.695 467.762 320.567 465.744 320.833C455.519 322.388 445.19 323.122 434.853 323.026C432.939 323.026 431.091 322.974 429.309 322.87C432.754 317.539 440.073 308.775 450.54 310.821C465.314 313.73 468.049 288.898 465.314 278.336C462.578 267.774 469.502 263.479 469.502 263.479C469.732 269.961 470.522 276.41 471.861 282.75V282.75C471.861 282.933 471.942 283.126 471.987 283.319C473.628 291.358 474.436 305.535 474.821 314.409Z" fill="#FCC71F"/>
<path d="M494.079 252.412C481.674 249.319 469.494 250.338 464.157 255.66C453.285 266.544 432.171 281.254 419.981 265.461C412.088 255.229 403.432 248.805 392.642 250.209C394.333 247.469 396.296 244.913 398.499 242.583C409.989 230.654 423.524 226.8 437.221 225.717C450.917 224.634 452.541 224.294 452.541 224.294C464.829 228.653 478.553 231.26 488.42 243.373C490.593 246.187 492.489 249.215 494.079 252.412V252.412Z" fill="#FED81D"/>
<path d="M472.579 286.007C472.364 285.09 472.175 284.236 471.987 283.355C471.987 283.163 471.897 282.97 471.861 282.786C470.522 276.446 469.732 269.998 469.502 263.515V263.515C469.422 260.896 469.469 258.274 469.646 255.66" stroke="#FCC71F" stroke-width="0.75" stroke-linecap="round" stroke-linejoin="round"/>
<path d="M475.1 237.766C473.278 240.091 471.971 242.793 471.27 245.686" stroke="#FCC71F" stroke-width="0.75" stroke-linecap="round" stroke-linejoin="round"/>
<path d="M438.216 243.134C436.88 249.558 437.454 258.45 437.454 258.45" stroke="#FCC71F" stroke-width="0.75" stroke-linecap="round" stroke-linejoin="round"/>
<path d="M399.898 297.065C399.898 279.575 407.074 254.614 407.074 254.614" stroke="#FCC71F" stroke-width="0.75" stroke-linecap="round" stroke-linejoin="round"/>
<path d="M429.175 225.699C424.502 225.699 423.398 238.592 425.425 244.905C427.103 250.136 434.395 240.959 439.902 235.472L429.175 225.699Z" fill="white"/>
<path d="M436.844 234.976C442.486 240.684 447.894 247.19 450.155 246.264C452.415 245.337 458.111 228.608 456.487 224.699C455.97 223.52 455.22 222.463 454.284 221.595C453.349 220.726 452.249 220.065 451.052 219.651L436.844 234.976Z" fill="white"/>
<path d="M438.217 235.279C448.083 233.187 451.052 219.679 451.052 219.679C437.275 219.679 429.175 225.744 429.175 225.744C429.175 225.744 427.552 237.546 438.217 235.279Z" fill="white"/>
<path d="M399.898 297.066C397.27 287.439 391.368 284.723 386.614 284.218C384.29 283.979 381.944 284.194 379.698 284.851C373.608 308.656 371.159 316.713 379.277 319.2C387.394 321.686 395.736 316.694 399.907 312.959C400.32 304.664 399.898 297.066 399.898 297.066Z" fill="#FEBD9D"/>
<path d="M505.085 320.814C499.255 332.129 492.25 332.588 483.71 330.698C474.373 327.752 480.347 311.509 485.451 304.15C491.376 300.743 497.667 298.049 504.197 296.12C506.493 303.452 509.686 311.904 505.085 320.814Z" fill="#FEBD9D"/>
<path d="M450.693 256.495C446.866 254.172 442.414 253.16 437.986 253.61C433.558 254.059 429.386 255.944 426.08 258.991L427.524 252.714L420.348 250.76C413.227 273.105 418.77 292.642 438.763 291.908L458.918 279.758C458.918 279.758 463.591 263.791 450.693 256.495ZM443.185 281.557H443.096C441.218 281.543 439.393 280.928 437.875 279.796C436.358 278.665 435.226 277.076 434.639 275.252C434.051 273.427 434.038 271.461 434.601 269.628C435.164 267.796 436.275 266.191 437.777 265.039H437.875C439.752 265.054 441.576 265.671 443.092 266.803C444.608 267.935 445.738 269.524 446.324 271.348C446.911 273.172 446.923 275.138 446.36 276.969C445.797 278.8 444.686 280.405 443.185 281.557V281.557Z" fill="#F9F9F9" stroke="#DDDDDD" stroke-linecap="round" stroke-linejoin="round"/>
<path d="M443.185 281.557C442.048 282.429 440.725 283.012 439.324 283.259C437.924 283.505 436.486 283.408 435.129 282.974C433.773 282.541 432.536 281.784 431.522 280.765C430.507 279.747 429.744 278.497 429.294 277.117C428.845 275.738 428.722 274.269 428.937 272.831C429.151 271.394 429.696 270.029 430.527 268.85C431.358 267.67 432.451 266.709 433.716 266.047C434.981 265.384 436.382 265.039 437.804 265.039C436.302 266.191 435.191 267.796 434.628 269.628C434.065 271.461 434.078 273.427 434.666 275.251C435.253 277.076 436.385 278.665 437.903 279.796C439.42 280.928 441.245 281.543 443.123 281.557H443.185Z" fill="#DDDDDD" stroke="#DDDDDD" stroke-linecap="round" stroke-linejoin="round"/>
<path d="M426.08 258.991C421.03 264.497 417.245 272.912 420.698 282.786" stroke="#DDDDDD" stroke-linecap="round" stroke-linejoin="round"/>
<path d="M453.24 275.252C453.877 262.635 442.548 251.393 428.125 257.376" stroke="#DDDDDD" stroke-linecap="round" stroke-linejoin="round"/>
<path d="M487.199 331.331C485.28 331.331 481.549 330.147 480.427 329.761L480.185 329.679C476.95 328.509 473.871 326.93 471.018 324.98C469.169 323.737 467.407 322.363 465.744 320.869C459.06 314.752 453.863 307.122 450.567 298.588C447.926 298.363 445.376 297.488 443.137 296.037C440.897 294.586 439.033 292.603 437.705 290.256C436.808 288.201 438.674 283.557 438.674 283.557C436.288 280.575 439.624 277.189 441.714 278.097C438.889 273.637 436.718 270.435 439.92 268.682C442.279 267.388 456.963 276.941 460.551 281.529C464.138 286.117 485.495 304.177 485.495 304.177C493.738 310.83 502.86 331.285 487.199 331.331Z" fill="#FEBD9D"/>
<path d="M485.441 304.159C491.72 310.05 492.752 315.061 492.752 315.061" stroke="#F4A789" stroke-width="0.75" stroke-linecap="round" stroke-linejoin="round"/>
<path d="M437.705 290.256C436.808 288.2 438.674 283.557 438.674 283.557C436.288 280.574 439.624 277.188 441.714 278.097C438.889 273.637 436.718 270.434 439.92 268.682C440.934 268.122 444.244 269.599 447.993 271.774" stroke="#F4A789" stroke-width="0.75" stroke-linecap="round" stroke-linejoin="round"/>
<path d="M457.169 186.239C457.169 186.239 456.416 195.71 457.008 197.857C457.008 197.857 449.67 203.042 446.782 201.803C446.669 201.755 446.563 201.69 446.468 201.61C443.777 199.518 442.297 186.01 442.297 186.01C442.297 186.01 431.982 184.588 430.009 180.008C430.009 180.008 421.667 181.284 423.73 174.429C422.975 174.763 422.166 174.946 421.344 174.97C420.847 175.018 420.351 174.868 419.959 174.552C419.566 174.236 419.308 173.778 419.236 173.273C418.662 170.318 426.717 169.602 426.717 169.602C424.824 165.353 430.359 162.527 435.812 167.923C433.839 164.922 436.413 162.674 441.678 164.628C447.455 166.776 452.738 172.603 451.437 176.558C451.437 176.558 456.523 176.384 459.277 179.816C462.497 183.826 459.106 185.845 457.169 186.239Z" fill="#7F542D"/>
<path d="M446.468 201.637C443.778 199.545 442.298 186.037 442.298 186.037C442.298 186.037 431.982 184.615 430.009 180.036C430.009 180.036 421.667 181.311 423.73 174.456C422.976 174.79 422.166 174.974 421.344 174.998C422.652 174.161 424.123 173.626 425.654 173.431C427.184 173.236 428.738 173.386 430.207 173.869C437.239 176.457 440.889 177.448 442.961 175.649C445.033 173.851 450.137 176.154 448.173 181.541C446.208 186.927 451.859 182.183 452.9 188.735C453.626 193.397 449.097 198.894 446.468 201.637Z" fill="#683F1D"/>
<path d="M448.8 181.367C451.653 181.322 454.412 182.411 456.496 184.404" stroke="#BF8228" stroke-width="0.75" stroke-linecap="round" stroke-linejoin="round"/>
<path d="M449.177 184.046C451.967 186.166 453.007 190.213 452.971 192.837" stroke="#BF8228" stroke-width="0.75" stroke-linecap="round" stroke-linejoin="round"/>
<path d="M453.626 209.3C453.626 209.3 452.729 217.743 453.626 221.037C453.626 221.037 450.585 236.931 439.158 237.739C433.319 238.143 430.457 234.417 429.076 230.664C428.254 228.368 427.802 225.95 427.74 223.506C427.74 223.506 420.914 224.148 416.608 215.926C415.281 213.375 414.644 209.741 414.734 205.345C414.792 203.047 415.014 200.756 415.397 198.49C416.927 190.075 419.736 181.956 423.721 174.429C423.856 177.834 427.381 179.118 431.794 177.081C431.794 177.081 431.202 182.853 438.97 180.614C438.97 180.614 438.665 184.156 443.625 182.587C449.473 180.752 444.199 191.287 449.195 198.187C449.195 198.187 454.218 192.59 458.577 196.086C464.058 200.463 458.344 208.144 453.626 209.3Z" fill="#FEBD9D"/>
<path d="M450.774 201.693C452.568 199.123 456.73 197.306 458.73 200.977" stroke="#F4A789" stroke-width="0.75" stroke-linecap="round" stroke-linejoin="round"/>
<path d="M450.155 203.904C454.317 206.419 455.599 200.298 451.671 200.674" stroke="#F4A789" stroke-width="0.75" stroke-linecap="round" stroke-linejoin="round"/>
<path d="M422.313 207.263C423.863 207.717 425.522 207.574 426.975 206.86C428.428 206.146 429.575 204.912 430.198 203.391" stroke="#F4A789" stroke-width="0.75" stroke-linecap="round" stroke-linejoin="round"/>
<path d="M453.626 209.3C451.847 209.58 450.027 209.23 448.469 208.309" stroke="#F4A789" stroke-width="0.75" stroke-linecap="round" stroke-linejoin="round"/>
<path d="M439.794 208.708C442.652 207.641 444.454 205.336 443.821 203.561C443.187 201.785 440.358 201.21 437.5 202.277C434.643 203.344 432.84 205.648 433.474 207.424C434.107 209.2 436.937 209.774 439.794 208.708Z" fill="#F4A789"/>
<path d="M419.425 203.675C418.913 205.116 416.967 205.758 414.734 205.391C414.792 203.093 415.014 200.802 415.397 198.536C418.259 199.555 420.053 201.84 419.425 203.675Z" fill="#F4A789"/>
<path d="M419.981 199.169C419.242 199.394 418.474 199.508 417.703 199.509C416.153 199.514 414.634 199.062 413.328 198.208C412.022 197.353 410.984 196.133 410.339 194.691" stroke="#683F1D" stroke-linecap="round" stroke-linejoin="round"/>
<path d="M425.641 189.644C425.735 190.167 425.783 190.699 425.785 191.231C425.789 191.767 425.738 192.303 425.632 192.828" stroke="#683F1D" stroke-linecap="round" stroke-linejoin="round"/>
<path d="M420.331 193.232C421.039 193.232 421.613 192.644 421.613 191.92C421.613 191.195 421.039 190.607 420.331 190.607C419.622 190.607 419.048 191.195 419.048 191.92C419.048 192.644 419.622 193.232 420.331 193.232Z" fill="#683F1D"/>
<path d="M429.363 194.994C429.362 195.256 429.436 195.512 429.577 195.731C429.717 195.949 429.919 196.12 430.154 196.221C430.39 196.323 430.65 196.35 430.901 196.3C431.152 196.25 431.384 196.125 431.565 195.941C431.747 195.756 431.87 195.521 431.921 195.264C431.972 195.008 431.947 194.742 431.849 194.5C431.752 194.258 431.586 194.051 431.373 193.905C431.161 193.759 430.911 193.682 430.655 193.682C430.486 193.68 430.318 193.714 430.161 193.779C430.005 193.844 429.862 193.941 429.742 194.063C429.622 194.185 429.527 194.33 429.462 194.49C429.397 194.649 429.363 194.821 429.363 194.994V194.994Z" fill="#683F1D"/>
<path d="M429.363 190.607C427.838 191.69 426.556 192.635 425.488 193.471C422.223 196.012 420.923 197.572 420.672 198.921C420.483 199.958 420.923 200.885 421.569 202.023" stroke="#F4A789" stroke-width="0.75" stroke-linecap="round" stroke-linejoin="round"/>
<path d="M431.525 183.78C432.171 182.486 435.839 184.863 436.718 186.689C437.597 188.515 430.431 185.955 431.525 183.78Z" fill="#7F542D"/>
<path d="M420.986 181.871C420.089 182.835 425.829 184.101 426.52 182.605C427.211 181.109 422.502 180.302 420.986 181.871Z" fill="#7F542D"/>
<path d="M430.197 199.426C430.197 199.565 430.144 199.698 430.048 199.796C429.952 199.894 429.822 199.949 429.686 199.949C429.551 199.947 429.422 199.891 429.327 199.793C429.232 199.696 429.177 199.564 429.175 199.426C429.175 199.357 429.188 199.289 429.214 199.226C429.239 199.162 429.277 199.105 429.325 199.056C429.372 199.008 429.428 198.969 429.49 198.943C429.552 198.916 429.619 198.903 429.686 198.903C429.754 198.902 429.821 198.914 429.883 198.94C429.946 198.966 430.003 199.005 430.05 199.053C430.098 199.102 430.136 199.16 430.161 199.224C430.186 199.288 430.199 199.357 430.197 199.426V199.426Z" fill="#F4A789"/>
<path d="M418.259 198.004C418.259 198.107 418.229 198.209 418.172 198.295C418.115 198.381 418.035 198.448 417.941 198.488C417.847 198.527 417.744 198.537 417.645 198.516C417.545 198.495 417.454 198.444 417.383 198.37C417.312 198.296 417.264 198.202 417.245 198.1C417.226 197.998 417.238 197.892 417.278 197.797C417.318 197.702 417.385 197.621 417.47 197.564C417.555 197.508 417.655 197.479 417.757 197.481C417.823 197.481 417.889 197.494 417.951 197.521C418.012 197.547 418.068 197.586 418.115 197.634C418.162 197.683 418.199 197.741 418.223 197.804C418.248 197.868 418.26 197.935 418.259 198.004V198.004Z" fill="#F4A789"/>
<path d="M420.062 195.792C420.062 195.931 420.008 196.064 419.912 196.162C419.816 196.26 419.686 196.315 419.55 196.315C419.415 196.315 419.285 196.26 419.189 196.162C419.093 196.064 419.039 195.931 419.039 195.792C419.039 195.653 419.093 195.52 419.189 195.422C419.285 195.324 419.415 195.269 419.55 195.269C419.686 195.269 419.816 195.324 419.912 195.422C420.008 195.52 420.062 195.653 420.062 195.792V195.792Z" fill="#F4A789"/>
<path d="M432.556 199.426C432.839 199.426 433.068 199.192 433.068 198.903C433.068 198.614 432.839 198.38 432.556 198.38C432.274 198.38 432.045 198.614 432.045 198.903C432.045 199.192 432.274 199.426 432.556 199.426Z" fill="#F4A789"/>
<path d="M437.813 200.656C437.811 200.794 437.756 200.926 437.661 201.023C437.565 201.121 437.436 201.177 437.302 201.179C437.166 201.179 437.036 201.124 436.94 201.026C436.844 200.928 436.79 200.795 436.79 200.656C436.789 200.587 436.802 200.518 436.827 200.454C436.852 200.39 436.89 200.332 436.937 200.283C436.985 200.234 437.042 200.196 437.105 200.17C437.167 200.144 437.234 200.132 437.302 200.133C437.437 200.133 437.567 200.188 437.663 200.286C437.759 200.384 437.813 200.517 437.813 200.656V200.656Z" fill="#F4A789"/>
<path d="M435.4 201.133C435.4 201.201 435.387 201.269 435.361 201.332C435.335 201.395 435.297 201.452 435.25 201.499C435.202 201.547 435.146 201.585 435.084 201.61C435.022 201.636 434.955 201.648 434.889 201.647C434.787 201.647 434.688 201.616 434.604 201.558C434.519 201.5 434.454 201.418 434.415 201.322C434.377 201.226 434.367 201.12 434.388 201.018C434.408 200.916 434.458 200.823 434.53 200.751C434.603 200.678 434.695 200.629 434.794 200.61C434.894 200.59 434.997 200.602 435.091 200.643C435.184 200.684 435.263 200.753 435.318 200.84C435.373 200.927 435.402 201.029 435.4 201.133V201.133Z" fill="#F4A789"/>
<path d="M432.557 202.023C432.566 202.097 432.56 202.172 432.539 202.243C432.518 202.315 432.483 202.38 432.435 202.437C432.387 202.493 432.327 202.538 432.261 202.568C432.195 202.599 432.123 202.615 432.05 202.615C431.977 202.615 431.905 202.599 431.839 202.568C431.772 202.538 431.713 202.493 431.665 202.437C431.617 202.38 431.581 202.315 431.56 202.243C431.539 202.172 431.533 202.097 431.543 202.023C431.533 201.949 431.539 201.874 431.56 201.803C431.581 201.731 431.617 201.665 431.665 201.609C431.713 201.553 431.772 201.508 431.839 201.477C431.905 201.447 431.977 201.431 432.05 201.431C432.123 201.431 432.195 201.447 432.261 201.477C432.327 201.508 432.387 201.553 432.435 201.609C432.483 201.665 432.518 201.731 432.539 201.803C432.56 201.874 432.566 201.949 432.557 202.023V202.023Z" fill="#F4A789"/>
<path d="M409.603 191.232C409.586 189.589 410.049 187.979 410.932 186.607C411.814 185.235 413.076 184.163 414.557 183.529C416.038 182.894 417.67 182.726 419.245 183.045C420.82 183.365 422.266 184.157 423.398 185.322" stroke="#683F1D" stroke-linecap="round" stroke-linejoin="round"/>
<path d="M433.875 205.758C438.343 205.758 441.966 202.052 441.966 197.481C441.966 192.909 438.343 189.204 433.875 189.204C429.407 189.204 425.784 192.909 425.784 197.481C425.784 202.052 429.407 205.758 433.875 205.758Z" stroke="#683F1D" stroke-linecap="round" stroke-linejoin="round"/>
<path d="M441.966 197.48L449.177 198.15" stroke="#683F1D" stroke-linecap="round" stroke-linejoin="round"/>
<path d="M438.234 219.367C438.234 219.367 438.001 228.543 429.076 230.663C428.254 228.367 427.802 225.95 427.74 223.505C430.673 223.368 436.593 221.248 438.234 219.367Z" fill="#F4A789"/>
<path d="M438.503 169.905C443.087 170.914 447.661 174.429 447.661 177.613" stroke="#BF8228" stroke-width="0.75" stroke-linecap="round" stroke-linejoin="round"/>
<path d="M430.198 171.777C436.091 172.566 443.706 175.594 446.343 179.421" stroke="#BF8228" stroke-width="0.75" stroke-linecap="round" stroke-linejoin="round"/>
<path d="M392.623 306.453C392.085 316.841 377.662 332.377 362.629 299.947C354.807 283.08 353.919 260.863 351.148 243.125C350.111 237.886 348.328 232.831 345.855 228.121C342.931 222.936 335.505 211.658 337.864 210.851C340.223 210.043 347.093 218.192 347.093 218.192C347.093 218.192 339.101 201.445 342.142 200.711C345.183 199.976 352.385 214.916 352.385 214.916C349.461 201.793 348.663 195.241 351.3 195.003C353.534 194.801 356.942 208.144 358.996 213.842C359.749 215.935 360.889 215.109 360.79 213.374C360.691 211.64 357.911 194.92 362.584 198.958C365.813 201.766 368.432 222.377 368.432 222.377C368.432 222.377 370.388 220.927 372.02 216.219C373.374 212.365 377.312 213.072 376.505 220.422C375.698 227.773 370.091 237.858 370.091 237.858C369.867 242.923 374.926 258.046 377.061 262.497C379.196 266.948 387.43 286.007 387.43 286.007C387.43 286.007 393.179 295.625 392.623 306.453Z" fill="#FEBD9D"/>
<path d="M342.833 222.945C339.676 217.623 336.133 211.392 337.864 210.796C340.232 209.988 347.093 218.137 347.093 218.137C347.093 218.137 339.101 201.39 342.142 200.655C345.183 199.921 352.386 214.861 352.386 214.861C349.461 201.738 348.663 195.186 351.3 194.948C353.534 194.746 356.942 208.089 358.996 213.787C359.75 215.879 360.889 215.054 360.79 213.319C360.691 211.585 357.911 194.865 362.584 198.903C365.813 201.711 368.432 222.321 368.432 222.321C368.432 222.321 370.388 220.872 372.02 216.164C373.375 212.31 377.312 213.016 376.505 220.367C376.101 224.157 374.397 228.672 372.854 232.159" stroke="#F4A789" stroke-width="0.75" stroke-linecap="round" stroke-linejoin="round"/>
<path d="M349.757 218.008C352.717 215.824 358.054 215.585 358.054 215.585" stroke="#F4A789" stroke-width="0.75" stroke-linecap="round" stroke-linejoin="round"/>
<path d="M368.36 222.321C368.36 222.321 362.252 221.404 360.422 227.607" stroke="#F4A789" stroke-width="0.75" stroke-linecap="round" stroke-linejoin="round"/>
<path d="M392.929 301.865C391.629 296.401 389.787 291.087 387.43 286.007" stroke="#F4A789" stroke-width="0.75" stroke-linecap="round" stroke-linejoin="round"/>
<path d="M369.329 216.797C369.329 216.797 375.411 220.468 375.411 220.229C375.411 219.99 383.735 204.509 383.735 204.509L375.563 200.655L369.329 216.797Z" stroke="#DDDDDD" stroke-linecap="round" stroke-linejoin="round"/>
<path d="M358.072 205.115L368.361 202.527L364.387 180.201L353.435 182.632L358.072 205.115Z" stroke="#DDDDDD" stroke-linecap="round" stroke-linejoin="round"/>
<path d="M339.559 181.155L350.932 178.87L355.507 199.82L346.178 201.435L339.559 181.155Z" stroke="#DDDDDD" stroke-linecap="round" stroke-linejoin="round"/>
<path d="M322.364 202.518L331.872 194.948L342.483 212.062L334.859 218.137L322.364 202.518Z" stroke="#DDDDDD" stroke-linecap="round" stroke-linejoin="round"/>
<path d="M246.104 336.158C240.614 346.757 235.502 370.827 233.43 381.674C233.43 381.674 251.369 388.905 279.857 387.905C308.344 386.904 314.103 381.793 314.103 381.793C314.103 381.793 317.52 347.261 308.497 332.67L246.104 336.158Z" fill="#FED81D"/>
<mask id="mask1_109_677" style="mask-type:alpha" maskUnits="userSpaceOnUse" x="233" y="332" width="82" height="56">
<path d="M246.104 336.158C240.614 346.757 235.502 370.827 233.43 381.674C233.43 381.674 251.369 388.905 279.857 387.905C308.344 386.904 314.103 381.793 314.103 381.793C314.103 381.793 317.52 347.261 308.497 332.67L246.104 336.158Z" fill="#FED81D"/>
</mask>
<g mask="url(#mask1_109_677)">
<path d="M314.829 340.599H310.21V345.325H314.829V340.599Z" stroke="white" stroke-width="0.75" stroke-linecap="round" stroke-linejoin="round"/>
<path d="M292.333 340.599H287.714V345.325H292.333V340.599Z" stroke="white" stroke-width="0.75" stroke-linecap="round" stroke-linejoin="round"/>
<path d="M269.837 340.599H265.218V345.325H269.837V340.599Z" stroke="white" stroke-width="0.75" stroke-linecap="round" stroke-linejoin="round"/>
<path d="M247.333 340.599H242.713V345.325H247.333V340.599Z" stroke="white" stroke-width="0.75" stroke-linecap="round" stroke-linejoin="round"/>
<path d="M314.829 369.808H310.21V374.534H314.829V369.808Z" stroke="white" stroke-width="0.75" stroke-linecap="round" stroke-linejoin="round"/>
<path d="M292.333 369.808H287.714V374.534H292.333V369.808Z" stroke="white" stroke-width="0.75" stroke-linecap="round" stroke-linejoin="round"/>
<path d="M269.837 369.808H265.218V374.534H269.837V369.808Z" stroke="white" stroke-width="0.75" stroke-linecap="round" stroke-linejoin="round"/>
<path d="M247.333 369.808H242.713V374.534H247.333V369.808Z" stroke="white" stroke-width="0.75" stroke-linecap="round" stroke-linejoin="round"/>
<path d="M237.008 323.631H227.779V333.074H237.008V323.631Z" stroke="white" stroke-width="0.75" stroke-linecap="round" stroke-linejoin="round"/>
<path d="M260.06 323.631H250.831V333.074H260.06V323.631Z" stroke="white" stroke-width="0.75" stroke-linecap="round" stroke-linejoin="round"/>
<path d="M283.113 323.631H273.883V333.074H283.113V323.631Z" stroke="white" stroke-width="0.75" stroke-linecap="round" stroke-linejoin="round"/>
<path d="M306.165 323.631H296.935V333.074H306.165V323.631Z" stroke="white" stroke-width="0.75" stroke-linecap="round" stroke-linejoin="round"/>
<path d="M237.008 352.84H227.779V362.283H237.008V352.84Z" stroke="white" stroke-width="0.75" stroke-linecap="round" stroke-linejoin="round"/>
<path d="M260.06 352.84H250.831V362.283H260.06V352.84Z" stroke="white" stroke-width="0.75" stroke-linecap="round" stroke-linejoin="round"/>
<path d="M283.113 352.84H273.883V362.283H283.113V352.84Z" stroke="white" stroke-width="0.75" stroke-linecap="round" stroke-linejoin="round"/>
<path d="M306.165 352.84H296.935V362.283H306.165V352.84Z" stroke="white" stroke-width="0.75" stroke-linecap="round" stroke-linejoin="round"/>
<path d="M237.008 382.05H227.779V391.493H237.008V382.05Z" stroke="white" stroke-width="0.75" stroke-linecap="round" stroke-linejoin="round"/>
<path d="M260.06 382.05H250.831V391.493H260.06V382.05Z" stroke="white" stroke-width="0.75" stroke-linecap="round" stroke-linejoin="round"/>
<path d="M283.113 382.05H273.883V391.493H283.113V382.05Z" stroke="white" stroke-width="0.75" stroke-linecap="round" stroke-linejoin="round"/>
<path d="M306.165 382.05H296.935V391.493H306.165V382.05Z" stroke="white" stroke-width="0.75" stroke-linecap="round" stroke-linejoin="round"/>
</g>
<path d="M253.594 328.477C253.594 328.477 242.301 338.076 241.709 339.186C234.309 351.272 212.387 360.935 201.991 348.151C188.734 331.835 217.168 318.383 217.168 318.383C217.168 318.383 219.859 312.812 219.949 312.436L249.477 318.383L253.594 328.477Z" fill="#FEBD9D"/>
<path d="M320.498 278.712C319.718 284.686 314.758 321.044 312.291 329.348C309.824 337.653 304.272 340.186 301.106 340.186C299.195 340.186 291.625 340.443 282.628 340.783C276.726 340.994 270.205 341.26 264.285 341.498C249.333 342.104 241.709 339.177 241.709 339.177L242.05 338.525L248.544 326.302C243.899 327.273 239.118 327.357 234.443 326.55C233.233 326.334 232.035 326.049 230.855 325.696C225.536 324.118 221.527 319.52 219.105 315.932C218.087 314.439 217.187 312.865 216.414 311.225C220.396 301.447 224.942 291.92 230.03 282.694C234.093 275.436 237.287 270.82 238.785 269.287C241.754 266.259 250.759 263.525 258.608 261.873L272.833 257.945C272.833 257.945 282.243 233.948 282.243 233.645C282.243 233.343 311.636 225.451 311.636 225.451C317.134 236.908 320.386 249.357 321.207 262.093C321.52 267.643 321.283 273.211 320.498 278.712V278.712Z" fill="#A7CAF0"/>
<path d="M282.629 340.783C276.727 340.994 270.206 341.26 264.286 341.499C249.333 342.104 241.709 339.177 241.709 339.177L242.05 338.525L248.544 326.302C253.052 317.109 257.021 307.65 260.429 297.974C260.501 297.754 260.59 297.543 260.662 297.332C261.923 299.76 262.542 302.484 262.456 305.233C262.268 312.39 249.109 331.221 259.119 335.442C268.797 339.489 276.287 332.607 282.629 340.783Z" fill="#A7CAF0"/>
<path d="M321.162 262.093C316.516 266.149 311.197 272.041 310.004 278.547C307.77 290.642 291.661 302.204 275.094 288.237C261.29 276.601 250.499 273.454 229.986 282.731C234.049 275.473 237.242 270.857 238.74 269.324C241.709 266.296 250.714 263.561 258.563 261.91L272.789 257.982C272.789 257.982 275.668 206.887 275.668 206.593C275.668 206.299 308.022 213.769 308.022 213.769C314.776 228.103 320.606 252.504 321.162 262.093Z" fill="#A7CAF0"/>
<path d="M295.213 257.945C297.458 257.731 299.67 257.235 301.797 256.468" stroke="#83ADDF" stroke-width="0.75" stroke-linecap="round" stroke-linejoin="round"/>
<path d="M248.544 326.302C253.052 317.109 257.02 307.65 260.429 297.974C260.5 297.754 260.59 297.542 260.662 297.331C261.26 295.6 261.858 293.832 262.456 292.027" stroke="#83ADDF" stroke-width="0.75" stroke-linecap="round" stroke-linejoin="round"/>
<path d="M202.01 348.169C192.188 337.662 188.618 319.621 186.438 310.995C183.747 300.469 178.697 270.884 178.087 266.424C177.478 261.964 180.518 247.979 180.518 247.979C183.451 246.869 188.788 248.998 193.973 251.806L192.744 257.202C192.525 260.602 191.736 263.939 190.412 267.066C191.966 268.28 193.263 269.803 194.224 271.545L204.333 268.792C202.225 274.454 199.848 281.345 199.902 283.474C200.018 287.347 203.409 296.202 207.158 301.892C210.907 307.581 217.168 318.382 217.168 318.382C236.283 339.599 222.909 365.467 202.01 348.169Z" fill="#FEBD9D"/>
<path d="M180.491 247.952C180.491 247.952 177.468 261.947 178.069 266.397" stroke="#F4A789" stroke-width="0.75" stroke-linecap="round" stroke-linejoin="round"/>
<path d="M183.281 228.075C183.281 228.075 187.066 253.137 188.367 261.965C177.782 263.222 173.405 247.034 181.451 241.372C174.177 236.555 173.979 222.166 183.119 220.367C180.94 212.962 192.089 203.62 200 208.905C202.566 199.325 216.702 198.912 221.662 206.896L186.178 216.522L186.878 226.919C185.613 227.314 184.384 227.699 183.281 228.075Z" fill="#DDDDDD"/>
<path d="M189.434 264.864L189.954 272.655L229.995 261.873C229.995 261.873 232.111 243.74 225.33 208.703C225.169 207.786 224.999 206.951 224.81 206.051L221.662 206.896L218.845 207.666L186.178 216.522L186.877 226.919" fill="#DDDDDD"/>
<path d="M189.434 264.864L189.954 272.655L229.995 261.873C229.995 261.873 232.111 243.74 225.33 208.703C225.169 207.786 224.999 206.951 224.81 206.051L221.662 206.896L218.845 207.666L186.178 216.522L186.877 226.919" stroke="#DDDDDD" stroke-linecap="round" stroke-linejoin="round"/>
<path d="M218.244 254.862C218.244 254.862 188.788 265.461 188.788 264.956C188.788 264.874 188.618 263.754 188.367 261.946C187.066 253.118 183.281 228.057 183.281 228.057C184.384 227.681 185.586 227.295 186.869 226.892C197.318 223.652 212.567 219.734 212.567 219.734L218.244 254.862Z" fill="#DDDDDD"/>
<path d="M190.367 234.894L206.117 230.92" stroke="white" stroke-linecap="round" stroke-linejoin="round"/>
<path d="M191.47 241.29L209.579 237.096" stroke="white" stroke-linecap="round" stroke-linejoin="round"/>
<path d="M194.932 247.649L206.118 244.896" stroke="white" stroke-linecap="round" stroke-linejoin="round"/>
<path d="M179.872 266.892C182.796 260.469 189.398 253.366 191.891 255.146C194.385 256.927 190.367 267.076 190.367 267.076C193.583 269.652 195.685 273.413 196.224 277.556C196.224 277.556 182.357 283.401 179.872 266.892Z" fill="#FEBD9D"/>
<path d="M179.872 266.892C182.796 260.469 189.398 253.366 191.891 255.146C194.385 256.927 190.367 267.076 190.367 267.076C193.583 269.652 195.685 273.413 196.224 277.556" stroke="#F4A789" stroke-width="0.75" stroke-linecap="round" stroke-linejoin="round"/>
<path d="M257.074 141.494C254.069 131.611 252.212 124.802 250.436 120.204C247.97 113.781 250.939 110.046 255.343 119.718C257.289 124.003 259.621 129.262 259.621 129.262C259.621 129.262 266.994 127.977 270.385 130.812C273.775 133.648 276.287 140.274 277.309 151.386C277.309 151.386 284.817 167.042 287.364 172.777C289.912 178.513 302.084 203.721 307.995 213.788C313.457 229.7 280.44 242.373 275.641 206.556C275.641 206.556 269.883 188.515 268.573 181.779C267.263 175.044 261.864 156.36 261.864 156.36C261.864 156.36 252.76 146.817 251.665 145.348C250.571 143.88 246.283 132.602 248.077 131.849C249.871 131.097 252.742 133.345 254.93 140.356L257.074 141.494Z" fill="#FEBD9D"/>
<path d="M251.692 145.348C250.607 143.852 246.311 132.602 248.104 131.849C249.898 131.097 252.769 133.345 254.957 140.356L257.056 141.494C254.051 131.611 252.195 124.802 250.419 120.204C247.952 113.781 250.921 110.046 255.325 119.718C257.271 124.003 259.604 129.262 259.604 129.262C259.604 129.262 264.896 128.344 268.573 129.776" stroke="#F4A789" stroke-width="0.75" stroke-linecap="round" stroke-linejoin="round"/>
<path d="M259.621 129.262L261.478 133.639" stroke="#F4A789" stroke-width="0.75" stroke-linecap="round" stroke-linejoin="round"/>
<path d="M264.169 128.996L266.044 133.235" stroke="#F4A789" stroke-width="0.75" stroke-linecap="round" stroke-linejoin="round"/>
<path d="M268.421 129.684L270.295 133.933" stroke="#F4A789" stroke-width="0.75" stroke-linecap="round" stroke-linejoin="round"/>
<path d="M301.259 212.274C307.268 210.346 312.022 211.227 313.717 218.55C315.413 225.873 307.519 232.315 299.465 230.654L301.259 212.274Z" fill="#BF8228"/>
<path d="M305.546 219.753C305.429 221.917 305.018 224.054 304.326 226.103C302.5 231.192 299.353 235.675 295.222 239.069L291.634 245.199C291.634 245.199 264.86 250.806 265.245 207.906C262.716 204.749 263.523 197.811 270.896 192.305C281.893 184.156 300.11 193.737 297.312 206.758C297.285 206.758 306.192 206.529 305.546 219.753Z" fill="#BF8228"/>
<path d="M267.524 205.97C265.954 200.464 270.941 194.224 272.672 193.333" stroke="#7F542D" stroke-width="0.75" stroke-linecap="round" stroke-linejoin="round"/>
<path d="M304.326 226.103C302.5 231.192 299.353 235.675 295.222 239.07L291.634 245.2C291.634 245.2 264.86 250.807 265.245 207.906L274.215 195.279C274 195.811 270.403 213.274 276.906 228.755C282.342 241.768 299.662 233.16 304.326 226.103Z" fill="#BF8228"/>
<path d="M295.213 239.088C293.584 244.179 292.769 249.506 292.8 254.862C284.315 259.276 275.713 260.295 266.94 256.487C266.94 256.487 267.416 253.816 267.739 250.907C267.972 249.11 268.065 247.296 268.017 245.484C260.644 245.585 255.675 239.721 255.504 231.104C255.47 228.25 255.873 225.407 256.697 222.68V222.68C257.105 221.289 257.596 219.925 258.168 218.596C258.168 218.596 256.437 216.486 256.679 214.88C256.921 213.274 261.882 210.815 261.882 210.815C266.259 202.097 274.206 195.214 274.206 195.214C274.206 195.214 268.214 202.702 269.811 214.779C269.811 214.779 276.152 210.393 277.489 218.046C278.619 224.515 273.614 227.773 271.802 228.718C271.61 228.824 271.412 228.918 271.21 229.003C271.21 229.003 272.789 240.492 283.229 242.07C285.32 242.454 287.465 242.387 289.529 241.874C291.593 241.36 293.529 240.411 295.213 239.088V239.088Z" fill="#FEBD9D"/>
<path d="M265.738 211.53C266.447 211.53 267.021 210.943 267.021 210.218C267.021 209.493 266.447 208.906 265.738 208.906C265.03 208.906 264.456 209.493 264.456 210.218C264.456 210.943 265.03 211.53 265.738 211.53Z" fill="#683F1D"/>
<path d="M287.203 207.107C295.643 204.354 297.967 220.368 294.728 226.378C291.966 231.49 279.902 230.554 278.843 221.423C277.785 212.292 285.266 207.741 287.203 207.107Z" fill="#BF8228"/>
<path d="M286.145 211.164C287.75 208.411 290.325 209.218 291.67 211.265C293.016 213.311 294.28 219.212 289.822 219.707C284.351 220.313 284.333 214.265 286.145 211.164Z" fill="#BF8228"/>
<path d="M267.775 220.368C270.008 217.376 273.273 217.211 274.457 218.872" stroke="#F4A789" stroke-width="0.75" stroke-linecap="round" stroke-linejoin="round"/>
<path d="M268.178 219.872C272.995 218.66 272.349 226.855 266.824 223.974" stroke="#F4A789" stroke-width="0.75" stroke-linecap="round" stroke-linejoin="round"/>
<path d="M271.811 228.755C270.08 229.372 268.214 229.474 266.429 229.049" stroke="#F4A789" stroke-width="0.75" stroke-linecap="round" stroke-linejoin="round"/>
<path d="M285.687 207.841C285.687 207.841 277.883 217.743 283.83 222.671C289.777 227.599 293.984 221.157 293.984 221.157" stroke="#7F542D" stroke-width="0.75" stroke-linecap="round" stroke-linejoin="round"/>
<path d="M281.095 208.906C278.73 205.377 277.231 201.316 276.726 197.068" stroke="#7F542D" stroke-width="0.75" stroke-linecap="round" stroke-linejoin="round"/>
<path d="M267.837 203.326C268.95 201.785 272.116 204.914 272.116 207.529C272.116 208.851 266.106 205.731 267.837 203.326Z" fill="#BF8228"/>
<path d="M274.215 195.251C274.215 195.251 288.145 187.442 295.626 207.841" stroke="#7F542D" stroke-width="0.75" stroke-linecap="round" stroke-linejoin="round"/>
<path d="M279.22 196.627C282.315 198.628 286.979 204.886 286.979 204.886" stroke="#7F542D" stroke-width="0.75" stroke-linecap="round" stroke-linejoin="round"/>
<path d="M287.239 209.906C286.79 212.09 284.629 218.404 292.244 217.816" stroke="#7F542D" stroke-width="0.75" stroke-linecap="round" stroke-linejoin="round"/>
<path d="M304.631 225.13C304.631 225.13 312.767 221.248 310.722 214.871" stroke="#7F542D" stroke-width="0.75" stroke-linecap="round" stroke-linejoin="round"/>
<path d="M305.519 216.789C306.874 216.357 308.354 213.513 308.354 213.513" stroke="#7F542D" stroke-width="0.75" stroke-linecap="round" stroke-linejoin="round"/>
<path d="M275.354 225.983C277.471 227.819 282.027 237.353 298.442 231.59" stroke="#7F542D" stroke-width="0.75" stroke-linecap="round" stroke-linejoin="round"/>
<path d="M294.307 210.714C303.178 212.659 301.68 222.175 299.465 225.984" stroke="#7F542D" stroke-width="0.75" stroke-linecap="round" stroke-linejoin="round"/>
<path d="M259.46 222.203C259.828 223.754 261.729 224.616 263.711 224.121C265.694 223.625 266.985 221.973 266.618 220.45C266.25 218.927 264.339 218.037 262.366 218.532C260.393 219.028 259.092 220.652 259.46 222.203Z" fill="#F4A789"/>
<path d="M278.153 236.628C283.534 240.024 293.096 239.446 299.079 235.252" stroke="#7F542D" stroke-width="0.75" stroke-linecap="round" stroke-linejoin="round"/>
<path d="M274.457 197.6C273.56 202.785 274.744 210.668 276.027 212.668" stroke="#7F542D" stroke-width="0.75" stroke-linecap="round" stroke-linejoin="round"/>
<path d="M276.726 223.938C279.902 227.259 287.634 230.792 294.415 226.892" stroke="#7F542D" stroke-width="0.75" stroke-linecap="round" stroke-linejoin="round"/>
<path d="M261.218 224.874C260.632 225.838 259.809 226.628 258.832 227.166C257.855 227.704 256.757 227.97 255.648 227.939C255.775 226.703 255.982 225.476 256.266 224.268C256.347 223.938 256.437 223.589 256.536 223.24C257.855 224.34 259.516 224.919 261.218 224.874V224.874Z" fill="white" stroke="#F4A789" stroke-width="0.75" stroke-linecap="round" stroke-linejoin="round"/>
<path d="M258.177 218.596C258.177 218.596 256.285 216.128 256.688 214.88C257.092 213.632 260.213 211.466 261.891 210.814" stroke="#F4A789" stroke-width="0.75" stroke-linecap="round" stroke-linejoin="round"/>
<path d="M274.412 243.382C274.382 245.257 273.683 247.057 272.448 248.442C271.212 249.827 269.525 250.704 267.703 250.907C267.936 249.11 268.029 247.296 267.981 245.484C271.111 245.961 274.412 243.382 274.412 243.382Z" fill="#F4A789"/>
<path d="M114.923 73.1094C114.414 73.0769 113.908 73.0126 113.407 72.9167L94.0326 99.5289L93.4675 99.3913L79.9502 95.9592C75.7345 97.7945 73.9226 93.5916 75.2322 90.5083C74.7299 91.0405 71.447 90.7102 72.927 87.2231C69.8145 88.049 67.1057 80.9646 71.4291 78.8081C67.7156 79.2486 69.1777 70.8153 73.1243 72.3845C69.9939 70.2922 74.5684 61.1614 79.9502 64.1897C77.95 62.0975 80.9638 57.3256 84.4351 58.8398C82.103 54.9397 90.7138 48.1949 95.5126 54.3065C95.8714 51.5535 99.3785 50.59 100.894 53.5816C100.778 50.1036 107.119 49.2594 106.644 54.903C108.734 52.15 113.891 56.6557 111.263 60.2988C114.241 56.8025 121.013 61.7396 117.336 65.8874C121.489 67.4199 121.121 73.449 114.923 73.1094Z" fill="#683F1D"/>
<path d="M114.923 73.1093C114.414 73.0769 113.908 73.0125 113.407 72.9166L94.0325 99.5289L93.4674 99.3912L90.3728 94.0963C81.6274 94.7754 79.2146 88.6637 82.6679 83.9469C79.977 82.6255 80.9547 73.3112 86.5249 73.8527C85.009 70.7785 88.7762 62.18 96.84 66.1351C97.7369 62.5838 103.119 61.1063 106.464 66.1351C107.855 63.0334 116.295 62.8866 114.923 73.1093Z" fill="#683F1D"/>
<path d="M107.281 115.771C106.034 128.619 87.1618 125.957 87.9781 117.368C87.9939 113.182 87.6488 109.003 86.9466 104.879C82.4617 104.649 79.8426 102.759 79.9951 97.9135C80.1476 93.0683 85.9151 89.2141 92.131 93.5271C92.7347 91.9417 92.9288 90.2239 92.6947 88.5394C92.4606 86.8548 91.8062 85.2605 90.7945 83.91C87.3053 78.872 92.4091 72.4484 97.1451 72.4484C101.881 72.4484 111.497 72.6778 111.353 67.3003C114.947 73.4688 117.728 80.0968 119.623 87.0117C119.704 87.2962 119.776 87.5806 119.847 87.8651C120.26 89.4986 120.619 91.1871 120.897 92.8939C120.951 93.2059 120.995 93.5271 121.049 93.8116C121.103 94.096 121.121 94.2612 121.148 94.4906C123.148 108.347 120.538 116.863 107.281 115.771Z" fill="#B25E47"/>
<path d="M103.899 85.2957C103.897 85.5578 103.972 85.8145 104.113 86.0333C104.254 86.252 104.456 86.4228 104.692 86.5239C104.929 86.6251 105.189 86.652 105.441 86.6013C105.692 86.5506 105.923 86.4246 106.104 86.2392C106.285 86.0539 106.408 85.8176 106.458 85.5604C106.508 85.3032 106.481 85.0367 106.382 84.7949C106.284 84.5531 106.117 84.3468 105.903 84.2023C105.689 84.0578 105.438 83.9816 105.182 83.9834C104.842 83.9858 104.518 84.1249 104.277 84.3704C104.037 84.616 103.902 84.9484 103.899 85.2957Z" fill="#683F1D"/>
<path d="M112.555 82.6348C112.54 82.8169 112.562 83.0003 112.62 83.1732C112.678 83.3461 112.771 83.5049 112.892 83.6394C113.013 83.774 113.159 83.8814 113.323 83.9548C113.487 84.0283 113.663 84.0662 113.842 84.0662C114.021 84.0662 114.198 84.0283 114.361 83.9548C114.525 83.8814 114.672 83.774 114.793 83.6394C114.914 83.5049 115.006 83.3461 115.064 83.1732C115.122 83.0003 115.144 82.8169 115.129 82.6348C115.102 82.3045 114.955 81.9966 114.717 81.7723C114.478 81.5479 114.166 81.4233 113.842 81.4233C113.518 81.4233 113.206 81.5479 112.968 81.7723C112.729 81.9966 112.582 82.3045 112.555 82.6348V82.6348Z" fill="#683F1D"/>
<path d="M90.3727 100.896C86.6952 102.887 84.7487 97.8861 89.1618 97.1336C88.6435 96.769 88.0559 96.52 87.4374 96.4029C86.8188 96.2857 86.1831 96.303 85.5715 96.4535C84.9599 96.6041 84.3861 96.8847 83.8874 97.2769C83.3887 97.6692 82.9762 98.1644 82.6768 98.7304" stroke="#914839" stroke-width="0.75" stroke-linecap="round" stroke-linejoin="round"/>
<path d="M109.532 75.6514C109.173 78.7255 109.101 82.1576 109.532 82.6348C109.963 83.112 115.326 86.8652 116.008 87.3332C116.69 87.8012 115.29 89.8384 113.129 90.6184" stroke="#914839" stroke-width="0.75" stroke-linecap="round" stroke-linejoin="round"/>
<path d="M108.402 104.356C110.94 105.925 116.842 99.6021 114.555 97.1244C110.644 92.8939 106.509 103.181 108.402 104.356Z" fill="white" stroke="#914839" stroke-width="0.75" stroke-linecap="round" stroke-linejoin="round"/>
<path d="M97.154 78.129C99.9794 73.4764 104.545 72.3569 105.11 74.0913C106.186 77.3857 94.8398 81.9373 97.154 78.129Z" fill="#683F1D"/>
<path d="M111.497 77.4132C111.497 75.633 115.981 77.716 116.466 79.0283C116.95 80.3406 111.461 79.8909 111.497 77.4132Z" fill="#683F1D"/>
<path d="M107.622 94.5459C107.173 96.4821 104.545 97.5099 101.756 96.84C98.9659 96.1701 97.0554 94.087 97.4949 92.1141C97.9344 90.1411 100.572 89.15 103.361 89.8199C106.151 90.4898 108.061 92.6371 107.622 94.5459Z" fill="#914839"/>
<path d="M121.031 93.8029C120.461 93.9205 119.87 93.8804 119.32 93.6869C118.77 93.4933 118.28 93.1533 117.901 92.7017C116.798 91.1876 117.587 88.7007 119.605 86.9663C119.686 87.2508 119.758 87.5353 119.829 87.8197C120.242 89.4532 120.601 91.1417 120.879 92.8485C120.951 93.1605 121.031 93.4817 121.031 93.8029Z" fill="#914839"/>
<path d="M137.455 341.572H137.5C137.5 341.572 141.24 333.469 135.392 329.349C131.006 326.256 121.309 326.862 119.731 323.999C119.318 323.255 123.112 316.382 128.207 307.82C134.97 296.505 144.03 282.245 148.712 275.372C156.91 263.323 161.467 250.237 147.321 234.875C139.141 227.782 127.077 236.481 119.803 256.44C117.183 263.644 107.658 289.274 103.603 300.121C100.016 309.729 97.5399 315.997 96.4725 317.823C96.3021 318.126 96.0958 318.493 95.8895 318.887C93.3959 323.687 88.7137 335.148 90.992 340.104" fill="#B25E47"/>
<path d="M137.499 341.563C137.499 341.563 94.2927 345.298 90.9918 340.122C87.8255 335.158 94.2299 321.769 96.4723 317.841C97.5397 316.006 99.9884 309.748 103.603 300.14C111.389 298.855 120.897 299.516 128.207 307.811C123.112 316.373 119.318 323.246 119.731 323.99C121.309 326.853 131.005 326.247 135.392 329.34C141.24 333.46 137.499 341.563 137.499 341.563Z" fill="#683F1D"/>
<path d="M120.457 324.806C117.139 323.404 113.922 321.76 110.833 319.888C106.805 317.383 101.092 317.208 95.9163 318.878C96.1136 318.493 96.3109 318.163 96.4724 317.878C97.5398 316.043 99.9885 309.784 103.603 300.176C111.389 298.892 120.897 299.552 128.207 307.848C123.112 316.41 119.318 323.283 119.731 324.026C119.912 324.339 120.16 324.606 120.457 324.806V324.806Z" fill="white"/>
<path d="M122.197 328.183C126.942 321.439 134.315 318.089 134.414 322.108C134.513 326.128 123.417 330.083 123.417 330.083" stroke="#683F1D" stroke-width="0.75" stroke-linecap="round" stroke-linejoin="round"/>
<path d="M122.197 326.293C121.812 320.65 128.189 312.088 130.979 313.061C134.8 314.4 126.296 324.072 120.995 328.468" stroke="#683F1D" stroke-width="0.75" stroke-linecap="round" stroke-linejoin="round"/>
<path d="M197.928 53.1229C200.243 44.864 200.879 35.5956 203.31 35.2469C205.741 34.8981 204.862 41.9733 204.862 41.9733L207.185 44.7905L199.014 55.0133L197.928 53.1229Z" fill="#B25E47"/>
<path d="M199.336 47.2224C200.646 40.9731 201.462 35.513 203.337 35.2928C205.804 34.944 204.889 42.0192 204.889 42.0192" stroke="#914839" stroke-width="0.75" stroke-linecap="round" stroke-linejoin="round"/>
<path d="M229.699 49.1956C227.993 50.5165 226.194 51.7065 224.317 52.7561C224.317 52.7561 219.258 63.9241 212.881 66.0255C212.881 66.0255 207.678 81.9103 201.22 97.3729C194.762 112.836 177.693 127.839 177.693 127.839C154.273 142.43 135.051 113.744 163.072 96.3084C165.961 94.3726 168.664 92.1602 171.145 89.7012C186.698 73.9633 211.239 31.2736 213.688 27.4195C216.137 23.5653 218.433 24.4095 216.468 30.2642C214.576 35.9445 213.132 40.3585 213.051 40.643C213.437 40.2392 223.456 29.9522 225.609 28.0894C227.618 26.3825 230.685 27.9242 227.08 33.4485C230.667 28.6767 234.103 29.2089 230.667 35.9629C228.542 40.1383 223.59 46.6078 223.285 46.9749C223.761 46.7271 231.771 42.4416 234.049 42.928C236.327 43.4143 233.251 46.5711 229.699 49.1956Z" fill="#B25E47"/>
<path d="M203.211 44.6895C208.719 35.7699 212.755 28.8415 213.679 27.3916C216.137 23.5466 218.424 24.3817 216.46 30.2363C214.567 35.9167 213.123 40.3306 213.042 40.6151C213.428 40.2113 223.447 29.9243 225.6 28.0615C227.609 26.3546 230.676 27.8963 227.071 33.4206C230.658 28.6488 234.094 29.181 230.658 35.935C228.533 40.1104 223.581 46.5799 223.276 46.947C223.752 46.6992 231.762 42.4137 234.04 42.9001C236.318 43.3865 233.143 46.5707 229.609 49.1494C227.903 50.4702 226.104 51.6603 224.227 52.7099" stroke="#914839" stroke-width="0.75" stroke-linecap="round" stroke-linejoin="round"/>
<path d="M227.097 33.4204C223.249 38.9264 217.688 45.451 217.688 45.451" stroke="#914839" stroke-width="0.75" stroke-linecap="round" stroke-linejoin="round"/>
<path d="M30.5814 286.705C29.9804 289.806 33.6311 295.505 43.0402 298.038L45.4441 280.667C40.0531 281.291 34.9224 283.375 30.5814 286.705V286.705Z" fill="#83ADDF"/>
<path d="M40.0443 280.667C39.7124 299.24 38.6989 306.646 38.6989 307.848C38.6989 307.848 26.5898 339.691 23.0558 365.339C23.0558 365.339 30.1239 378.076 50.9873 372.745C50.9873 372.745 66.2985 328.697 69.4917 317.144C72.6849 305.59 73.1962 289.348 73.1962 289.348L40.0443 280.667Z" fill="#B25E47"/>
<path d="M23.0198 166.436C23.4947 167.888 24.2511 169.227 25.2436 170.374C26.2361 171.52 27.4444 172.45 28.7962 173.107L33.604 165.638C30.0814 164.761 26.3786 165.04 23.0198 166.436V166.436Z" fill="#FCC71F"/>
<path d="M30.4826 163.151C22.2484 175.255 13.5389 189.396 17.2254 200.821C20.9119 212.246 40.986 214.659 53.2834 200.821L57.7682 169.125L30.4826 163.151Z" fill="#B25E47"/>
<path d="M50.9604 192.03C45.8118 204.877 37.0484 240.079 30.5813 286.705C30.5813 286.705 59.6161 284.87 73.8509 295.772C74.2545 295.083 81.3765 252.641 82.1837 251.109C82.991 249.576 87.9602 249.329 89.1711 250.145C90.382 250.962 117.56 267.994 120.565 268.976C137.257 274.335 156.013 245.548 147.33 234.875C143.626 230.287 133.356 220.312 118.044 193.516L50.9604 192.03Z" fill="#A7CAF0"/>
<mask id="mask2_109_677" style="mask-type:alpha" maskUnits="userSpaceOnUse" x="30" y="192" width="120" height="104">
<path d="M50.9604 192.03C45.8118 204.877 37.0484 240.079 30.5813 286.705C30.5813 286.705 59.6161 284.87 73.8509 295.772C74.2545 295.083 81.3765 252.641 82.1837 251.109C82.991 249.576 87.9602 249.329 89.1711 250.145C90.382 250.962 117.56 267.994 120.565 268.976C137.257 274.335 156.013 245.548 147.33 234.875C143.626 230.287 133.356 220.312 118.044 193.516L50.9604 192.03Z" fill="#A7CAF0"/>
</mask>
<g mask="url(#mask2_109_677)">
<path d="M148.317 211.814H143.698V216.54H148.317V211.814Z" stroke="white" stroke-width="0.75" stroke-linecap="round" stroke-linejoin="round"/>
<path d="M125.812 211.814H121.193V216.54H125.812V211.814Z" stroke="white" stroke-width="0.75" stroke-linecap="round" stroke-linejoin="round"/>
<path d="M103.316 211.814H98.6969V216.54H103.316V211.814Z" stroke="white" stroke-width="0.75" stroke-linecap="round" stroke-linejoin="round"/>
<path d="M80.8203 211.814H76.2009V216.54H80.8203V211.814Z" stroke="white" stroke-width="0.75" stroke-linecap="round" stroke-linejoin="round"/>
<path d="M58.3155 211.814H53.6962V216.54H58.3155V211.814Z" stroke="white" stroke-width="0.75" stroke-linecap="round" stroke-linejoin="round"/>
<path d="M35.8197 211.814H31.2003V216.54H35.8197V211.814Z" stroke="white" stroke-width="0.75" stroke-linecap="round" stroke-linejoin="round"/>
<path d="M148.317 241.015H143.698V245.741H148.317V241.015Z" stroke="white" stroke-width="0.75" stroke-linecap="round" stroke-linejoin="round"/>
<path d="M125.812 241.015H121.193V245.741H125.812V241.015Z" stroke="white" stroke-width="0.75" stroke-linecap="round" stroke-linejoin="round"/>
<path d="M103.316 241.015H98.6969V245.741H103.316V241.015Z" stroke="white" stroke-width="0.75" stroke-linecap="round" stroke-linejoin="round"/>
<path d="M80.8203 241.015H76.2009V245.741H80.8203V241.015Z" stroke="white" stroke-width="0.75" stroke-linecap="round" stroke-linejoin="round"/>
<path d="M58.3155 241.015H53.6962V245.741H58.3155V241.015Z" stroke="white" stroke-width="0.75" stroke-linecap="round" stroke-linejoin="round"/>
<path d="M35.8197 241.015H31.2003V245.741H35.8197V241.015Z" stroke="white" stroke-width="0.75" stroke-linecap="round" stroke-linejoin="round"/>
<path d="M148.317 270.224H143.698V274.95H148.317V270.224Z" stroke="white" stroke-width="0.75" stroke-linecap="round" stroke-linejoin="round"/>
<path d="M125.812 270.224H121.193V274.95H125.812V270.224Z" stroke="white" stroke-width="0.75" stroke-linecap="round" stroke-linejoin="round"/>
<path d="M103.316 270.224H98.6969V274.95H103.316V270.224Z" stroke="white" stroke-width="0.75" stroke-linecap="round" stroke-linejoin="round"/>
<path d="M80.8203 270.224H76.2009V274.95H80.8203V270.224Z" stroke="white" stroke-width="0.75" stroke-linecap="round" stroke-linejoin="round"/>
<path d="M58.3155 270.224H53.6962V274.95H58.3155V270.224Z" stroke="white" stroke-width="0.75" stroke-linecap="round" stroke-linejoin="round"/>
<path d="M35.8197 270.224H31.2003V274.95H35.8197V270.224Z" stroke="white" stroke-width="0.75" stroke-linecap="round" stroke-linejoin="round"/>
<path d="M48.5384 194.847H39.3086V204.289H48.5384V194.847Z" stroke="white" stroke-width="0.75" stroke-linecap="round" stroke-linejoin="round"/>
<path d="M71.5907 194.847H62.361V204.289H71.5907V194.847Z" stroke="white" stroke-width="0.75" stroke-linecap="round" stroke-linejoin="round"/>
<path d="M94.6426 194.847H85.4128V204.289H94.6426V194.847Z" stroke="white" stroke-width="0.75" stroke-linecap="round" stroke-linejoin="round"/>
<path d="M117.695 194.847H108.465V204.289H117.695V194.847Z" stroke="white" stroke-width="0.75" stroke-linecap="round" stroke-linejoin="round"/>
<path d="M140.747 194.847H131.517V204.289H140.747V194.847Z" stroke="white" stroke-width="0.75" stroke-linecap="round" stroke-linejoin="round"/>
<path d="M48.5384 224.056H39.3086V233.498H48.5384V224.056Z" stroke="white" stroke-width="0.75" stroke-linecap="round" stroke-linejoin="round"/>
<path d="M71.5907 224.056H62.361V233.498H71.5907V224.056Z" stroke="white" stroke-width="0.75" stroke-linecap="round" stroke-linejoin="round"/>
<path d="M94.6426 224.056H85.4128V233.498H94.6426V224.056Z" stroke="white" stroke-width="0.75" stroke-linecap="round" stroke-linejoin="round"/>
<path d="M117.695 224.056H108.465V233.498H117.695V224.056Z" stroke="white" stroke-width="0.75" stroke-linecap="round" stroke-linejoin="round"/>
<path d="M140.747 224.056H131.517V233.498H140.747V224.056Z" stroke="white" stroke-width="0.75" stroke-linecap="round" stroke-linejoin="round"/>
<path d="M48.5384 253.256H39.3086V262.699H48.5384V253.256Z" stroke="white" stroke-width="0.75" stroke-linecap="round" stroke-linejoin="round"/>
<path d="M71.5907 253.256H62.361V262.699H71.5907V253.256Z" stroke="white" stroke-width="0.75" stroke-linecap="round" stroke-linejoin="round"/>
<path d="M94.6426 253.256H85.4128V262.699H94.6426V253.256Z" stroke="white" stroke-width="0.75" stroke-linecap="round" stroke-linejoin="round"/>
<path d="M117.695 253.256H108.465V262.699H117.695V253.256Z" stroke="white" stroke-width="0.75" stroke-linecap="round" stroke-linejoin="round"/>
<path d="M140.747 253.256H131.517V262.699H140.747V253.256Z" stroke="white" stroke-width="0.75" stroke-linecap="round" stroke-linejoin="round"/>
<path d="M48.5384 282.465H39.3086V291.908H48.5384V282.465Z" stroke="white" stroke-width="0.75" stroke-linecap="round" stroke-linejoin="round"/>
<path d="M71.5907 282.465H62.361V291.908H71.5907V282.465Z" stroke="white" stroke-width="0.75" stroke-linecap="round" stroke-linejoin="round"/>
<path d="M94.6426 282.465H85.4128V291.908H94.6426V282.465Z" stroke="white" stroke-width="0.75" stroke-linecap="round" stroke-linejoin="round"/>
<path d="M117.695 282.465H108.465V291.908H117.695V282.465Z" stroke="white" stroke-width="0.75" stroke-linecap="round" stroke-linejoin="round"/>
<path d="M140.747 282.465H131.517V291.908H140.747V282.465Z" stroke="white" stroke-width="0.75" stroke-linecap="round" stroke-linejoin="round"/>
</g>
<path d="M79.9773 123.186C86.9647 113.799 96.6788 108.797 112.555 117.387C112.555 117.414 91.1804 127.71 79.9773 123.186Z" fill="white"/>
<path d="M178.303 135.189C178.303 135.189 141.357 148.954 139.123 151.707C136.89 154.46 130.781 175.383 127.785 186.193C124.79 197.003 122.072 199.619 122.072 199.619C122.072 199.619 96.2392 195.746 77.7258 197.242C59.2124 198.738 50.0993 198.27 47.9466 197.324C45.7938 196.379 45.3992 192.828 46.637 188.965C46.7536 188.597 46.8881 188.175 47.0317 187.698C48.5027 183.11 51.5165 173.805 51.5165 173.805C44.6149 171.268 37.5624 169.184 30.4019 167.565C27.9541 167.024 25.4771 166.632 22.984 166.39C29.1048 157.901 35.6431 149.735 42.5737 141.925C45.0942 139.172 47.7672 136.493 50.4491 134.052C58.5218 126.71 66.5945 121.204 70.6488 120.287C76.0306 119.02 83.4485 120.388 94.3107 119.213C115.515 116.919 145.142 108.43 163.036 96.2163C165.309 99.5743 167.405 103.054 169.315 106.641C172.894 113.319 175.697 120.402 177.666 127.747C177.666 127.747 178.608 132.501 178.303 135.189Z" fill="#FED81D"/>
<path d="M61.6881 140.209L51.4896 173.851C44.588 171.315 37.5355 169.23 30.375 167.611C33.1197 163.325 37.6225 160.517 42.9325 162.261C51.5254 165.133 52.5928 140.87 61.6881 140.209Z" fill="#FCC71F"/>
<path d="M169.261 106.705C153.717 107.559 128.1 120.92 116.753 137.126C103.442 156.14 84.2918 153.644 75.4208 140.209C68.8191 130.252 61.6883 131.519 50.4224 134.097C58.4951 126.756 66.5677 121.25 70.622 120.332C76.0038 119.066 83.4217 120.433 94.284 119.259C115.488 116.965 145.115 108.476 163.009 96.2622C165.274 99.6268 167.361 103.113 169.261 106.705V106.705Z" fill="#FED81D"/>
<path d="M63.0515 135.694L61.6881 140.209L51.4896 173.851" stroke="#FCC71F" stroke-width="0.75" stroke-linecap="round" stroke-linejoin="round"/>
<path d="M93.2253 219.753C100.27 220.571 107.393 220.349 114.376 219.092" stroke="#83ADDF" stroke-width="0.75" stroke-linecap="round" stroke-linejoin="round"/>
</svg>
