<svg width="599" height="548" viewBox="0 0 599 548" fill="none" xmlns="http://www.w3.org/2000/svg">
<path d="M570.335 93.1744V437.119H41.1128V93.1744C41.1088 88.6175 42.0744 84.1045 43.9543 79.8938C45.8342 75.683 48.5915 71.8571 52.0685 68.6349C55.5455 65.4126 59.6739 62.8574 64.2176 61.1152C68.7613 59.3731 73.631 58.4782 78.5482 58.4819H532.9C542.828 58.4819 552.35 62.137 559.371 68.6431C566.391 75.1492 570.335 83.9734 570.335 93.1744Z" stroke="#DDDDDD" stroke-width="2.98818" stroke-linecap="round" stroke-linejoin="round"/>
<path d="M570.335 93.1744V94.7206H41.1128V93.1744C41.1088 88.6175 42.0744 84.1045 43.9543 79.8938C45.8342 75.683 48.5915 71.8571 52.0685 68.6349C55.5455 65.4126 59.6739 62.8574 64.2176 61.1152C68.7613 59.3731 73.631 58.4782 78.5482 58.4819H532.9C542.828 58.4819 552.35 62.137 559.371 68.6431C566.391 75.1492 570.335 83.9734 570.335 93.1744Z" stroke="#DDDDDD" stroke-width="2.98818" stroke-linecap="round" stroke-linejoin="round"/>
<path d="M498.71 76.6152C498.71 77.8662 498.31 79.0892 497.559 80.1295C496.809 81.1697 495.743 81.9805 494.496 82.4593C493.249 82.938 491.877 83.0633 490.552 82.8192C489.228 82.5751 488.012 81.9727 487.058 81.088C486.103 80.2034 485.453 79.0763 485.19 77.8492C484.926 76.6222 485.061 75.3503 485.578 74.1945C486.095 73.0386 486.969 72.0507 488.092 71.3556C489.214 70.6605 490.534 70.2896 491.884 70.2896C493.694 70.2896 495.431 70.956 496.711 72.1423C497.991 73.3286 498.71 74.9375 498.71 76.6152Z" fill="#DDDDDD"/>
<path d="M520.918 76.6152C520.918 77.8662 520.517 79.0892 519.767 80.1295C519.017 81.1697 517.951 81.9805 516.704 82.4593C515.457 82.938 514.084 83.0633 512.76 82.8192C511.436 82.5751 510.22 81.9727 509.265 81.088C508.311 80.2034 507.661 79.0763 507.397 77.8492C507.134 76.6222 507.269 75.3503 507.786 74.1945C508.302 73.0386 509.177 72.0507 510.3 71.3556C511.422 70.6605 512.742 70.2896 514.092 70.2896C515.902 70.2896 517.638 70.956 518.918 72.1423C520.198 73.3286 520.918 74.9375 520.918 76.6152Z" fill="#DDDDDD"/>
<path d="M543.123 76.6152C543.123 77.8662 542.723 79.0892 541.973 80.1295C541.223 81.1697 540.157 81.9805 538.91 82.4593C537.663 82.938 536.29 83.0633 534.966 82.8192C533.642 82.5751 532.426 81.9727 531.471 81.088C530.517 80.2034 529.866 79.0763 529.603 77.8492C529.34 76.6222 529.475 75.3503 529.992 74.1945C530.508 73.0386 531.383 72.0507 532.506 71.3556C533.628 70.6605 534.948 70.2896 536.298 70.2896C538.108 70.2896 539.844 70.956 541.124 72.1423C542.404 73.3286 543.123 74.9375 543.123 76.6152Z" fill="#DDDDDD"/>
<path d="M52.3988 242.712C51.0336 228.317 119.564 201.075 130.819 222.104L108.552 242.712C108.552 242.712 62.2278 259.664 52.3988 242.712Z" fill="#83ADDF"/>
<path d="M85.9815 139.871C75.9704 111.195 75.2727 107.681 81.9164 105.46C88.5601 103.239 105.488 135.907 107.399 139.871C114.092 152.419 119.251 165.621 122.78 179.23C125.813 191.938 129.606 221.232 130.243 228.289C132.852 258.061 79.8838 267.086 77.5783 243.948C75.2727 220.811 75.03 213.304 75.03 213.304C75.03 213.304 47.727 215.722 43.8743 196.773C41.4688 181.955 40.5447 166.963 41.1136 151.988C41.1136 151.988 -0.447549 145.606 1.03894 135.457C2.52544 125.308 83.8276 145.831 83.8276 145.831L85.9815 139.871Z" fill="#B25E47"/>
<path d="M41.1136 151.988C41.1136 151.988 -0.44755 145.606 1.03894 135.457C2.52544 125.308 83.8276 145.831 83.8276 145.831L85.9815 139.871C75.9704 111.195 75.2727 107.681 81.9164 105.46C88.5601 103.239 105.488 135.907 107.399 139.871" stroke="#914839" stroke-width="1.11146" stroke-linecap="round" stroke-linejoin="round"/>
<path d="M83.7671 145.831C80.2482 158.501 80.8498 171.852 85.4963 184.206" stroke="#914839" stroke-width="1.11146" stroke-linecap="round" stroke-linejoin="round"/>
<path d="M64.2907 123.874C70.8131 127.022 75.94 127.697 77.8816 119.094C79.8231 110.491 70.8131 110.21 67.7795 110.66C63.1379 111.363 61.4998 122.496 64.2907 123.874Z" fill="#683F1D"/>
<path d="M65.5952 121.625C64.139 126.236 63.0772 131.999 63.1076 131.831C64.1997 132.337 70.449 134.333 71.4198 132.337C72.3967 128.819 73.0863 125.239 73.4827 121.625H65.5952Z" fill="#683F1D"/>
<path d="M59.71 134.698C56.282 148.755 38.6867 226.237 38.1103 228.767C37.5339 231.297 38.2923 242.992 39.3845 243.442C40.4766 243.892 46.5439 235.514 48.8192 231.269C51.0944 227.024 70.8132 142.092 72.057 138.128C75.0907 128.485 61.9549 125.477 59.71 134.698Z" fill="#683F1D"/>
<path d="M44.2076 178.64C35.683 180.467 33.2561 188.001 39.5661 193.006C46.3312 198.375 62.986 195.817 63.8354 189.098C64.6848 182.379 51.3064 177.121 44.2076 178.64Z" fill="#B25E47" stroke="#914839" stroke-width="1.11146" stroke-linecap="round" stroke-linejoin="round"/>
<path d="M43.5094 166.27C34.7724 165.089 32.6185 173.101 38.8679 179.427C45.1172 185.753 65.7158 187.046 66.8685 179.652C68.0213 172.258 48.8183 167.001 43.5094 166.27Z" fill="#B25E47" stroke="#914839" stroke-width="1.11146" stroke-linecap="round" stroke-linejoin="round"/>
<path d="M35.7131 152.437C46.695 150.02 70.4789 164.976 69.5384 169.615C68.3857 175.434 57.1914 176.334 41.2647 170.065C26.3391 164.217 30.3132 153.618 35.7131 152.437Z" fill="#B25E47" stroke="#914839" stroke-width="1.11146" stroke-linecap="round" stroke-linejoin="round"/>
<mask id="mask0_109_1899" style="mask-type:alpha" maskUnits="userSpaceOnUse" x="38" y="90" width="532" height="348">
<rect x="38.469" y="90.7275" width="531.123" height="347.168" fill="#C4C4C4"/>
</mask>
<g mask="url(#mask0_109_1899)">
<path d="M564.662 264.696C530.563 263.15 502.32 291.685 493.583 324.438C493.31 325.337 493.098 326.349 492.885 327.418C491.946 332.461 491.298 337.548 490.944 342.655C487.303 385.894 490.731 471.979 490.944 473.891C491.095 474.594 466.674 473.891 433.153 472.429C420.775 471.895 407.093 471.304 392.896 470.629C320.573 467.34 234.69 462.898 234.69 462.898L229.503 409.173C229.503 409.173 218.673 426.041 181.692 459.243C144.712 492.446 85.5251 473.891 91.8958 432.254C95.8699 406.108 112.555 386.963 132.729 354.969C138.796 345.045 145.531 333.912 152.175 320.952C161.003 303.718 169.618 287.215 177.839 272.399C181.45 265.849 184.999 259.635 188.427 253.76C201.411 231.578 213.06 214.766 222.434 206.922C250.617 183.306 310.957 196.913 327.035 201.693C351.031 208.921 375.928 213.267 401.117 214.625C436.793 216.931 490.944 231.184 519.642 240.434C536.229 245.582 551.5 253.831 564.51 264.668L564.662 264.696Z" fill="#A7CAF0"/>
<path d="M588.658 313.783C557.441 284.741 510.025 272.062 462.457 311.365C407.123 357.05 364.652 364.978 302.401 298.264C257.382 250.02 241.728 237.707 188.548 253.76C201.532 231.578 213.181 214.766 222.555 206.922C250.738 183.306 311.078 196.913 327.156 201.693C351.152 208.921 376.049 213.267 401.238 214.625C436.914 216.931 491.065 231.184 519.763 240.434C536.351 245.582 551.621 253.831 564.631 264.668V264.668C576.917 273.777 584.198 292.023 588.658 313.783Z" fill="#A7CAF0"/>
<path d="M176.991 396.803C157.181 416.791 139.222 373.412 132.791 354.969C138.858 345.045 145.593 333.912 152.236 320.951C161.064 303.718 169.68 287.215 177.901 272.399C192.554 293.175 172.744 312.208 171.348 321.626C167.89 346.76 205.568 368.098 176.991 396.803Z" fill="#83ADDF"/>
<path d="M52.3984 242.711C83.0991 248.699 130.819 222.104 130.819 222.104C130.819 222.104 157.12 330.876 163.977 354.997C170.833 379.119 214.76 473.61 129.18 477.489C74.2711 479.963 70.5701 383.224 67.3544 351.371C64.1387 319.518 52.3984 242.711 52.3984 242.711Z" fill="#A7CAF0"/>
<path d="M72.7539 255.137C96.3861 256.683 122.718 241.952 122.718 241.952" stroke="#83ADDF" stroke-width="1.11146" stroke-linecap="round" stroke-linejoin="round"/>
<path d="M130.819 222.104C130.819 222.104 157.121 330.876 163.977 354.997C167.739 368.155 182.512 402.257 181.269 431.158" stroke="#83ADDF" stroke-width="1.11146" stroke-linecap="round" stroke-linejoin="round"/>
<path d="M302.402 219.461C317.57 245.803 358.343 271.106 407.367 236.16C407.367 236.16 412.645 221.654 412.099 221.654C411.553 221.654 309.349 210.183 309.349 210.183L302.402 219.461Z" fill="white"/>
<path d="M342.75 186.793C330.13 184.15 311.806 187.102 299.186 205.067C286.566 223.031 284.959 237.875 285.687 237.707C286.415 237.538 305.436 226.461 314.142 227.164C323.534 228.643 332.815 230.671 341.931 233.237L342.75 186.793Z" fill="#FED81D"/>
<path d="M399.662 192.05C399.662 192.05 427.572 192.218 431.333 210.352C435.095 228.485 424.75 250.217 412.1 260.282C399.45 270.347 406.427 245.775 361.074 234.249L399.662 192.05Z" fill="#FED81D"/>
<path d="M413.282 213.248C413.282 213.248 397.78 235.092 363.227 235.598C328.673 236.104 322.03 216.987 322.03 216.987C325.761 208.328 330.281 189.857 333.163 176.896C334.983 168.715 336.197 162.84 336.197 162.84C336.197 162.84 341.9 111.56 401.238 114.653L402.24 123.087L413.282 213.248Z" fill="#B25E47"/>
<path d="M333.163 177.29C334.984 169.109 336.197 163.233 336.197 163.233L369.962 148.558C369.962 148.558 375.301 184.29 333.163 177.29Z" fill="#914839"/>
<path d="M229.594 409.172C224.831 358.567 224.831 317.746 224.831 317.746" stroke="#83ADDF" stroke-width="1.11146" stroke-linecap="round" stroke-linejoin="round"/>
</g>
<path d="M455.028 532.002C452.134 531.02 449.375 529.728 446.807 528.151C429.515 517.58 428.028 496.972 433.276 472.429C437.342 453.621 445.411 432.508 453.208 411.816C462.127 388.228 470.863 365.203 473.321 346.789C473.685 344.202 473.897 341.728 473.988 339.367C474.437 325.223 477.23 311.227 482.27 297.871C496.528 260.676 527.775 237.257 564.634 264.668C576.769 273.749 584.171 291.995 588.63 313.755C590.238 321.514 591.482 329.723 592.513 338.101C595.911 366.581 596.366 397.14 597.883 419.997C605.315 530.484 576.769 574.567 455.028 532.002Z" fill="#A7CAF0"/>
<path d="M588.66 313.783C561.812 288.79 522.89 275.914 482.269 297.871C496.527 260.676 527.774 237.257 564.633 264.668C576.92 273.777 584.2 292.023 588.66 313.783Z" fill="#A7CAF0"/>
<path d="M491.067 473.891C491.219 474.594 466.798 473.891 433.276 472.43C420.898 471.895 407.217 471.305 393.019 470.63C368.75 460.481 353.582 445.806 366.535 424.777C401.786 367.621 466.646 446.818 469.922 390.14C472.198 351.315 482.36 342.909 490.946 342.656C487.305 385.895 490.733 471.923 491.067 473.891Z" fill="#83ADDF"/>
<path d="M499.35 307.57C494.529 318.77 491.692 330.618 490.947 342.656C487.701 385.924 490.734 471.98 490.947 473.892" stroke="#83ADDF" stroke-width="1.11146" stroke-linecap="round" stroke-linejoin="round"/>
<path d="M455.027 532.002C452.134 531.02 449.375 529.728 446.806 528.151C474.685 533.773 516.368 538.693 534.782 524.159C563.754 501.302 545.339 472.007 561.357 455.87C577.375 439.733 600.461 434.532 592.543 338.214C595.941 366.693 596.396 397.253 597.913 420.109C605.315 530.484 576.768 574.567 455.027 532.002Z" fill="#83ADDF"/>
<path d="M385.251 338.158C389.68 319.687 364.683 320.531 364.683 320.531C366.897 303.494 342.567 298.799 336.955 315.386C317.206 309.763 310.957 315.386 308.075 325.029L385.251 338.158Z" fill="#DDDDDD"/>
<path d="M351.547 322.302C354.814 322.302 357.463 319.848 357.463 316.82C357.463 313.792 354.814 311.338 351.547 311.338C348.28 311.338 345.631 313.792 345.631 316.82C345.631 319.848 348.28 322.302 351.547 322.302Z" fill="#F9F9F9" stroke="#DDDDDD" stroke-width="1.49409" stroke-linecap="round" stroke-linejoin="round"/>
<path d="M270.518 311.366L233.628 496.748L380.124 524.159L419.47 338.524L270.518 311.366Z" fill="#F9F9F9" stroke="#DDDDDD" stroke-width="1.49409" stroke-linecap="round" stroke-linejoin="round"/>
<path d="M315.657 434.195C308.164 452.244 307.739 471.193 311.167 477.546C311.167 477.546 325.153 479.936 339.107 444.822L315.657 434.195Z" fill="#83ADDF"/>
<path d="M334.74 399.39C301.218 388.735 285.2 382.268 279.163 380.75C273.126 379.232 251.314 377.545 247.825 380.75C246.286 382.285 245.233 384.184 244.784 386.238C244.334 388.291 244.505 390.42 245.277 392.389C246.43 396.691 242.729 399.811 242.243 404.169C241.758 408.527 247.37 409.792 246.187 414.121C245.004 418.451 241.333 423.146 243.881 427.897C246.43 432.648 241.333 437.568 246.187 443.388C251.041 449.207 300.459 451.991 311.289 449.854L332.525 458.654C332.525 458.654 369.991 422.865 334.74 399.39Z" fill="#B25E47"/>
<path d="M279.041 380.667C272.974 379.176 251.192 377.462 247.704 380.667C246.164 382.201 245.112 384.1 244.662 386.154C244.213 388.207 244.383 390.336 245.155 392.306C246.308 396.607 242.607 399.728 242.122 404.085C241.636 408.443 247.249 409.708 246.065 414.038C244.882 418.367 241.212 423.062 243.76 427.813C246.308 432.565 241.212 437.485 246.065 443.304" stroke="#914839" stroke-width="1.11146" stroke-linecap="round" stroke-linejoin="round"/>
<path d="M534.962 524.159C526.255 538.75 504.413 545.807 463.003 534.196C451.809 531.075 441.009 527.814 430.695 524.525C413.585 519.099 397.81 513.532 383.673 508.219C359.018 499.131 334.879 488.885 311.35 477.518C317.553 471.129 322.557 463.821 326.155 455.899C328.415 451.197 330.272 446.337 331.706 441.364C335.573 427.61 336.603 413.302 334.74 399.193C340.383 400.768 346.45 402.361 352.942 403.973C368.383 407.881 385.675 411.957 403.21 416.23C455.753 429.05 510.389 443.754 523.707 462.028C524.92 463.686 526.073 465.401 527.165 467.144C527.59 467.819 528.045 468.522 528.439 469.225C528.562 469.406 528.673 469.594 528.773 469.787C529.258 470.602 529.744 471.474 530.199 472.317C531.028 473.798 531.786 475.288 532.474 476.787C540.088 493.515 542.303 511.62 534.962 524.159Z" fill="#A7CAF0"/>
<path d="M334.74 399.39C394.898 416.258 503.988 435.348 523.586 462.224C526.972 466.895 529.906 471.834 532.353 476.984" stroke="#83ADDF" stroke-width="1.11146" stroke-linecap="round" stroke-linejoin="round"/>
<path d="M352.7 404.085C356.431 439.03 336.955 472.57 336.955 472.57" stroke="#83ADDF" stroke-width="1.11146" stroke-linecap="round" stroke-linejoin="round"/>
<path d="M534.78 524.159C526.073 538.75 504.231 545.807 462.821 534.196C451.627 531.075 440.827 527.814 430.513 524.525C454.752 530.457 512.209 541.983 534.78 524.159Z" fill="#83ADDF"/>
<path d="M401.239 114.962L402.27 123.396C381.247 153.731 352.549 163.233 336.197 163.233C309.198 156.992 299.975 134.473 298.398 110.323C297.992 104.538 297.972 98.7359 298.337 92.9488C299.607 76.5598 302.656 60.3311 307.438 44.5087C307.438 44.5087 388.528 9.53515 394.14 79.7353C394.14 79.7353 411.523 76.9239 414.769 94.72C417.287 109.508 401.239 114.962 401.239 114.962Z" fill="#B25E47"/>
<path d="M311.352 93.0339C313.145 93.0339 314.598 91.6871 314.598 90.0258C314.598 88.3644 313.145 87.0176 311.352 87.0176C309.56 87.0176 308.106 88.3644 308.106 90.0258C308.106 91.6871 309.56 93.0339 311.352 93.0339Z" fill="#683F1D"/>
<path d="M333.922 89.2102C335.715 89.2102 337.168 87.8634 337.168 86.202C337.168 84.5407 335.715 83.1938 333.922 83.1938C332.13 83.1938 330.676 84.5407 330.676 86.202C330.676 87.8634 332.13 89.2102 333.922 89.2102Z" fill="#683F1D"/>
<path d="M328.978 70.0648C329.342 74.1414 344.45 75.6876 345.299 73.4104C346.604 69.8962 328.189 60.4499 328.978 70.0648Z" fill="#683F1D"/>
<path d="M300.189 76.0804C300.189 78.3014 316.631 79.3416 316.024 71.4698C315.63 65.8751 300.553 70.0079 300.189 76.0804Z" fill="#683F1D"/>
<path d="M389.743 101.917C396.508 92.6398 407.217 93.6519 408.339 95.4231" stroke="#914839" stroke-width="1.11146" stroke-linecap="round" stroke-linejoin="round"/>
<path d="M392.623 98.7408C402.604 93.3149 408.034 105.488 395.414 105.488" stroke="#914839" stroke-width="1.11146" stroke-linecap="round" stroke-linejoin="round"/>
<path d="M320.089 81.3105C322.819 86.2305 322.607 89.1824 320.786 92.3593C318.966 95.5361 313.475 102.705 316.357 109.059" stroke="#914839" stroke-width="1.11146" stroke-linecap="round" stroke-linejoin="round"/>
<path d="M337.775 110.155C335.378 117.774 325.64 122.553 320.938 121.569C320.938 121.569 325.64 133.405 333.922 130.369C343.448 126.911 337.775 110.155 337.775 110.155Z" fill="white" stroke="#914839" stroke-width="1.11146" stroke-linecap="round" stroke-linejoin="round"/>
<path d="M388.255 112.77C390.13 113.964 392.256 114.777 394.494 115.155C396.732 115.533 399.031 115.467 401.24 114.962" stroke="#914839" stroke-width="1.11146" stroke-linecap="round" stroke-linejoin="round"/>
<path d="M417.712 72.4824C427.056 84.3464 413.04 89.3507 413.04 89.3507C411.609 87.4499 409.731 85.8737 407.55 84.74C406.171 83.9892 404.628 83.5324 403.035 83.4029C401.442 83.2734 399.837 83.4744 398.338 83.9913C396.839 84.5082 395.483 85.328 394.369 86.3912C393.255 87.4544 392.41 88.7343 391.896 90.1379C372.814 90.5034 381.035 76.6995 381.035 76.6995C363.925 83.0251 363.379 66.8034 370.751 59.4657C357.403 73.3539 340.415 59.4657 343.206 46.9551C338.473 60.6184 321.636 61.012 323.881 49.7665C322.434 52.1034 320.682 54.2657 318.663 56.2045C307.075 66.9721 296.73 55.4455 301.068 46.927C283.715 62.249 276.192 45.0996 292.756 35.8783C279.65 25.926 295.122 11.7566 305.709 19.01C303.313 1.38262 322.91 0.595432 331.526 10.8851C334.924 -8.48533 361.074 2.08546 362.136 11.2787C381.399 -1.20385 396.325 8.01748 394.383 28.2875C402.18 18.6445 418.865 24.2954 412.585 49.0355C428.451 47.9672 431.212 66.438 417.712 72.4824Z" fill="#683F1D"/>
<path d="M407.549 84.7406C406.17 83.9898 404.628 83.533 403.035 83.4035C401.442 83.274 399.837 83.475 398.338 83.9919C396.839 84.5088 395.483 85.3286 394.369 86.3918C393.255 87.455 392.41 88.7349 391.896 90.1384C372.814 90.5039 381.035 76.7001 381.035 76.7001C363.925 83.0257 363.379 66.804 370.751 59.4663C357.403 73.3545 340.414 59.4663 343.205 46.9556C338.473 60.619 321.636 61.0125 323.881 49.767C322.434 52.1039 320.682 54.2663 318.663 56.2051C313.991 43.0759 324.457 25.7578 340.445 33.7141C342.538 23.1714 368.688 16.3397 368.536 43.0478C378.214 30.5091 400.117 34.8105 389.772 58.6791C397.902 52.719 416.65 62.5026 407.549 84.7406Z" fill="#683F1D"/>
<path d="M372.45 89.3789C374.756 93.6522 370.418 100.006 362.743 103.576C355.067 107.147 346.967 106.388 344.541 102.255C342.114 98.1223 346.573 91.628 354.248 88.0575C361.923 84.4871 370.114 85.1056 372.45 89.3789Z" fill="#914839"/>
<path d="M308.47 105.657C307.287 108.693 303.283 110.324 298.338 110.239C297.956 104.481 297.956 98.7071 298.338 92.9492C305.679 95.9293 310.169 101.383 308.47 105.657Z" fill="#914839"/>
</svg>
