<svg width="663" height="476" viewBox="0 0 663 476" fill="none" xmlns="http://www.w3.org/2000/svg">
<path d="M90.012 403.28H34.7869C31.8706 403.278 29.0747 402.131 27.0135 400.093C24.9524 398.055 23.7946 395.291 23.7946 392.41V392.41C23.7946 389.53 24.9527 386.768 27.0141 384.731C29.0756 382.694 31.8716 381.55 34.7869 381.55H90.012C92.9283 381.55 95.7253 382.694 97.7883 384.73C99.8514 386.767 101.012 389.529 101.014 392.41V392.41C101.014 393.838 100.73 395.251 100.177 396.57C99.624 397.889 98.8136 399.087 97.7919 400.097C96.7702 401.106 95.5573 401.907 94.2224 402.453C92.8876 402.999 91.4568 403.28 90.012 403.28V403.28Z" stroke="#DDDDDD" stroke-miterlimit="10"/>
<path d="M232.305 166.52H202.253C194.332 166.52 187.911 172.864 187.911 180.69V180.7C187.911 188.526 194.332 194.87 202.253 194.87H232.305C240.227 194.87 246.648 188.526 246.648 180.7V180.69C246.648 172.864 240.227 166.52 232.305 166.52Z" stroke="#DDDDDD" stroke-miterlimit="10"/>
<path d="M344.78 51.3301H289.555C286.64 51.3301 283.844 50.1859 281.782 48.1493C279.721 46.1126 278.563 43.3504 278.563 40.4701V40.4701C278.561 39.0431 278.845 37.6298 279.396 36.3111C279.948 34.9923 280.758 33.794 281.779 32.7845C282.799 31.775 284.012 30.9741 285.346 30.4277C286.68 29.8813 288.11 29.6001 289.555 29.6001H344.78C346.226 29.5988 347.657 29.879 348.993 30.4247C350.33 30.9703 351.544 31.7708 352.566 32.7803C353.589 33.7898 354.4 34.9886 354.954 36.308C355.508 37.6275 355.793 39.0418 355.793 40.4701V40.4701C355.791 41.8976 355.505 43.3108 354.951 44.6291C354.397 45.9474 353.585 47.145 352.563 48.1534C351.54 49.1619 350.327 49.9614 348.991 50.5065C347.656 51.0516 346.225 51.3314 344.78 51.3301V51.3301Z" stroke="#DDDDDD" stroke-miterlimit="10"/>
<path d="M515.961 347.31H471.425C470.102 347.31 468.832 346.791 467.897 345.866C466.961 344.942 466.435 343.688 466.435 342.38V342.38C466.435 341.073 466.961 339.819 467.897 338.894C468.832 337.97 470.102 337.45 471.425 337.45H515.961C517.285 337.45 518.554 337.97 519.49 338.894C520.426 339.819 520.952 341.073 520.952 342.38V342.38C520.952 343.688 520.426 344.942 519.49 345.866C518.554 346.791 517.285 347.31 515.961 347.31V347.31Z" stroke="#DDDDDD" stroke-miterlimit="10"/>
<path d="M148.496 91.3502H103.96C102.636 91.3502 101.367 90.8308 100.431 89.9063C99.4956 88.9817 98.9698 87.7278 98.9698 86.4202V86.4202C98.9698 85.7728 99.0989 85.1318 99.3497 84.5336C99.6005 83.9355 99.968 83.392 100.431 82.9342C100.895 82.4764 101.445 82.1133 102.05 81.8655C102.656 81.6178 103.305 81.4902 103.96 81.4902H148.496C149.152 81.4902 149.8 81.6178 150.406 81.8655C151.011 82.1133 151.561 82.4764 152.025 82.9342C152.488 83.392 152.856 83.9355 153.107 84.5336C153.357 85.1318 153.486 85.7728 153.486 86.4202V86.4202C153.486 87.7278 152.961 88.9817 152.025 89.9063C151.089 90.8308 149.82 91.3502 148.496 91.3502V91.3502Z" stroke="#DDDDDD" stroke-miterlimit="10"/>
<path d="M588.434 13.0602C601.957 19.4502 610.874 12.0602 618.709 8.36016C622.004 6.7905 625.75 6.40103 629.304 7.25838C632.858 8.11572 636.001 10.1666 638.193 13.0602L637.586 41.8402C637.586 41.8402 626.523 37.9602 620.227 41.8402C613.931 45.7202 606.4 55.2802 588.414 42.3702L588.434 13.0602Z" fill="#DDDDDD" stroke="#DDDDDD" stroke-width="2" stroke-linecap="round" stroke-linejoin="round"/>
<path d="M640.491 132.47C639.744 132.47 639.027 132.178 638.498 131.656C637.968 131.135 637.67 130.428 637.667 129.69V7.90013C637.667 7.53422 637.74 7.1719 637.882 6.83396C638.024 6.49602 638.232 6.18911 638.495 5.93083C638.757 5.67256 639.068 5.46799 639.411 5.32888C639.754 5.18976 640.121 5.11882 640.491 5.12014V5.12014C640.861 5.11882 641.228 5.18976 641.571 5.32888C641.913 5.46799 642.225 5.67256 642.487 5.93083C642.75 6.18911 642.958 6.49602 643.1 6.83396C643.242 7.1719 643.315 7.53422 643.315 7.90013V129.69C643.312 130.428 643.014 131.135 642.484 131.656C641.955 132.178 641.238 132.47 640.491 132.47V132.47Z" fill="#F9F9F9" stroke="#DDDDDD" stroke-width="2" stroke-linecap="round" stroke-linejoin="round"/>
<path d="M619.205 133.39H662" stroke="#DDDDDD" stroke-width="2" stroke-linecap="round" stroke-linejoin="round"/>
<path d="M585.964 180.69H568.767V216.81H525V258.49" stroke="#DDDDDD" stroke-width="2" stroke-linecap="round" stroke-linejoin="round"/>
<path d="M243.075 415.44H199.298V451.28H134.224V474.79H1" stroke="#DDDDDD" stroke-width="2" stroke-linecap="round" stroke-linejoin="round"/>
<path d="M415.957 293.53V323.36H361.036V355.5H306.246V387.72H251.598V415.44" stroke="#DDDDDD" stroke-width="2" stroke-linecap="round" stroke-linejoin="round"/>
<path d="M512.621 259.12H466.799V293.53H432.182" stroke="#DDDDDD" stroke-width="2" stroke-linecap="round" stroke-linejoin="round"/>
<path d="M90.012 403.28H34.7869C31.8706 403.278 29.0747 402.131 27.0135 400.093C24.9524 398.055 23.7946 395.291 23.7946 392.41V392.41C23.7946 389.53 24.9527 386.768 27.0141 384.731C29.0756 382.694 31.8716 381.55 34.7869 381.55H90.012C92.9283 381.55 95.7253 382.694 97.7883 384.73C99.8514 386.767 101.012 389.529 101.014 392.41V392.41C101.014 393.838 100.73 395.251 100.177 396.57C99.624 397.889 98.8136 399.087 97.7919 400.097C96.7702 401.106 95.5573 401.907 94.2224 402.453C92.8876 402.999 91.4568 403.28 90.012 403.28V403.28Z" stroke="#DDDDDD" stroke-miterlimit="10"/>
<path d="M232.305 166.52H202.253C194.332 166.52 187.911 172.864 187.911 180.69V180.7C187.911 188.526 194.332 194.87 202.253 194.87H232.305C240.227 194.87 246.648 188.526 246.648 180.7V180.69C246.648 172.864 240.227 166.52 232.305 166.52Z" stroke="#DDDDDD" stroke-miterlimit="10"/>
<path d="M344.78 51.3301H289.555C286.64 51.3301 283.844 50.1859 281.782 48.1493C279.721 46.1126 278.563 43.3504 278.563 40.4701V40.4701C278.561 39.0431 278.845 37.6298 279.396 36.3111C279.948 34.9923 280.758 33.794 281.779 32.7845C282.799 31.775 284.012 30.9741 285.346 30.4277C286.68 29.8813 288.11 29.6001 289.555 29.6001H344.78C346.226 29.5988 347.657 29.879 348.993 30.4247C350.33 30.9703 351.544 31.7708 352.566 32.7803C353.589 33.7898 354.4 34.9886 354.954 36.308C355.508 37.6275 355.793 39.0418 355.793 40.4701V40.4701C355.791 41.8976 355.505 43.3108 354.951 44.6291C354.397 45.9474 353.585 47.145 352.563 48.1534C351.54 49.1619 350.327 49.9614 348.991 50.5065C347.656 51.0516 346.225 51.3314 344.78 51.3301V51.3301Z" stroke="#DDDDDD" stroke-miterlimit="10"/>
<path d="M515.961 347.31H471.425C470.102 347.31 468.832 346.791 467.897 345.866C466.961 344.942 466.435 343.688 466.435 342.38V342.38C466.435 341.073 466.961 339.819 467.897 338.894C468.832 337.97 470.102 337.45 471.425 337.45H515.961C517.285 337.45 518.554 337.97 519.49 338.894C520.426 339.819 520.952 341.073 520.952 342.38V342.38C520.952 343.688 520.426 344.942 519.49 345.866C518.554 346.791 517.285 347.31 515.961 347.31V347.31Z" stroke="#DDDDDD" stroke-miterlimit="10"/>
<path d="M148.496 91.3502H103.96C102.636 91.3502 101.367 90.8308 100.431 89.9063C99.4956 88.9817 98.9698 87.7278 98.9698 86.4202V86.4202C98.9698 85.7728 99.0989 85.1318 99.3497 84.5336C99.6005 83.9355 99.968 83.392 100.431 82.9342C100.895 82.4764 101.445 82.1133 102.05 81.8655C102.656 81.6178 103.305 81.4902 103.96 81.4902H148.496C149.152 81.4902 149.8 81.6178 150.406 81.8655C151.011 82.1133 151.561 82.4764 152.025 82.9342C152.488 83.392 152.856 83.9355 153.107 84.5336C153.357 85.1318 153.486 85.7728 153.486 86.4202V86.4202C153.486 87.7278 152.961 88.9817 152.025 89.9063C151.089 90.8308 149.82 91.3502 148.496 91.3502V91.3502Z" stroke="#DDDDDD" stroke-miterlimit="10"/>
<path d="M588.434 13.0602C601.957 19.4502 610.874 12.0602 618.709 8.36016C622.004 6.7905 625.75 6.40103 629.304 7.25838C632.858 8.11572 636.001 10.1666 638.193 13.0602L637.586 41.8402C637.586 41.8402 626.523 37.9602 620.227 41.8402C613.931 45.7202 606.4 55.2802 588.414 42.3702L588.434 13.0602Z" fill="#DDDDDD" stroke="#DDDDDD" stroke-width="2" stroke-linecap="round" stroke-linejoin="round"/>
<path d="M640.491 132.47C639.744 132.47 639.027 132.178 638.498 131.656C637.968 131.135 637.67 130.428 637.667 129.69V7.90013C637.667 7.53422 637.74 7.1719 637.882 6.83396C638.024 6.49602 638.232 6.18911 638.495 5.93083C638.757 5.67256 639.068 5.46799 639.411 5.32888C639.754 5.18976 640.121 5.11882 640.491 5.12014V5.12014C640.861 5.11882 641.228 5.18976 641.571 5.32888C641.913 5.46799 642.225 5.67256 642.487 5.93083C642.75 6.18911 642.958 6.49602 643.1 6.83396C643.242 7.1719 643.315 7.53422 643.315 7.90013V129.69C643.312 130.428 643.014 131.135 642.484 131.656C641.955 132.178 641.238 132.47 640.491 132.47V132.47Z" fill="#F9F9F9" stroke="#DDDDDD" stroke-width="2" stroke-linecap="round" stroke-linejoin="round"/>
<path d="M619.205 133.39H662" stroke="#DDDDDD" stroke-width="2" stroke-linecap="round" stroke-linejoin="round"/>
<path d="M585.964 180.69H568.767V216.81H525V258.49" stroke="#DDDDDD" stroke-width="2" stroke-linecap="round" stroke-linejoin="round"/>
<path d="M243.075 415.44H199.298V451.28H134.224V474.79H1" stroke="#DDDDDD" stroke-width="2" stroke-linecap="round" stroke-linejoin="round"/>
<path d="M415.957 293.53V323.36H361.036V355.5H306.246V387.72H251.598V415.44" stroke="#DDDDDD" stroke-width="2" stroke-linecap="round" stroke-linejoin="round"/>
<path d="M512.621 259.12H466.799V293.53H432.182" stroke="#DDDDDD" stroke-width="2" stroke-linecap="round" stroke-linejoin="round"/>
<path d="M478.247 15.5228C472.174 16.7228 469.981 22.6894 469.643 25.5228H474.198C480.44 29.1894 493.632 35.5228 496.466 31.5228C500.009 26.5228 494.442 18.0228 489.381 15.5228C484.32 13.0228 485.838 14.0228 478.247 15.5228Z" fill="#7F542D"/>
<path d="M491.051 31.0104C491.051 31.0104 490.849 31.4704 490.484 32.2504C490.12 33.0304 489.766 33.7204 489.239 34.7004C488.885 35.3804 488.49 36.1104 488.045 36.8804C487.782 37.3504 487.498 37.8804 487.195 38.3304L486.901 38.8004C486.233 39.8904 485.494 41.0204 484.685 42.1304C484.118 42.9104 483.521 43.6904 482.893 44.4404C477.974 50.3304 473.844 47.8604 473.844 47.8604C472.691 48.8514 471.733 50.0448 471.02 51.3804C470.02 53.2097 469.297 55.1739 468.874 57.2104C457.264 65.5703 449.896 54.5504 453.347 44.7504C458.044 40.3801 462.233 35.5068 465.838 30.2204C462.092 25.3004 468.328 21.0104 471.192 23.8304L477.397 20.9903C490.474 17.5703 491.051 31.0104 491.051 31.0104Z" fill="#FEBD9D"/>
<path d="M471.668 29.5C472.073 27.5 470.824 24.3333 470.15 23L474.704 20.5L480.778 18.5C477.572 23 471.263 31.5 471.668 29.5Z" fill="#7F542D"/>
<path d="M467.508 25.0703C469.147 25.0703 470.544 25.7303 470.23 28.2203" stroke="#F4A789" stroke-width="0.75" stroke-linecap="round" stroke-linejoin="round"/>
<path d="M469.157 29.4005C466.779 27.9405 468.864 26.0205 470.17 27.2305" stroke="#F4A789" stroke-width="0.75" stroke-linecap="round" stroke-linejoin="round"/>
<path d="M480.798 41.8403C479.087 41.3103 478.348 39.1703 478.773 37.3203C474.218 40.4603 477.619 44.1803 480.798 41.8403Z" fill="white" stroke="#F4A789" stroke-width="0.75" stroke-linecap="round" stroke-linejoin="round"/>
<path d="M481.972 39.2302C483.51 39.2302 484.857 39.4902 485.221 36.6202C485.311 35.803 485.601 35.0195 486.064 34.3369C486.528 33.6542 487.152 33.0926 487.883 32.7002" stroke="#F4A789" stroke-width="0.75" stroke-linecap="round" stroke-linejoin="round"/>
<path d="M465.838 30.2202C466.396 30.9929 467.18 31.5789 468.085 31.9002" stroke="#F4A789" stroke-width="0.75" stroke-linecap="round" stroke-linejoin="round"/>
<path d="M481.85 33.9004C481.85 34.0982 481.91 34.2915 482.021 34.456C482.132 34.6204 482.29 34.7486 482.475 34.8243C482.66 34.9 482.864 34.9198 483.06 34.8812C483.257 34.8426 483.437 34.7474 483.578 34.6075C483.72 34.4676 483.816 34.2895 483.855 34.0955C483.894 33.9015 483.874 33.7004 483.798 33.5177C483.721 33.335 483.591 33.1788 483.425 33.0689C483.259 32.959 483.063 32.9004 482.863 32.9004C482.594 32.9004 482.337 33.0057 482.147 33.1933C481.957 33.3808 481.85 33.6352 481.85 33.9004Z" fill="#683F1D"/>
<path d="M488.045 36.9002C487.782 37.3702 487.499 37.9002 487.195 38.3502H487.124C486.856 38.3502 486.598 38.2449 486.408 38.0573C486.218 37.8698 486.112 37.6155 486.112 37.3502C486.112 37.085 486.218 36.8307 486.408 36.6431C486.598 36.4556 486.856 36.3502 487.124 36.3502C487.314 36.3471 487.502 36.397 487.665 36.4943C487.828 36.5916 487.959 36.7323 488.045 36.9002Z" fill="#683F1D"/>
<path d="M481.466 28.9004C480.98 30.3504 485.515 31.9004 486.193 30.4004C486.871 28.9004 482.083 27.0104 481.466 28.9004Z" fill="#683F1D"/>
<path d="M490.484 32.2501C490.181 32.8801 489.766 33.7201 489.239 34.7001C488.339 33.7001 487.509 32.3801 487.802 31.8701C488.268 31.0601 489.533 31.6301 490.484 32.2501Z" fill="#683F1D"/>
<path d="M473.844 47.9003C472.691 48.8913 471.733 50.0848 471.02 51.4203C465.149 47.0503 468.884 42.0703 468.884 42.0703C469.908 44.4612 471.636 46.4925 473.844 47.9003V47.9003Z" fill="#F4A789"/>
<path d="M497.054 30.0603C496.973 31.6903 495.454 33.3203 492.894 33.3603C490.515 33.3603 488.764 30.7103 489.159 28.1003C489.159 28.1003 485.11 29.0303 484.432 23.8203C484.432 23.8203 481.132 26.4803 479.371 22.1603C477.377 23.9004 475.554 25.8222 473.925 27.9003C471.901 30.7003 470.889 30.3103 470.828 29.1203C470.767 27.9303 472.032 25.9603 472.184 25.7203C473.498 24.9263 474.596 23.8279 475.383 22.5203C477.954 18.7303 480.595 16.3903 482.873 19.1903C485.15 21.9903 487.782 19.1903 488.784 22.5803C489.735 25.8303 491.881 30.8403 497.054 30.0603Z" fill="#683F1D"/>
<path d="M482.316 14.4902C482.448 17.4202 479.826 20.9402 479.826 20.9402" stroke="#7F542D" stroke-width="0.75" stroke-linecap="round" stroke-linejoin="round"/>
<path d="M485.251 22.6904C485.79 21.7189 486.538 20.876 487.442 20.2211C488.346 19.5663 489.385 19.1154 490.484 18.9004" stroke="#7F542D" stroke-width="0.75" stroke-linecap="round" stroke-linejoin="round"/>
<path d="M489.665 27.2203C491.129 26.3371 492.83 25.9151 494.543 26.0103" stroke="#7F542D" stroke-width="0.75" stroke-linecap="round" stroke-linejoin="round"/>
<path d="M473.662 21.9004C474.207 22.1346 474.685 22.498 475.054 22.9585C475.423 23.419 475.672 23.9624 475.777 24.5404" stroke="#7F542D" stroke-width="0.75" stroke-linecap="round" stroke-linejoin="round"/>
<path d="M477.964 35.4704C476.618 35.8404 475.15 34.7404 474.674 33.0304C474.198 31.3204 474.907 29.6304 476.253 29.2704C477.599 28.9104 479.077 30.0004 479.543 31.7104C480.008 33.4204 479.28 35.1104 477.964 35.4704Z" fill="#F4A789"/>
<path d="M486.901 38.8003C486.233 39.8903 485.494 41.0203 484.685 42.1303C484.596 41.951 484.537 41.7584 484.512 41.5603C484.514 40.8948 484.755 40.2516 485.193 39.7458C485.63 39.2401 486.236 38.9049 486.901 38.8003V38.8003Z" fill="#F4A789"/>
<path d="M506.194 166.451C504.706 179.941 494.564 173.451 480.403 171.591L472.548 171.281L420.309 169.281L415.947 169.111L431.13 126.811C464.704 136.651 508.076 149.271 506.194 166.451Z" fill="#FED81D"/>
<path d="M472.548 171.28L420.309 169.28L421.868 158L429.004 139.9C429.004 139.9 441.049 139.18 437.385 149.59C433.721 160 435.188 167.38 454.218 162.47C465.716 159.48 470.534 165.81 472.548 171.28Z" fill="#FCC71F"/>
<path d="M444.369 110.901C435.472 122.351 430.654 147.161 429.54 162.051C428.741 172.771 427.111 200.381 423.032 223.471C408.952 253.301 389.549 239.211 390.642 218.191V218.081C392.535 202.681 391.654 189.501 389.923 183.991C387.575 176.671 381.775 152.271 380.814 142.261C378.648 120.261 383.658 101.501 390.936 90.7905L444.369 110.901Z" fill="#FED81D"/>
<path d="M429.004 169.591C429.217 166.591 429.399 164.061 429.54 162.091C430.251 153.478 431.653 144.934 433.731 136.541" stroke="#FCC71F" stroke-width="0.75" stroke-linecap="round" stroke-linejoin="round"/>
<path d="M396.28 106.71C388.081 161.19 403.851 181.71 401.452 212.23C400.588 220.642 399.027 228.97 396.786 237.13" stroke="#FCC71F" stroke-width="0.75" stroke-linecap="round" stroke-linejoin="round"/>
<path d="M393.962 132.471C399.964 126.18 403.45 117.95 403.77 109.311" stroke="#FCC71F" stroke-width="0.75" stroke-linecap="round" stroke-linejoin="round"/>
<path d="M429.793 119.13C429.793 119.13 427.222 130.83 426.19 134.13C426.19 134.13 429.793 134.7 431.079 132.46C432.364 130.22 434.773 120.46 434.773 120.46" stroke="#FCC71F" stroke-width="0.75" stroke-linecap="round" stroke-linejoin="round"/>
<path d="M489.674 96.1704L484.512 117.87C483.095 125.04 482.71 130.87 481.911 135.11C480.808 141.03 478.874 144.03 472.386 143.69L472.123 143.62L471.192 143.37L470.574 143.19L469.765 142.92C469.41 142.79 469.066 142.66 468.752 142.52C468.165 142.287 467.591 142.023 467.032 141.73L466.424 141.4C465.525 140.902 464.675 140.323 463.884 139.67C463.728 139.552 463.58 139.425 463.438 139.29C462.267 138.278 461.26 137.095 460.452 135.78C460.227 135.425 460.021 135.057 459.835 134.68C459.343 133.724 458.956 132.718 458.681 131.68C458.631 131.5 458.59 131.33 458.55 131.16C458.509 130.99 458.458 130.76 458.428 130.57C458.398 130.38 458.367 130.23 458.337 130.06C458.196 129.184 458.159 128.295 458.226 127.41C458.57 123.75 463.155 85.9904 463.155 85.9904L464.835 81.8904L467.082 76.4004L489.674 96.1704Z" fill="#A7CAF0"/>
<path d="M481.911 135.111C480.808 141.031 478.874 144.031 472.386 143.691L472.103 143.621L471.172 143.371L470.554 143.191L469.744 142.921C469.39 142.791 469.046 142.661 468.732 142.521C468.145 142.287 467.571 142.024 467.011 141.731L466.404 141.401C465.505 140.902 464.655 140.323 463.864 139.671C463.708 139.552 463.559 139.425 463.418 139.291C462.247 138.279 461.24 137.095 460.432 135.781C460.207 135.425 460.001 135.058 459.815 134.681C459.323 133.724 458.936 132.719 458.661 131.681C458.61 131.501 458.57 131.331 458.529 131.161C458.489 130.991 458.438 130.761 458.408 130.571C458.377 130.381 458.347 130.231 458.317 130.061C458.176 129.185 458.138 128.295 458.205 127.411C458.55 123.751 463.135 85.9906 463.135 85.9906L464.815 81.8906C468.449 88.7606 472.751 99.8906 467.74 107.461C460.027 119.121 461.161 138.041 476.455 135.581C478.259 135.285 480.083 135.128 481.911 135.111Z" fill="#A7CAF0"/>
<path d="M474.684 78.9804C473.334 80.0204 471.985 81.1404 470.635 82.3404C457.72 93.9304 445.988 112.34 442.679 114.34C437.911 117.16 426.737 115.54 416.018 112.85C407.952 110.869 400.048 108.292 392.373 105.14C385.885 102.14 384.275 100.29 385.358 97.9104C386.441 95.5304 392.889 80.6604 392.889 80.6604L391.3 79.1104L373.718 61.9904C384.134 54.2304 397.768 45.5604 410.289 40.7404C418.781 37.4804 426.747 36.0004 432.85 37.7404L474.684 78.9804Z" fill="#A7CAF0"/>
<path d="M474.684 78.9804C473.334 80.0204 471.985 81.1404 470.635 82.3404C457.052 82.5604 444.096 91.7004 432.648 81.8804C418.477 69.7304 431.302 60.7304 422.526 48.8804C419.432 44.9498 415.159 42.0866 410.319 40.7004C418.811 37.4404 426.777 35.9604 432.881 37.7004L474.684 78.9804Z" fill="#A7CAF0"/>
<path d="M416.028 112.831C407.962 110.85 400.058 108.272 392.383 105.121C385.895 102.121 384.285 100.271 385.368 97.8906C386.451 95.5106 392.899 80.6406 392.899 80.6406L391.31 79.0906C396.371 73.8306 403.385 66.5306 403.77 66.0906C404.387 65.3706 419.196 70.2506 419.196 70.2506C419.196 70.2506 418.7 86.6206 405.147 88.1806C391.593 89.7406 394.013 100.401 406.027 101.851C413.75 102.761 415.653 108.681 416.028 112.831Z" fill="#A7CAF0"/>
<path d="M374.69 61.2605C353.221 73.5705 371.431 115.62 418.75 73.6305C423.74 50.0005 396.857 47.0305 374.69 61.2605Z" fill="#A7CAF0"/>
<path d="M474.684 78.9805C470.756 82.0667 467.105 85.4827 463.773 89.1905" stroke="#83ADDF" stroke-width="0.75" stroke-linecap="round" stroke-linejoin="round"/>
<path d="M370.975 302.081C370.975 302.081 361.866 313.831 363.161 323.361H406.544C406.544 323.361 387.251 312.221 386.249 304.061L370.975 302.081Z" fill="#683F1D"/>
<path d="M423.467 220.95C423.326 221.81 423.184 222.66 423.032 223.5C421.453 232.5 419.5 240.76 417.08 247.11C408.426 269.81 393.8 305.32 393.8 305.32L365.914 303.03C367.939 297.66 378.061 274.85 387.767 233.96C389.008 228.744 389.951 223.462 390.591 218.14C390.642 217.76 390.683 217.37 390.723 216.99C392.818 204.6 419.368 192.67 423.467 220.95Z" fill="#FED81D"/>
<path d="M401.705 205C401.705 207.36 401.655 209.76 401.462 212.23C399.053 242.77 374.639 302.56 374.447 303.74" stroke="#FCC71F" stroke-width="0.75" stroke-linecap="round" stroke-linejoin="round"/>
<path d="M477.052 237.831C477.052 237.831 472.923 249.591 474.168 259.121H512.631C512.631 259.121 493.349 247.981 492.387 239.811L477.052 237.831Z" fill="#683F1D"/>
<path d="M506.517 174.47C503.349 197.89 497.286 241.15 497.286 241.15H472.093L480.403 171.59C480.514 159.48 488.835 146.59 497.337 152.23C509.048 160.05 507.135 169.9 506.517 174.47Z" fill="#FED81D"/>
<path d="M526.103 145.12C526.103 145.12 515.981 145.48 504.108 145.48C494.321 145.48 483.359 145.24 476 144.34C475.433 144.27 474.887 144.19 474.35 144.09C474.107 144.09 473.864 144.01 473.631 143.96C473.399 143.91 473.227 143.89 473.024 143.84C472.67 143.77 472.326 143.68 472.012 143.6L471 143.31L470.767 143.24L469.907 142.95L469.755 142.9L468.743 142.52C468.705 142.512 468.671 142.494 468.641 142.47C457.163 135.25 456.819 127.32 463.084 122.47C467.487 119.01 475.17 117.07 484.553 117.92L524.352 125.79L526.103 145.12Z" fill="#A7CAF0"/>
<path d="M504.108 145.48C494.321 145.48 483.359 145.24 476 144.34C475.433 144.27 474.887 144.19 474.35 144.09C474.107 144.09 473.864 144.01 473.631 143.96C473.399 143.91 473.227 143.89 473.024 143.84C472.67 143.77 472.326 143.68 472.012 143.6L471 143.31L470.767 143.24L469.907 142.95L469.755 142.9L468.743 142.52C468.705 142.512 468.671 142.495 468.641 142.47C457.163 135.25 456.819 127.32 463.084 122.47C462.983 130.47 467.022 137.14 476.466 135.62C489.401 133.48 500.586 138.56 504.108 145.48Z" fill="#A7CAF0"/>
<path d="M484.523 117.9C481.841 117.455 479.138 117.145 476.425 116.97" stroke="#83ADDF" stroke-width="0.75" stroke-linecap="round" stroke-linejoin="round"/>
<path d="M585.964 180.69L574.334 176.18L556.742 169.34C556.742 169.34 467.568 82.1304 424.854 40.2404C413.103 28.7104 404.863 20.6204 402.97 18.7204C396.675 12.3804 411.584 -4.27962 419.55 2.66038C420.168 3.21038 428.437 11.1304 440.867 23.0804C483.571 64.0804 575.488 152.64 575.488 152.64L581.642 169.08L585.964 180.69Z" fill="#F9F9F9" stroke="#DDDDDD" stroke-width="2" stroke-linecap="round" stroke-linejoin="round"/>
<path d="M448.205 41.1904L562.846 150.76" stroke="#DDDDDD" stroke-linecap="round" stroke-linejoin="round"/>
<path d="M443.316 48.6006L556.945 157.211" stroke="#DDDDDD" stroke-linecap="round" stroke-linejoin="round"/>
<path d="M581.611 169.081C578.427 170.544 575.856 173.054 574.334 176.181L556.742 169.341C556.742 169.341 557.228 163.551 563.726 164.441C562.329 160.691 565.133 156.441 569.931 159.501C569.931 159.501 568.919 153.391 575.457 152.641L581.611 169.081Z" fill="#F9F9F9" stroke="#DDDDDD" stroke-width="2" stroke-linecap="round" stroke-linejoin="round"/>
<path d="M585.964 180.691L574.334 176.181C575.856 173.054 578.428 170.544 581.612 169.081L585.964 180.691Z" fill="#DDDDDD" stroke="#DDDDDD" stroke-width="2" stroke-linecap="round" stroke-linejoin="round"/>
<path d="M440.867 23.0804C435.533 28.7904 429.682 35.0804 424.854 40.2404C413.103 28.7104 404.863 20.6204 402.97 18.7204C396.675 12.3804 411.584 -4.27962 419.55 2.66038C420.168 3.21038 428.437 11.1304 440.867 23.0804Z" stroke="#DDDDDD" stroke-width="2" stroke-linecap="round" stroke-linejoin="round"/>
<path d="M435.016 17.4604L418.629 34.1404" stroke="#DDDDDD" stroke-width="2" stroke-linecap="round" stroke-linejoin="round"/>
<path d="M517.024 132.47C525.86 125.15 527.864 125.24 528.684 126.2C529.504 127.16 525.84 131.36 524.636 132.47C524.636 132.47 532.116 126.93 534.282 128.26C536.448 129.59 533.604 132.47 533.604 132.47C533.604 132.47 537.774 132.4 535.091 136.83C535.091 136.83 537.258 136.83 535.992 139.04C534.727 141.25 526.953 146.52 524.119 145.18C521.285 143.84 512.752 136.02 517.024 132.47Z" fill="#FEBD9D"/>
<path d="M520.86 129.43C526.488 125.2 527.945 125.43 528.684 126.2C529.423 126.97 525.84 131.36 524.636 132.47C524.636 132.47 532.116 126.93 534.282 128.26C536.448 129.59 533.604 132.47 533.604 132.47C533.604 132.47 537.774 132.4 535.091 136.83C535.091 136.83 537.258 136.83 535.992 139.04" stroke="#F4A789" stroke-width="0.75" stroke-linecap="round" stroke-linejoin="round"/>
<path d="M533.614 132.47L525.719 137.51" stroke="#F4A789" stroke-width="0.75" stroke-linecap="round" stroke-linejoin="round"/>
<path d="M527.814 141.311L535.102 136.831" stroke="#F4A789" stroke-width="0.75" stroke-linecap="round" stroke-linejoin="round"/>
<path d="M524.646 132.47L522.358 134.32" stroke="#F4A789" stroke-width="0.75" stroke-linecap="round" stroke-linejoin="round"/>
<path d="M432.031 70.1904C432.987 66.1336 432.876 61.9025 431.707 57.9004L422.789 62.1004C422.789 62.1004 426.038 70.9004 432.031 70.1904Z" fill="#A7CAF0"/>
<path d="M422.668 46.7103C425.172 46.4619 427.657 46.0544 430.108 45.4903C430.644 45.1903 434.49 42.1503 436.181 41.0503C437.871 39.9503 444.744 35.5603 445.392 35.9703C446.039 36.3803 446.272 38.3703 445.037 39.8303C445.037 39.8303 452.538 36.6803 455.777 36.3003C458.419 35.9903 457.902 38.4503 456.131 39.5803C458.965 38.3403 462.336 39.5803 458.499 42.2803C461.091 41.8403 462.437 43.8103 458.378 46.7103C460.625 45.4903 462.153 47.1503 460.089 49.2203C456.728 52.6003 449.815 55.2203 447.629 56.0403C445.442 56.8603 431.585 59.9003 426.211 62.9003C426.211 62.9003 421.585 54.6903 422.668 46.7103Z" fill="#FEBD9D"/>
<path d="M436.191 41.0503C437.901 39.9503 444.754 35.5603 445.402 35.9703C446.049 36.3803 446.282 38.3703 445.047 39.8303C445.047 39.8303 452.548 36.6803 455.787 36.3003C458.428 35.9903 457.912 38.4503 456.141 39.5803C458.975 38.3403 462.346 39.5803 458.509 42.2803C461.101 41.8403 462.447 43.8103 458.388 46.7103C460.635 45.4903 462.163 47.1503 460.099 49.2203" stroke="#F4A789" stroke-width="0.75" stroke-linecap="round" stroke-linejoin="round"/>
<path d="M445.047 39.8301L441.171 41.7101" stroke="#F4A789" stroke-width="0.75" stroke-linecap="round" stroke-linejoin="round"/>
<path d="M456.141 39.5801L448.205 43.2201" stroke="#F4A789" stroke-width="0.75" stroke-linecap="round" stroke-linejoin="round"/>
<path d="M458.509 42.2803L449.896 46.7103" stroke="#F4A789" stroke-width="0.75" stroke-linecap="round" stroke-linejoin="round"/>
<path d="M458.388 46.7104L451.637 50.5005" stroke="#F4A789" stroke-width="0.75" stroke-linecap="round" stroke-linejoin="round"/>
<path d="M426.646 43.9805C412.789 45.3705 387.788 49.4705 369.042 62.8705C361.785 68.0505 361.896 89.8705 381.704 88.0605C401.513 86.2505 432.061 70.1905 432.061 70.1905C432.061 70.1905 424.206 68.4805 426.646 43.9805Z" fill="#A7CAF0"/>
<path d="M393.962 85.6605C412.07 80.6605 432.031 70.1905 432.031 70.1905C432.031 70.1905 424.206 68.4805 426.615 43.9805C416.016 44.9937 405.55 47.0745 395.379 50.1905" stroke="#83ADDF" stroke-width="0.75" stroke-linecap="round" stroke-linejoin="round"/>
<path d="M293.725 260.121C293.725 260.121 265.009 323.991 250.768 350.381C227.042 366.901 223.348 349.901 227.123 336.221C228.763 332.841 233.581 317.741 238.622 300.691C242.893 286.231 247.316 270.381 250.1 259.121L282.581 259.861L293.725 260.121Z" fill="#83ADDF"/>
<path d="M283.451 263.901C280.597 284.121 255.596 272.421 253.177 284.121C251.972 289.971 247.387 295.821 238.622 300.731C242.893 286.271 247.316 270.421 250.1 259.161L282.581 259.901C283.385 261.072 283.697 262.506 283.451 263.901V263.901Z" fill="#83ADDF"/>
<path d="M262.317 274.181C259.675 275.381 261.305 276.851 262.054 279.031C262.803 281.211 258.886 280.681 259.017 283.631C259.149 286.581 260.596 284.931 259.017 289.371C257.489 293.661 240.16 336.761 234.219 346.181" stroke="#A7CAF0" stroke-width="0.75" stroke-linecap="round" stroke-linejoin="round"/>
<path d="M328.949 260.491C328.949 260.491 293.523 267.691 269.453 269.911C254.746 271.281 244.867 266.511 240.049 259.341C238.523 257.047 237.47 254.48 236.949 251.784C236.428 249.088 236.449 246.318 237.012 243.631C248.976 229.631 262.935 225.491 274.544 225.041C282.774 224.732 290.977 226.146 298.614 229.191C327.785 226.741 344.082 227.961 352.857 231.701C367.939 249.501 349.952 256.051 328.949 260.491Z" fill="#83ADDF"/>
<path d="M253.906 232.95C253.359 242.95 257.489 246.42 279.271 246.11C303.24 245.77 336.672 243.61 338.464 243.92C342.118 244.55 335.012 250.27 337.523 250.36C340.833 250.49 344.406 250.97 342.584 253.21C340.762 255.45 338.798 256.36 340.144 257.75" stroke="#A7CAF0" stroke-width="0.75" stroke-linecap="round" stroke-linejoin="round"/>
<path d="M247.863 266.35C253.197 269.27 260.414 270.75 269.453 269.92C279.099 269.03 290.557 267.34 300.831 265.63" stroke="#83ADDF" stroke-width="0.75" stroke-linecap="round" stroke-linejoin="round"/>
<path d="M336.996 216.901C336.298 219.661 334.355 222.251 330.508 224.341C330.053 224.481 329.587 224.611 329.122 224.731C328.656 224.851 328.261 224.921 327.826 225.001L327.016 225.111L326.46 225.171H326.186C325.721 225.171 325.255 225.221 324.789 225.221C317.269 225.221 309.151 220.471 303.068 207.551C303.068 207.551 299.242 214.731 298.189 219.341C298.034 219.953 297.942 220.58 297.916 221.211C297.871 223.896 298.122 226.579 298.665 229.211C298.665 229.211 283.674 229.371 273.684 232.271C263.694 235.171 252.489 240.541 237.063 243.651C237.063 243.651 237.822 236.651 240.434 233.031C239.452 232.676 238.619 232.007 238.068 231.129C237.518 230.252 237.281 229.217 237.397 228.191C237.741 225.331 240.616 224.051 244.26 218.501C245.438 216.689 246.487 214.797 247.397 212.841C253.147 200.611 251.841 197.491 251.092 196.311L244.199 203.631C231.82 216.761 206.94 243.111 205.24 244.721C202.952 246.871 199.389 247.721 198.094 246.861C197.304 246.341 192.021 250.501 187.972 253.861C185.33 256.061 183.204 257.921 183.204 257.921L168.103 248.921C168.103 248.921 172.354 245.441 176.747 241.751C181.393 237.861 186.2 233.751 186.352 233.251C186.676 232.251 185.694 229.781 187.86 227.541C189.794 225.541 226.607 184.681 239.34 170.201C240.99 168.321 242.245 166.891 242.954 166.041C249.159 158.651 252.894 155.041 261.821 152.851L305.416 153.781C305.416 153.781 317.957 151.511 320.599 159.271C320.973 160.411 321.368 161.971 321.773 163.821C324.121 174.681 326.561 195.341 326.561 195.341C326.561 195.341 339.426 207.161 336.996 216.901Z" fill="#FED81D"/>
<path d="M187.911 253.901C185.269 256.101 183.143 257.961 183.143 257.961L168.042 248.961C168.042 248.961 172.293 245.481 176.686 241.791C181.276 244.971 185.107 249.104 187.911 253.901V253.901Z" fill="#B25E47"/>
<path d="M262.125 184.44C262.125 189.55 259.453 196.88 256.335 199.62C252.529 202.94 258.258 214.99 251.892 218.46C250.744 219.173 249.416 219.552 248.06 219.552C246.705 219.552 245.377 219.173 244.229 218.46C245.408 216.649 246.456 214.757 247.367 212.8C253.116 200.57 251.811 197.45 251.062 196.27C255.404 191.84 259.463 187.39 262.125 184.44Z" fill="#FCC71F"/>
<path d="M336.996 216.9C336.298 219.66 334.354 222.25 330.508 224.34C330.053 224.48 329.587 224.61 329.121 224.73C328.656 224.85 328.261 224.92 327.826 225L327.016 225.11L326.459 225.17H326.186C325.72 225.17 325.255 225.22 324.789 225.22C317.269 225.22 309.151 220.47 303.068 207.55C309.799 193.05 310.102 185.83 308.533 178.95C310.159 179.33 311.651 180.136 312.852 181.283C314.053 182.431 314.918 183.877 315.356 185.47C317.997 194.24 305.082 204.84 311.924 211.33C317.997 217.04 328.676 208.15 332.522 214.76C332.921 215.557 333.578 216.201 334.388 216.588C335.198 216.976 336.116 217.086 336.996 216.9Z" fill="#FCC71F"/>
<path d="M321.682 163.79C317.522 163.46 312.228 164.33 309.293 169.79C303.959 179.79 286.235 192.79 273.816 177.4C264.109 165.4 255.333 164.52 239.28 170.13C240.93 168.25 242.185 166.82 242.893 165.97C249.098 158.58 252.833 154.97 261.76 152.78L305.355 153.71C305.355 153.71 317.896 151.44 320.538 159.2C320.882 160.38 321.277 161.9 321.682 163.79Z" fill="#FED81D"/>
<path d="M180.036 244.31L189.207 236.74" stroke="#FCC71F" stroke-width="0.75" stroke-linecap="round" stroke-linejoin="round"/>
<path d="M183.396 247.65L192.253 240.19" stroke="#FCC71F" stroke-width="0.75" stroke-linecap="round" stroke-linejoin="round"/>
<path d="M186.049 250.95L193.964 245.07" stroke="#FCC71F" stroke-width="0.75" stroke-linecap="round" stroke-linejoin="round"/>
<path d="M241.911 242.541L244.229 233.561" stroke="#FCC71F" stroke-width="0.75" stroke-linecap="round" stroke-linejoin="round"/>
<path d="M246.102 241.45L248.217 232.2" stroke="#FCC71F" stroke-width="0.75" stroke-linecap="round" stroke-linejoin="round"/>
<path d="M250.1 240.27L251.892 232.2" stroke="#FCC71F" stroke-width="0.75" stroke-linecap="round" stroke-linejoin="round"/>
<path d="M254.857 238.73L256.325 231.59" stroke="#FCC71F" stroke-width="0.75" stroke-linecap="round" stroke-linejoin="round"/>
<path d="M259.513 237.111L260.465 230.681" stroke="#FCC71F" stroke-width="0.75" stroke-linecap="round" stroke-linejoin="round"/>
<path d="M263.754 235.581L264.139 231.291" stroke="#FCC71F" stroke-width="0.75" stroke-linecap="round" stroke-linejoin="round"/>
<path d="M265.212 180.9C265.212 180.9 264.038 182.25 262.125 184.4C259.463 187.4 255.404 191.8 251.062 196.25" stroke="#FCC71F" stroke-width="0.75" stroke-linecap="round" stroke-linejoin="round"/>
<path d="M303.048 207.541C309.779 193.041 310.082 185.821 308.513 178.941C307.866 176.011 306.864 173.161 305.892 169.831" stroke="#FCC71F" stroke-width="0.75" stroke-linecap="round" stroke-linejoin="round"/>
<path d="M258.511 160.26L265.212 155.82" stroke="#FCC71F" stroke-width="0.75" stroke-linecap="round" stroke-linejoin="round"/>
<path d="M265.789 164.1L269.402 158.21" stroke="#FCC71F" stroke-width="0.75" stroke-linecap="round" stroke-linejoin="round"/>
<path d="M272.085 165.58L273.816 159.88" stroke="#FCC71F" stroke-width="0.75" stroke-linecap="round" stroke-linejoin="round"/>
<path d="M276.285 166.17L277.53 160.76" stroke="#FCC71F" stroke-width="0.75" stroke-linecap="round" stroke-linejoin="round"/>
<path d="M280.415 167.05L281.164 161.3" stroke="#FCC71F" stroke-width="0.75" stroke-linecap="round" stroke-linejoin="round"/>
<path d="M287.359 167.05V161.7" stroke="#FCC71F" stroke-width="0.75" stroke-linecap="round" stroke-linejoin="round"/>
<path d="M292.632 161.7L293.432 167.05" stroke="#FCC71F" stroke-width="0.75" stroke-linecap="round" stroke-linejoin="round"/>
<path d="M296.377 161.041L297.734 167.051" stroke="#FCC71F" stroke-width="0.75" stroke-linecap="round" stroke-linejoin="round"/>
<path d="M299.758 160.26L301.631 165.14" stroke="#FCC71F" stroke-width="0.75" stroke-linecap="round" stroke-linejoin="round"/>
<path d="M302.481 158.92L304.93 164.1" stroke="#FCC71F" stroke-width="0.75" stroke-linecap="round" stroke-linejoin="round"/>
<path d="M305.527 158.92L308.605 161.3" stroke="#FCC71F" stroke-width="0.75" stroke-linecap="round" stroke-linejoin="round"/>
<path d="M307.066 156.17L310.852 158.04" stroke="#FCC71F" stroke-width="0.75" stroke-linecap="round" stroke-linejoin="round"/>
<path d="M297.015 148.75C296.266 148.41 295.446 148.06 294.565 147.75C292.432 146.964 290.161 146.603 287.885 146.69C280.071 146.78 261.76 152.87 261.76 152.87C262.155 153.41 266.943 158.66 276.7 160.65C286.458 162.64 296.458 161.65 300.74 159.97C301.991 159.435 303.078 158.583 303.888 157.499C304.699 156.416 305.205 155.14 305.355 153.8C305.355 153.8 303.321 151.59 297.015 148.75Z" fill="#B25E47"/>
<path d="M343.697 338.71C349.132 334.86 354.183 340.36 341.673 343.56" stroke="#83ADDF" stroke-width="0.75" stroke-linecap="round" stroke-linejoin="round"/>
<path d="M338.585 341.901C341.146 335.781 344.912 330.641 346.683 331.961C348.849 333.591 340.549 342.401 340.549 342.401" stroke="#83ADDF" stroke-width="0.75" stroke-linecap="round" stroke-linejoin="round"/>
<path d="M350.388 355.5H316.216C316.084 350.89 321.348 340.57 321.925 337.21C321.925 337.14 321.925 337.07 321.925 336.98C322.562 333.25 324.354 319.47 324.354 319.47L342.685 320.61L337.755 337.14C339.504 339.664 341.468 342.036 343.626 344.23C347.533 348.3 355.216 348.88 355.934 351.74C356.653 354.6 352.483 355.5 350.388 355.5Z" fill="#A7CAF0"/>
<path d="M342.715 320.61L337.786 337.14C337.786 337.14 327.846 337.06 321.955 336.98C322.593 333.25 324.384 319.47 324.384 319.47L342.715 320.61Z" fill="#B25E47"/>
<path d="M361.916 249.81C359.831 265.37 345.438 323.36 345.438 323.36H321.834L328.919 260.62C328.932 260.578 328.932 260.533 328.919 260.49C328.787 259.68 324.516 233.22 347.584 229.99C349.383 230.417 351.143 230.989 352.847 231.7V231.7C361.866 235.52 362.959 241.96 361.916 249.81Z" fill="#83ADDF"/>
<path d="M330.164 244.16C334.871 243.94 337.958 243.83 338.464 243.92C342.118 244.55 335.012 250.27 337.523 250.36C340.833 250.49 344.406 250.97 342.584 253.21C340.559 255.63 338.666 256.42 340.306 257.91C343.414 260.72 338.11 263.39 337.745 266.62C337.381 269.85 331.429 318.46 331.429 318.46" stroke="#A7CAF0" stroke-width="0.75" stroke-linecap="round" stroke-linejoin="round"/>
<path d="M356.947 160.241C355.449 164.241 353.839 167.771 353.839 167.771L353.677 168.401L350.641 180.591C350.641 180.591 353.029 181.221 352.969 183.291C352.908 185.361 348.495 202.361 344.234 211.951C344.051 212.381 343.829 212.801 343.606 213.231C343.383 213.661 343.272 213.851 343.09 214.151C342.712 214.777 342.307 215.387 341.875 215.981C341.673 216.261 341.47 216.531 341.258 216.791C341.045 217.051 340.792 217.361 340.539 217.631C340.286 217.901 340.063 218.161 339.82 218.421C339.304 218.951 338.808 219.421 338.191 219.941L337.33 220.641C335.896 221.766 334.329 222.716 332.664 223.471H332.593L331.581 223.891C331.237 224.021 330.893 224.151 330.569 224.261C323.575 222.491 321.277 217.961 321.115 213.001C320.842 204.741 326.54 195.281 326.54 195.281C326.536 195.264 326.536 195.247 326.54 195.231C326.874 194.291 332.371 179.151 333.494 177.901C334.618 176.651 336.845 177.471 336.845 177.471L340.782 165.101L341.642 162.391C341.642 162.391 341.329 161.741 340.903 160.791C339.983 158.842 339.303 156.79 338.879 154.681C338.646 152.271 340.903 150.761 342.725 150.481C342.725 150.481 342.897 146.341 344.294 144.661C344.511 144.322 344.821 144.052 345.187 143.88C345.554 143.709 345.962 143.643 346.364 143.691C346.767 143.739 347.147 143.899 347.462 144.152C347.776 144.405 348.011 144.741 348.141 145.121C348.576 143.681 351.764 143.481 351.845 146.321C351.968 145.827 352.276 145.398 352.707 145.12C353.138 144.843 353.66 144.738 354.166 144.827C354.673 144.916 355.126 145.193 355.434 145.6C355.742 146.007 355.881 146.515 355.823 147.021C355.823 147.021 358.161 144.781 359.376 149.021C359.933 151.241 358.505 156.041 356.947 160.241Z" fill="#FED81D"/>
<path d="M343.707 167.051C343.707 167.051 340.478 177.631 340.478 177.441" stroke="#FCC71F" stroke-width="0.75" stroke-linecap="round" stroke-linejoin="round"/>
<path d="M346.228 168.051L343.991 177.231" stroke="#FCC71F" stroke-width="0.75" stroke-linecap="round" stroke-linejoin="round"/>
<path d="M349.993 168.601L347.999 178.091" stroke="#FCC71F" stroke-width="0.75" stroke-linecap="round" stroke-linejoin="round"/>
<path d="M326.439 195.311C324.415 201.081 323.058 205.371 323.301 206.831" stroke="#FCC71F" stroke-width="0.75" stroke-linecap="round" stroke-linejoin="round"/>
<path d="M343.646 213.23C343.485 213.54 343.312 213.85 343.13 214.15C342.752 214.777 342.348 215.387 341.916 215.98C341.713 216.26 341.511 216.53 341.298 216.79C341.086 217.05 340.833 217.36 340.58 217.63C340.327 217.9 340.104 218.16 339.861 218.42C339.345 218.95 338.849 219.42 338.231 219.94L337.371 220.64C335.94 221.771 334.373 222.721 332.705 223.47H332.634L331.622 223.89C331.278 224.02 330.933 224.15 330.609 224.26C323.615 222.49 321.318 217.96 321.156 213C325.781 212.28 330.367 210.86 332.614 214.72C335.093 219.2 340.397 215.9 343.646 213.23Z" fill="#FCC71F"/>
<path d="M353.839 167.77L353.677 168.4C351.62 168.721 349.522 168.698 347.472 168.33C344.989 167.84 342.671 166.739 340.731 165.13L341.592 162.42C341.592 162.42 339.041 157.12 338.808 154.71C338.575 152.3 340.833 150.79 342.654 150.51C342.654 150.51 342.827 146.37 344.223 144.69C344.44 144.352 344.75 144.081 345.117 143.91C345.483 143.738 345.891 143.673 346.293 143.721C346.696 143.769 347.076 143.929 347.391 144.182C347.705 144.435 347.941 144.771 348.07 145.15C348.505 143.71 351.693 143.5 351.774 146.35C351.897 145.857 352.205 145.427 352.636 145.15C353.067 144.873 353.589 144.768 354.096 144.857C354.602 144.946 355.055 145.222 355.363 145.63C355.671 146.037 355.81 146.545 355.752 147.05C355.752 147.05 358.09 144.81 359.305 149.05C360.52 153.29 353.839 167.77 353.839 167.77Z" fill="#B25E47"/>
<path d="M340.478 159.901C339.712 158.233 339.151 156.48 338.808 154.681C338.575 152.261 340.833 150.761 342.654 150.481C342.654 150.481 342.827 146.341 344.223 144.661C344.44 144.322 344.75 144.052 345.117 143.88C345.483 143.709 345.891 143.643 346.293 143.691C346.696 143.739 347.076 143.899 347.391 144.152C347.705 144.405 347.941 144.741 348.07 145.121C348.505 143.681 351.693 143.471 351.774 146.321C351.897 145.827 352.205 145.398 352.636 145.12C353.067 144.843 353.589 144.738 354.096 144.827C354.602 144.916 355.055 145.193 355.363 145.6C355.671 146.007 355.81 146.515 355.752 147.021C355.752 147.021 358.09 144.781 359.305 149.021" stroke="#914839" stroke-width="0.75" stroke-linecap="round" stroke-linejoin="round"/>
<path d="M342.634 150.51C345.823 149.94 348.545 150.24 348.636 151.31C348.728 152.38 344.932 153.9 344.932 153.9C344.932 153.9 349.78 154.54 348.14 160.26" stroke="#914839" stroke-width="0.75" stroke-linecap="round" stroke-linejoin="round"/>
<path d="M347.999 144.951C347.999 144.951 347.311 149.441 346.987 150.321" stroke="#914839" stroke-width="0.75" stroke-linecap="round" stroke-linejoin="round"/>
<path d="M348.819 151.331C350.044 151.661 351.218 150.431 351.855 145.971" stroke="#914839" stroke-width="0.75" stroke-linecap="round" stroke-linejoin="round"/>
<path d="M350.327 150.761C350.436 151.304 350.742 151.789 351.187 152.126C351.633 152.463 352.187 152.628 352.746 152.591" stroke="#914839" stroke-width="0.75" stroke-linecap="round" stroke-linejoin="round"/>
<path d="M355.793 147.051C354.781 147.821 352.149 152.511 353.546 153.671C355.175 155.011 356.481 151.671 356.481 151.671" stroke="#914839" stroke-width="0.75" stroke-linecap="round" stroke-linejoin="round"/>
<path d="M173.933 427.821C178.629 424.871 183.042 424.311 184.055 425.031C185.482 426.131 181.15 429.091 177.617 429.561" stroke="#83ADDF" stroke-width="0.75" stroke-linecap="round" stroke-linejoin="round"/>
<path d="M169.752 430.671C176.777 428.061 183.923 430.671 183.123 433.021C182.223 435.731 171.129 431.821 171.129 431.821" stroke="#83ADDF" stroke-width="0.75" stroke-linecap="round" stroke-linejoin="round"/>
<path d="M172.819 441.901C174.894 443.951 178.892 448.371 178.336 449.651C177.779 450.931 175.663 451.321 175.663 451.321H160.683C160.683 451.321 158.274 449.901 158.183 448.541C158.092 447.181 153.365 419.861 154.134 417.481C154.792 415.481 164.195 411.791 168.639 409.341C169.261 409.01 169.853 408.629 170.41 408.201C173.163 405.911 181.605 397.391 181.605 397.391L192.122 410.161C186.048 413.511 179.247 418.071 176.099 422.161C175.254 423.158 174.664 424.341 174.378 425.611C173.599 430.201 170.754 439.821 172.819 441.901Z" fill="#A7CAF0"/>
<path d="M192.122 410.121C186.049 413.471 179.247 418.031 176.099 422.121L168.639 409.301C169.261 408.97 169.853 408.589 170.41 408.161C173.163 405.871 181.605 397.351 181.605 397.351L192.122 410.121Z" fill="#B25E47"/>
<path d="M250.768 350.381C249.105 353.592 247.263 356.71 245.251 359.721C235.342 373.491 191.504 414.411 191.504 414.411L176.757 395.641L227.133 336.211C235.767 325.231 258.319 327.841 250.768 350.381Z" fill="#83ADDF"/>
<path d="M231.091 350.251C219.896 363.511 182.739 403.251 182.739 403.251" stroke="#A7CAF0" stroke-width="0.75" stroke-linecap="round" stroke-linejoin="round"/>
<path d="M242.174 330.051C239.842 335.569 237.199 340.954 234.259 346.181" stroke="#A7CAF0" stroke-width="0.75" stroke-linecap="round" stroke-linejoin="round"/>
<path d="M310.639 145.59C307.137 144.59 307.066 147.29 308.716 148.39C310.366 149.49 309.526 152.92 305.416 153.39C305.042 153.44 304.07 153.58 302.896 153.7C300.699 153.92 297.835 154.1 296.984 153.63C296.134 153.16 296.084 151.85 296.387 150.47C296.438 150.19 296.529 149.91 296.61 149.61C297.082 148.152 297.689 146.74 298.422 145.39C300.372 145.349 302.275 144.797 303.938 143.79C307.693 141.32 307.795 136.37 306.276 131.21C305.896 129.921 305.436 128.655 304.9 127.42C304.485 126.42 304.019 125.42 303.523 124.49C298.948 115.68 292.46 115.69 292.46 115.69C295.335 120.55 292.602 123.85 290.921 124.69C289.241 125.53 287.409 126.1 287.5 129.44C287.591 132.78 286.073 133.28 285.061 133.11C281.872 132.53 279.605 134.92 281.012 137.54C282.419 140.16 286.367 139.34 287.541 138.1C287.541 138.1 289.879 139.65 290.011 141.5C290.142 143.35 286.529 145.57 288.239 148.45C288.564 148.957 288.741 149.542 288.751 150.141C288.762 150.741 288.604 151.331 288.297 151.848C287.989 152.365 287.543 152.788 287.008 153.071C286.473 153.353 285.869 153.485 285.263 153.45C283.782 153.276 282.281 153.504 280.921 154.11C280.594 154.268 280.282 154.456 279.99 154.67C279.783 154.823 279.586 154.99 279.403 155.17C277.864 156.71 276.72 158.6 273.056 157.77C269.392 156.94 268.744 151.9 268.744 151.9C263.552 152.13 260.08 152.75 259.746 148.57C259.473 145.25 263.238 144.06 265.232 143.7C265.623 143.649 265.99 143.485 266.288 143.23C266.586 142.974 266.803 142.638 266.91 142.263C267.018 141.888 267.012 141.491 266.894 141.119C266.775 140.747 266.55 140.417 266.244 140.17C264.311 138.71 265.758 136.45 268.582 135.49C271.406 134.53 270.354 128.33 270.607 125.31C271.002 119.91 276.063 115.21 282.854 114.89C282.854 114.89 286.367 107.38 294.869 108.67C303.371 109.96 307.228 118.08 306.833 121.82C306.438 125.56 306.388 129.54 310.487 129.73C314.586 129.92 316.894 132.41 315.416 134.9C313.939 137.39 312.886 139.26 315.993 141.31C319.101 143.36 314.141 146.56 310.639 145.59Z" fill="#683F1D"/>
<path d="M292.45 115.64C295.324 120.5 292.592 123.8 290.911 124.64C289.231 125.48 287.399 126.05 287.49 129.39C287.581 132.73 286.063 133.23 285.051 133.06C281.862 132.48 279.595 134.87 281.002 137.49C282.409 140.11 286.356 139.29 287.531 138.05C287.531 138.05 289.869 139.6 290 141.45C290.132 143.3 286.518 145.52 288.229 148.4C288.554 148.907 288.731 149.492 288.741 150.091C288.751 150.691 288.594 151.281 288.286 151.798C287.979 152.315 287.533 152.738 286.998 153.021C286.463 153.303 285.859 153.435 285.253 153.4C283.772 153.226 282.27 153.454 280.911 154.06C280.584 154.218 280.272 154.406 279.98 154.62C274.696 152.32 270.678 148.7 272.813 145.88C275.607 142.2 277.54 144.22 275.941 138.35C274.342 132.48 275.89 128.72 279.787 128.35C283.684 127.98 287.369 125.35 285.425 121.48C283.482 117.61 289.676 109.3 297.572 112.78C301.722 114.61 303.24 119.42 303.584 124.4C298.938 115.63 292.45 115.64 292.45 115.64Z" fill="#683F1D"/>
<path d="M303.938 143.761C303.543 146.701 301.701 149.571 296.387 150.451C296.438 150.171 296.529 149.891 296.61 149.591C297.082 148.132 297.689 146.72 298.422 145.371C300.372 145.326 302.276 144.77 303.938 143.761V143.761Z" fill="#683F1D"/>
<path d="M296.61 149.591C296.094 151.281 295.942 152.971 296.984 153.591C297.794 154.061 300.699 153.881 302.896 153.661C294.707 160.321 287.895 159.301 280.88 154.101C282.24 153.494 283.742 153.266 285.223 153.441C285.829 153.475 286.432 153.344 286.967 153.061C287.503 152.778 287.948 152.355 288.256 151.838C288.564 151.322 288.721 150.731 288.711 150.132C288.701 149.532 288.524 148.947 288.199 148.441C286.488 145.561 290.102 143.351 289.97 141.491C289.838 139.631 287.5 138.091 287.5 138.091C286.326 139.331 282.348 140.151 280.972 137.531C279.595 134.911 281.862 132.531 285.02 133.101C286.033 133.271 287.561 132.771 287.46 129.431C287.358 126.091 289.201 125.581 290.881 124.681C292.561 123.781 295.294 120.501 292.419 115.681C292.419 115.681 298.918 115.681 303.493 124.501C303.989 125.451 304.454 126.431 304.869 127.431C305.406 128.665 305.865 129.931 306.246 131.221C308.27 138.221 307.38 144.831 298.391 145.401C297.658 146.75 297.052 148.162 296.58 149.621L296.61 149.591Z" fill="#B25E47"/>
<path d="M306.276 131.18C305.892 131.319 305.475 131.345 305.076 131.254C304.678 131.164 304.314 130.961 304.029 130.67C303.361 129.82 303.746 128.38 304.9 127.38C305.434 128.619 305.894 129.888 306.276 131.18Z" fill="#914839"/>
<path d="M296.154 128.421C296.154 128.556 296.182 128.691 296.236 128.815C296.29 128.94 296.369 129.052 296.469 129.146C296.568 129.24 296.686 129.312 296.814 129.359C296.943 129.407 297.08 129.427 297.217 129.421C297.415 129.411 297.605 129.344 297.765 129.228C297.925 129.113 298.047 128.953 298.116 128.77C298.184 128.587 298.197 128.387 298.153 128.197C298.108 128.006 298.008 127.833 297.865 127.698C297.721 127.563 297.541 127.472 297.346 127.438C297.151 127.403 296.95 127.426 296.768 127.502C296.586 127.579 296.431 127.707 296.322 127.871C296.213 128.034 296.155 128.225 296.154 128.421Z" fill="#683F1D"/>
<path d="M300.679 126.251C300.679 126.516 300.786 126.77 300.975 126.958C301.165 127.145 301.423 127.251 301.691 127.251C301.828 127.251 301.964 127.223 302.09 127.17C302.217 127.117 302.331 127.039 302.425 126.94C302.52 126.842 302.593 126.726 302.641 126.599C302.689 126.472 302.71 126.336 302.703 126.201C302.703 125.935 302.597 125.681 302.407 125.494C302.217 125.306 301.96 125.201 301.691 125.201C301.554 125.201 301.418 125.228 301.292 125.281C301.165 125.335 301.052 125.413 300.957 125.511C300.862 125.609 300.789 125.725 300.741 125.853C300.693 125.98 300.672 126.115 300.679 126.251Z" fill="#683F1D"/>
<path d="M298.422 145.361C297.689 146.71 297.082 148.122 296.61 149.581C295.529 149.217 294.608 148.496 294.001 147.54C293.395 146.584 293.14 145.45 293.28 144.331C294.932 144.926 296.665 145.274 298.422 145.361V145.361Z" fill="#914839"/>
<path d="M282.854 136.431C283.553 134.651 285.891 134.981 286.903 136.021" stroke="#914839" stroke-width="0.75" stroke-linecap="round" stroke-linejoin="round"/>
<path d="M284.555 137.33C284.489 137.107 284.476 136.872 284.518 136.643C284.56 136.415 284.656 136.199 284.798 136.013C284.939 135.828 285.123 135.678 285.334 135.575C285.545 135.472 285.777 135.419 286.012 135.42" stroke="#914839" stroke-width="0.75" stroke-linecap="round" stroke-linejoin="round"/>
<path d="M287.51 138.09C287.861 137.663 288.113 137.164 288.249 136.63" stroke="#914839" stroke-width="0.75" stroke-linecap="round" stroke-linejoin="round"/>
<path d="M297.086 133.48C297.828 134.1 298.739 134.489 299.705 134.597C300.67 134.706 301.647 134.53 302.511 134.09" stroke="#914839" stroke-width="0.75" stroke-linecap="round" stroke-linejoin="round"/>
<path d="M303.513 131.051C303.979 129.571 303.675 128.511 301.944 128.231C301.11 128.043 300.371 127.569 299.858 126.893C299.344 126.218 299.09 125.384 299.14 124.541" stroke="#914839" stroke-width="0.75" stroke-linecap="round" stroke-linejoin="round"/>
<path d="M292.399 124.9C292.399 126.09 296.894 125.54 297.268 124.22C297.572 123.18 292.369 122.66 292.399 124.9Z" fill="#683F1D"/>
<path d="M301.205 119.461C300.112 118.951 298.614 123.241 299.97 123.571C300.639 123.741 303.766 120.671 301.205 119.461Z" fill="#683F1D"/>
<path d="M282.794 114.9C284.489 115.021 286.145 115.463 287.672 116.2" stroke="#7F542D" stroke-width="0.75" stroke-linecap="round" stroke-linejoin="round"/>
<path d="M285.648 122.63C282.288 123.86 278.249 125.94 278.128 129.93C278.006 133.92 279.737 137.54 274.393 140.14C269.048 142.74 274.109 149.4 274.109 149.4" stroke="#7F542D" stroke-width="0.75" stroke-linecap="round" stroke-linejoin="round"/>
<path d="M280.061 150.491C283.32 147.861 279.777 144.551 283.32 142.081" stroke="#7F542D" stroke-width="0.75" stroke-linecap="round" stroke-linejoin="round"/>
<path d="M289.17 119.74C283.705 117.61 277.389 120.29 276.012 122.57" stroke="#7F542D" stroke-width="0.75" stroke-linecap="round" stroke-linejoin="round"/>
<path d="M296.134 131.9C295.911 133.02 294.413 133.66 292.814 133.33C291.215 133 290.091 131.84 290.314 130.73C290.537 129.62 292.035 128.97 293.644 129.3C295.254 129.63 296.367 130.81 296.134 131.9Z" fill="#914839"/>
<path d="M37.0442 444.031C29.7261 451.791 27.9345 457.971 26.7604 462.031L43.1983 474.771H67.167C67.167 474.771 66.7418 469.051 62.106 468.111C57.4702 467.171 54.6867 466.751 54.6867 466.751L50.1116 456.991L37.0442 444.031Z" fill="#FED81D"/>
<path d="M107.108 336.771C107.766 381.671 110.64 390.981 101.338 406.521C92.0364 422.061 50.1115 456.991 50.1115 456.991L32.4286 443.901C32.4286 443.901 53.6846 420.601 63.6141 408.181C73.5437 395.761 75.0114 390.711 74.7482 383.071C74.485 375.431 67.1467 317.321 67.1467 317.321L107.108 336.771Z" fill="#683F1D"/>
<path d="M223.327 398.661C223.327 398.661 239.047 408.111 242.164 409.721C245.282 411.331 245.717 415.441 245.717 415.441H207.76C207.76 415.441 205.958 406.051 206.92 400.441L223.327 398.661Z" fill="#FED81D"/>
<path d="M223.327 398.661L204.146 402.411L179.672 337.491C173.973 322.431 167.839 309.021 180.4 304.291C194.48 304.771 201.191 309.201 206.94 325.111C212.973 341.901 223.327 398.661 223.327 398.661Z" fill="#683F1D"/>
<path d="M179.672 337.491C179.672 337.491 123.505 342.541 106.187 343.181C88.8683 343.821 71.9951 341.901 64.2822 315.031L108.464 299.841L114.122 304.241C139.377 304.641 162.303 304.161 178.032 304.241C178.852 304.241 179.641 304.241 180.411 304.291C203.367 308.071 194.683 332.951 179.672 337.491Z" fill="#683F1D"/>
<path d="M103.272 343.251C90.5994 343.471 78.4531 341.621 70.2341 328.901" stroke="#7F542D" stroke-width="0.75" stroke-linecap="round" stroke-linejoin="round"/>
<path d="M140.581 271.051L127.817 281.841L117.088 304.391C117.088 304.391 100.964 303.831 91.3786 310.651C81.7932 317.471 67.8857 320.411 62.511 320.321C62.1239 309.371 62.894 298.412 64.8086 287.621C67.9768 270.381 75.7504 244.101 75.7504 244.101C75.6593 243.281 75.6188 242.461 75.5884 241.661C75.1532 227.941 82.4815 217.081 94.4455 217.791C107.108 218.561 120.054 223.191 120.054 223.191C120.054 223.191 134.063 225.381 141.441 229.451C144.792 231.301 147.079 234.451 147.596 239.881C148.223 246.401 146.27 256.221 140.581 271.051Z" fill="#A7CAF0"/>
<path d="M112.392 284.081L108.141 278.281C111.339 276.911 114.001 275.671 115.054 275.171C113.657 268.811 112.361 263.221 111.096 258.471C113.394 258.891 116.623 260.991 117.513 268.981C118.181 275.071 127.18 265.351 130.48 273.281C133.779 281.211 112.392 284.081 112.392 284.081Z" fill="#83ADDF"/>
<path d="M139.366 247.651C137.615 249.461 135.115 259.281 131.512 270.921" stroke="#83ADDF" stroke-width="0.75" stroke-linecap="round" stroke-linejoin="round"/>
<path d="M188.832 256.661C188.68 260.161 182.395 259.281 182.395 259.281C183.994 262.061 179.358 263.871 177.071 264.001C175.535 264.042 174.006 263.791 172.566 263.261C172.566 263.261 150.065 283.031 141.654 290.471C133.243 297.911 117.655 309.471 107.118 308.051C96.5814 306.631 93.6562 296.051 88.9697 284.051C91.4643 283.854 93.9327 283.411 96.3385 282.731C102.563 281.021 112.746 276.281 115.054 275.191C115.347 276.551 115.661 277.961 115.965 279.401C134.832 268.881 155.825 255.401 157.586 253.731C159.347 252.061 166.807 246.301 169.014 243.941C171.22 241.581 175.39 243.771 173.71 245.081C172.03 246.391 171.22 247.691 177.982 251.811C186.494 256.991 189.004 252.461 188.832 256.661Z" fill="#FEBD9D"/>
<path d="M147.596 239.901C144.093 237.721 139.802 236.821 135.449 240.301C125.125 248.521 115.206 248.131 101.227 232.221C87.6335 216.761 76.2464 240.321 75.5986 241.681C75.1633 227.961 82.4916 217.101 94.4557 217.811C107.118 218.581 120.064 223.211 120.064 223.211C120.064 223.211 134.073 225.401 141.452 229.471C144.792 231.301 147.079 234.451 147.596 239.901Z" fill="#A7CAF0"/>
<path d="M117.017 239.441C117.017 239.858 117.143 240.266 117.377 240.613C117.612 240.96 117.946 241.23 118.336 241.39C118.726 241.55 119.156 241.591 119.57 241.51C119.984 241.429 120.365 241.228 120.663 240.933C120.962 240.637 121.165 240.262 121.248 239.852C121.33 239.443 121.288 239.019 121.126 238.633C120.965 238.248 120.691 237.918 120.34 237.686C119.988 237.454 119.576 237.331 119.153 237.331C118.587 237.331 118.044 237.553 117.643 237.949C117.242 238.344 117.017 238.881 117.017 239.441V239.441Z" fill="white"/>
<path d="M75.5582 243.901C75.5582 243.901 83.1496 278.111 85.6801 283.901C86.7635 284.049 87.8606 284.072 88.9495 283.971C91.444 283.774 93.9124 283.332 96.3182 282.651C100.343 281.421 104.285 279.941 108.12 278.221C111.319 276.851 113.981 275.611 115.034 275.111C113.637 268.751 112.341 263.161 111.076 258.411C108.181 247.541 105.428 241.131 101.855 240.131" stroke="#83ADDF" stroke-width="0.75" stroke-linecap="round" stroke-linejoin="round"/>
<path d="M115.965 279.381C110.479 282.831 109.608 285.651 109.608 285.651" stroke="#F4A789" stroke-width="0.75" stroke-linecap="round" stroke-linejoin="round"/>
<path d="M182.385 259.281C178.336 258.931 176.453 258.641 176.453 258.641" stroke="#F4A789" stroke-width="0.75" stroke-linecap="round" stroke-linejoin="round"/>
<path d="M172.587 263.251C174.028 263.786 175.561 264.041 177.101 264.001C179.409 263.871 184.024 262.071 182.415 259.281C182.415 259.281 188.711 260.151 188.862 256.661C189.035 252.461 186.514 256.991 178.012 251.791C171.25 247.671 172.06 246.391 173.74 245.071C175.421 243.751 171.261 241.561 169.044 243.921C167.91 245.131 165.41 247.241 162.971 249.221" stroke="#F4A789" stroke-width="0.75" stroke-linecap="round" stroke-linejoin="round"/>
<path d="M161.098 246.461C163.548 243.081 166.908 245.461 166.979 248.291C167.05 251.121 161.321 254.791 159.691 253.291C158.062 251.791 159.722 248.351 161.098 246.461Z" fill="#B25E47"/>
<path d="M167.526 266.351C164.924 265.071 163.082 267.011 165.248 269.351C167.414 271.691 171.382 270.631 172.131 268.301L167.526 266.351Z" fill="#B25E47"/>
<path d="M167.526 266.351C164.924 265.071 163.082 267.011 165.248 269.351C167.414 271.691 171.382 270.631 172.131 268.301L167.526 266.351Z" stroke="#914839" stroke-width="0.75" stroke-linecap="round" stroke-linejoin="round"/>
<path d="M170.856 263.901C168.133 263.401 165.855 264.291 166.716 266.431C167.576 268.571 173.801 270.981 176.453 266.431L170.856 263.901Z" fill="#B25E47"/>
<path d="M170.856 263.901C168.133 263.401 165.855 264.291 166.716 266.431C167.576 268.571 173.801 270.981 176.453 266.431L170.856 263.901Z" stroke="#914839" stroke-width="0.75" stroke-linecap="round" stroke-linejoin="round"/>
<path d="M161.098 246.461C163.548 243.081 166.908 245.461 166.979 248.291C167.05 251.121 161.321 254.791 159.691 253.291C158.062 251.791 159.722 248.351 161.098 246.461Z" stroke="#914839" stroke-width="0.75" stroke-linecap="round" stroke-linejoin="round"/>
<path d="M170.734 264.901C168.912 263.101 169.985 260.501 172.455 261.121C174.925 261.741 175.431 263.191 179.682 263.441C182.506 263.561 175.623 269.741 170.734 264.901Z" fill="#B25E47"/>
<path d="M170.734 264.901C168.912 263.101 169.985 260.501 172.455 261.121C174.925 261.741 175.431 263.191 179.682 263.441C182.506 263.561 175.623 269.741 170.734 264.901Z" stroke="#914839" stroke-width="0.75" stroke-linecap="round" stroke-linejoin="round"/>
<path d="M128.374 202.591L124.872 203.901L119.507 205.851C117.761 204.116 116.216 202.194 114.902 200.121C112.807 196.751 111.754 193.171 115.206 192.121C111.207 192.121 110.742 188.781 114.011 188.121C109.487 188.011 111.197 183.601 115.874 184.121C115.874 184.121 112.979 180.251 120.621 179.451C126.016 178.891 130.216 180.221 132.767 182.051L132.969 182.211C134.009 182.925 134.826 183.912 135.328 185.061C136.441 187.961 128.374 202.591 128.374 202.591Z" fill="#BF8228"/>
<path d="M128.374 202.59L124.872 203.9L119.507 205.85C117.76 204.116 116.216 202.194 114.902 200.12C116.835 198.07 119.963 198.45 120.449 197.02C121.157 195.02 115.772 185.47 124.629 185.69C129.619 185.81 131.927 183.89 132.979 182.19C134.019 182.905 134.836 183.892 135.338 185.04C136.441 187.96 128.374 202.59 128.374 202.59Z" fill="#BF8228"/>
<path d="M115.904 184.071C115.904 184.071 123.111 184.381 125.348 184.741C128.384 185.231 128.809 186.401 128.809 186.401" stroke="#FCC71F" stroke-width="0.75" stroke-linecap="round" stroke-linejoin="round"/>
<path d="M122.969 190.311L120.145 190.021" stroke="#FCC71F" stroke-width="0.75" stroke-linecap="round" stroke-linejoin="round"/>
<path d="M114.011 188.021C116.117 188.191 117.979 188.521 117.979 188.521" stroke="#FCC71F" stroke-width="0.75" stroke-linecap="round" stroke-linejoin="round"/>
<path d="M115.205 192.071C116.329 192.057 117.452 192.124 118.566 192.271" stroke="#FCC71F" stroke-width="0.75" stroke-linecap="round" stroke-linejoin="round"/>
<path d="M124.72 196.991C121.319 196.871 116.926 196.881 116.531 196.211" stroke="#FCC71F" stroke-width="0.75" stroke-linecap="round" stroke-linejoin="round"/>
<path d="M132.099 215.76C131.431 217.73 130.867 219.733 130.409 221.76C130.328 222.114 130.247 222.474 130.166 222.84C128.627 227.36 126.744 232.73 120.489 231.96C116.521 231.48 111.946 228.82 109.669 222.3C108.788 219.77 111.258 217.35 111.572 216.89C114.001 213.41 116.268 209.8 117.038 207.1C117.038 207.1 115.145 204.75 116.45 202.29C116.647 201.931 116.884 201.596 117.159 201.29C119.234 199.01 123.09 200.06 124.376 201.82C124.692 201.598 124.981 201.339 125.236 201.05C125.476 200.847 125.672 200.598 125.812 200.319C125.952 200.039 126.034 199.734 126.053 199.423C126.072 199.111 126.027 198.799 125.922 198.505C125.816 198.211 125.652 197.941 125.439 197.71C125.203 197.444 124.97 197.194 124.74 196.96L124.649 196.87C123.05 195.2 121.694 193.87 122.382 191.58C122.512 191.118 122.718 190.679 122.989 190.28C124.052 188.8 126.026 188.61 128.981 189C132.696 189.48 134.559 188.43 135.358 185C135.459 185.15 136.269 186.44 137.383 188.49C137.706 189.08 138.051 189.73 138.395 190.44C139.225 192.06 140.136 193.98 140.986 196.06C141.323 196.854 141.637 197.664 141.927 198.49C142.245 199.348 142.512 200.223 142.727 201.11C144.549 208.41 143.395 217.27 132.099 215.76Z" fill="#FEBD9D"/>
<path d="M130.904 200.521C130.449 201.821 128.435 202.311 126.38 201.621C125.972 201.486 125.581 201.304 125.216 201.081C125.455 200.877 125.651 200.628 125.791 200.349C125.932 200.069 126.014 199.764 126.033 199.453C126.052 199.141 126.007 198.829 125.901 198.535C125.796 198.241 125.632 197.971 125.418 197.741C125.155 197.441 124.892 197.161 124.629 196.901C125.717 196.489 126.921 196.489 128.01 196.901C130.074 197.611 131.36 199.221 130.904 200.521Z" fill="#F4A789"/>
<path d="M130.287 196.211C130.287 196.409 130.346 196.602 130.458 196.767C130.569 196.931 130.727 197.059 130.912 197.135C131.097 197.211 131.3 197.23 131.497 197.192C131.693 197.153 131.873 197.058 132.015 196.918C132.156 196.778 132.253 196.6 132.292 196.406C132.331 196.212 132.311 196.011 132.234 195.828C132.158 195.646 132.028 195.489 131.862 195.379C131.695 195.27 131.499 195.211 131.299 195.211C131.031 195.211 130.773 195.316 130.583 195.504C130.394 195.691 130.287 195.946 130.287 196.211Z" fill="#683F1D"/>
<path d="M137.706 195.261C138.277 195.261 138.739 194.804 138.739 194.241C138.739 193.677 138.277 193.221 137.706 193.221C137.136 193.221 136.674 193.677 136.674 194.241C136.674 194.804 137.136 195.261 137.706 195.261Z" fill="#683F1D"/>
<path d="M132.099 215.761C131.431 217.731 130.867 219.733 130.408 221.761C121.926 220.031 125.459 211.991 125.459 211.991C125.459 211.991 129.619 215.111 132.099 215.761Z" fill="#F4A789"/>
<path d="M117.017 207.111C118.566 209.261 122.544 209.201 123.89 208.111" stroke="#F4A789" stroke-width="0.75" stroke-linecap="round" stroke-linejoin="round"/>
<path d="M118.566 204.341C120.216 202.421 122.473 203.341 123.728 205.611" stroke="#F4A789" stroke-width="0.75" stroke-linecap="round" stroke-linejoin="round"/>
<path d="M122.28 206.701C119.588 206.631 120.448 203.471 122.969 204.521" stroke="#F4A789" stroke-width="0.75" stroke-linecap="round" stroke-linejoin="round"/>
<path d="M132.332 201.121C133.394 202.921 134.558 203.831 137.14 203.291" stroke="#F4A789" stroke-width="0.75" stroke-linecap="round" stroke-linejoin="round"/>
<path d="M134.933 191.631C134.579 193.851 134.346 195.781 136.735 196.871C139.124 197.961 138.658 200.121 136.421 200.781" stroke="#F4A789" stroke-width="0.75" stroke-linecap="round" stroke-linejoin="round"/>
<path d="M126.522 192.901C127.423 194.101 132.048 191.971 131.218 190.361C130.702 189.351 124.933 190.751 126.522 192.901Z" fill="#BF8228"/>
<path d="M138.395 190.471C137.18 190.971 134.721 190.611 134.721 189.881C134.721 189.151 136.158 188.561 137.373 188.521C137.696 189.111 138.041 189.761 138.395 190.471Z" fill="#BF8228"/>
<path d="M142.727 201.141C142.346 201.391 141.901 201.529 141.444 201.538C140.987 201.547 140.536 201.426 140.146 201.191C139.053 200.361 139.215 198.311 140.531 196.601C140.682 196.421 140.834 196.241 140.986 196.091C141.323 196.884 141.637 197.694 141.927 198.521C142.245 199.378 142.512 200.253 142.727 201.141V201.141Z" fill="#F4A789"/>
<path d="M111.551 216.9C109.011 216.35 105.721 217.54 105.347 219.11C104.972 220.68 104.547 233.76 107.503 233.8C110.458 233.84 115.388 227.89 117.959 232.58C121.147 238.39 122.149 230.73 126.248 234.66C127.696 236.05 129.437 238.86 131.228 236.66C133.02 234.46 134.356 226.66 133.799 225.38C133.243 224.1 131.866 222.53 130.125 222.85C128.951 223.06 127.089 231.05 120.803 231.38C119.507 231.45 110.762 222.38 110.236 220.53C109.709 218.68 111.551 216.9 111.551 216.9Z" fill="white"/>
</svg>
