<svg width="548" height="482" viewBox="0 0 548 482" fill="none" xmlns="http://www.w3.org/2000/svg">
<path d="M187.522 51.2316C189.207 49.8029 190.904 48.398 192.632 47.0288" stroke="#DDDDDD" stroke-width="3" stroke-linecap="round" stroke-linejoin="round"/>
<path d="M202.851 39.4566C230.985 19.7519 263.418 9.28865 296.518 9.23928C310.376 9.23235 324.186 11.0747 337.661 14.7279" stroke="#DDDDDD" stroke-width="3" stroke-linecap="round" stroke-linejoin="round" stroke-dasharray="11.57 11.57"/>
<path d="M343.509 16.4541C345.539 17.0891 347.562 17.7638 349.578 18.4781" stroke="#DDDDDD" stroke-width="3" stroke-linecap="round" stroke-linejoin="round"/>
<path d="M203.684 469.606C201.882 468.416 200.091 467.106 198.332 465.808" stroke="#DDDDDD" stroke-width="3" stroke-linecap="round" stroke-linejoin="round"/>
<path d="M188.101 457.689C151.045 426.316 123.03 379.324 110.007 324.199" stroke="#DDDDDD" stroke-width="3" stroke-linecap="round" stroke-linejoin="round" stroke-dasharray="11.9 11.9"/>
<path d="M108.427 317.318C107.942 315.008 107.482 312.686 107.046 310.353" stroke="#DDDDDD" stroke-width="3" stroke-linecap="round" stroke-linejoin="round"/>
<path d="M489.182 288.279C488.922 290.66 488.634 293.017 488.318 295.351" stroke="#DDDDDD" stroke-width="3" stroke-linecap="round" stroke-linejoin="round"/>
<path d="M486.031 309.709C482.974 326.375 478.485 342.664 472.629 358.345" stroke="#DDDDDD" stroke-width="3" stroke-linecap="round" stroke-linejoin="round" stroke-dasharray="12.25 12.25"/>
<path d="M470.038 365.072C469.16 367.239 468.261 369.386 467.34 371.513" stroke="#DDDDDD" stroke-width="3" stroke-linecap="round" stroke-linejoin="round"/>
<path d="M152.932 375.68L95.046 385.348C94.0117 385.515 92.9593 385.242 92.0929 384.582C91.2266 383.922 90.608 382.922 90.3574 381.776L83.6564 346.439C83.5468 345.886 83.5408 345.314 83.6387 344.758C83.7367 344.203 83.9365 343.676 84.2253 343.213C84.5141 342.75 84.8854 342.36 85.3155 342.069C85.7456 341.778 86.2248 341.591 86.7224 341.522L144.608 331.866C145.642 331.699 146.695 331.972 147.561 332.632C148.427 333.292 149.046 334.292 149.297 335.438L155.998 370.692C156.117 371.249 156.131 371.83 156.038 372.394C155.945 372.958 155.747 373.493 155.457 373.965C155.167 374.436 154.792 374.833 154.357 375.129C153.922 375.424 153.436 375.612 152.932 375.68V375.68Z" fill="#F9F9F9" stroke="#DDDDDD" stroke-width="2" stroke-linecap="round" stroke-linejoin="round"/>
<path d="M92.2219 347.285C92.8436 347.154 126.728 359.679 126.728 359.679L142.532 337.153" stroke="#DDDDDD" stroke-width="2" stroke-linecap="round" stroke-linejoin="round"/>
<path d="M100.967 373.001L119.827 357.143" stroke="#DDDDDD" stroke-width="2" stroke-linecap="round" stroke-linejoin="round"/>
<path d="M135.789 357.143L150.139 362.274" stroke="#DDDDDD" stroke-width="2" stroke-linecap="round" stroke-linejoin="round"/>
<path d="M177.259 430.543L162.193 433.746C161.99 433.788 161.801 433.891 161.645 434.043L152.162 443.401C152 443.558 151.802 443.661 151.591 443.698C151.38 443.736 151.164 443.707 150.967 443.614C150.77 443.522 150.599 443.37 150.473 443.175C150.348 442.98 150.272 442.749 150.255 442.508L148.643 414.303C148.627 414.065 148.671 413.827 148.77 413.617C148.869 413.406 149.019 413.231 149.202 413.113C149.362 413.008 149.543 412.953 149.728 412.953C149.913 412.953 150.095 413.008 150.255 413.113L177.565 428.114C177.783 428.232 177.963 428.426 178.077 428.667C178.192 428.908 178.235 429.184 178.201 429.455C178.167 429.726 178.057 429.978 177.888 430.173C177.718 430.369 177.498 430.498 177.259 430.543V430.543Z" fill="white" stroke="#DDDDDD" stroke-width="2" stroke-linecap="round" stroke-linejoin="round"/>
<path d="M177.259 430.543L162.193 433.746C161.99 433.788 161.801 433.891 161.645 434.043L149.202 413.113C149.362 413.008 149.543 412.953 149.728 412.953C149.913 412.953 150.095 413.008 150.255 413.113L177.565 428.114C177.783 428.232 177.963 428.426 178.077 428.667C178.191 428.908 178.235 429.184 178.201 429.455C178.167 429.726 178.057 429.978 177.888 430.173C177.718 430.369 177.498 430.498 177.259 430.543V430.543Z" fill="#DDDDDD" stroke="#DDDDDD" stroke-width="2" stroke-linecap="round" stroke-linejoin="round"/>
<mask id="mask0_109_1365" style="mask-type:alpha" maskUnits="userSpaceOnUse" x="1" y="90" width="225" height="180">
<rect x="1" y="90.4854" width="224.42" height="178.589" fill="#C4C4C4"/>
</mask>
<g mask="url(#mask0_109_1365)">
<path d="M178.366 262.729C183.191 265.467 189.439 260.348 196.382 253.419L188.86 245.799C188.86 245.799 177.059 258.229 178.366 262.729Z" fill="#A7CAF0"/>
<path d="M242.689 229.952L225.272 270.063H188.638L182.538 250.799L203.273 229.952H242.689Z" fill="#FEBD9D"/>
<path d="M214.304 229.952L197.152 260.241" stroke="#F4A789" stroke-width="0.75" stroke-linecap="round" stroke-linejoin="round"/>
<path d="M207.772 233.083C195.35 241.096 178.366 262.729 178.366 262.729L173.803 272.968L171.148 278.921H81.0222C78.915 270.337 77.1028 259.157 75.7541 250.097C74.7005 243.084 74.0262 237.345 73.7523 235.095L73.6364 234.083C71.3395 236.381 70.2227 236.464 70.2227 236.464L66.0082 249.049L65.6184 250.24C50.6571 238.929 23.2842 236.929 23.2842 236.929L26.9613 222.892C25.8565 220.006 25.5481 216.811 26.0763 213.724C26.6768 210.212 34.9161 193.925 43.2186 180.256C46.4921 174.697 50.1228 169.416 54.0813 164.457C54.4079 164.076 54.7451 163.707 55.0822 163.362C65.1021 152.944 81.7071 154.456 92.6225 155.575C94.2451 155.742 95.7834 155.861 97.2163 155.933C100.442 156.124 103.674 156.124 106.899 155.933C109.544 155.778 110.998 155.552 110.998 155.552C111.335 153.813 111.651 151.98 111.967 149.968C113.937 136.955 115.043 119.584 113.284 108.166L141.015 122.155C141.489 127.847 143.344 140.336 144.618 148.551C145.335 153.147 145.851 156.409 145.851 156.409C148.085 155.945 150.192 155.528 152.173 155.147C180.325 149.753 187.574 151.777 195.371 167.291C195.582 167.696 195.782 168.124 195.993 168.577C200.797 179.292 204.074 200.723 205.897 215.867C207.193 225.821 207.772 233.083 207.772 233.083Z" fill="#A7CAF0"/>
<path d="M207.772 233.083C195.592 240.953 178.998 261.932 178.376 262.705C178.597 262.182 182.222 253.705 182.591 250.799C182.959 247.894 181.674 239.298 179.683 231.214L206.023 215.915C207.192 225.821 207.772 233.083 207.772 233.083Z" fill="#A7CAF0"/>
<path d="M113.979 237.715C113.779 249.121 90.1358 250.728 75.7856 250.097C74.732 243.084 74.0577 237.346 73.7837 235.096L73.6678 234.084C78.8827 228.105 83.1932 221.199 86.4271 213.641C94.856 220.142 84.046 226.821 83.635 229.952C82.5182 238.536 114.264 221.428 113.979 237.715Z" fill="#A7CAF0"/>
<path d="M196.098 168.625C187.88 165.398 178.65 165.505 172.255 177.042C157.852 203.021 130.816 223.285 103.77 192.615C100.071 188.309 96.0255 184.403 91.6848 180.947C75.7014 168.589 62.1836 171.089 43.2817 180.245C46.5553 174.685 50.186 169.404 54.1445 164.446C54.4711 164.065 54.8083 163.696 55.1454 163.35C65.1653 152.933 81.7703 154.445 92.6857 155.564C94.3083 155.73 95.8465 155.849 97.2795 155.921C100.505 156.113 103.737 156.113 106.962 155.921C109.607 155.766 111.061 155.54 111.061 155.54C111.398 153.802 111.714 151.968 112.03 149.956C114 136.943 115.107 119.572 113.347 108.154L141.078 122.144C141.552 127.835 143.407 140.324 144.682 148.539C145.398 153.135 145.914 156.397 145.914 156.397C148.148 155.933 150.255 155.516 152.236 155.135C180.389 149.742 187.637 151.766 195.434 167.279C195.687 167.744 195.887 168.172 196.098 168.625Z" fill="#A7CAF0"/>
<path d="M152.278 155.195C152.194 163.243 151.425 177.911 148.327 188.281C144.323 201.735 139.603 196.27 134.419 190.96C129.731 186.126 112.641 170.041 97.29 155.957C100.515 156.148 103.747 156.148 106.973 155.957C109.617 155.802 111.071 155.576 111.071 155.576C111.408 153.837 111.725 152.004 112.041 149.992C123.177 149.17 136.537 148.361 144.703 148.575C145.419 153.171 145.935 156.433 145.935 156.433C148.148 155.945 150.255 155.576 152.278 155.195Z" fill="#83ADDF"/>
<path d="M141.363 185.96C141.363 185.96 117.635 167.72 106.973 155.945C109.617 155.79 111.071 155.564 111.071 155.564C113.61 142.384 115.38 121.334 113.358 108.178L131.385 117.262L141.089 122.168C141.436 126.371 142.553 134.347 143.617 141.515C144.797 149.444 145.925 156.421 145.925 156.421C146.789 179.542 141.363 185.96 141.363 185.96Z" fill="#FEBD9D"/>
<path d="M178.366 262.729C178.587 262.205 182.211 253.728 182.58 250.823C182.949 247.918 181.663 239.322 179.672 231.238C179.567 230.821 179.461 230.393 179.345 229.976" stroke="#83ADDF" stroke-width="0.75" stroke-linecap="round" stroke-linejoin="round"/>
<path d="M143.607 141.55C124.884 142.848 126.991 120.108 127.149 119.536L131.364 117.298L141.068 122.203C141.426 126.406 142.543 134.383 143.607 141.55Z" fill="#F4A789"/>
<path d="M23.3474 236.905C22.8206 238.655 22.8205 240.56 34.5683 244.299L36.3806 235.596C36.3806 235.596 25.6969 232.333 23.3474 236.905Z" fill="#A7CAF0"/>
<path d="M29.7849 232.321C27.0244 242.489 17.3944 276.54 17.3944 276.54C14.7814 289.029 47.5593 297.185 59.2228 275.968L65.6394 241.81C55.0353 234.013 42.3503 230.656 29.7849 232.321V232.321Z" fill="#FEBD9D"/>
<path d="M83.6772 219.391C83.6364 219.459 83.6011 219.531 83.5719 219.606C82.1811 222.118 80.6323 224.678 78.9465 227.321L78.8306 227.499C77.25 229.83 75.5248 232.03 73.6679 234.083C71.371 236.381 70.2542 236.465 70.2542 236.465L65.6815 250.216C65.2179 249.871 64.7438 249.525 64.2486 249.192C55.904 243.477 44.4196 240.334 35.801 238.667C32.9668 238.119 30.4381 237.738 28.4257 237.477C25.3281 237.06 23.4105 236.917 23.4105 236.917L27.0876 222.88C25.9829 219.994 25.6744 216.799 26.2026 213.712C26.8032 210.2 35.0424 193.913 43.3449 180.245C46.6184 174.685 50.2491 169.404 54.2077 164.445C54.5343 164.064 54.8714 163.695 55.2086 163.35C69.4113 155.837 87.8706 157.683 91.5056 179.34C91.6004 179.876 91.6847 180.411 91.7479 180.947C93.7709 195.365 90.6206 206.807 83.6772 219.391Z" fill="#A7CAF0"/>
<path d="M91.6848 180.947C75.7014 168.589 62.1836 171.089 43.2817 180.245C46.5553 174.685 50.186 169.404 54.1445 164.445C54.4711 164.064 54.8083 163.695 55.1454 163.35C69.3481 155.837 87.8075 157.683 91.4424 179.34C91.5373 179.911 91.6216 180.447 91.6848 180.947Z" fill="#A7CAF0"/>
<path d="M32.8615 225.856C42.7549 225.856 52.4271 230.428 54.0602 231.297" stroke="#83ADDF" stroke-width="0.75" stroke-linecap="round" stroke-linejoin="round"/>
<path d="M73.6678 234.083C75.5247 232.03 77.25 229.83 78.8305 227.5L78.9464 227.321C80.6119 224.847 82.156 222.271 83.5718 219.606C83.601 219.531 83.6363 219.459 83.6772 219.392C84.794 217.26 85.7212 215.296 86.4271 213.641C87.0066 212.355 87.428 211.26 87.7231 210.45" stroke="#83ADDF" stroke-width="0.75" stroke-linecap="round" stroke-linejoin="round"/>
<path d="M159.316 224.142C159.696 229.774 156.767 231.214 156.767 231.214C157.167 244.906 153.606 251.454 147.684 253.193C141.763 254.931 126.465 258.598 126.465 258.598C124.879 259.327 123.349 260.203 121.892 261.217C120.185 262.313 118.067 263.718 115.57 265.384C107.963 270.409 95.9836 275.1 81.7492 283.577C56.5257 298.602 38.5511 290.458 37.35 274.516C35.1795 245.335 67.9785 243.43 79.9581 241.18C88.6399 239.537 102.084 235.643 110.418 233.464C113.579 232.655 115.95 232.083 117.066 231.964C121.07 231.56 129.373 226.607 143.944 221.428C158.516 216.249 170.284 213.248 170.284 216.88C170.284 220.511 159.316 224.142 159.316 224.142Z" fill="#FEBD9D"/>
<path d="M143.965 221.427C158.526 216.224 170.305 213.248 170.305 216.879C170.305 220.511 159.274 224.178 159.274 224.178C159.653 229.809 156.724 231.25 156.724 231.25C157.125 244.942 153.563 251.49 147.642 253.228" stroke="#F4A789" stroke-width="0.75" stroke-linecap="round" stroke-linejoin="round"/>
<path d="M43.4608 254.764C49.7825 247.847 59.9077 244.859 68.4631 243.168" stroke="#F4A789" stroke-width="0.75" stroke-linecap="round" stroke-linejoin="round"/>
<path d="M121.892 261.217C120.185 262.312 118.067 263.717 115.57 265.384C109.702 257.99 106.657 246.537 110.418 233.428C113.579 232.619 115.95 232.047 117.066 231.928C114.348 240.322 113.842 254.014 121.892 261.217Z" fill="#683F1D"/>
<path d="M159.316 224.142L150.308 227.44" stroke="#F4A789" stroke-width="0.75" stroke-linecap="round" stroke-linejoin="round"/>
<path d="M156.767 231.214L151.224 233.488" stroke="#F4A789" stroke-width="0.75" stroke-linecap="round" stroke-linejoin="round"/>
<path d="M151.825 240.06L156.545 238.607" stroke="#F4A789" stroke-width="0.75" stroke-linecap="round" stroke-linejoin="round"/>
<path d="M119.763 248.811C119.763 250.514 119.317 252.178 118.48 253.593C117.643 255.009 116.453 256.112 115.061 256.764C113.669 257.415 112.137 257.586 110.66 257.254C109.182 256.922 107.825 256.102 106.759 254.898C105.694 253.694 104.969 252.16 104.675 250.49C104.381 248.821 104.531 247.09 105.108 245.517C105.685 243.944 106.661 242.6 107.914 241.654C109.166 240.708 110.639 240.203 112.146 240.203C114.166 240.203 116.104 241.11 117.532 242.724C118.961 244.339 119.763 246.528 119.763 248.811V248.811Z" fill="white" stroke="#683F1D" stroke-linecap="round" stroke-linejoin="round"/>
</g>
<path d="M225.272 89.4972V267.229H1V89.4972C0.998619 87.1432 1.40775 84.8118 2.20402 82.6365C3.00028 80.4611 4.16807 78.4844 5.64066 76.8193C7.11324 75.1541 8.86175 73.8332 10.7863 72.932C12.7108 72.0308 14.7737 71.5669 16.8569 71.5669H209.415C211.499 71.5669 213.561 72.0308 215.486 72.932C217.411 73.8332 219.159 75.1541 220.632 76.8193C222.104 78.4844 223.272 80.4611 224.068 82.6365C224.865 84.8118 225.274 87.1432 225.272 89.4972Z" stroke="#DDDDDD" stroke-width="2" stroke-linecap="round" stroke-linejoin="round"/>
<path d="M225.272 89.4972V90.2949H1V89.4972C0.998619 87.1432 1.40775 84.8118 2.20402 82.6365C3.00028 80.4611 4.16807 78.4844 5.64066 76.8193C7.11324 75.1541 8.86175 73.8332 10.7863 72.932C12.7108 72.0308 14.7737 71.5669 16.8569 71.5669H209.415C211.499 71.5669 213.561 72.0308 215.486 72.932C217.411 73.8332 219.159 75.1541 220.632 76.8193C222.104 78.4844 223.272 80.4611 224.068 82.6365C224.865 84.8118 225.274 87.1432 225.272 89.4972Z" stroke="#DDDDDD" stroke-width="2" stroke-linecap="round" stroke-linejoin="round"/>
<path d="M194.918 80.937C194.918 81.5822 194.748 82.213 194.431 82.7494C194.114 83.2859 193.663 83.704 193.136 83.9509C192.608 84.1979 192.028 84.2625 191.468 84.1366C190.908 84.0107 190.393 83.7 189.989 83.2438C189.586 82.7875 189.311 82.2063 189.199 81.5735C189.088 80.9407 189.145 80.2847 189.364 79.6886C189.582 79.0925 189.952 78.5831 190.427 78.2246C190.902 77.8661 191.46 77.6748 192.031 77.6748C192.41 77.6748 192.785 77.7592 193.136 77.9231C193.486 78.0871 193.804 78.3274 194.072 78.6303C194.34 78.9332 194.553 79.2928 194.698 79.6886C194.843 80.0844 194.918 80.5086 194.918 80.937V80.937Z" fill="#DDDDDD"/>
<path d="M201.44 84.1993C203.034 84.1993 204.326 82.7387 204.326 80.937C204.326 79.1354 203.034 77.6748 201.44 77.6748C199.845 77.6748 198.553 79.1354 198.553 80.937C198.553 82.7387 199.845 84.1993 201.44 84.1993Z" fill="#DDDDDD"/>
<path d="M213.735 80.9371C213.735 81.5828 213.566 82.214 213.248 82.7507C212.93 83.2874 212.479 83.7055 211.951 83.9521C211.422 84.1987 210.841 84.2626 210.281 84.1357C209.721 84.0089 209.206 83.697 208.803 83.2396C208.4 82.7821 208.126 82.1998 208.015 81.5662C207.905 80.9326 207.964 80.2763 208.184 79.6804C208.404 79.0845 208.776 78.5758 209.252 78.2188C209.728 77.8618 210.287 77.6725 210.859 77.6748C211.237 77.6748 211.612 77.7593 211.962 77.9234C212.312 78.0875 212.629 78.3279 212.896 78.631C213.164 78.9341 213.375 79.2938 213.519 79.6896C213.663 80.0853 213.736 80.5092 213.735 80.9371Z" fill="#DDDDDD"/>
<path d="M170.853 236.786C174.456 232.464 180.473 231.928 180.473 231.928L187.437 240.06C187.437 240.06 189.418 216.046 180.473 183.102C178.776 199.187 173.54 225.07 170.853 236.786Z" fill="#DDDDDD" stroke="#DDDDDD" stroke-linecap="round" stroke-linejoin="round"/>
<path d="M239.57 178.221C249.632 214.296 249.147 240.06 249.147 240.06H187.437C187.437 240.06 179.124 204.259 180.473 183.102C180.473 183.102 179.303 178.114 183.17 177.673C187.037 177.233 239.57 178.221 239.57 178.221Z" fill="#F9F9F9" stroke="#DDDDDD" stroke-linecap="round" stroke-linejoin="round"/>
<path d="M190.124 177.863C190.118 177.764 190.118 177.665 190.124 177.566C190.213 176.602 190.548 175.689 191.087 174.936C191.627 174.183 192.348 173.622 193.163 173.323C193.979 173.023 194.854 172.997 195.682 173.248C196.51 173.498 197.256 174.014 197.83 174.734C198.404 175.454 198.781 176.346 198.916 177.303C199.05 178.26 198.937 179.24 198.588 180.126C198.24 181.011 197.672 181.763 196.953 182.292C196.234 182.82 195.396 183.101 194.538 183.102" stroke="#DDDDDD" stroke-linecap="round" stroke-linejoin="round"/>
<path d="M221.479 177.863C221.593 176.909 221.947 176.012 222.499 175.28C223.051 174.547 223.779 174.009 224.594 173.731C225.41 173.453 226.279 173.446 227.097 173.711C227.916 173.977 228.65 174.503 229.212 175.226C229.773 175.95 230.138 176.842 230.263 177.794C230.388 178.746 230.268 179.718 229.917 180.595C229.566 181.472 228.999 182.217 228.284 182.739C227.568 183.262 226.735 183.541 225.883 183.542C225.143 183.541 224.416 183.319 223.776 182.899" stroke="#DDDDDD" stroke-linecap="round" stroke-linejoin="round"/>
<path d="M202.714 177.649C202.763 176.343 203.242 175.105 204.056 174.178C204.871 173.251 205.963 172.701 207.118 172.637C208.334 172.779 209.46 173.426 210.279 174.452C211.097 175.477 211.55 176.81 211.55 178.191C211.55 179.572 211.097 180.904 210.279 181.93C209.46 182.956 208.334 183.603 207.118 183.745C206.125 183.727 205.171 183.304 204.432 182.554" stroke="#DDDDDD" stroke-linecap="round" stroke-linejoin="round"/>
<path d="M212.113 177.768C212.224 176.816 212.576 175.919 213.126 175.187C213.676 174.455 214.401 173.917 215.215 173.638C216.028 173.359 216.896 173.351 217.714 173.614C218.531 173.878 219.264 174.402 219.825 175.124C220.386 175.846 220.751 176.735 220.876 177.685C221.002 178.636 220.882 179.607 220.532 180.482C220.182 181.358 219.616 182.101 218.902 182.622C218.188 183.144 217.356 183.422 216.506 183.423" stroke="#DDDDDD" stroke-linecap="round" stroke-linejoin="round"/>
<path d="M236.261 189.817H193.021V195.401H236.261V189.817Z" stroke="#DDDDDD" stroke-linecap="round" stroke-linejoin="round"/>
<path d="M203.736 233.976L203.188 229.273L200.407 205.068L199.943 201.092" stroke="#DDDDDD" stroke-linecap="round" stroke-linejoin="round"/>
<path d="M217.77 233.976L217.191 228.94L214.473 205.378L213.977 201.092" stroke="#DDDDDD" stroke-linecap="round" stroke-linejoin="round"/>
<path d="M228.022 201.08L231.805 233.988" stroke="#DDDDDD" stroke-linecap="round" stroke-linejoin="round"/>
<path d="M236.725 207.664H214.736H200.702H194.549" stroke="#DDDDDD" stroke-linecap="round" stroke-linejoin="round"/>
<path d="M238.864 222.035H216.39H202.356H196.677" stroke="#DDDDDD" stroke-linecap="round" stroke-linejoin="round"/>
<path d="M204.706 202.223C197.731 206.247 194.37 223.023 206.202 224.142C223.639 225.785 224.471 201.521 209.194 203.807" fill="#F9F9F9"/>
<path d="M204.706 202.223C197.731 206.247 194.37 223.023 206.202 224.142C223.639 225.785 224.471 201.521 209.194 203.807" stroke="#DDDDDD" stroke-width="2" stroke-linecap="round" stroke-linejoin="round"/>
<path d="M216.39 222.035H202.356L200.702 207.664H214.736L216.39 222.035Z" fill="#DDDDDD"/>
<path d="M241.603 219.867C241.898 225.332 251.086 219.32 250.454 214.534C249.821 209.747 241.256 213.533 241.603 219.867Z" fill="#FEBD9D" stroke="#F4A789" stroke-width="0.75" stroke-linecap="round" stroke-linejoin="round"/>
<path d="M240.044 212.509C240.381 217.986 250.728 211.974 250.053 207.176C249.379 202.377 239.654 206.187 240.044 212.509Z" fill="#FEBD9D" stroke="#F4A789" stroke-width="0.75" stroke-linecap="round" stroke-linejoin="round"/>
<path d="M239.317 207.021C239.675 212.486 250.77 206.474 250.043 201.687C249.316 196.901 238.906 200.687 239.317 207.021Z" fill="#FEBD9D" stroke="#F4A789" stroke-width="0.75" stroke-linecap="round" stroke-linejoin="round"/>
<path d="M237.758 200.246C238.126 205.211 249.569 199.758 248.821 195.413C248.073 191.067 237.326 194.508 237.758 200.246Z" fill="#FEBD9D" stroke="#F4A789" stroke-width="0.75" stroke-linecap="round" stroke-linejoin="round"/>
<path d="M204.706 202.223C197.731 206.247 194.37 223.023 206.202 224.142C223.639 225.785 224.471 201.521 209.194 203.807" stroke="#DDDDDD" stroke-width="2" stroke-linecap="round" stroke-linejoin="round"/>
<path d="M163.067 74.8174C162.15 83.4254 151.962 88.4735 151.962 88.4735L123.693 116.357C120.796 121.584 112.904 124.215 108.1 119.846C105.287 117.298 103.538 112.357 104.486 104.13C103.699 104.13 102.93 103.869 102.273 103.38C99.0177 101.106 97.0053 93.855 101.894 85.247C101.546 85.628 95.0351 92.7835 88.3341 90.6166C87.1817 90.2687 86.1077 89.6484 85.1833 88.7966C84.2588 87.9449 83.5048 86.8811 82.9712 85.6756C80.8639 80.8061 81.6015 72.6862 87.6176 61.5542C91.8953 53.6129 97.8482 52.1842 102.948 53.6725C108.721 55.3393 113.4 60.697 113.4 64.5902C114.673 62.8236 116.151 61.2579 117.793 59.935C120.048 58.161 122.84 56.9585 125.337 58.673C125.337 58.673 134.124 53.3272 139.118 56.6727C145.335 60.816 143.965 63.6972 150.013 64.1497C154.512 64.483 161.602 65.7689 162.898 71.5314C163.145 72.6036 163.202 73.7202 163.067 74.8174Z" fill="#B25E47"/>
<path d="M113.4 64.5902L101.915 85.2232C101.095 86.0904 100.218 86.8864 99.2917 87.6044C96.7103 89.6284 92.5802 91.9381 88.3657 90.5808C87.2133 90.233 86.1394 89.6126 85.2149 88.7609C84.2904 87.9091 83.5364 86.8454 83.0028 85.6399C96.0887 85.3303 100.693 81.199 98.0063 73.0672C95.5092 65.495 92.9173 55.9822 102.979 53.6367C106.916 54.7444 110.336 57.4915 112.557 61.3279C113.081 62.3157 113.371 63.4391 113.4 64.5902V64.5902Z" fill="#B25E47"/>
<path d="M163.067 74.8175C162.15 83.4255 151.962 88.4736 151.962 88.4736L123.693 116.357C120.796 121.584 112.904 124.215 108.1 119.846C106.439 115.343 106.031 110.376 106.93 105.605C107.83 100.834 109.995 96.4864 113.136 93.1407C118.931 87.1877 114.685 82.7468 115.243 74.9127C115.802 67.0786 128.487 55.0179 137.57 65.8404C144.692 74.3293 158.094 64.0664 162.951 71.5314C163.18 72.6076 163.22 73.7242 163.067 74.8175V74.8175Z" fill="#B25E47"/>
<path d="M145.735 131.787C133.028 130.311 120.132 115.417 120.132 115.417C115.286 121.655 105.729 112.333 110.46 104.57C113.558 99.4628 118.404 102.499 119.584 105.285C121.55 103.85 122.992 101.662 123.644 99.1228C124.297 96.5832 124.116 93.8629 123.135 91.462C122.095 88.5142 121.645 85.3428 121.818 82.1753C126.117 74.7937 137.517 73.103 137.517 73.103C139.202 75.1106 141.251 76.6822 143.525 77.7098C145.798 78.7374 148.242 79.1966 150.687 79.056C150.687 79.056 154.596 87.6878 157.778 96.4625C157.841 96.653 157.925 96.8673 157.989 97.0578C158.884 99.558 159.716 102.058 160.37 104.344C160.433 104.57 160.486 104.773 160.549 104.987C161.072 106.793 161.46 108.645 161.708 110.523C162.73 119.965 158.431 133.323 145.735 131.787Z" fill="#FEBD9D"/>
<path d="M151.014 92.5214C151.014 92.8275 151.094 93.1268 151.245 93.3813C151.395 93.6358 151.609 93.8342 151.859 93.9514C152.109 94.0685 152.385 94.0992 152.651 94.0394C152.916 93.9797 153.16 93.8323 153.352 93.6159C153.543 93.3994 153.674 93.1236 153.727 92.8234C153.78 92.5231 153.753 92.2119 153.649 91.9291C153.545 91.6463 153.37 91.4046 153.144 91.2345C152.919 91.0644 152.654 90.9736 152.383 90.9736C152.021 90.9767 151.674 91.1408 151.418 91.4304C151.162 91.72 151.016 92.1119 151.014 92.5214V92.5214Z" fill="#683F1D"/>
<path d="M143.965 95.6287C144.721 95.6287 145.335 94.9358 145.335 94.081C145.335 93.2261 144.721 92.5332 143.965 92.5332C143.209 92.5332 142.595 93.2261 142.595 94.081C142.595 94.9358 143.209 95.6287 143.965 95.6287Z" fill="#683F1D"/>
<path d="M142.353 104.559C145.099 106.114 148.144 106.871 151.214 106.761C151.214 106.761 150.624 112.559 146.22 111.012C142.374 109.666 142.353 104.559 142.353 104.559Z" fill="white" stroke="#F4A789" stroke-width="0.75" stroke-linecap="round" stroke-linejoin="round"/>
<path d="M138.012 89.533C138.518 91.438 144.85 89.533 144.155 86.4375C143.459 83.3419 137.285 86.8899 138.012 89.533Z" fill="#B25E47"/>
<path d="M148.769 85.6997C148.675 87.7713 155.154 87.9142 155.154 86.1283C155.154 84.5091 148.938 82.3541 148.769 85.6997Z" fill="#B25E47"/>
<path d="M104.486 104.13C105.271 98.2702 107.78 92.8806 111.608 88.8306" stroke="#683F1D" stroke-width="0.75" stroke-linecap="round" stroke-linejoin="round"/>
<path d="M125.337 58.6611C123.346 60.4589 120.364 66.3048 119.205 68.936" stroke="#683F1D" stroke-width="0.75" stroke-linecap="round" stroke-linejoin="round"/>
<path d="M123.567 74.8292C125.917 67.7571 130.437 64.5663 132.554 67.2809C134.672 69.9954 137.517 73.091 137.517 73.091" stroke="#683F1D" stroke-width="0.75" stroke-linecap="round" stroke-linejoin="round"/>
<path d="M150.687 79.1154C153.321 78.9963 155.829 75.9603 156.587 74.1982" stroke="#683F1D" stroke-width="0.75" stroke-linecap="round" stroke-linejoin="round"/>
<path d="M97.9747 83.9491C88.2604 85.6635 83.4664 69.4119 91.358 56.5654" stroke="#683F1D" stroke-width="0.75" stroke-linecap="round" stroke-linejoin="round"/>
<path d="M107.71 68.9359C109.744 62.9829 102.958 53.3748 99.2812 59.9707C95.0668 67.5191 101.22 77.532 107.71 76.639" stroke="#683F1D" stroke-width="0.75" stroke-linecap="round" stroke-linejoin="round"/>
<path d="M101.915 85.2233C104.241 77.4137 108.177 70.3414 113.4 64.5903C113.4 64.5903 110.449 71.3529 112.609 76.1629C108.86 78.8948 105.287 81.9225 101.915 85.2233V85.2233Z" fill="#FED81D"/>
<path d="M111.608 109.666C113.568 105.749 116.971 105.963 118.762 109.261" stroke="#F4A789" stroke-width="0.75" stroke-linecap="round" stroke-linejoin="round"/>
<path d="M118.046 108.213C114.011 107.023 114 113.142 118.288 112.273" stroke="#F4A789" stroke-width="0.75" stroke-linecap="round" stroke-linejoin="round"/>
<path d="M147.358 91.4023C147.294 94.9741 149.823 97.022 151.488 98.0101C153.152 98.9983 152.605 101.582 152.489 101.963" stroke="#F4A789" stroke-width="0.75" stroke-linecap="round" stroke-linejoin="round"/>
<path d="M120.143 115.464C120.789 114.521 121.327 113.489 121.744 112.393" stroke="#F4A789" stroke-width="0.75" stroke-linecap="round" stroke-linejoin="round"/>
<path d="M138.391 103.392C137.338 105.654 134.103 106.07 131.016 104.344C127.929 102.618 126.317 99.3674 127.328 97.1052C128.34 94.8431 131.616 94.4264 134.704 96.1646C137.791 97.9029 139.403 101.177 138.391 103.392Z" fill="#F4A789"/>
<path d="M160.549 105.034C159.888 105.38 159.154 105.506 158.432 105.398C157.71 105.291 157.031 104.954 156.471 104.427C154.944 102.701 155.523 99.2005 157.778 96.5098C157.841 96.7003 157.925 96.9146 157.989 97.1051C158.884 99.6053 159.717 102.106 160.37 104.391C160.433 104.618 160.486 104.82 160.549 105.034Z" fill="#F4A789"/>
<path d="M535.793 48.1237V225.856H311.563V48.1237C311.563 43.3683 313.235 38.8076 316.211 35.445C319.187 32.0824 323.222 30.1934 327.431 30.1934H519.989C524.187 30.2091 528.209 32.1055 531.171 35.4668C534.134 38.828 535.796 43.3797 535.793 48.1237V48.1237Z" stroke="#DDDDDD" stroke-width="2" stroke-linecap="round" stroke-linejoin="round"/>
<path d="M535.793 48.1237V48.9214H311.563V48.1237C311.563 43.3683 313.235 38.8076 316.211 35.445C319.187 32.0824 323.222 30.1934 327.431 30.1934H519.989C524.187 30.2091 528.209 32.1055 531.171 35.4668C534.134 38.828 535.796 43.3797 535.793 48.1237V48.1237Z" stroke="#DDDDDD" stroke-width="2" stroke-linecap="round" stroke-linejoin="round"/>
<path d="M505.481 39.5635C505.481 40.2092 505.311 40.8404 504.994 41.3772C504.676 41.9139 504.225 42.332 503.697 42.5786C503.168 42.8251 502.587 42.889 502.027 42.7622C501.467 42.6353 500.952 42.3235 500.549 41.866C500.146 41.4086 499.872 40.8262 499.761 40.1926C499.651 39.559 499.71 38.9027 499.93 38.3069C500.15 37.711 500.522 37.2023 500.998 36.8453C501.474 36.4883 502.033 36.2989 502.605 36.3013C502.983 36.3013 503.358 36.3858 503.708 36.5499C504.058 36.7139 504.375 36.9544 504.642 37.2575C504.91 37.5606 505.121 37.9203 505.265 38.316C505.409 38.7118 505.482 39.1357 505.481 39.5635V39.5635Z" fill="#DDDDDD"/>
<path d="M514.9 39.5635C514.9 40.2087 514.731 40.8394 514.414 41.3759C514.097 41.9124 513.646 42.3305 513.118 42.5774C512.591 42.8243 512.01 42.8889 511.45 42.763C510.89 42.6372 510.376 42.3265 509.972 41.8702C509.568 41.414 509.293 40.8327 509.182 40.1999C509.071 39.5671 509.128 38.9112 509.346 38.3151C509.565 37.719 509.935 37.2095 510.41 36.8511C510.884 36.4926 511.442 36.3013 512.013 36.3013C512.779 36.3013 513.513 36.645 514.055 37.2568C514.596 37.8686 514.9 38.6983 514.9 39.5635V39.5635Z" fill="#DDDDDD"/>
<path d="M524.309 39.5635C524.309 40.2087 524.14 40.8394 523.823 41.3759C523.505 41.9124 523.054 42.3305 522.527 42.5774C521.999 42.8243 521.419 42.8889 520.859 42.763C520.299 42.6372 519.785 42.3265 519.381 41.8702C518.977 41.414 518.702 40.8327 518.591 40.1999C518.479 39.5671 518.536 38.9112 518.755 38.3151C518.974 37.719 519.344 37.2095 519.818 36.8511C520.293 36.4926 520.851 36.3013 521.422 36.3013C522.188 36.3013 522.922 36.645 523.464 37.2568C524.005 37.8686 524.309 38.6983 524.309 39.5635V39.5635Z" fill="#DDDDDD"/>
<path d="M316.347 125.393C315.767 117.964 344.795 103.879 349.588 114.749L340.106 125.393C340.106 125.393 320.519 134.168 316.347 125.393Z" fill="#83ADDF"/>
<path d="M330.55 72.2571C326.335 57.4461 326.019 55.5887 328.843 54.4815C331.666 53.3742 338.82 70.1973 339.632 72.2571C342.466 78.7401 344.65 85.5609 346.143 92.5924C347.397 99.1645 349.041 114.297 349.304 117.94C350.421 133.323 327.979 138.002 326.999 126.036C326.019 114.071 325.945 110.201 325.945 110.201C325.945 110.201 314.356 111.392 312.733 101.653C311.11 91.9138 311.563 78.5553 311.563 78.5553C311.563 78.5553 293.947 75.2574 294.558 70.0068C295.169 64.7563 329.643 75.3645 329.643 75.3645L330.55 72.2571Z" fill="#B25E47"/>
<path d="M311.563 78.5552C311.563 78.5552 293.947 75.2573 294.558 70.0068C295.169 64.7563 329.643 75.3644 329.643 75.3644L330.55 72.2927C326.335 57.4817 326.019 55.6244 328.843 54.5171C331.666 53.4099 338.82 70.233 339.632 72.2927" stroke="#914839" stroke-width="0.75" stroke-linecap="round" stroke-linejoin="round"/>
<path d="M329.643 75.3286C328.13 81.8921 328.372 88.8153 330.339 95.2234" stroke="#914839" stroke-width="0.75" stroke-linecap="round" stroke-linejoin="round"/>
<path d="M321.394 63.9704C324.154 65.5897 326.335 65.9349 327.157 61.4821C327.979 57.0293 324.091 56.9221 322.837 57.1602C320.909 57.5174 320.203 63.268 321.394 63.9704Z" fill="#683F1D"/>
<path d="M321.91 62.8276C321.477 64.5636 321.125 66.3242 320.856 68.102C321.309 68.3639 324.017 69.3997 324.375 68.3639C324.789 66.5458 325.081 64.6952 325.25 62.8276H321.91Z" fill="#683F1D"/>
<path d="M319.444 69.5783C318.001 76.8766 310.541 116.881 310.289 118.19C310.036 119.5 310.373 125.548 310.826 125.774C311.279 126.001 313.881 121.679 314.83 119.488C315.778 117.297 324.165 73.4001 324.681 71.3523C325.966 66.3637 320.393 64.804 319.444 69.5783Z" fill="#683F1D"/>
<path d="M312.88 92.2827C309.267 93.2233 308.245 97.1165 310.91 99.7001C313.776 102.486 320.835 101.248 321.162 97.688C321.488 94.1282 315.894 91.5089 312.88 92.2827Z" fill="#B25E47" stroke="#914839" stroke-width="0.75" stroke-linecap="round" stroke-linejoin="round"/>
<path d="M312.554 85.9012C308.845 85.2821 307.939 89.473 310.584 92.6876C313.228 95.9022 321.963 96.6285 322.458 92.8067C322.953 88.9849 314.83 86.2822 312.554 85.9012Z" fill="#B25E47" stroke="#914839" stroke-width="0.75" stroke-linecap="round" stroke-linejoin="round"/>
<path d="M309.266 78.7456C313.923 77.555 324.017 85.2343 323.606 87.6274C323.111 90.6396 318.338 91.0921 311.616 87.8656C305.305 84.8415 306.991 79.3528 309.266 78.7456Z" fill="#B25E47" stroke="#914839" stroke-width="0.75" stroke-linecap="round" stroke-linejoin="round"/>
<mask id="mask1_109_1365" style="mask-type:alpha" maskUnits="userSpaceOnUse" x="311" y="41" width="226" height="186">
<rect x="311.816" y="41.6709" width="224.42" height="184.542" fill="#C4C4C4"/>
</mask>
<g mask="url(#mask1_109_1365)">
<path d="M533.444 136.764C518.989 135.967 507.019 150.694 503.311 167.624C503.205 168.101 503.111 168.613 503.026 169.172C502.632 171.778 502.354 174.405 502.194 177.042C500.656 199.389 502.11 243.834 502.257 244.906C502.31 245.275 492.027 244.906 477.761 244.144C472.493 243.87 466.719 243.572 460.692 243.227C430.053 241.525 393.661 239.227 393.661 239.227L391.449 211.414C391.449 211.414 386.865 220.177 371.188 237.286C355.51 254.395 330.444 244.858 333.142 223.344C334.827 209.831 341.887 199.949 350.442 183.4C353.086 178.28 355.879 172.53 358.681 165.827C362.432 156.921 366.056 148.42 369.554 140.741C371.082 137.36 372.589 134.133 374.053 131.109C379.553 119.643 384.484 110.964 388.456 106.904C400.394 94.6886 425.975 101.725 432.792 104.201C442.948 107.937 453.486 110.182 464.148 110.881C479.267 112.071 502.226 119.441 514.384 124.227C521.397 126.888 527.852 131.147 533.349 136.74L533.444 136.764Z" fill="#A7CAF0"/>
<path d="M543.622 162.112C530.389 147.11 510.296 140.562 490.13 160.921C466.677 184.531 448.681 188.638 422.298 154.159C403.217 129.156 396.601 122.858 374.053 131.156C379.553 119.691 384.484 111.011 388.456 106.951C400.394 94.736 425.975 101.772 432.792 104.249C442.95 107.968 453.488 110.197 464.148 110.88C479.267 112.071 502.225 119.441 514.384 124.227C521.397 126.888 527.852 131.147 533.349 136.74C538.638 141.455 541.725 150.884 543.622 162.112Z" fill="#A7CAF0"/>
<path d="M369.175 205.021C360.746 215.355 353.171 192.948 350.442 183.4C353.086 178.28 355.878 172.53 358.681 165.827C362.432 156.921 366.056 148.42 369.554 140.741C375.771 151.456 367.373 161.314 366.783 166.172C365.245 179.161 381.26 190.186 369.175 205.021Z" fill="#83ADDF"/>
<path d="M316.347 125.394C329.37 128.501 349.588 114.75 349.588 114.75C349.588 114.75 360.725 170.958 363.633 183.423C366.541 195.889 385.148 244.715 348.883 246.715C325.608 248.001 324.049 198.008 322.669 181.554C321.288 165.1 316.347 125.394 316.347 125.394Z" fill="#A7CAF0"/>
<path d="M324.976 131.823C334.996 132.621 346.153 125.001 346.153 125.001" stroke="#83ADDF" stroke-width="0.75" stroke-linecap="round" stroke-linejoin="round"/>
<path d="M349.588 114.75C349.588 114.75 360.725 170.958 363.633 183.423C365.224 190.222 371.482 207.843 370.956 222.785" stroke="#83ADDF" stroke-width="0.75" stroke-linecap="round" stroke-linejoin="round"/>
<path d="M422.298 113.309C428.789 126.918 446.005 140.002 466.782 121.941C466.782 121.941 469.016 114.44 468.784 114.44C468.552 114.44 425.238 108.487 425.238 108.487L422.298 113.309Z" fill="white"/>
<path d="M439.399 96.4981C434.046 95.129 426.292 96.6648 420.939 105.951C415.587 115.238 414.902 122.894 415.208 122.81C415.513 122.727 423.637 116.929 427.271 117.357C430.906 117.786 439.051 120.501 439.051 120.501L439.399 96.4981Z" fill="#FED81D"/>
<path d="M463.516 99.2246C463.516 99.2246 475.348 99.308 476.928 108.678C478.508 118.048 474.146 129.287 468.794 134.478C463.442 139.669 466.381 126.977 447.163 121.024L463.516 99.2246Z" fill="#FED81D"/>
<path d="M469.289 110.178C469.289 110.178 462.715 121.465 448.07 121.715C433.424 121.965 430.611 112.107 430.611 112.107C432.202 107.63 434.109 98.0816 435.331 91.3904C436.111 87.1638 436.617 84.0683 436.617 84.0683C436.617 84.0683 439.04 57.5656 464.179 59.161L464.611 63.5067L469.289 110.178Z" fill="#B25E47"/>
<path d="M435.331 91.6523C436.111 87.4376 436.617 84.3302 436.617 84.3302L450.925 76.7461C450.925 76.7461 453.19 95.2241 435.331 91.6523Z" fill="#914839"/>
<path d="M391.448 211.414C389.425 185.317 389.425 164.184 389.425 164.184" stroke="#83ADDF" stroke-width="0.75" stroke-linecap="round" stroke-linejoin="round"/>
</g>
<path d="M486.979 274.885C485.752 274.379 484.581 273.712 483.492 272.896C476.117 267.431 475.537 256.788 477.76 244.096C479.488 234.381 482.881 223.475 486.189 212.783C489.972 200.591 493.67 188.697 494.713 179.173C494.86 177.839 494.945 176.565 494.987 175.351C495.188 168.048 496.371 160.822 498.495 153.92C504.543 134.704 517.724 122.608 533.401 136.764C538.596 141.455 541.683 150.884 543.579 162.111C544.254 166.124 544.781 170.374 545.213 174.708C546.645 189.424 546.856 205.247 547.499 217.034C550.67 274.099 538.564 296.887 486.979 274.885Z" fill="#A7CAF0"/>
<path d="M543.622 162.111C532.232 149.205 515.743 142.55 498.516 153.896C504.564 134.68 517.745 122.584 533.423 136.74C538.638 141.455 541.725 150.884 543.622 162.111Z" fill="#A7CAF0"/>
<path d="M502.257 244.857C502.309 245.227 492.026 244.857 477.76 244.096C472.492 243.822 466.718 243.524 460.692 243.179C450.387 237.94 443.981 230.356 449.471 219.486C464.411 189.947 491.857 230.868 493.29 201.627C494.26 181.577 498.558 177.22 502.193 177.089C500.655 199.389 502.077 243.834 502.257 244.857Z" fill="#83ADDF"/>
<path d="M505.765 158.909C503.718 164.696 502.512 170.819 502.193 177.041C500.824 199.401 502.109 243.834 502.257 244.905" stroke="#83ADDF" stroke-width="0.75" stroke-linecap="round" stroke-linejoin="round"/>
<path d="M486.979 274.885C485.752 274.379 484.581 273.712 483.492 272.896C495.313 275.766 512.993 278.349 520.779 270.837C533.054 259.026 525.257 243.881 532.042 235.547C538.828 227.213 548.616 224.522 545.255 174.744C546.687 189.459 546.898 205.282 547.541 217.069C550.67 274.099 538.564 296.887 486.979 274.885Z" fill="#83ADDF"/>
<path d="M457.415 174.708C459.291 165.183 448.691 165.6 448.691 165.6C449.629 156.813 439.325 154.372 436.943 162.957C428.567 160.099 425.923 162.957 424.7 167.933L457.415 174.708Z" fill="#DDDDDD"/>
<path d="M443.128 166.516C444.507 166.516 445.625 165.253 445.625 163.695C445.625 162.136 444.507 160.873 443.128 160.873C441.749 160.873 440.631 162.136 440.631 163.695C440.631 165.253 441.749 166.516 443.128 166.516Z" fill="#F9F9F9" stroke="#DDDDDD" stroke-linecap="round" stroke-linejoin="round"/>
<path d="M408.791 160.861L393.155 256.668L455.234 270.836L471.913 174.898L408.791 160.861Z" fill="#F9F9F9" stroke="#DDDDDD" stroke-linecap="round" stroke-linejoin="round"/>
<path d="M427.914 224.344C424.753 233.666 424.564 243.465 426.018 246.739C426.018 246.739 431.939 247.989 437.86 229.832L427.914 224.344Z" fill="#83ADDF"/>
<path d="M435.953 206.318C421.751 200.806 414.965 197.472 412.405 196.686C409.845 195.901 400.594 195.02 399.119 196.686C397.644 198.353 397.539 200.473 398.065 202.639C398.592 204.806 397.012 206.485 396.79 208.723C396.569 210.962 398.95 211.64 398.466 213.867C397.981 216.093 396.358 218.534 397.475 221.01C398.592 223.487 396.422 226.011 398.466 229.011C400.51 232.011 421.456 233.464 426.049 232.357L435.068 236.917C435.068 236.917 450.936 218.498 435.953 206.318Z" fill="#B25E47"/>
<path d="M412.405 196.686C409.845 195.912 400.594 195.019 399.119 196.686C397.644 198.353 397.539 200.472 398.065 202.639C398.592 204.806 397.012 206.485 396.79 208.723C396.569 210.961 398.95 211.64 398.466 213.867C397.981 216.093 396.358 218.534 397.475 221.01C398.592 223.487 396.422 226.011 398.466 229.011" stroke="#914839" stroke-width="0.75" stroke-linecap="round" stroke-linejoin="round"/>
<path d="M520.79 270.824C517.092 278.373 507.841 282.004 490.235 276.015C485.494 274.396 480.921 272.717 476.538 271.015C469.29 268.205 462.599 265.336 456.604 262.586C446.158 257.893 435.932 252.6 425.965 246.727C428.613 243.428 430.75 239.648 432.287 235.547C433.245 233.12 434.034 230.612 434.647 228.046C436.283 220.956 436.723 213.581 435.943 206.306C438.334 207.116 440.905 207.949 443.613 208.783C450.156 210.807 457.489 212.902 464.917 215.105C487.18 221.736 510.338 229.332 515.975 238.774C516.491 239.643 517.029 240.512 517.45 241.417C517.629 241.774 517.819 242.131 517.988 242.5C518.039 242.592 518.085 242.687 518.125 242.786C518.335 243.215 518.535 243.655 518.725 244.084C519.083 244.858 519.399 245.632 519.705 246.405C523.024 255.001 523.962 264.36 520.79 270.824Z" fill="#A7CAF0"/>
<path d="M435.953 206.318C461.451 214.998 507.683 224.892 516.028 238.786C517.475 241.196 518.724 243.75 519.758 246.418" stroke="#83ADDF" stroke-width="0.75" stroke-linecap="round" stroke-linejoin="round"/>
<path d="M443.613 208.783C445.193 226.844 436.944 244.179 436.944 244.179" stroke="#83ADDF" stroke-width="0.75" stroke-linecap="round" stroke-linejoin="round"/>
<path d="M520.779 270.836C517.081 278.385 507.831 282.016 490.225 276.027C485.483 274.408 480.911 272.729 476.528 271.027C486.864 274.099 511.213 280.04 520.779 270.836Z" fill="#83ADDF"/>
<path d="M464.148 59.3872L464.58 63.7209C455.677 79.413 443.508 84.3539 436.585 84.2825C425.143 81.056 421.234 69.412 420.57 56.8988C420.407 53.9331 420.407 50.9589 420.57 47.9932C421.082 39.5175 422.345 31.1213 424.342 22.9312C424.342 22.9312 458.711 4.85796 461.092 41.1354C461.092 41.1354 468.468 39.6114 469.827 48.8742C470.986 56.5655 464.148 59.3872 464.148 59.3872Z" fill="#B25E47"/>
<path d="M426.091 48.0408C426.848 48.0408 427.461 47.3479 427.461 46.4931C427.461 45.6383 426.848 44.9453 426.091 44.9453C425.335 44.9453 424.721 45.6383 424.721 46.4931C424.721 47.3479 425.335 48.0408 426.091 48.0408Z" fill="#683F1D"/>
<path d="M435.658 46.0643C436.415 46.0643 437.028 45.3713 437.028 44.5165C437.028 43.6617 436.415 42.9688 435.658 42.9688C434.902 42.9688 434.288 43.6617 434.288 44.5165C434.288 45.3713 434.902 46.0643 435.658 46.0643Z" fill="#683F1D"/>
<path d="M433.593 36.1702C433.74 38.2895 440.146 39.111 440.515 37.9085C441.031 36.0988 433.224 31.2054 433.593 36.1702Z" fill="#683F1D"/>
<path d="M421.36 39.3375C421.36 40.5281 428.325 41.0163 428.072 36.9564C427.903 34.0156 421.508 36.1467 421.36 39.3375Z" fill="#683F1D"/>
<path d="M459.312 52.6363C462.177 47.8739 466.687 48.374 467.182 49.2789" stroke="#914839" stroke-width="0.75" stroke-linecap="round" stroke-linejoin="round"/>
<path d="M460.534 51.0052C464.748 48.1953 467.066 54.4936 461.714 54.4936" stroke="#914839" stroke-width="0.75" stroke-linecap="round" stroke-linejoin="round"/>
<path d="M429.789 41.9922C430.948 44.5282 430.843 46.064 430.084 47.6951C429.326 49.3263 426.997 53.0409 428.209 56.3388" stroke="#914839" stroke-width="0.75" stroke-linecap="round" stroke-linejoin="round"/>
<path d="M437.291 56.8984C436.238 60.8393 432.086 63.3038 430.158 62.8514C430.158 62.8514 432.15 68.9592 435.658 67.3995C439.693 65.5541 437.291 56.8984 437.291 56.8984Z" fill="white" stroke="#914839" stroke-width="0.75" stroke-linecap="round" stroke-linejoin="round"/>
<path d="M458.679 58.2441C459.469 58.8727 460.367 59.304 461.316 59.5093C462.264 59.7146 463.24 59.6892 464.179 59.4347" stroke="#914839" stroke-width="0.75" stroke-linecap="round" stroke-linejoin="round"/>
<path d="M471.175 37.4324C475.116 43.5521 469.184 46.2071 469.184 46.2071C468.586 45.205 467.793 44.3703 466.866 43.7664C466.284 43.3782 465.633 43.1402 464.96 43.0697C464.287 42.9991 463.608 43.0976 462.973 43.3582C462.338 43.6188 461.761 44.0349 461.285 44.5769C460.808 45.1188 460.444 45.7731 460.218 46.4929C452.137 46.6834 455.624 39.5517 455.624 39.5517C448.375 42.8258 448.143 34.4321 451.262 30.6461C445.604 37.7896 438.418 30.646 439.588 24.1811C437.586 31.2413 430.453 31.5152 431.401 25.6575C430.789 26.861 430.046 27.9729 429.189 28.9673C424.289 34.5393 419.885 28.5863 421.74 24.2049C414.364 32.1343 411.204 23.2644 418.21 18.502C412.658 13.3586 419.264 6.02456 423.699 9.83446C422.646 0.702604 430.99 0.30971 434.646 5.63166C436.079 -4.39314 447.163 1.08359 447.606 5.83406C455.771 -0.618956 462.093 4.13152 461.303 14.6207C464.601 9.63206 471.67 12.5609 468.952 25.336C475.737 24.7883 476.886 34.3012 471.175 37.4324Z" fill="#683F1D"/>
<path d="M466.866 43.7664C466.284 43.3782 465.633 43.1402 464.96 43.0697C464.287 42.9991 463.608 43.0977 462.973 43.3582C462.337 43.6188 461.761 44.035 461.285 44.5769C460.808 45.1188 460.444 45.7731 460.218 46.4929C452.136 46.6834 455.624 39.5517 455.624 39.5517C448.375 42.8258 448.143 34.4322 451.262 30.6461C445.604 37.7896 438.418 30.6461 439.588 24.1811C437.586 31.2414 430.453 31.5152 431.401 25.6575C430.789 26.861 430.046 27.9729 429.189 28.9673C427.208 22.1928 431.644 13.2515 438.418 17.2995C439.314 11.8466 450.387 8.31052 450.324 22.0619C454.423 15.597 463.705 17.8115 459.311 30.146C462.767 27.229 470.712 32.2772 466.866 43.7664Z" fill="#683F1D"/>
<path d="M451.978 46.1597C452.958 48.3742 451.115 51.6483 447.869 53.4937C444.624 55.3392 441.19 55.0296 440.21 52.8151C439.23 50.6006 441.063 47.3265 444.319 45.481C447.574 43.6356 450.999 43.9452 451.978 46.1597Z" fill="#914839"/>
<path d="M424.869 54.5772C424.363 56.1369 422.667 56.9584 420.581 56.9584C420.418 53.9927 420.418 51.0184 420.581 48.0527C423.678 49.541 425.585 52.3627 424.869 54.5772Z" fill="#914839"/>
<path d="M454.244 303.245V480.977H229.971V303.245C229.964 300.889 230.37 298.556 231.164 296.378C231.959 294.201 233.126 292.222 234.6 290.557C236.074 288.891 237.825 287.572 239.752 286.674C241.679 285.776 243.744 285.318 245.828 285.326H438.387C440.471 285.318 442.536 285.776 444.463 286.674C446.39 287.572 448.141 288.891 449.615 290.557C451.089 292.222 452.256 294.201 453.051 296.378C453.845 298.556 454.25 300.889 454.244 303.245Z" stroke="#DDDDDD" stroke-width="2" stroke-linecap="round" stroke-linejoin="round"/>
<path d="M454.244 303.245V304.054H229.971V303.245C229.964 300.889 230.37 298.556 231.164 296.378C231.959 294.201 233.126 292.222 234.6 290.557C236.074 288.891 237.825 287.572 239.752 286.674C241.679 285.776 243.744 285.318 245.828 285.326H438.387C440.471 285.318 442.536 285.776 444.463 286.674C446.39 287.572 448.141 288.891 449.615 290.557C451.089 292.222 452.256 294.201 453.051 296.378C453.845 298.556 454.25 300.889 454.244 303.245Z" stroke="#DDDDDD" stroke-width="2" stroke-linecap="round" stroke-linejoin="round"/>
<path d="M423.889 294.685C423.889 295.33 423.72 295.961 423.402 296.497C423.085 297.033 422.634 297.452 422.107 297.698C421.579 297.945 420.999 298.01 420.439 297.884C419.879 297.758 419.364 297.448 418.961 296.991C418.557 296.535 418.282 295.954 418.171 295.321C418.059 294.688 418.116 294.032 418.335 293.436C418.553 292.84 418.923 292.331 419.398 291.972C419.873 291.614 420.431 291.422 421.002 291.422C421.768 291.422 422.502 291.766 423.043 292.378C423.585 292.99 423.889 293.819 423.889 294.685V294.685Z" fill="#DDDDDD"/>
<path d="M430.411 297.947C432.005 297.947 433.298 296.486 433.298 294.685C433.298 292.883 432.005 291.422 430.411 291.422C428.816 291.422 427.524 292.883 427.524 294.685C427.524 296.486 428.816 297.947 430.411 297.947Z" fill="#DDDDDD"/>
<path d="M439.83 297.947C441.425 297.947 442.717 296.486 442.717 294.685C442.717 292.883 441.425 291.422 439.83 291.422C438.236 291.422 436.943 292.883 436.943 294.685C436.943 296.486 438.236 297.947 439.83 297.947Z" fill="#DDDDDD"/>
<path d="M243.194 389.111C236.788 367.68 235.281 356.107 237.03 354.452C238.084 353.405 239.844 352.631 239.981 350.511C240.118 348.392 237.968 341.272 245.47 339.606C245.47 339.606 248.009 322.806 250.422 314.937C250.422 314.937 263.824 375.216 264.762 379.741C265.699 384.265 247.546 403.731 243.194 389.111Z" fill="#FEBD9D"/>
<path d="M245.47 339.605C244.98 342.303 244.628 345.03 244.416 347.773" stroke="#F4A789" stroke-width="0.75" stroke-linecap="round" stroke-linejoin="round"/>
<path d="M236.567 360.786C236.177 357.214 236.367 355.095 237.041 354.452C238.095 353.405 239.854 352.631 239.991 350.511C240.128 348.392 237.979 341.272 245.48 339.606C245.48 339.606 248.02 322.806 250.432 314.937" stroke="#F4A789" stroke-width="0.75" stroke-linecap="round" stroke-linejoin="round"/>
<path d="M308.354 278.881L249.64 297.592C246.213 298.685 244.218 302.71 245.184 306.583L256.581 352.247C257.548 356.12 261.11 358.374 264.538 357.282L323.251 338.57C326.679 337.478 328.674 333.453 327.707 329.58L316.31 283.916C315.344 280.043 311.782 277.788 308.354 278.881Z" fill="#F9F9F9" stroke="#DDDDDD" stroke-linecap="round" stroke-linejoin="round"/>
<path d="M305.453 285.549L255.217 301.559C252.948 302.282 251.628 304.945 252.268 307.509L262.195 347.283C262.835 349.846 265.192 351.337 267.46 350.615L317.696 334.604C319.965 333.882 321.285 331.218 320.645 328.655L310.718 288.881C310.078 286.318 307.721 284.826 305.453 285.549Z" stroke="#DDDDDD" stroke-linecap="round" stroke-linejoin="round"/>
<path d="M290.891 324.032C290.907 324.37 290.907 324.707 290.891 325.044C290.728 327.606 289.936 330.065 288.605 332.147C287.274 334.228 285.456 335.849 283.355 336.829C281.254 337.808 278.953 338.106 276.71 337.691C274.467 337.275 272.372 336.161 270.658 334.475C268.944 332.789 267.679 330.596 267.006 328.143C266.333 325.69 266.279 323.074 266.848 320.588C267.417 318.101 268.588 315.843 270.23 314.067C271.871 312.291 273.918 311.066 276.141 310.531C276.97 310.318 277.819 310.215 278.669 310.222C280.276 310.22 281.867 310.576 283.351 311.269C284.836 311.962 286.185 312.979 287.322 314.262C288.459 315.544 289.361 317.067 289.977 318.744C290.593 320.42 290.911 322.217 290.912 324.032H290.891Z" stroke="#DDDDDD" stroke-linecap="round" stroke-linejoin="round"/>
<path d="M290.849 325.009C290.703 327.3 290.053 329.515 288.959 331.451C287.864 333.388 286.36 334.985 284.582 336.1C282.804 337.214 280.808 337.811 278.775 337.834C276.742 337.858 274.736 337.309 272.938 336.236C275.308 330.819 278.617 323.14 278.617 323.14L290.849 325.009Z" stroke="#DDDDDD" stroke-linecap="round" stroke-linejoin="round"/>
<path d="M290.891 324.033C290.907 324.37 290.907 324.708 290.891 325.045L278.69 323.211L287.92 314.96C289.851 317.478 290.907 320.702 290.891 324.033V324.033Z" stroke="#DDDDDD" stroke-linecap="round" stroke-linejoin="round"/>
<path d="M287.878 314.96L278.648 323.211C278.648 323.211 277.068 315.555 276.12 310.531C276.949 310.318 277.798 310.215 278.648 310.222C280.397 310.219 282.126 310.641 283.718 311.458C285.311 312.276 286.729 313.47 287.878 314.96V314.96Z" fill="#DDDDDD" stroke="#DDDDDD" stroke-linecap="round" stroke-linejoin="round"/>
<path d="M304.788 318.961C307.096 318.044 304.968 316.711 306.495 315.972C308.729 314.901 309.456 299.304 299.531 302.507C292.008 304.888 297.487 318.758 301.175 317.484C302.175 317.139 302.144 320.02 304.788 318.961Z" fill="#F9F9F9" stroke="#DDDDDD" stroke-linecap="round" stroke-linejoin="round"/>
<path d="M302.08 307.531C301.101 309.52 301.88 310.913 303.482 311.579C306.169 312.71 302.175 316.27 301.301 314.318C300.342 312.175 305.589 313.603 304.462 318.413" stroke="#DDDDDD" stroke-linecap="round" stroke-linejoin="round"/>
<path d="M303.608 322.151C304.283 323.973 305.115 324.294 306.39 323.878C307.665 323.461 307.717 322.461 307.38 321.008L303.608 322.151Z" fill="#F9F9F9" stroke="#DDDDDD" stroke-linecap="round" stroke-linejoin="round"/>
<path d="M302.523 320.997C303.134 319.806 306.738 319.08 307.243 319.211C307.749 319.342 308.202 320.997 307.538 321.425C306.147 322.127 304.662 322.566 303.145 322.723C302.993 322.673 302.852 322.584 302.735 322.464C302.617 322.344 302.525 322.195 302.465 322.029C302.406 321.864 302.38 321.685 302.39 321.506C302.4 321.327 302.445 321.153 302.523 320.997Z" fill="#F9F9F9" stroke="#DDDDDD" stroke-linecap="round" stroke-linejoin="round"/>
<path d="M301.828 318.782C302.481 317.591 306.358 316.853 306.853 316.996C307.507 317.175 307.907 318.782 307.18 319.199C305.686 319.904 304.104 320.342 302.491 320.496C302.337 320.451 302.194 320.367 302.073 320.25C301.951 320.133 301.855 319.986 301.791 319.821C301.727 319.656 301.697 319.477 301.704 319.297C301.71 319.117 301.752 318.941 301.828 318.782Z" fill="#F9F9F9" stroke="#DDDDDD" stroke-linecap="round" stroke-linejoin="round"/>
<path d="M289.469 306.483L292.672 306.722" stroke="#DDDDDD" stroke-linecap="round" stroke-linejoin="round"/>
<path d="M295.77 295.458L297.171 298.947" stroke="#DDDDDD" stroke-linecap="round" stroke-linejoin="round"/>
<path d="M306.717 296.375L305.589 298.947" stroke="#DDDDDD" stroke-linecap="round" stroke-linejoin="round"/>
<path d="M252.814 348.952C248.357 357.964 251.886 368.763 257.27 371.704C262.654 374.645 264.877 355.976 265.52 351.261C266.163 346.547 266.173 339.415 266.637 335.843C267.101 332.271 264.129 329.45 262.18 334.903C260.231 340.355 259.304 343.689 259.304 343.689L252.814 348.952Z" fill="#FEBD9D"/>
<path d="M265.52 351.261C266.173 346.499 266.173 339.415 266.637 335.843C267.101 332.271 264.129 329.45 262.18 334.903C260.231 340.355 259.304 343.689 259.304 343.689L252.814 348.952" stroke="#F4A789" stroke-width="0.75" stroke-linecap="round" stroke-linejoin="round"/>
<mask id="mask2_109_1365" style="mask-type:alpha" maskUnits="userSpaceOnUse" x="229" y="280" width="226" height="201">
<rect x="229.634" y="280.98" width="224.42" height="200.02" fill="#C4C4C4"/>
</mask>
<g mask="url(#mask2_109_1365)">
<path d="M396.716 313.888L393.134 365.084L353.897 369.263C357.258 357.202 359.964 344.92 361.999 332.485C362.884 327.116 363.685 321.413 364.296 315.591L378.752 314.841L396.716 313.888Z" fill="#FEBD9D"/>
<path d="M381.965 319.663C380.364 326.687 371.587 331.664 362.063 332.462C362.948 327.092 363.748 321.389 364.36 315.567L378.815 314.817C381.08 315.948 382.408 317.52 381.965 319.663Z" fill="#F4A789"/>
<path d="M457.657 369.239V488.358H449.481C449.481 488.358 444.656 466.748 423.878 421.458C423.878 421.458 423.478 423.47 422.667 426.959C421.55 431.793 419.643 439.436 416.935 448.52C412.369 464.144 406.491 479.238 399.382 493.596C384.391 500.853 368.579 505.718 352.401 508.05C351.959 508.05 351.506 508.181 351.052 508.229C334.932 510.479 316.22 510.491 297.234 504.967C285.444 501.592 274.193 496.157 263.887 488.858C264.456 487.81 290.09 431.102 298.077 412.862C298.698 411.445 299.32 410.064 299.952 408.695C307.454 392.491 316.452 379.895 340.748 369.239C346.385 366.786 351.337 364.607 355.678 362.702C371.682 355.69 379.658 352.225 384.547 350.582C388.003 349.423 391.286 348.34 394.398 347.332C424.342 337.617 439.198 335.343 451.789 357.047C454 360.947 455.961 365.022 457.657 369.239V369.239Z" fill="#FED81D"/>
<path d="M451.788 357.047C441.421 356.333 428.377 359.559 421.002 377.906C407.379 411.767 380.49 425.947 360.777 404.242C345.289 387.205 318.896 389.419 299.952 408.695C307.454 392.491 316.452 379.895 340.748 369.239C346.385 366.786 351.337 364.607 355.678 362.702C371.682 355.69 379.658 352.225 384.547 350.582C388.003 349.423 391.286 348.34 394.398 347.332C424.342 337.617 439.198 335.343 451.788 357.047Z" fill="#FED81D"/>
<path d="M457.657 456.164V488.31H449.481C449.481 488.31 444.656 466.701 423.878 421.411C425.069 416.184 425.986 411.148 426.723 406.683C440.146 413.327 441.295 427.388 439.83 435.329C438.471 442.722 445.372 460.843 457.657 456.164Z" fill="#FCC71F"/>
<path d="M345.879 429.59C343.772 442.044 334.595 463.879 318.211 495.073C315.694 499.598 312.835 503.868 309.666 507.836C305.482 507.124 301.332 506.171 297.234 504.979L302.418 488.37C305.357 475.523 310.846 469.797 322.668 467.225C333.162 464.927 324.375 428.662 345.879 429.59Z" fill="#FCC71F"/>
<path d="M293.093 527.004C293.093 527.004 301.975 517.813 309.666 507.824C312.835 503.855 315.694 499.585 318.211 495.061C334.595 463.879 343.761 442.043 345.879 429.578C346.539 425.72 346.522 422.764 345.827 420.708" stroke="#FCC71F" stroke-width="0.75" stroke-linecap="round" stroke-linejoin="round"/>
<path d="M428.809 390.384C428.809 390.384 428.251 397.23 426.702 406.731C425.986 411.195 425.048 416.255 423.857 421.458" stroke="#FCC71F" stroke-width="0.75" stroke-linecap="round" stroke-linejoin="round"/>
<path d="M302.407 461.629C302.797 490.263 273.875 519.134 258.018 483.702C251.391 468.903 234.839 399.837 235.998 390.384C237.052 381.966 258.84 363.226 267.785 366.893C267.785 366.893 271.526 378.013 276.667 392.205C283.21 410.267 292.019 433.34 298.214 444.794C300.92 449.88 302.368 455.694 302.407 461.629V461.629Z" fill="#FED81D"/>
<path d="M290.891 429.054C287.456 436.734 283.516 445.58 279.66 454.057C277.036 448.64 276.562 440.663 282.146 433.221C289.247 423.78 267.016 407.302 276.667 392.182C280.903 403.897 286.087 417.672 290.891 429.054Z" fill="#FCC71F"/>
<path d="M291.028 428.757C291.028 428.852 290.933 428.947 290.891 429.054C287.456 436.734 283.516 445.58 279.66 454.057L276.046 462.07" stroke="#FCC71F" stroke-width="0.75" stroke-linecap="round" stroke-linejoin="round"/>
</g>
<path d="M354.382 289.386C349.114 310.876 344.425 322.639 376.866 325.044C376.866 325.044 397.454 298.851 394.651 260.824C394.651 260.824 376.308 244.155 360.419 276.623C360.419 276.623 354.593 279.147 353.929 280.04C353.265 280.933 353.708 286.481 354.382 289.386Z" fill="#FEBD9D"/>
<path d="M360.419 276.623C360.419 276.623 354.593 279.147 353.929 280.04C353.265 280.933 353.708 286.481 354.382 289.386" stroke="#F4A789" stroke-width="0.75" stroke-linecap="round" stroke-linejoin="round"/>
<path d="M364.855 281.23C365.611 281.23 366.225 280.537 366.225 279.683C366.225 278.828 365.611 278.135 364.855 278.135C364.098 278.135 363.485 278.828 363.485 279.683C363.485 280.537 364.098 281.23 364.855 281.23Z" fill="#683F1D"/>
<path d="M366.045 267.158C368.764 265.027 373.537 277.433 370.081 277.385C368.69 277.385 362.737 269.753 366.045 267.158Z" fill="#BF8228"/>
<path d="M423.878 372.097C422.277 389.765 414.628 396.801 416.113 402.766C417.599 408.731 421.255 407.434 421.255 407.434C421.255 407.434 418.347 416.958 407.189 413.16C407.189 413.16 397.433 429.995 388.224 417.923C379.9 430.769 362.358 433.4 361.82 415.78C361.82 415.78 368.595 417.696 372.051 412.732C375.507 407.767 376.265 399.492 372.515 395.135C368.764 390.777 363.317 386.42 362.969 379.145C362.621 371.87 367.373 359.107 374.274 349.618C374.274 349.618 346.733 340.844 344.699 367.477L339.199 369.858C339.199 369.858 333.331 366.656 333.468 355.952C333.605 345.249 342.255 337.391 351.674 337.581C361.093 337.772 383.82 333.152 372.746 300.732C372.746 300.732 381.786 304.471 384.147 296.292C386.507 288.112 378.32 283.755 373.61 288.326C373.61 288.326 369.754 281.6 381.186 266.789C379.911 262.098 375.496 260.836 377.393 256.073C378.931 252.24 388.582 252.24 395.831 253.894C397.388 254.244 398.919 254.721 400.414 255.323C404.567 256.99 408.184 260.021 410.803 264.026C412.373 266.396 413.408 269.163 413.816 272.087C414.858 271.603 415.978 271.376 417.104 271.42C419.379 271.515 422.161 272.956 423.151 278.968C424.595 287.672 419.316 292.065 415.776 294.077C414.791 294.63 413.761 295.073 412.699 295.399C413.474 298.124 413.83 300.979 413.753 303.84V303.84C413.708 305.707 413.486 307.563 413.089 309.376C411.583 316.174 408.316 328.009 409.76 336.236C409.919 337.233 410.173 338.207 410.518 339.141C413.479 347.308 425.48 354.428 423.878 372.097Z" fill="#BF8228"/>
<path d="M415.734 294.137C414.749 294.689 413.718 295.132 412.657 295.458C412.657 295.458 407.716 296.815 405.756 287.052C404.186 279.23 408.074 273.956 413.816 272.146C414.858 271.663 415.978 271.435 417.104 271.48C406.715 281.707 411.762 290.017 415.734 294.137Z" fill="#BF8228"/>
<path d="M423.878 372.097C422.277 389.765 414.628 396.801 416.113 402.766C417.599 408.731 421.255 407.434 421.255 407.434C421.255 407.434 418.347 416.958 407.189 413.16C407.189 413.16 397.433 429.995 388.224 417.923C379.9 430.769 362.358 433.4 361.82 415.78C361.82 415.78 368.595 417.696 372.051 412.732C375.507 407.767 376.265 399.492 372.515 395.135C368.764 390.777 363.317 386.42 362.969 379.145C362.621 371.87 367.373 359.107 374.274 349.618C374.274 349.618 346.733 340.844 344.699 367.477L339.199 369.858C339.199 369.858 333.331 366.656 333.468 355.952C333.605 345.249 342.255 337.391 351.674 337.581C361.093 337.772 383.82 333.152 372.746 300.732C372.746 300.732 381.786 304.471 384.147 296.292C386.507 288.112 378.32 283.755 373.61 288.326C373.61 288.326 369.754 281.6 381.186 266.789C379.911 262.098 375.496 260.836 377.393 256.073C378.931 252.24 388.582 252.24 395.831 253.894C390.984 257.252 387.739 262.526 390.437 270.777C397.064 291.017 395.199 300.756 389.457 309.4C383.715 318.044 377.224 335.593 382.745 349.618C388.266 363.643 380.153 357.19 382.587 384.943C385.021 412.696 416.092 395.789 415.123 373.18C414.248 352.75 403.28 345.88 409.676 336.272C409.834 337.268 410.089 338.242 410.434 339.177C413.479 347.308 425.48 354.428 423.878 372.097Z" fill="#BF8228"/>
<path d="M373.452 293.22C376.466 291.1 379.321 291.291 380.975 292.636" stroke="#F4A789" stroke-width="0.75" stroke-linecap="round" stroke-linejoin="round"/>
<path d="M373.716 296.542C378.151 298.697 378.984 292.243 375.359 292.16" stroke="#F4A789" stroke-width="0.75" stroke-linecap="round" stroke-linejoin="round"/>
<path d="M396.6 264.348C401.457 266.063 408.727 274.694 408.727 274.694" stroke="#7F542D" stroke-width="0.75" stroke-linecap="round" stroke-linejoin="round"/>
<path d="M413.816 272.146C408.074 273.944 404.186 279.23 405.756 287.052C407.716 296.815 412.657 295.458 412.657 295.458" stroke="#7F542D" stroke-width="0.75" stroke-linecap="round" stroke-linejoin="round"/>
<path d="M407.495 276.635C411.941 274.623 417.251 273.766 419.274 280.123C421.297 286.481 418.336 291.41 413.816 295.042" stroke="#7F542D" stroke-width="0.75" stroke-linecap="round" stroke-linejoin="round"/>
<path d="M385.126 280.516C394.188 283.588 405.661 282.778 405.661 282.778" stroke="#7F542D" stroke-width="0.75" stroke-linecap="round" stroke-linejoin="round"/>
<path d="M387.623 298.28C395.536 300.482 405.535 293.994 407.115 291.422" stroke="#7F542D" stroke-width="0.75" stroke-linecap="round" stroke-linejoin="round"/>
<path d="M405.493 285.326C406.778 281.326 410.413 278.695 413.111 282.647C415.808 286.6 411.762 290.791 408.485 286.421" stroke="#7F542D" stroke-width="0.75" stroke-linecap="round" stroke-linejoin="round"/>
<path d="M374.285 349.678C381.955 339.45 388.424 331.283 385.137 316.52" stroke="#7F542D" stroke-width="0.75" stroke-linecap="round" stroke-linejoin="round"/>
<path d="M388.287 417.982C392.934 409.958 385.759 398.171 384.663 390.396C383.567 382.621 383.325 372.871 391.964 362.286" stroke="#7F542D" stroke-width="0.75" stroke-linecap="round" stroke-linejoin="round"/>
<path d="M399.951 327.271C406.399 345.809 407.41 348.797 403.912 362.679C400.414 376.562 398.307 383.443 403.912 393.349C410.139 404.326 408.19 408.303 407.179 413.16" stroke="#7F542D" stroke-width="0.75" stroke-linecap="round" stroke-linejoin="round"/>
<path d="M371.356 287.803C371.767 290.327 369.628 292.886 366.593 293.506C363.559 294.125 360.767 292.589 360.356 290.053C359.945 287.517 362.084 284.969 365.118 284.35C368.153 283.731 370.945 285.267 371.356 287.803Z" fill="#F4A789"/>
<path d="M454.243 333.104V480.976H229.971" stroke="#DDDDDD" stroke-width="2" stroke-linecap="round" stroke-linejoin="round"/>
</svg>
