<svg xmlns="http://www.w3.org/2000/svg" xmlns:xlink="http://www.w3.org/1999/xlink" width="256" zoomAndPan="magnify" viewBox="0 0 192 191.999996" height="256" preserveAspectRatio="xMidYMid meet" version="1.0"><defs><clipPath id="beb678ae8a"><path d="M 58 27.8125 L 163 27.8125 L 163 164 L 58 164 Z M 58 27.8125 " clip-rule="nonzero"/></clipPath></defs><path fill="#2f3136" d="M 116.5 95.675781 C 116.5 92.46875 113.902344 89.871094 110.703125 89.871094 L 17.945312 89.871094 C 14.746094 89.871094 12.148438 92.46875 12.148438 95.675781 C 12.148438 98.878906 14.746094 101.476562 17.945312 101.476562 L 110.703125 101.476562 C 113.902344 101.476562 116.5 98.878906 116.5 95.675781 Z M 116.5 95.675781 " fill-opacity="1" fill-rule="evenodd"/><path fill="#2f3136" d="M 49.097656 64.488281 C 46.835938 62.222656 43.164062 62.222656 40.902344 64.488281 L 13.847656 91.570312 C 11.582031 93.835938 11.582031 97.511719 13.847656 99.777344 L 40.902344 126.863281 C 43.164062 129.128906 46.835938 129.128906 49.097656 126.863281 C 51.363281 124.59375 51.363281 120.921875 49.097656 118.65625 L 26.144531 95.675781 L 49.097656 72.695312 C 51.363281 70.429688 51.363281 66.753906 49.097656 64.488281 Z M 49.097656 64.488281 " fill-opacity="1" fill-rule="evenodd"/><g clip-path="url(#beb678ae8a)"><path fill="#2f3136" d="M 58.527344 33.769531 C 58.527344 30.566406 61.121094 27.964844 64.324219 27.964844 L 157.078125 27.964844 C 160.28125 27.964844 162.875 30.566406 162.875 33.769531 L 162.875 111.308594 C 162.875 114.511719 160.28125 117.113281 157.078125 117.113281 C 153.878906 117.113281 151.28125 114.511719 151.28125 111.308594 L 151.28125 39.574219 L 70.121094 39.574219 L 70.121094 56.984375 C 70.121094 60.1875 67.527344 62.789062 64.324219 62.789062 C 61.121094 62.789062 58.527344 60.1875 58.527344 56.984375 Z M 64.324219 128.5625 C 67.527344 128.5625 70.121094 131.160156 70.121094 134.363281 L 70.121094 151.777344 L 151.28125 151.777344 L 151.28125 142.066406 C 151.28125 138.863281 153.878906 136.261719 157.078125 136.261719 C 160.28125 136.261719 162.875 138.863281 162.875 142.066406 L 162.875 157.578125 C 162.875 160.785156 160.28125 163.382812 157.078125 163.382812 L 64.324219 163.382812 C 61.121094 163.382812 58.527344 160.785156 58.527344 157.578125 L 58.527344 134.363281 C 58.527344 131.160156 61.121094 128.5625 64.324219 128.5625 Z M 64.324219 128.5625 " fill-opacity="1" fill-rule="evenodd"/></g></svg>