<svg width="304" height="581" viewBox="0 0 304 581" fill="none" xmlns="http://www.w3.org/2000/svg">
<path d="M139.495 535.336V575.88H205.159C205.159 575.88 209.084 572.107 197.144 566.24C185.878 560.731 179.075 555.402 173.429 542.511L139.495 535.336Z" fill="#683F1D"/>
<path d="M138.214 546.409H179.612L181.76 226.505L141.547 229.549L138.214 546.409Z" fill="#A7CAF0"/>
<path d="M148.405 269.845C153.914 268.963 156.076 266.953 156.076 266.953" stroke="#83ADDF" stroke-width="0.977792" stroke-linecap="round" stroke-linejoin="round"/>
<path d="M169.793 238.101C169.462 248.512 173.125 261.182 177.684 264.515" stroke="#83ADDF" stroke-width="0.977792" stroke-linecap="round" stroke-linejoin="round"/>
<path d="M105.066 552.248V580.783H170.729C170.729 580.783 174.654 577.01 162.714 571.143C151.449 565.634 144.66 560.305 138.999 547.428L105.066 552.248Z" fill="#683F1D"/>
<path d="M170.743 580.825C170.743 580.825 174.668 577.051 162.728 571.184C151.462 565.676 144.673 560.346 139.013 547.469" stroke="#7F542D" stroke-width="0.977792" stroke-linecap="round" stroke-linejoin="round"/>
<path d="M84.1325 192.173C78.3897 269.845 81.3781 322.082 86.4874 388.379C91.5968 454.676 99.8736 552.262 99.8736 552.262H143.103L146.284 220.198L84.1325 192.173Z" fill="#A7CAF0"/>
<path d="M143.103 552.29L145.705 273.646" stroke="#83ADDF" stroke-width="0.977792" stroke-linecap="round" stroke-linejoin="round"/>
<path d="M303.378 154.121C303.378 166.668 298.681 177.836 291.355 185.08C286.744 189.808 280.635 192.787 274.071 193.509C273.631 193.509 273.176 193.577 272.694 193.591H271.634C258.33 193.591 246.927 183.414 242.217 168.967C240.651 164.166 239.86 159.145 239.876 154.094C239.876 141.933 244.283 131.081 251.21 123.796C253.805 120.945 256.955 118.654 260.467 117.065C263.979 115.476 267.779 114.622 271.634 114.555C289.11 114.624 303.378 132.307 303.378 154.121Z" fill="#FED81D"/>
<path d="M291.286 185.08C286.675 189.808 280.566 192.787 274.002 193.509C273.562 193.509 273.107 193.577 272.625 193.591H271.565C258.261 193.591 246.858 183.414 242.148 168.967C256.829 177.575 262.572 195.134 288.353 186.141C289.303 185.92 290.281 185.493 291.286 185.08Z" fill="#FCC71F"/>
<path d="M288.353 186.168C286.575 188.291 284.388 190.035 281.923 191.296C279.458 192.557 276.764 193.309 274.003 193.509C273.562 193.509 273.107 193.577 272.625 193.591H271.565C267.651 193.59 263.76 192.996 260.024 191.828C236.723 184.942 210.57 167.948 193.658 157.399L193.424 157.248C189.444 154.755 186.001 152.648 183.233 151.105L181.856 150.375C175.617 147.07 170.577 139.661 167.506 131.095C166.914 129.415 166.39 127.693 165.95 125.944C160.441 104.447 167.12 79.1206 196.468 89.1877C201.977 91.0744 209.262 94.9581 217.387 100.026C229.022 107.408 240.27 115.384 251.086 123.92C270.243 138.862 287.1 154.218 290.804 160.925C292.842 164.929 293.694 169.432 293.259 173.904C292.825 178.376 291.123 182.631 288.353 186.168Z" fill="#FED81D"/>
<path d="M291.286 185.08C286.676 189.807 280.566 192.787 274.003 193.508C273.562 193.508 273.107 193.577 272.625 193.591H271.565C267.651 193.59 263.76 192.995 260.024 191.828C236.723 184.942 210.57 167.948 193.658 157.399C193.658 157.399 193.59 157.316 193.424 157.247C189.444 154.755 186.001 152.648 183.233 151.105L181.856 150.375C175.617 147.07 170.577 139.661 167.506 131.095C166.914 129.415 166.39 127.693 165.95 125.944C175.59 124.402 186.717 125.325 199.14 130.682C203.891 132.748 212.76 136.521 207.761 143.228C201.467 151.67 206.686 164.67 225.567 164.67C231.374 164.581 237.093 166.096 242.094 169.05C256.774 177.657 262.517 195.216 288.298 186.223C289.303 185.92 290.281 185.493 291.286 185.08Z" fill="#FCC71F"/>
<path d="M217.442 99.971C212.859 99.6197 208.249 99.9258 203.753 100.88C195.903 102.546 186.511 106.609 180.713 116.387C177.283 122.055 172.817 127.026 167.547 131.04C159.601 108.744 164.793 78.2668 196.468 89.1326C202.032 91.0194 209.317 94.903 217.442 99.971Z" fill="#FED81D"/>
<path d="M207.803 86.089C205.324 85.483 208.78 76.7104 215.377 68.4474C221.588 60.6664 225.513 56.4247 227.4 59.0276C228.557 60.5975 226.849 85.3866 207.803 86.089Z" fill="#FCC71F"/>
<path d="M218.228 86.8602C210.323 75.8428 205.117 66.8086 201.412 63.8339C197.708 60.8592 194.292 59.3856 193.893 55.9152C193.789 53.4156 194.377 50.9358 195.592 48.7489C196.807 46.562 198.602 44.7528 200.779 43.5206C206.288 40.3669 230.416 70.0036 230.416 70.0036C230.416 70.0036 231.214 84.7807 218.228 86.8602Z" fill="#B25E47"/>
<path d="M179.433 27.0498C184.129 22.3811 189.073 23.1386 199.622 32.9165C210.171 42.6944 221.836 47.7762 224.301 55.6812C226.987 64.2196 219.839 70.9953 210.309 69.8523C206.962 69.4529 201.715 68.8607 206.962 56.8655L192.86 45.0081C192.86 45.0081 188.935 50.9024 182.903 49.236C176.678 47.5145 168.512 37.9432 179.433 27.0498Z" fill="#DDDDDD" stroke="#DDDDDD" stroke-width="1.30831" stroke-linecap="round" stroke-linejoin="round"/>
<path d="M209.359 46.6056C211.631 47.7762 217.911 38.7144 214.868 36.9654C210.901 34.5691 207.087 45.4487 209.359 46.6056Z" fill="#B25E47" stroke="#914839" stroke-width="0.977792" stroke-linecap="round" stroke-linejoin="round"/>
<path d="M206.977 56.8655C208.579 54.0643 211.106 51.9075 214.124 50.7646" stroke="#DDDDDD" stroke-width="1.30831" stroke-linecap="round" stroke-linejoin="round"/>
<path d="M192.901 45.0079C193.748 43.7821 194.335 42.3954 194.624 40.9337C194.913 39.4721 194.898 37.9666 194.582 36.5107" stroke="#DDDDDD" stroke-width="1.30831" stroke-linecap="round" stroke-linejoin="round"/>
<path d="M192.957 57.4991C194.816 61.7132 200.173 55.571 202.377 49.663C204.484 44.0303 203.974 42.7771 200.765 43.3417C197.557 43.9064 190.45 51.894 192.957 57.4991Z" fill="#B25E47" stroke="#914839" stroke-width="0.977792" stroke-linecap="round" stroke-linejoin="round"/>
<path d="M197.666 38.8797C200.214 40.1742 207.307 30.176 203.919 28.2204C199.388 25.59 195.091 37.5852 197.666 38.8797Z" fill="#B25E47" stroke="#914839" stroke-width="0.977792" stroke-linecap="round" stroke-linejoin="round"/>
<path d="M201.688 41.0144C204.249 42.309 211.328 32.2969 207.954 30.3414C203.423 27.7247 199.126 39.7199 201.688 41.0144Z" fill="#B25E47" stroke="#914839" stroke-width="0.977792" stroke-linecap="round" stroke-linejoin="round"/>
<path d="M205.599 44.0717C208.037 45.3112 214.812 35.726 211.59 33.8531C207.279 31.264 203.161 42.7634 205.599 44.0717Z" fill="#B25E47" stroke="#914839" stroke-width="0.977792" stroke-linecap="round" stroke-linejoin="round"/>
<path d="M207.802 86.0891C217.814 100.205 245.385 141.176 255.81 154.948C269.321 172.851 301.67 175.729 301.684 141.548C301.684 124.609 227.399 59.0139 227.399 59.0139C227.399 59.0139 223.626 79.0793 207.802 86.0891Z" fill="#FED81D"/>
<path d="M217.333 90.2345C229.659 86.103 233.859 72.1798 233.859 72.1798" stroke="#FCC71F" stroke-width="0.977792" stroke-linecap="round" stroke-linejoin="round"/>
<path d="M223.062 65.0599C241.447 90.4688 248.002 107.821 243.623 114.638C239.243 121.455 229.397 117.751 230.388 112.049C231.765 104.929 243.595 103.111 238.651 122.254C233.707 141.397 220.307 143.049 217.994 137.72C214.702 130.365 228.405 122.571 229.824 141.851C231.242 161.131 209.731 166.007 203.657 161.131C197.584 156.256 214.606 143.655 214.344 164.864C214.082 186.072 189.032 186.706 177.725 183.869" stroke="#DDDDDD" stroke-width="2.6304" stroke-linecap="round" stroke-linejoin="round"/>
<path d="M207.802 86.089C217.814 100.205 245.385 141.176 255.81 154.948C258.903 158.996 262.872 162.292 267.42 164.588" stroke="#FCC71F" stroke-width="0.977792" stroke-linecap="round" stroke-linejoin="round"/>
<path d="M57.2637 202.102C57.3228 207.091 56.2096 212.025 54.0137 216.505C51.8179 220.985 48.6007 224.887 44.6213 227.897C39.9867 231.308 34.3867 233.155 28.6323 233.171H28.5497C24.9428 233.156 21.3769 232.407 18.0694 230.968C7.4927 226.423 0.0146484 215.213 0.0146484 202.047V201.303C0.0700743 196.919 1.0266 192.593 2.82479 188.594C4.62297 184.595 7.22438 181.008 10.4674 178.057C13.8212 175.045 17.8577 172.894 22.2284 171.791C24.3217 171.26 26.4728 170.992 28.6323 170.992C39.9802 170.992 49.7994 178.167 54.4267 188.565C55.4493 190.846 56.1982 193.241 56.6577 195.698C57.0734 197.807 57.2764 199.953 57.2637 202.102Z" fill="#FED81D"/>
<path d="M28.5497 233.171C24.9428 233.156 21.3769 232.406 18.0694 230.968C7.4927 226.423 0.0146484 215.213 0.0146484 202.047V201.303C0.0700743 196.919 1.0266 192.593 2.82479 188.594C4.62297 184.594 7.22438 181.008 10.4674 178.057C8.1675 208.341 11.4176 223.944 28.5497 233.171Z" fill="#FCC71F"/>
<path d="M114.54 111.76C113.755 114.252 112.832 116.814 111.786 119.417C110.739 122.02 109.789 124.223 108.646 126.661C108.274 127.432 107.902 128.189 107.516 128.961C106.332 131.375 105.047 133.794 103.66 136.218C103.192 137.045 102.738 137.857 102.283 138.656C94.1236 152.113 84.865 164.873 74.602 176.804C72.2471 179.558 69.837 182.312 67.3719 184.943L65.6367 186.788C63.805 188.716 61.9596 190.617 60.128 192.448C58.9849 193.564 57.8419 194.679 56.6988 195.74C42.7756 208.837 28.4255 218.367 16.7608 218.628C15.6743 218.659 14.5872 218.599 13.5107 218.449C10.322 218.097 7.33688 216.709 5.01352 214.497C1.90111 211.467 0.24851 206.909 0.0557058 201.345C-0.261044 190.961 4.54529 177.093 14.5298 163.252C15.0807 162.495 15.6453 161.696 16.2375 160.856C26.0154 146.836 40.4482 123.066 56.4509 103.731C71.1178 85.9928 87.1619 71.9732 102.201 72.6618C103.405 72.7113 104.603 72.8633 105.781 73.1162C118.837 75.843 120.737 91.8871 114.54 111.76Z" fill="#FED81D"/>
<path d="M16.1276 200.987C13.9994 203.47 12.8795 206.661 12.9892 209.93C13.0988 213.198 14.4299 216.307 16.7198 218.642C15.6333 218.673 14.5462 218.613 13.4697 218.463C10.281 218.111 7.29586 216.723 4.9725 214.51C1.8601 211.481 0.20749 206.922 0.0146864 201.359C-0.302063 190.975 4.50427 177.106 14.4888 163.266C15.0396 162.508 15.6043 161.71 16.1965 160.87C19.2334 163.879 21.3293 167.707 22.2285 171.887C23.0164 175.214 23.2996 178.64 23.0685 182.051C22.6554 189.115 20.2178 196.194 16.1276 200.987Z" fill="#FCC71F"/>
<path d="M111.814 119.417C109.14 126.08 105.953 132.526 102.284 138.697C94.1244 152.155 84.8658 164.914 74.6028 176.845C69.948 182.354 65.059 187.601 60.0874 192.504" stroke="#FCC71F" stroke-width="0.977792" stroke-linecap="round" stroke-linejoin="round"/>
<path d="M114.541 111.76C107.531 103.166 99.7635 98.4975 86.9971 98.4287C79.0784 98.4287 69.2454 100.123 56.479 103.745C71.1183 85.9928 87.1624 71.9732 102.201 72.6618C103.405 72.7113 104.603 72.8633 105.782 73.1162C118.837 75.843 120.738 91.8871 114.541 111.76Z" fill="#FED81D"/>
<path d="M203.754 100.88C203.203 113.054 198.011 136.149 194.375 153.791C194.141 154.962 193.893 156.174 193.659 157.399C189.142 180.646 184.597 215.461 184.569 220.749C184.569 238.308 172.395 235.141 138.393 234.19C121.646 233.722 103.151 233.102 89.338 230.348C85.4441 229.635 81.6295 228.542 77.9488 227.084C71.3521 224.33 67.5374 220.446 68.1984 214.869C68.2934 214.185 68.436 213.508 68.6254 212.844C71.9335 201.096 73.9378 189.019 74.6023 176.831C75.0843 170.207 75.346 163.528 75.6627 156.628C75.9106 150.761 76.1998 144.743 76.6956 138.504C77.6458 125.986 81.9977 110.961 86.928 98.4563C92.5882 84.0648 99.0333 72.9511 102.077 72.7032H102.27C107.916 72.2762 122.239 74.1905 143.227 74.6037C152.113 74.8056 160.911 76.4091 169.297 79.3549C172.974 80.6495 187.765 84.96 196.578 89.1741C198.919 90.1091 201.043 91.5154 202.817 93.3057C203.657 94.4212 203.933 97.1342 203.754 100.88Z" fill="#FED81D"/>
<path d="M89.338 230.32C85.4441 229.607 81.6295 228.514 77.9488 227.057C71.3521 224.302 67.5374 220.419 68.1984 214.841C68.2934 214.157 68.436 213.481 68.6254 212.817C71.9335 201.068 73.9378 188.991 74.6023 176.804C75.0843 170.179 75.346 163.5 75.6627 156.6L104.721 128.961C112.695 142.292 97.3807 168.086 87.1759 174.71C76.971 181.334 77.6734 194.404 99.1848 198.976C115.504 202.446 98.51 221.369 89.338 230.32Z" fill="#FCC71F"/>
<path d="M217.442 99.9711C212.859 99.6198 208.25 99.9259 203.753 100.88C195.903 102.546 186.511 106.609 180.713 116.387C177.284 122.055 172.817 127.026 167.547 131.04C153.776 141.507 135.335 144.674 123.478 125.063C120.791 120.423 117.781 115.978 114.471 111.76C107.461 103.166 99.6942 98.4975 86.9278 98.4287C79.0091 98.4287 69.1761 100.123 56.4097 103.745C71.1179 85.9928 87.1619 71.9732 102.201 72.6618C107.847 72.2349 122.17 74.1491 143.158 74.5623C152.044 74.7642 160.842 76.3677 169.228 79.3135C172.905 80.6081 187.695 84.9186 196.509 89.1328C202.032 91.0195 209.317 94.9031 217.442 99.9711Z" fill="#FED81D"/>
<path d="M160.263 95.8947C160.263 95.8947 164.174 108.565 165.771 109.666L172.368 110.699C174.52 106.85 176.326 102.817 177.767 98.6491L170.729 88.6646L160.263 95.8947Z" fill="#683F1D"/>
<path d="M165.661 109.694L150.512 167.439C150.512 167.439 152.261 175.151 160.91 186.884C160.91 186.884 169.655 175.468 171.5 170.524L172.23 110.727L165.661 109.694Z" fill="#683F1D"/>
<path d="M149.231 69.99C145.651 70.1002 138.214 73.3916 138.214 76.3938C138.214 79.3961 144.907 103.18 155.676 109.102C155.676 109.102 159.808 96.7071 170.715 94.9306L149.231 69.99Z" fill="white"/>
<path d="M170.674 94.9308C174.91 100.142 178.426 105.9 181.127 112.049C181.127 112.049 191.758 98.1396 190.299 86.9018C190.064 85.0289 180.658 80.5393 180.658 80.5393L170.674 94.9308Z" fill="white"/>
<path d="M193.659 157.399C193.893 156.173 194.141 154.962 194.375 153.791C195.863 146.602 197.598 138.518 199.182 130.627C199.292 130.062 199.388 129.511 199.498 128.961" stroke="#FCC71F" stroke-width="0.977792" stroke-linecap="round" stroke-linejoin="round"/>
<path d="M183.564 83.1834C183.564 83.1834 179.239 95.9222 170.453 95.8947C156.117 95.8947 147.165 72.8683 147.165 72.8683C151.572 54.9651 151.131 46.7021 151.131 46.7021C150.649 34.8859 177.766 19.2963 181.512 54.3729L181.842 59.0278L182.999 75.2922L183.564 83.1834Z" fill="#B25E47"/>
<path d="M182.945 75.2921C173.718 74.9891 165.289 70.1828 164.849 59.0277H181.788L182.945 75.2921Z" fill="#914839"/>
<path d="M180.672 12.5206C180.218 15.7019 176.128 17.8089 176.128 17.8089L166.722 31.8285C166.722 31.8285 158.197 41.5927 149.094 40.6011C147.755 40.448 146.452 40.0709 145.238 39.4856C140.748 37.3097 143.365 33.068 142.483 31.7046C141.602 30.3412 139.357 30.1484 138.806 27.5731C138.255 24.9978 142.346 25.2181 140.61 22.4775C138.875 19.737 137.856 17.4922 140.734 15.4953C143.613 13.4984 140.845 12.7409 142.676 9.55966C144.053 7.09453 146.463 10.083 147.331 6.80532C148.199 3.52765 150.829 4.71202 152.716 4.40904C155.112 4.02343 153.074 1.95767 156.338 1.17268C157.935 0.787076 157.88 2.66003 159.753 1.4068C160.552 0.804796 161.499 0.43161 162.494 0.327284C163.489 0.222958 164.493 0.391427 165.4 0.814619C167.796 2.39837 167.686 -0.796672 170.688 0.194892C172.809 0.89725 171.459 2.50854 174.379 2.94924C177.298 3.38993 177.229 5.12517 177.464 6.95681L177.588 7.71425C177.973 9.86264 181.113 9.33932 180.672 12.5206Z" fill="#683F1D"/>
<path d="M182.683 11.0196C182.215 14.4212 177.932 16.6798 177.932 16.6798L168.071 31.6772C168.071 31.6772 159.133 42.1299 149.589 41.0695C149.772 40.2821 149.719 39.4585 149.438 38.7008C148.46 37.2272 146.16 37.0344 145.582 34.2938C145.003 31.5532 149.3 31.7598 147.482 28.7851C145.665 25.8104 144.604 23.4555 147.606 21.3208C150.609 19.1862 147.717 18.3737 149.645 14.9721C151.132 12.3279 153.611 15.523 154.534 12.0662C155.456 8.60955 158.197 9.83523 160.166 9.51848C162.673 9.09156 160.538 6.88808 163.981 6.04801C165.634 5.62108 165.592 7.63175 167.548 6.2959C169.503 4.96004 171.996 4.65706 173.47 5.6624C175.976 7.35632 175.866 3.94093 178.978 5.00135C179.078 5.02269 179.175 5.05502 179.268 5.09776C179.268 5.37319 179.268 5.63485 179.391 5.91029C179.873 8.14131 183.165 7.59044 182.683 11.0196Z" fill="#683F1D"/>
<path d="M188.99 57.7333C186.456 64.8808 171.17 72.9924 152.606 49.6493C150.938 50.1552 149.142 50.0307 147.561 49.2995C145.979 48.5682 144.721 47.2812 144.026 45.683C141.271 40.4085 145.21 32.6825 154.355 36.4009C156.021 37.0757 156.944 32.8616 154.933 29.9144C152.922 26.9673 149.424 19.806 157.577 14.5865C165.73 9.367 176.555 9.90409 180.714 16.4181C183.324 20.7417 185.401 25.3661 186.897 30.1898C187.599 32.352 188.274 34.583 188.729 36.8416C190.45 44.4711 190.918 52.2246 188.99 57.7333Z" fill="#B25E47"/>
<path d="M171.68 38.673C171.253 40.4082 167.851 41.0693 164.064 40.1328C160.277 39.1963 157.577 37.0479 158.004 35.3127C158.431 33.5775 161.847 32.9164 165.62 33.8391C169.394 34.7618 172.107 36.9378 171.68 38.673Z" fill="#914839"/>
<path d="M188.729 36.8688C186.911 37.8741 185.258 38.0945 184.418 37.2682C183.206 36.0563 184.294 32.9163 186.897 30.217C187.599 32.3792 188.219 34.6102 188.729 36.8688Z" fill="#914839"/>
<path d="M161.171 26.6365C161.474 28.1376 171.28 25.2593 170.33 22.1194C169.049 17.9052 160.648 23.9372 161.171 26.6365Z" fill="#683F1D"/>
<path d="M175.467 22.0367C175.674 23.9785 183.537 24.006 183.51 22.7528C183.482 21.4996 174.999 17.6711 175.467 22.0367Z" fill="#683F1D"/>
<path d="M168.623 31.1538C168.623 31.5052 168.727 31.8486 168.922 32.1408C169.117 32.433 169.395 32.6607 169.719 32.7951C170.044 32.9296 170.401 32.9648 170.746 32.8962C171.09 32.8277 171.407 32.6585 171.655 32.41C171.904 32.1616 172.073 31.845 172.142 31.5004C172.21 31.1558 172.175 30.7986 172.04 30.4739C171.906 30.1493 171.678 29.8719 171.386 29.6767C171.094 29.4814 170.751 29.3773 170.399 29.3773C170.165 29.3754 169.934 29.4201 169.717 29.5087C169.501 29.5974 169.304 29.7282 169.139 29.8935C168.974 30.0588 168.843 30.2554 168.754 30.4718C168.665 30.6882 168.621 30.92 168.623 31.1538Z" fill="#683F1D"/>
<path d="M178.854 29.3771C178.865 29.7259 178.978 30.0638 179.18 30.3486C179.382 30.6334 179.663 30.8525 179.988 30.9786C180.314 31.1046 180.669 31.132 181.01 31.0574C181.351 30.9828 181.662 30.8094 181.905 30.5589C182.148 30.3083 182.312 29.9918 182.376 29.6488C182.44 29.3058 182.402 28.9514 182.266 28.63C182.13 28.3086 181.903 28.0343 181.612 27.8414C181.321 27.6485 180.98 27.5456 180.631 27.5454C180.393 27.5453 180.157 27.593 179.938 27.6857C179.719 27.7784 179.521 27.9142 179.355 28.0851C179.189 28.2559 179.059 28.4583 178.973 28.6803C178.887 28.9022 178.847 29.1392 178.854 29.3771Z" fill="#683F1D"/>
<path d="M147.111 41.7302C148.488 38.3286 153.501 38.9759 155.071 42.7218" stroke="#914839" stroke-width="0.977792" stroke-linecap="round" stroke-linejoin="round"/>
<path d="M154.025 41.1107C151.628 39.6509 147.524 45.1321 154.025 46.702" stroke="#914839" stroke-width="0.977792" stroke-linecap="round" stroke-linejoin="round"/>
<path d="M152.606 49.649C154.183 49.2207 155.665 48.4963 156.972 47.5144" stroke="#914839" stroke-width="0.977792" stroke-linecap="round" stroke-linejoin="round"/>
<path d="M174.971 26.3475C174.971 32.9166 177.973 33.6328 181.003 34.8309C183.523 35.8225 182.725 38.6044 182.133 39.4995" stroke="#914839" stroke-width="0.977792" stroke-linecap="round" stroke-linejoin="round"/>
<path d="M171.679 43.7824C176.816 43.7824 180.713 43.4932 180.713 43.4932C180.713 43.4932 178.427 49.9796 175.508 49.6491C172.588 49.3186 171.679 43.7824 171.679 43.7824Z" fill="white" stroke="#914839" stroke-width="0.977792" stroke-linecap="round" stroke-linejoin="round"/>
<path d="M170.532 212.058L108.368 173.153L51.8992 263.381L114.063 302.286L170.532 212.058Z" fill="#DDDDDD"/>
<path d="M160.979 216.184L108.831 183.548L61.4512 259.254L113.599 291.89L160.979 216.184Z" fill="#F9F9F9"/>
<path d="M148.639 194.28C149.254 193.76 149.784 193.146 150.209 192.462C150.72 191.623 151.06 190.691 151.211 189.72C151.362 188.75 151.32 187.759 151.088 186.804C150.856 185.849 150.438 184.95 149.858 184.157C149.279 183.363 148.548 182.692 147.709 182.181C146.87 181.67 145.938 181.33 144.968 181.179C143.997 181.028 143.006 181.07 142.051 181.302C141.096 181.534 140.197 181.952 139.404 182.532C138.611 183.111 137.939 183.842 137.429 184.681C137.016 185.368 136.714 186.117 136.533 186.898L127.1 181.155L119.883 192.985L150.87 211.866L158.072 200.023L148.639 194.28Z" fill="#DDDDDD" stroke="#DDDDDD" stroke-width="1.30831" stroke-linecap="round" stroke-linejoin="round"/>
<path d="M144.678 192.067C146.613 191.594 147.798 189.641 147.325 187.705C146.851 185.769 144.898 184.584 142.962 185.058C141.027 185.532 139.842 187.485 140.315 189.42C140.789 191.356 142.742 192.541 144.678 192.067Z" fill="#F9F9F9"/>
<path d="M111.812 197.97L147.357 220.226" stroke="#DDDDDD" stroke-width="1.30831" stroke-linecap="round" stroke-linejoin="round"/>
<path d="M108.259 204.25L143.818 226.506" stroke="#DDDDDD" stroke-width="1.30831" stroke-linecap="round" stroke-linejoin="round"/>
<path d="M104.72 210.531L132.429 227.869" stroke="#DDDDDD" stroke-width="1.30831" stroke-linecap="round" stroke-linejoin="round"/>
<path d="M112.749 238.102C129.372 246.365 134.784 249.229 135.968 250.234C139.37 253.25 138.984 258.842 138.984 258.842C138.984 258.842 146.283 262.574 147.027 264.681C147.771 266.788 143.97 270.796 141.518 270.589C141.518 270.589 138.585 273.853 135.941 273.646C135.941 273.646 134.977 277.971 131.382 278.177C131.382 278.177 130.969 281.868 125.874 280.808C120.778 279.747 98.7295 261.94 98.7295 261.94L112.749 238.102Z" fill="#B25E47"/>
<path d="M114.608 239.024C113.121 242.178 104.844 257.506 101.305 264.02C100.327 265.838 99.7074 266.967 99.7074 266.967C99.7074 266.967 76.6123 257.754 56.0373 249.174C43.7942 244.037 32.4463 239.134 27.3921 236.532C24.1581 234.918 21.0425 233.077 18.0687 231.023C11.3618 226.313 6.66567 220.942 4.97175 214.497C3.27783 208.052 4.59992 200.353 10.1086 191.278C11.5532 188.955 13.4413 186.94 15.6648 185.347C17.8884 183.755 20.4039 182.616 23.0678 181.995C25.9297 181.283 28.8809 180.995 31.8266 181.142H32.8182C33.8648 181.142 34.9252 181.334 35.9857 181.5C36.3024 181.5 36.6192 181.596 36.9359 181.665L37.9826 181.858L39.7454 182.271H39.8142L40.7507 182.519L41.1776 182.643C41.5494 182.739 41.9075 182.849 42.2656 182.973L43.3535 183.318L44.4415 183.703L45.557 184.13C47.3837 184.839 49.1678 185.653 50.9004 186.568C51.2172 186.719 51.5339 186.871 51.8369 187.05L53.2141 187.807L54.3572 188.482H54.4398C55.9409 189.391 57.442 190.382 58.9569 191.47L60.1 192.311C62.0005 193.688 63.9147 195.313 65.8015 197.034C88.0152 217.348 114.182 238.349 114.856 238.349C114.87 238.432 114.801 238.639 114.608 239.024Z" fill="#FED81D"/>
<path d="M56.0373 249.174C43.7942 244.037 32.4463 239.134 27.3921 236.532C24.1581 234.918 21.0425 233.077 18.0687 231.023C11.3618 226.313 6.66567 220.942 4.97175 214.497C3.27783 208.052 4.59992 200.353 10.1086 191.278C11.5532 188.955 13.4413 186.94 15.6648 185.347C17.8884 183.755 20.4039 182.616 23.0678 181.995C22.6546 189.102 20.217 196.18 16.1819 200.973C14.0537 203.456 12.9339 206.647 13.0435 209.916C13.1531 213.184 14.4843 216.293 16.7741 218.628C20.4236 222.595 26.6347 225.115 34.9115 224.013C38.3131 223.586 41.6596 225.156 44.6756 227.883C50.2532 232.951 54.6877 241.985 56.0373 249.174Z" fill="#FCC71F"/>
<path d="M30.835 181.128C41.3015 181.265 53.8751 186.306 65.7876 197.185C88.084 217.581 114.36 238.611 114.842 238.501" stroke="#FCC71F" stroke-width="0.977792" stroke-linecap="round" stroke-linejoin="round"/>
<path d="M103.55 238.831C100.162 245.497 93.8408 257.423 93.8408 257.423" stroke="#FCC71F" stroke-width="0.977792" stroke-linecap="round" stroke-linejoin="round"/>
<path d="M135.968 250.234C139.37 253.251 138.984 258.842 138.984 258.842C138.984 258.842 146.283 262.574 147.027 264.681C147.771 266.788 143.97 270.796 141.518 270.589C141.518 270.589 138.585 273.853 135.941 273.646C135.941 273.646 134.977 277.971 131.382 278.177C131.382 278.177 130.969 281.868 125.874 280.808" stroke="#914839" stroke-width="0.977792" stroke-linecap="round" stroke-linejoin="round"/>
<path d="M139.356 259.048L132.567 255.812" stroke="#914839" stroke-width="0.977792" stroke-linecap="round" stroke-linejoin="round"/>
<path d="M141.546 270.589C139.303 269.673 137.11 268.639 134.977 267.49" stroke="#914839" stroke-width="0.977792" stroke-linecap="round" stroke-linejoin="round"/>
<path d="M135.969 273.646C134.598 273.083 133.295 272.367 132.085 271.512" stroke="#914839" stroke-width="0.977792" stroke-linecap="round" stroke-linejoin="round"/>
</svg>
