<svg width="455" height="396" viewBox="0 0 455 396" fill="none" xmlns="http://www.w3.org/2000/svg">
<path d="M433.238 67.3301V315.874H31.4535V67.3301C31.4505 64.0371 32.1835 60.776 33.6107 57.7332C35.0379 54.6904 37.1313 51.9256 39.771 49.5972C42.4108 47.2687 45.545 45.4222 48.9946 44.1633C52.4441 42.9043 56.1412 42.2577 59.8744 42.2604H404.817C412.355 42.2604 419.583 44.9016 424.913 49.6031C430.243 54.3046 433.238 60.6812 433.238 67.3301Z" stroke="#DDDDDD" stroke-width="2.98818" stroke-linecap="round" stroke-linejoin="round"/>
<path d="M433.238 67.3301V68.4475H31.4535V67.3301C31.4505 64.0371 32.1835 60.776 33.6107 57.7332C35.0379 54.6904 37.1313 51.9256 39.771 49.5972C42.4108 47.2687 45.545 45.4222 48.9946 44.1633C52.4441 42.9043 56.1412 42.2577 59.8744 42.2604H404.817C412.355 42.2604 419.583 44.9016 424.913 49.6031C430.243 54.3046 433.238 60.6812 433.238 67.3301Z" stroke="#DDDDDD" stroke-width="2.98818" stroke-linecap="round" stroke-linejoin="round"/>
<path d="M378.86 55.3639C378.86 56.268 378.556 57.1517 377.986 57.9035C377.417 58.6552 376.608 59.241 375.661 59.587C374.714 59.933 373.672 60.0235 372.667 59.8471C371.662 59.6708 370.738 59.2354 370.013 58.5961C369.289 57.9569 368.795 57.1424 368.595 56.2557C368.395 55.369 368.498 54.4499 368.89 53.6146C369.282 52.7794 369.947 52.0655 370.799 51.5632C371.651 51.0609 372.653 50.7928 373.678 50.7928C375.052 50.7928 376.37 51.2744 377.342 52.1317C378.314 52.9889 378.86 54.1516 378.86 55.3639Z" fill="#DDDDDD"/>
<path d="M395.72 55.3639C395.72 56.268 395.416 57.1517 394.847 57.9035C394.277 58.6552 393.468 59.241 392.521 59.587C391.574 59.933 390.532 60.0235 389.527 59.8471C388.522 59.6708 387.598 59.2354 386.874 58.5961C386.149 57.9569 385.655 57.1424 385.455 56.2557C385.256 55.369 385.358 54.4499 385.75 53.6146C386.143 52.7794 386.807 52.0655 387.659 51.5632C388.511 51.0609 389.513 50.7928 390.538 50.7928C391.912 50.7928 393.23 51.2744 394.202 52.1317C395.174 52.9889 395.72 54.1516 395.72 55.3639Z" fill="#DDDDDD"/>
<path d="M412.579 55.3639C412.579 56.268 412.275 57.1517 411.705 57.9035C411.136 58.6552 410.326 59.241 409.38 59.587C408.433 59.933 407.391 60.0235 406.386 59.8471C405.38 59.6708 404.457 59.2354 403.732 58.5961C403.007 57.9569 402.514 57.1424 402.314 56.2557C402.114 55.369 402.217 54.4499 402.609 53.6146C403.001 52.7794 403.665 52.0655 404.517 51.5632C405.37 51.0609 406.372 50.7928 407.396 50.7928C408.771 50.7928 410.089 51.2744 411.061 52.1317C412.033 52.9889 412.579 54.1516 412.579 55.3639Z" fill="#DDDDDD"/>
<path d="M40.0217 175.39C38.9853 164.988 91.0134 145.302 99.5581 160.498L82.653 175.39C82.653 175.39 47.4839 187.64 40.0217 175.39Z" fill="#83ADDF"/>
<path d="M65.5177 101.075C57.9173 80.3527 57.3876 77.8133 62.4315 76.2083C67.4754 74.6034 80.3269 98.2103 81.7779 101.075C86.8593 110.142 90.776 119.682 93.4549 129.517C95.758 138.7 98.637 159.869 99.1206 164.968C101.101 186.483 60.8884 193.004 59.138 176.284C57.3876 159.564 57.2033 154.14 57.2033 154.14C57.2033 154.14 36.475 155.887 33.55 142.194C31.7238 131.486 31.0222 120.653 31.4541 109.831C31.4541 109.831 -0.0989756 105.219 1.02957 97.8853C2.15811 90.5513 63.8825 105.382 63.8825 105.382L65.5177 101.075Z" fill="#B25E47"/>
<path d="M31.4541 109.831C31.4541 109.831 -0.0989756 105.219 1.02957 97.8853C2.15811 90.5513 63.8825 105.382 63.8825 105.382L65.5177 101.075C57.9173 80.3527 57.3876 77.8133 62.4315 76.2083C67.4754 74.6034 80.3269 98.2103 81.7779 101.075" stroke="#914839" stroke-width="1.11146" stroke-linecap="round" stroke-linejoin="round"/>
<path d="M63.8364 105.382C61.1649 114.537 61.6216 124.185 65.1492 133.113" stroke="#914839" stroke-width="1.11146" stroke-linecap="round" stroke-linejoin="round"/>
<path d="M49.05 89.515C54.0018 91.7903 57.8941 92.2779 59.3681 86.0613C60.8422 79.8446 54.0018 79.6415 51.6986 79.9665C48.1748 80.4744 46.9311 88.5195 49.05 89.515Z" fill="#683F1D"/>
<path d="M50.0404 87.8901C48.9349 91.2219 48.1288 95.3867 48.1518 95.2648C48.981 95.6305 53.7255 97.0729 54.4625 95.6305C55.2042 93.0887 55.7277 90.5013 56.0286 87.8901H50.0404Z" fill="#683F1D"/>
<path d="M45.5726 97.3369C42.97 107.495 29.6118 163.485 29.1742 165.314C28.7366 167.142 29.3124 175.593 30.1415 175.918C30.9706 176.244 35.5769 170.189 37.3043 167.122C39.0316 164.054 54.0021 102.68 54.9464 99.8154C57.2495 92.8471 47.2769 90.6733 45.5726 97.3369Z" fill="#683F1D"/>
<path d="M33.8034 129.09C27.3316 130.411 25.489 135.855 30.2796 139.472C35.4156 143.352 48.0599 141.503 48.7048 136.648C49.3496 131.792 39.1928 127.993 33.8034 129.09Z" fill="#B25E47" stroke="#914839" stroke-width="1.11146" stroke-linecap="round" stroke-linejoin="round"/>
<path d="M33.2729 120.151C26.6399 119.298 25.0046 125.088 29.7491 129.659C34.4936 134.23 50.132 135.165 51.0072 129.822C51.8824 124.479 37.3034 120.68 33.2729 120.151Z" fill="#B25E47" stroke="#914839" stroke-width="1.11146" stroke-linecap="round" stroke-linejoin="round"/>
<path d="M27.3542 110.156C35.6916 108.409 53.7482 119.217 53.0343 122.569C52.1591 126.774 43.6605 127.424 31.5689 122.894C20.2374 118.668 23.2546 111.009 27.3542 110.156Z" fill="#B25E47" stroke="#914839" stroke-width="1.11146" stroke-linecap="round" stroke-linejoin="round"/>
<mask id="mask0_109_2169" style="mask-type:alpha" maskUnits="userSpaceOnUse" x="29" y="65" width="404" height="252">
<rect x="29.4464" y="65.5624" width="403.227" height="250.873" fill="#C4C4C4"/>
</mask>
<g mask="url(#mask0_109_2169)">
<path d="M428.931 191.277C403.043 190.159 381.601 210.78 374.968 234.448C374.761 235.098 374.599 235.829 374.438 236.601C373.725 240.246 373.233 243.922 372.964 247.613C370.2 278.858 372.803 341.065 372.964 342.447C373.079 342.955 354.539 342.447 329.089 341.39C319.692 341.004 309.305 340.578 298.526 340.09C243.619 337.713 178.417 334.503 178.417 334.503L174.479 295.68C174.479 295.68 166.257 307.869 138.181 331.862C110.106 355.855 65.1713 342.447 70.0079 312.359C73.0251 293.465 85.6924 279.63 101.008 256.511C105.615 249.339 110.728 241.294 115.772 231.929C122.474 219.475 129.015 207.55 135.256 196.843C137.997 192.11 140.692 187.62 143.294 183.374C153.152 167.345 161.996 155.196 169.112 149.528C190.509 132.462 236.318 142.295 248.525 145.749C266.743 150.972 285.644 154.113 304.768 155.094C331.853 156.76 372.964 167.06 394.752 173.744C407.345 177.465 418.938 183.425 428.815 191.256L428.931 191.277Z" fill="#A7CAF0"/>
<path d="M447.148 226.748C423.449 205.762 387.451 196.599 351.337 225.001C309.328 258.014 277.084 263.743 229.823 215.534C195.645 180.672 183.76 171.773 143.386 183.374C153.244 167.345 162.088 155.196 169.205 149.528C190.601 132.462 236.41 142.295 248.617 145.749C266.835 150.972 285.736 154.113 304.86 155.094C331.945 156.76 373.056 167.06 394.844 173.744C407.437 177.465 419.03 183.425 428.907 191.256V191.256C438.235 197.839 443.763 211.024 447.148 226.748Z" fill="#A7CAF0"/>
<path d="M134.612 286.74C119.572 301.185 105.938 269.838 101.055 256.511C105.661 249.339 110.774 241.294 115.818 231.928C122.52 219.475 129.061 207.549 135.303 196.843C146.427 211.856 131.388 225.61 130.328 232.416C127.702 250.578 156.308 265.998 134.612 286.74Z" fill="#83ADDF"/>
<path d="M40.0215 175.39C63.3293 179.717 99.5579 160.498 99.5579 160.498C99.5579 160.498 119.526 239.1 124.731 256.531C129.936 273.962 163.286 342.244 98.3141 345.047C56.6272 346.835 53.8173 276.928 51.376 253.91C48.9347 230.893 40.0215 175.39 40.0215 175.39Z" fill="#A7CAF0"/>
<path d="M55.4754 184.37C73.4169 185.487 93.4083 174.841 93.4083 174.841" stroke="#83ADDF" stroke-width="1.11146" stroke-linecap="round" stroke-linejoin="round"/>
<path d="M99.5582 160.498C99.5582 160.498 119.527 239.1 124.732 256.531C127.588 266.039 138.804 290.682 137.86 311.567" stroke="#83ADDF" stroke-width="1.11146" stroke-linecap="round" stroke-linejoin="round"/>
<path d="M229.824 158.589C241.339 177.625 272.294 195.909 309.513 170.656C309.513 170.656 313.52 160.173 313.106 160.173C312.691 160.173 235.098 151.884 235.098 151.884L229.824 158.589Z" fill="white"/>
<path d="M260.456 134.982C250.874 133.072 236.963 135.205 227.382 148.187C217.801 161.169 216.581 171.896 217.133 171.774C217.686 171.652 232.127 163.647 238.737 164.155C245.867 165.224 252.913 166.69 259.834 168.544L260.456 134.982Z" fill="#FED81D"/>
<path d="M303.663 138.781C303.663 138.781 324.852 138.903 327.708 152.006C330.564 165.11 322.71 180.814 313.106 188.087C303.502 195.36 308.799 177.604 274.367 169.275L303.663 138.781Z" fill="#FED81D"/>
<path d="M314.004 154.099C314.004 154.099 302.235 169.884 276.002 170.25C249.769 170.615 244.725 156.801 244.725 156.801C247.558 150.543 250.989 137.196 253.177 127.83C254.559 121.918 255.481 117.672 255.481 117.672C255.481 117.672 259.811 80.6165 304.86 82.8512L305.62 88.9459L314.004 154.099Z" fill="#B25E47"/>
<path d="M253.177 128.115C254.559 122.203 255.48 117.957 255.48 117.957L281.115 107.352C281.115 107.352 285.168 133.174 253.177 128.115Z" fill="#914839"/>
<path d="M174.548 295.68C170.932 259.111 170.932 229.613 170.932 229.613" stroke="#83ADDF" stroke-width="1.11146" stroke-linecap="round" stroke-linejoin="round"/>
</g>
<path d="M345.697 384.44C343.5 383.73 341.405 382.796 339.455 381.656C326.327 374.018 325.199 359.126 329.183 341.39C332.269 327.799 338.396 312.542 344.315 297.59C351.086 280.545 357.719 263.906 359.585 250.599C359.861 248.73 360.022 246.942 360.091 245.236C360.432 235.015 362.553 224.902 366.379 215.25C377.204 188.372 400.926 171.449 428.91 191.257C438.122 197.819 443.742 211.004 447.127 226.728C448.348 232.335 449.292 238.267 450.075 244.321C452.655 264.901 453 286.985 454.152 303.501C459.795 383.343 438.122 415.198 345.697 384.44Z" fill="#A7CAF0"/>
<path d="M447.15 226.748C426.767 208.688 397.218 199.383 366.379 215.25C377.203 188.372 400.926 171.449 428.909 191.257C438.237 197.839 443.764 211.024 447.15 226.748Z" fill="#A7CAF0"/>
<path d="M373.058 342.447C373.173 342.955 354.633 342.447 329.183 341.391C319.786 341.005 309.399 340.578 298.62 340.09C280.195 332.756 268.679 322.152 278.514 306.955C305.276 265.653 354.517 322.883 357.005 281.926C358.732 253.87 366.448 247.796 372.966 247.613C370.202 278.859 372.804 341.025 373.058 342.447Z" fill="#83ADDF"/>
<path d="M379.346 222.259C375.686 230.352 373.532 238.914 372.966 247.613C370.502 278.879 372.805 341.066 372.966 342.447" stroke="#83ADDF" stroke-width="1.11146" stroke-linecap="round" stroke-linejoin="round"/>
<path d="M345.696 384.44C343.5 383.73 341.405 382.796 339.455 381.656C360.621 385.72 392.266 389.275 406.246 378.772C428.241 362.255 414.261 341.086 426.422 329.424C438.582 317.763 456.109 314.005 450.098 244.403C452.677 264.983 453.023 287.066 454.174 303.583C459.794 383.343 438.122 415.198 345.696 384.44Z" fill="#83ADDF"/>
<path d="M292.722 244.362C296.085 231.015 277.107 231.624 277.107 231.624C278.788 219.313 260.317 215.92 256.056 227.907C241.062 223.844 236.318 227.907 234.13 234.875L292.722 244.362Z" fill="#DDDDDD"/>
<path d="M267.134 232.904C269.614 232.904 271.625 231.131 271.625 228.943C271.625 226.755 269.614 224.981 267.134 224.981C264.654 224.981 262.643 226.755 262.643 228.943C262.643 231.131 264.654 232.904 267.134 232.904Z" fill="#F9F9F9" stroke="#DDDDDD" stroke-width="1.49409" stroke-linecap="round" stroke-linejoin="round"/>
<path d="M205.617 225.001L177.61 358.964L288.829 378.772L318.701 244.627L205.617 225.001Z" fill="#F9F9F9" stroke="#DDDDDD" stroke-width="1.49409" stroke-linecap="round" stroke-linejoin="round"/>
<path d="M239.887 313.761C234.198 326.804 233.875 340.497 236.478 345.088C236.478 345.088 247.096 346.815 257.69 321.44L239.887 313.761Z" fill="#83ADDF"/>
<path d="M254.374 288.61C228.924 280.911 216.764 276.238 212.18 275.141C207.597 274.044 191.038 272.825 188.389 275.141C187.22 276.25 186.421 277.622 186.08 279.106C185.739 280.59 185.868 282.128 186.454 283.552C187.329 286.66 184.52 288.915 184.151 292.064C183.783 295.213 188.043 296.127 187.145 299.256C186.247 302.384 183.46 305.777 185.395 309.21C187.329 312.644 183.46 316.199 187.145 320.404C190.83 324.61 228.349 326.621 236.571 325.077L252.693 331.436C252.693 331.436 281.137 305.574 254.374 288.61Z" fill="#B25E47"/>
<path d="M212.088 275.08C207.482 274.003 190.945 272.764 188.296 275.08C187.128 276.189 186.329 277.561 185.988 279.045C185.646 280.529 185.776 282.068 186.362 283.491C187.237 286.599 184.427 288.854 184.059 292.003C183.69 295.152 187.951 296.066 187.053 299.195C186.155 302.324 183.368 305.716 185.302 309.15C187.237 312.583 183.368 316.138 187.053 320.344" stroke="#914839" stroke-width="1.11146" stroke-linecap="round" stroke-linejoin="round"/>
<path d="M406.382 378.772C399.772 389.316 383.19 394.415 351.752 386.025C343.253 383.77 335.054 381.413 327.223 379.036C314.233 375.115 302.257 371.092 291.524 367.253C272.806 360.686 254.48 353.281 236.617 345.068C241.327 340.451 245.126 335.17 247.857 329.445C249.573 326.047 250.982 322.535 252.071 318.942C255.007 309.002 255.789 298.663 254.374 288.468C258.658 289.606 263.265 290.757 268.193 291.922C279.916 294.746 293.044 297.691 306.357 300.779C346.247 310.043 387.727 320.669 397.838 333.874C398.759 335.073 399.634 336.312 400.463 337.571C400.786 338.059 401.131 338.567 401.43 339.075C401.524 339.206 401.608 339.341 401.684 339.481C402.052 340.07 402.421 340.7 402.766 341.309C403.396 342.379 403.972 343.456 404.494 344.54C410.275 356.628 411.956 369.711 406.382 378.772Z" fill="#A7CAF0"/>
<path d="M254.375 288.61C300.046 300.8 382.867 314.594 397.746 334.016C400.317 337.391 402.544 340.961 404.402 344.682" stroke="#83ADDF" stroke-width="1.11146" stroke-linecap="round" stroke-linejoin="round"/>
<path d="M268.009 292.003C270.842 317.256 256.056 341.492 256.056 341.492" stroke="#83ADDF" stroke-width="1.11146" stroke-linecap="round" stroke-linejoin="round"/>
<path d="M406.244 378.772C399.634 389.316 383.051 394.415 351.613 386.024C343.114 383.769 334.915 381.413 327.085 379.036C345.487 383.322 389.108 391.652 406.244 378.772Z" fill="#83ADDF"/>
<path d="M304.86 83.0748L305.643 89.1695C289.682 111.09 267.895 117.957 255.481 117.957C234.983 113.447 227.981 97.174 226.784 79.7227C226.476 75.5424 226.46 71.3494 226.737 67.1675C227.702 55.3243 230.017 43.5971 233.647 32.1633C233.647 32.1633 295.21 6.89047 299.471 57.6191C299.471 57.6191 312.668 55.5875 315.132 68.4474C317.044 79.1335 304.86 83.0748 304.86 83.0748Z" fill="#B25E47"/>
<path d="M236.619 67.2289C237.98 67.2289 239.083 66.2557 239.083 65.0551C239.083 63.8546 237.98 62.8813 236.619 62.8813C235.258 62.8813 234.154 63.8546 234.154 65.0551C234.154 66.2557 235.258 67.2289 236.619 67.2289Z" fill="#683F1D"/>
<path d="M253.754 64.4657C255.115 64.4657 256.218 63.4925 256.218 62.292C256.218 61.0914 255.115 60.1182 253.754 60.1182C252.393 60.1182 251.29 61.0914 251.29 62.292C251.29 63.4925 252.393 64.4657 253.754 64.4657Z" fill="#683F1D"/>
<path d="M250 50.6309C250.277 53.5767 261.746 54.694 262.391 53.0484C263.381 50.509 249.401 43.6829 250 50.6309Z" fill="#683F1D"/>
<path d="M228.144 54.9781C228.144 56.583 240.627 57.3347 240.166 51.6463C239.867 47.6034 228.42 50.5898 228.144 54.9781Z" fill="#683F1D"/>
<path d="M296.133 73.6482C301.269 66.944 309.399 67.6754 310.251 68.9553" stroke="#914839" stroke-width="1.11146" stroke-linecap="round" stroke-linejoin="round"/>
<path d="M298.32 71.3527C305.897 67.4318 310.02 76.2285 300.438 76.2285" stroke="#914839" stroke-width="1.11146" stroke-linecap="round" stroke-linejoin="round"/>
<path d="M243.251 58.7572C245.324 62.3125 245.163 64.4456 243.781 66.7413C242.399 69.037 238.231 74.2175 240.419 78.8089" stroke="#914839" stroke-width="1.11146" stroke-linecap="round" stroke-linejoin="round"/>
<path d="M256.679 79.6012C254.859 85.1068 247.466 88.5605 243.896 87.8494C243.896 87.8494 247.466 96.4024 253.754 94.2083C260.986 91.7094 256.679 79.6012 256.679 79.6012Z" fill="white" stroke="#914839" stroke-width="1.11146" stroke-linecap="round" stroke-linejoin="round"/>
<path d="M295.003 81.4904C296.426 82.3535 298.041 82.9409 299.74 83.214C301.439 83.4872 303.184 83.4398 304.861 83.075" stroke="#914839" stroke-width="1.11146" stroke-linecap="round" stroke-linejoin="round"/>
<path d="M317.367 52.3778C324.461 60.9511 313.82 64.5673 313.82 64.5673C312.733 63.1937 311.308 62.0548 309.651 61.2355C308.605 60.6929 307.434 60.3629 306.224 60.2693C305.014 60.1757 303.796 60.3209 302.658 60.6945C301.52 61.068 300.491 61.6604 299.645 62.4287C298.799 63.197 298.157 64.1219 297.767 65.1361C283.28 65.4003 289.522 55.4252 289.522 55.4252C276.532 59.9962 276.118 48.274 281.714 42.9716C271.58 53.0076 258.683 42.9716 260.802 33.931C257.209 43.8045 244.426 44.089 246.131 35.9626C245.032 37.6513 243.702 39.2139 242.169 40.615C233.371 48.3959 225.517 40.0664 228.811 33.9107C215.637 44.9829 209.925 32.5902 222.5 25.9266C212.551 18.7348 224.297 8.49566 232.335 13.7371C230.515 0.99912 245.394 0.430276 251.935 7.86586C254.514 -6.13173 274.367 1.50701 275.173 8.15028C289.798 -0.869937 301.13 5.79365 299.656 20.4414C305.575 13.473 318.242 17.5565 313.475 35.4344C325.52 34.6624 327.616 48.0099 317.367 52.3778Z" fill="#683F1D"/>
<path d="M309.651 61.2357C308.604 60.6931 307.434 60.3631 306.224 60.2695C305.014 60.1759 303.796 60.3211 302.658 60.6947C301.52 61.0682 300.491 61.6606 299.645 62.4289C298.799 63.1972 298.157 64.1221 297.767 65.1364C283.28 65.4005 289.522 55.4254 289.522 55.4254C276.532 59.9965 276.118 48.2742 281.714 42.9718C271.58 53.0078 258.683 42.9718 260.802 33.9313C257.209 43.8047 244.426 44.0892 246.131 35.9628C245.032 37.6515 243.702 39.2141 242.169 40.6152C238.622 31.1277 246.568 18.6131 258.706 24.3625C260.295 16.7441 280.148 11.8073 280.033 31.1074C287.38 22.0465 304.009 25.1548 296.155 42.403C302.327 38.096 316.561 45.1659 309.651 61.2357Z" fill="#683F1D"/>
<path d="M283.004 64.5876C284.754 67.6756 281.461 72.267 275.634 74.8471C269.807 77.4272 263.658 76.8787 261.815 73.8923C259.973 70.9059 263.358 66.2129 269.185 63.6328C275.012 61.0527 281.231 61.4996 283.004 64.5876Z" fill="#914839"/>
<path d="M234.431 76.3504C233.532 78.5445 230.492 79.7228 226.738 79.6618C226.448 75.501 226.448 71.3284 226.738 67.1676C232.312 69.3211 235.72 73.2623 234.431 76.3504Z" fill="#914839"/>
</svg>
