<?xml version="1.0" encoding="utf-8"?>
<svg id="master-artboard" viewBox="0 0 1400 980" version="1.1" xmlns="http://www.w3.org/2000/svg" x="0px" y="0px" style="enable-background:new 0 0 336 235.2;" width="1400px" height="980px"><defs><g/><clipPath id="6ece0df76c"><path d="M 85 164 L 116.75 164 L 116.75 187 L 85 187 Z M 85 164 " clip-rule="nonzero"/></clipPath><clipPath id="792de5a00f"><path d="M 54 142.089844 L 77 142.089844 L 77 176 L 54 176 Z M 54 142.089844 " clip-rule="nonzero"/></clipPath></defs><rect id="ee-background" x="0" y="0" width="1400" height="980" style="fill: white; fill-opacity: 0; pointer-events: none;"/>














<g transform="matrix(2.613333225250244, 0, 0, 2.613333225250244, 224.8207375896577, -47.42632670695889)"><path fill="#274753" d="M 98.128906 196.976562 C 96.800781 192.828125 99.085938 188.386719 103.230469 187.058594 C 107.378906 185.730469 111.816406 188.015625 113.144531 192.164062 C 114.472656 196.3125 112.191406 200.75 108.042969 202.078125 C 103.894531 203.40625 99.457031 201.121094 98.128906 196.976562 " fill-opacity="1" fill-rule="nonzero" style="stroke: rgb(247, 255, 245); stroke-width: 1;"/><g clip-path="url(#6ece0df76c)"><path fill="#274753" d="M 109.507812 176.367188 C 107.101562 178.457031 104.300781 180.027344 101.289062 180.996094 C 98.273438 181.957031 95.082031 182.308594 91.910156 182.003906 L 97.890625 170.390625 Z M 102.679688 185.339844 C 108.242188 183.550781 113.203125 180.039062 116.746094 175.175781 L 96.003906 164.496094 L 85.324219 185.242188 C 91.035156 187.140625 97.113281 187.117188 102.679688 185.339844 " fill-opacity="1" fill-rule="nonzero" style="stroke: rgb(247, 255, 245); stroke-width: 1;"/></g><path fill="#339e90" d="M 72.796875 217.5 C 76.332031 214.957031 81.261719 215.757812 83.804688 219.289062 C 86.351562 222.824219 85.546875 227.75 82.015625 230.296875 C 78.480469 232.84375 73.554688 232.039062 71.007812 228.507812 C 68.464844 224.972656 69.265625 220.046875 72.796875 217.5 " fill-opacity="1" fill-rule="nonzero" style="stroke: rgb(247, 255, 245); stroke-width: 1;"/><path fill="#339e90" d="M 95.914062 221.953125 C 93.183594 220.3125 90.824219 218.132812 88.972656 215.570312 C 87.125 213 85.808594 210.074219 85.113281 206.960938 L 98.007812 209.058594 Z M 85.273438 218.234375 C 88.691406 222.972656 93.566406 226.605469 99.285156 228.472656 L 103.027344 205.445312 L 80 201.699219 C 79.957031 207.714844 81.859375 213.488281 85.273438 218.234375 " fill-opacity="1" fill-rule="nonzero" style="stroke: rgb(247, 255, 245); stroke-width: 1;"/><path fill="#e8c167" d="M 45.449219 199.753906 C 48.964844 202.328125 49.722656 207.261719 47.148438 210.773438 C 44.574219 214.285156 39.640625 215.046875 36.128906 212.472656 C 32.617188 209.898438 31.855469 204.964844 34.429688 201.453125 C 37.003906 197.941406 41.9375 197.179688 45.449219 199.753906 " fill-opacity="1" fill-rule="nonzero" style="stroke: rgb(247, 255, 245); stroke-width: 1;"/><path fill="#e8c167" d="M 48.355469 223.113281 C 49.074219 220.007812 50.417969 217.09375 52.285156 214.539062 C 54.15625 211.988281 56.535156 209.828125 59.277344 208.210938 L 61.269531 221.121094 Z M 48.605469 211.84375 C 45.15625 216.558594 43.207031 222.316406 43.199219 228.332031 L 66.257812 224.78125 L 62.703125 201.71875 C 56.96875 203.539062 52.066406 207.132812 48.605469 211.84375 " fill-opacity="1" fill-rule="nonzero" style="stroke: rgb(247, 255, 245); stroke-width: 1;"/><path fill="#f29e5d" d="M 53.878906 168.261719 C 52.515625 172.398438 48.058594 174.644531 43.921875 173.28125 C 39.785156 171.917969 37.535156 167.460938 38.898438 163.324219 C 40.261719 159.1875 44.71875 156.941406 48.855469 158.304688 C 52.992188 159.667969 55.242188 164.125 53.878906 168.261719 " fill-opacity="1" fill-rule="nonzero" style="stroke: rgb(247, 255, 245); stroke-width: 1;"/><path fill="#f29e5d" d="M 32.558594 178.242188 C 35.734375 177.96875 38.921875 178.34375 41.929688 179.328125 C 44.929688 180.324219 47.71875 181.917969 50.105469 184.023438 L 38.441406 189.90625 Z M 43.355469 174.996094 C 37.804688 173.171875 31.726562 173.101562 26 174.949219 L 36.507812 195.78125 L 57.339844 185.277344 C 53.835938 180.386719 48.902344 176.832031 43.355469 174.996094 " fill-opacity="1" fill-rule="nonzero" style="stroke: rgb(247, 255, 245); stroke-width: 1;"/><path fill="#e56a4c" d="M 86.433594 166.542969 C 82.078125 166.523438 78.5625 162.980469 78.582031 158.625 C 78.597656 154.269531 82.144531 150.753906 86.5 150.773438 C 90.851562 150.789062 94.367188 154.335938 94.351562 158.691406 C 94.332031 163.046875 90.789062 166.5625 86.433594 166.542969 " fill-opacity="1" fill-rule="nonzero" style="stroke: rgb(247, 255, 245); stroke-width: 1;"/><g clip-path="url(#792de5a00f)"><path fill="#e56a4c" d="M 70.351562 149.351562 C 71.59375 152.285156 72.222656 155.4375 72.214844 158.597656 C 72.199219 161.761719 71.542969 164.90625 70.273438 167.828125 L 61.078125 158.550781 Z M 76.773438 158.617188 C 76.792969 152.773438 74.984375 146.96875 71.457031 142.097656 L 54.890625 158.527344 L 71.320312 175.09375 C 74.890625 170.25 76.746094 164.460938 76.773438 158.617188 " fill-opacity="1" fill-rule="nonzero" style="stroke: rgb(247, 255, 245); stroke-width: 1;"/></g><g fill="#e56a4c" fill-opacity="1"><g transform="translate(120.544172, 201.374987)"><g><path d="M 27.4375 -3.9375 C 26.289062 -2.550781 24.660156 -1.476562 22.546875 -0.71875 C 20.429688 0.0390625 18.085938 0.421875 15.515625 0.421875 C 12.816406 0.421875 10.453125 -0.164062 8.421875 -1.34375 C 6.390625 -2.519531 4.820312 -4.226562 3.71875 -6.46875 C 2.613281 -8.707031 2.046875 -11.335938 2.015625 -14.359375 L 2.015625 -16.484375 C 2.015625 -19.597656 2.535156 -22.289062 3.578125 -24.5625 C 4.628906 -26.84375 6.144531 -28.582031 8.125 -29.78125 C 10.101562 -30.988281 12.421875 -31.59375 15.078125 -31.59375 C 18.765625 -31.59375 21.648438 -30.710938 23.734375 -28.953125 C 25.816406 -27.191406 27.050781 -24.628906 27.4375 -21.265625 L 21.1875 -21.265625 C 20.90625 -23.046875 20.273438 -24.347656 19.296875 -25.171875 C 18.316406 -26.003906 16.972656 -26.421875 15.265625 -26.421875 C 13.078125 -26.421875 11.410156 -25.597656 10.265625 -23.953125 C 9.128906 -22.316406 8.554688 -19.878906 8.546875 -16.640625 L 8.546875 -14.640625 C 8.546875 -11.367188 9.164062 -8.898438 10.40625 -7.234375 C 11.644531 -5.566406 13.460938 -4.734375 15.859375 -4.734375 C 18.273438 -4.734375 19.992188 -5.242188 21.015625 -6.265625 L 21.015625 -11.640625 L 15.171875 -11.640625 L 15.171875 -16.375 L 27.4375 -16.375 Z M 27.4375 -3.9375 " style="stroke: rgb(247, 255, 245); stroke-width: 0;"/></g></g></g><g fill="#e56a4c" fill-opacity="1"><g transform="translate(152.458229, 201.374987)"><g><path d="M 15.390625 -17.359375 C 14.546875 -17.472656 13.804688 -17.53125 13.171875 -17.53125 C 10.828125 -17.53125 9.289062 -16.738281 8.5625 -15.15625 L 8.5625 0 L 2.375 0 L 2.375 -23.15625 L 8.21875 -23.15625 L 8.390625 -20.40625 C 9.628906 -22.53125 11.347656 -23.59375 13.546875 -23.59375 C 14.234375 -23.59375 14.878906 -23.5 15.484375 -23.3125 Z M 15.390625 -17.359375 " style="stroke: rgb(247, 255, 245); stroke-width: 0;"/></g></g></g><g fill="#e56a4c" fill-opacity="1"><g transform="translate(170.504794, 201.374987)"><g><path d="M 1.40625 -11.796875 C 1.40625 -14.097656 1.847656 -16.144531 2.734375 -17.9375 C 3.617188 -19.738281 4.894531 -21.128906 6.5625 -22.109375 C 8.226562 -23.097656 10.160156 -23.59375 12.359375 -23.59375 C 15.484375 -23.59375 18.03125 -22.632812 20 -20.71875 C 21.976562 -18.8125 23.082031 -16.21875 23.3125 -12.9375 L 23.359375 -11.34375 C 23.359375 -7.789062 22.363281 -4.941406 20.375 -2.796875 C 18.394531 -0.648438 15.734375 0.421875 12.390625 0.421875 C 9.054688 0.421875 6.390625 -0.644531 4.390625 -2.78125 C 2.398438 -4.925781 1.40625 -7.835938 1.40625 -11.515625 Z M 7.59375 -11.34375 C 7.59375 -9.144531 8.003906 -7.460938 8.828125 -6.296875 C 9.660156 -5.140625 10.847656 -4.5625 12.390625 -4.5625 C 13.890625 -4.5625 15.0625 -5.132812 15.90625 -6.28125 C 16.75 -7.425781 17.171875 -9.265625 17.171875 -11.796875 C 17.171875 -13.953125 16.75 -15.617188 15.90625 -16.796875 C 15.0625 -17.984375 13.878906 -18.578125 12.359375 -18.578125 C 10.835938 -18.578125 9.660156 -17.988281 8.828125 -16.8125 C 8.003906 -15.632812 7.59375 -13.8125 7.59375 -11.34375 Z M 7.59375 -11.34375 " style="stroke: rgb(247, 255, 245); stroke-width: 0;"/></g></g></g><g fill="#e56a4c" fill-opacity="1"><g transform="translate(197.346944, 201.374987)"><g><path d="M 16.25 -2.359375 C 14.71875 -0.503906 12.601562 0.421875 9.90625 0.421875 C 7.425781 0.421875 5.53125 -0.289062 4.21875 -1.71875 C 2.914062 -3.144531 2.25 -5.234375 2.21875 -7.984375 L 2.21875 -23.15625 L 8.40625 -23.15625 L 8.40625 -8.203125 C 8.40625 -5.785156 9.503906 -4.578125 11.703125 -4.578125 C 13.804688 -4.578125 15.25 -5.304688 16.03125 -6.765625 L 16.03125 -23.15625 L 22.25 -23.15625 L 22.25 0 L 16.421875 0 Z M 16.25 -2.359375 " style="stroke: rgb(247, 255, 245); stroke-width: 0;"/></g></g></g><g fill="#e56a4c" fill-opacity="1"><g transform="translate(223.932288, 201.374987)"><g><path d="M 23.234375 -11.375 C 23.234375 -7.800781 22.421875 -4.941406 20.796875 -2.796875 C 19.179688 -0.648438 16.992188 0.421875 14.234375 0.421875 C 11.890625 0.421875 10 -0.390625 8.5625 -2.015625 L 8.5625 8.90625 L 2.375 8.90625 L 2.375 -23.15625 L 8.109375 -23.15625 L 8.328125 -20.890625 C 9.828125 -22.691406 11.78125 -23.59375 14.1875 -23.59375 C 17.039062 -23.59375 19.257812 -22.535156 20.84375 -20.421875 C 22.4375 -18.304688 23.234375 -15.394531 23.234375 -11.6875 Z M 17.046875 -11.8125 C 17.046875 -13.96875 16.660156 -15.628906 15.890625 -16.796875 C 15.128906 -17.972656 14.019531 -18.5625 12.5625 -18.5625 C 10.625 -18.5625 9.289062 -17.816406 8.5625 -16.328125 L 8.5625 -6.84375 C 9.320312 -5.320312 10.671875 -4.5625 12.609375 -4.5625 C 15.566406 -4.5625 17.046875 -6.976562 17.046875 -11.8125 Z M 17.046875 -11.8125 " style="stroke: rgb(247, 255, 245); stroke-width: 0;"/></g></g></g><g fill="#e56a4c" fill-opacity="1"><g transform="translate(250.667436, 201.374987)"><g><path d="M 28.15625 0 L 21.734375 0 L 21.734375 -13.359375 L 9.203125 -13.359375 L 9.203125 0 L 2.78125 0 L 2.78125 -31.171875 L 9.203125 -31.171875 L 9.203125 -18.546875 L 21.734375 -18.546875 L 21.734375 -31.171875 L 28.15625 -31.171875 Z M 28.15625 0 " style="stroke: rgb(247, 255, 245); stroke-width: 0;"/></g></g></g><g fill="#e56a4c" fill-opacity="1"><g transform="translate(283.694316, 201.374987)"><g><path d="M 8.90625 0 L 2.703125 0 L 2.703125 -23.15625 L 8.90625 -23.15625 Z M 2.328125 -29.15625 C 2.328125 -30.082031 2.640625 -30.84375 3.265625 -31.4375 C 3.890625 -32.039062 4.734375 -32.34375 5.796875 -32.34375 C 6.859375 -32.34375 7.703125 -32.039062 8.328125 -31.4375 C 8.953125 -30.84375 9.265625 -30.082031 9.265625 -29.15625 C 9.265625 -28.21875 8.945312 -27.445312 8.3125 -26.84375 C 7.675781 -26.25 6.835938 -25.953125 5.796875 -25.953125 C 4.753906 -25.953125 3.914062 -26.25 3.28125 -26.84375 C 2.644531 -27.445312 2.328125 -28.21875 2.328125 -29.15625 Z M 2.328125 -29.15625 " style="stroke: rgb(247, 255, 245); stroke-width: 0;"/></g></g></g><g fill="#e56a4c" fill-opacity="1"><g transform="translate(297.375189, 201.374987)"><g><path d="M 11.046875 -7.5625 L 15.34375 -23.15625 L 21.8125 -23.15625 L 14 0 L 8.09375 0 L 0.28125 -23.15625 L 6.75 -23.15625 Z M 11.046875 -7.5625 " style="stroke: rgb(247, 255, 245); stroke-width: 0;"/></g></g></g><g fill="#e56a4c" fill-opacity="1"><g transform="translate(321.585083, 201.374987)"><g><path d="M 13.03125 0.421875 C 9.632812 0.421875 6.867188 -0.617188 4.734375 -2.703125 C 2.609375 -4.785156 1.546875 -7.5625 1.546875 -11.03125 L 1.546875 -11.625 C 1.546875 -13.945312 1.992188 -16.023438 2.890625 -17.859375 C 3.785156 -19.691406 5.054688 -21.101562 6.703125 -22.09375 C 8.359375 -23.09375 10.242188 -23.59375 12.359375 -23.59375 C 15.523438 -23.59375 18.015625 -22.59375 19.828125 -20.59375 C 21.648438 -18.59375 22.5625 -15.757812 22.5625 -12.09375 L 22.5625 -9.5625 L 7.8125 -9.5625 C 8.007812 -8.050781 8.609375 -6.835938 9.609375 -5.921875 C 10.617188 -5.015625 11.894531 -4.5625 13.4375 -4.5625 C 15.820312 -4.5625 17.6875 -5.425781 19.03125 -7.15625 L 22.078125 -3.75 C 21.148438 -2.4375 19.890625 -1.410156 18.296875 -0.671875 C 16.710938 0.0546875 14.957031 0.421875 13.03125 0.421875 Z M 12.328125 -18.578125 C 11.097656 -18.578125 10.101562 -18.160156 9.34375 -17.328125 C 8.582031 -16.503906 8.09375 -15.320312 7.875 -13.78125 L 16.484375 -13.78125 L 16.484375 -14.28125 C 16.453125 -15.644531 16.078125 -16.703125 15.359375 -17.453125 C 14.648438 -18.203125 13.640625 -18.578125 12.328125 -18.578125 Z M 12.328125 -18.578125 " style="stroke: rgb(247, 255, 245); stroke-width: 0;"/></g></g></g><path style="fill: rgb(51, 158, 144); fill-opacity: 1; stroke: rgb(0, 0, 0); stroke-opacity: 1; stroke-width: 0; paint-order: fill;" d="M 103.69979095458984 94.05007934570312"/></g></svg>